<?xml version="1.0" encoding="utf-8"?>
<!-- Generator: Adobe Illustrator 25.2.3, SVG Export Plug-In . SVG Version: 6.00 Build 0)  -->
<svg version="1.1" xmlns="http://www.w3.org/2000/svg" xmlns:xlink="http://www.w3.org/1999/xlink" x="0px" y="0px"
	 viewBox="0 0 1190.6 841.9" enable-background="new 0 0 1190.6 841.9" xml:space="preserve">
<g id="Circle">
	<path fill="#B0252C" d="M922.6,430.6l40.8,1.3l-0.2,6.5c-0.1,2.2-0.3,4.3-0.5,6.5l-1,13c-1.2,8.6-1.9,17.2-3.7,25.8
		c-2.8,17.1-7.2,34-12.5,50.5l-38.9-12.6c1.1-3,2-6.1,2.8-9.3l2.7-9.3c1.5-6.3,3-12.6,4.3-18.9l23.3,4.6c-1.3,6.7-3,13.4-4.5,20
		l-6.4-1.7l3.1-13.2l-10.2-2.2c-1,4.3-2,8.7-3,13l-3.7,12.9l26.4,8c8.5-28.2,13.6-57.5,15.2-86.9l-27.5-1.4
		c-0.7,8.9-1.2,17.8-2.5,26.6l10.4,1.4c0.5-4.5,1.3-9,1.5-13.5l6.6,0.6c-0.2,3.4-0.7,6.8-1.1,10.2l-1.3,10.2l-23.5-3.5
		C921,456.4,922.4,443.5,922.6,430.6z M896.3,549.5l-4,8.8l-2,4.4l-2.2,4.3l21.2,10.7l2.3-4.6l2.1-4.7l4.2-9.4l-6.1-2.6l-5.6,12.4
		l-9.4-4.5l5.5-12.2c1.8-4.1,3.3-8.3,5-12.4l25.7,9.9c-10.6,27.5-24.3,53.8-41.4,77.9l-22.6-15.8c2.7-3.6,5-7.4,7.4-11.1
		c2.4-3.8,4.9-7.5,7-11.4l9,5.3c-2.2,4-4.6,7.8-7.1,11.6l5.6,3.6c1.8-2.9,3.8-5.7,5.5-8.7l5.1-8.9L881,580.4l-4.8,8.4
		c-1.6,2.8-3.5,5.5-5.2,8.2c-1.8,2.7-3.4,5.5-5.3,8.1l-5.6,7.9l33,24l7.5-10.6l7-11c2.4-3.6,4.5-7.4,6.7-11.2
		c2.1-3.8,4.4-7.5,6.3-11.4c8.2-15.3,15-31.3,21.1-47.5l-38.4-13.9C901.2,537.6,898.8,543.6,896.3,549.5z M847.7,629.1l-6.3,7.3
		c-4.1,5-8.7,9.5-13.1,14.2l16.9,16.7c4.7-5,9.6-9.8,14-15.1l-5-4.4c-1.5,1.7-2.9,3.4-4.5,5.1l-4.7,4.9l-7.6-7.2l4.6-4.8
		c1.5-1.6,2.9-3.4,4.4-5c2.9-3.4,5.9-6.6,8.6-10.2l21.4,17.3c-18.4,23-40,43.4-63.3,61.3l-16.6-22l10.5-8.3l10.1-8.7l7,7.8
		l-10.3,8.9l4.2,5.1c5.2-4.5,10.5-8.8,15.4-13.5l-16.1-17.4c-2.3,2.3-4.8,4.3-7.2,6.4c-2.5,2.1-4.9,4.3-7.3,6.3l-7.6,6
		c-2.5,2-5.1,4-7.7,5.8l24,33c14-10.3,27.4-21.3,39.8-33.5c12.4-12.1,24.2-24.9,34.7-38.7l-32.2-25.1L847.7,629.1z M762.4,702.3
		c-5.6,3.2-11.1,6.6-16.9,9.4l10.9,21.1c6.2-3,12-6.6,18-10l-3.4-5.7l-11.8,6.8l-5-9.2l11.6-6.6c3.9-2.2,7.5-4.7,11.3-7.1l15.1,23.1
		c-24.7,16-51.3,29.3-79.2,38.8l-9-26c2.1-0.7,4.2-1.4,6.3-2.2l6.2-2.5c4.1-1.7,8.3-3.2,12.4-5.1l4.2,9.6c-4.1,2-8.3,3.5-12.5,5.2
		l2.4,6.2c3.2-1.3,6.4-2.5,9.5-3.8l9.4-4.2l-10-21.6l-8.8,4c-3,1.3-6,2.4-9,3.6c-6,2.5-12.1,4.5-18.2,6.5l12.6,38.9l12.3-4.2
		l12.1-4.7c4.1-1.5,8-3.3,12-5.1c3.9-1.8,8-3.5,11.8-5.5c15.6-7.6,30.5-16.5,45-26.1l-23-33.8C773.3,695.4,768,699,762.4,702.3z
		 M676.4,738.2l-9.4,2.2c-6.2,1.6-12.6,2.6-19,3.7l3.9,23.4c6.7-1.2,13.5-2.3,20.2-4l-1.5-6.5l-6.6,1.5l-6.7,1.2l-1.9-10.3l6.6-1.2
		l6.5-1.5c4.3-1.1,8.7-1.8,12.9-3.2l7.1,26.6c-28.4,7.8-57.9,11.6-87.3,12.3l-0.5-27.6c4.5-0.2,8.9-0.1,13.4-0.5l13.3-1l1,10.4
		l-13.5,1l0.4,6.6l10.2-0.8l5.1-0.4l5.1-0.6l-2.8-23.6l-4.8,0.6l-4.8,0.4l-9.7,0.7c-6.4,0.4-12.9,0.4-19.4,0.6l0,40.9
		c34.6-0.2,69.4-4.8,102.7-14.6l-11.3-39.3L676.4,738.2z M541.7,768.4l10.2,1.3c3.4,0.4,6.8,0.9,10.2,1.1l0.6-6.6
		c-4.5-0.2-9-1-13.5-1.5l1.4-10.4c8.8,1.3,17.7,1.8,26.6,2.5l-1.4,27.5c-29.4-1.6-58.6-6.7-86.9-15.2l8-26.4l12.9,3.7
		c4.3,1.1,8.7,2,13,3l-2.2,10.2l-13.2-3.1l-1.7,6.4c6.7,1.6,13.3,3.2,20,4.5l4.6-23.3c-6.3-1.3-12.6-2.8-18.9-4.3l-9.3-2.7
		c-3.1-0.9-6.2-1.7-9.3-2.8l-12.6,38.9c16.5,5.3,33.4,9.7,50.5,12.5c8.5,1.7,17.2,2.5,25.8,3.7l13,1c2.2,0.2,4.3,0.4,6.5,0.5
		l6.5,0.2l1.3-40.8c-12.9-0.3-25.7-1.7-38.5-3.4L541.7,768.4z M464.8,722l-8.8-4l-4.4-2l-4.3-2.2L436.6,735l4.6,2.3l4.7,2.1l9.4,4.2
		l2.6-6.1l-12.4-5.6l4.5-9.4l12.2,5.5c4.1,1.8,8.3,3.3,12.4,5l-9.9,25.7c-27.5-10.6-53.8-24.3-77.9-41.4l15.8-22.6
		c3.6,2.7,7.4,5,11.1,7.4c3.8,2.4,7.5,4.9,11.4,7l-5.3,9c-4-2.2-7.8-4.6-11.6-7.1l-3.6,5.6c2.9,1.8,5.7,3.8,8.7,5.5l8.9,5.1
		l11.6-20.7l-8.4-4.8c-2.8-1.6-5.5-3.5-8.2-5.2c-2.7-1.8-5.5-3.4-8.1-5.3l-7.9-5.6l-24,33l10.6,7.5l11,7c3.6,2.4,7.4,4.5,11.2,6.7
		c3.8,2.1,7.5,4.4,11.4,6.3c15.3,8.2,31.3,15,47.5,21.1l13.9-38.4C476.7,726.8,470.7,724.5,464.8,722z M385.2,673.4l-7.3-6.3
		c-5-4.1-9.5-8.7-14.2-13.1L347,670.8c5,4.7,9.8,9.6,15.1,14l4.4-5c-1.7-1.5-3.4-2.9-5.1-4.5l-4.9-4.7l7.2-7.6l4.8,4.6
		c1.6,1.5,3.4,2.9,5,4.4c3.4,2.9,6.6,5.9,10.2,8.6l-17.3,21.4c-23-18.4-43.4-40-61.3-63.3l22-16.6l8.3,10.5l8.7,10.1l-7.8,7
		l-8.9-10.3l-5.1,4.2c4.5,5.2,8.8,10.5,13.5,15.4l17.4-16.1c-2.3-2.3-4.3-4.8-6.4-7.2c-2.1-2.5-4.3-4.9-6.3-7.3l-6-7.6
		c-2-2.5-4-5.1-5.8-7.7l-33,24c10.3,14,21.3,27.4,33.5,39.8c12.1,12.4,24.9,24.2,38.7,34.7l25.1-32.2L385.2,673.4z M312.1,588.1
		c-3.2-5.6-6.6-11.1-9.4-16.9l-21.1,10.9c3,6.2,6.6,12,10,18l5.7-3.4l-6.8-11.8l9.2-5l6.6,11.6c2.2,3.9,4.7,7.5,7.1,11.3l-23.1,15.1
		c-16-24.7-29.3-51.3-38.8-79.2l26-9c0.7,2.1,1.4,4.2,2.2,6.3l2.5,6.2c1.7,4.1,3.2,8.3,5.1,12.4l-9.6,4.2c-2-4.1-3.5-8.3-5.2-12.5
		l-6.2,2.4c1.3,3.2,2.5,6.4,3.8,9.5l4.2,9.4l21.6-10l-4-8.8c-1.3-3-2.4-6-3.6-9c-2.5-6-4.5-12.1-6.5-18.2L243,534.1l4.2,12.3
		l4.7,12.1c1.5,4.1,3.3,8,5.1,12c1.8,3.9,3.5,8,5.5,11.8c7.6,15.6,16.5,30.5,26.1,45l33.8-23C318.9,599,315.3,593.6,312.1,588.1z
		 M276.1,502.1l-2.2-9.4c-1.6-6.2-2.6-12.6-3.7-19l-23.4,3.9c1.2,6.7,2.3,13.5,4,20.2l6.5-1.5l-1.5-6.6l-1.2-6.7l10.3-1.9l1.2,6.6
		l1.5,6.5c1.1,4.3,1.8,8.7,3.2,12.9l-26.6,7.1c-7.8-28.4-11.6-57.9-12.3-87.3l27.6-0.5c0.2,4.5,0.1,8.9,0.5,13.4l1,13.3l-10.4,1
		l-1-13.5l-6.6,0.4l0.8,10.2l0.4,5.1l0.6,5.1l23.6-2.8l-0.6-4.8l-0.4-4.8l-0.7-9.7c-0.4-6.4-0.4-12.9-0.6-19.4l-40.9,0
		c0.2,34.6,4.8,69.4,14.6,102.7l39.3-11.3L276.1,502.1z M269.5,370.8l-23.5-3.5l-1.3,10.2c-0.4,3.4-0.9,6.8-1.1,10.2l6.6,0.6
		c0.2-4.5,1-9,1.5-13.5l10.4,1.4c-1.3,8.8-1.8,17.7-2.5,26.6l-27.5-1.4c1.6-29.4,6.7-58.6,15.2-86.9l26.4,8l-3.7,12.9
		c-1.1,4.3-2,8.7-3,13l-10.2-2.2l3.1-13.2l-6.4-1.7c-1.6,6.7-3.2,13.3-4.5,20l23.3,4.6c1.3-6.3,2.8-12.6,4.3-18.9l2.7-9.3
		c0.9-3.1,1.7-6.2,2.8-9.3L243,305.8c-5.3,16.5-9.7,33.4-12.5,50.5c-1.7,8.5-2.5,17.2-3.7,25.8l-1,13c-0.2,2.2-0.4,4.3-0.5,6.5
		l-0.2,6.5l40.8,1.3C266.4,396.4,267.7,383.6,269.5,370.8z M292.4,290.4l4-8.8l2-4.4l2.2-4.3l-21.2-10.7l-2.3,4.6l-2.1,4.7l-4.2,9.4
		l6.1,2.6l5.6-12.4l9.4,4.5l-5.5,12.1c-1.8,4.1-3.3,8.3-5,12.4l-25.7-9.9c10.6-27.5,24.3-53.8,41.4-77.9l22.6,15.8
		c-2.7,3.6-5,7.4-7.4,11.1c-2.4,3.8-4.9,7.5-7,11.4l-9-5.3c2.2-4,4.6-7.8,7.1-11.6l-5.6-3.6c-1.8,2.9-3.8,5.7-5.5,8.7l-5.1,8.9
		l20.7,11.6l4.8-8.4c1.6-2.8,3.5-5.5,5.2-8.2c1.8-2.7,3.4-5.5,5.3-8.1l5.6-7.9l-33-24l-7.5,10.6l-7,11c-2.4,3.6-4.5,7.4-6.7,11.2
		c-2.1,3.8-4.4,7.5-6.3,11.4c-8.2,15.3-15,31.3-21.1,47.5l38.4,13.9C287.5,302.3,289.9,296.3,292.4,290.4z M341,210.8l6.3-7.3
		c4.1-5,8.7-9.5,13.1-14.2l-16.9-16.7c-4.7,5-9.6,9.8-14,15.1l5,4.4c1.5-1.7,2.9-3.4,4.5-5.1l4.7-4.9l7.6,7.2l-4.6,4.8
		c-1.5,1.6-2.9,3.4-4.4,5c-2.9,3.4-5.9,6.6-8.6,10.2L312.3,192c18.4-23,40-43.4,63.3-61.3l16.6,22l-10.5,8.3l-10.1,8.7l-7-7.8
		l10.3-8.9l-4.2-5.1c-5.2,4.5-10.5,8.8-15.4,13.5l16.1,17.4c2.3-2.3,4.8-4.3,7.2-6.4c2.5-2.1,4.9-4.3,7.3-6.3l7.6-6
		c2.5-2,5.1-4,7.7-5.8l-24-33c-14,10.3-27.4,21.3-39.8,33.5c-12.4,12.1-24.2,24.9-34.7,38.7l32.2,25.1L341,210.8z M426.3,137.7
		c5.6-3.2,11.1-6.6,16.9-9.4l-10.9-21.1c-6.2,3-12,6.6-18,10l3.4,5.7l11.8-6.8l5,9.2l-11.6,6.6c-3.9,2.2-7.5,4.7-11.3,7.1L396.5,116
		c24.7-16,51.3-29.3,79.2-38.8l9,26c-2.1,0.7-4.2,1.4-6.3,2.2l-6.2,2.5c-4.1,1.7-8.3,3.2-12.4,5.1l-4.2-9.6c4.1-2,8.3-3.5,12.5-5.2
		l-2.4-6.2c-3.2,1.3-6.4,2.5-9.5,3.8l-9.4,4.2l10,21.6l8.8-4c3-1.3,6-2.4,9-3.6c6-2.5,12.1-4.5,18.2-6.5l-12.6-38.9l-12.3,4.2
		l-12.1,4.7c-4.1,1.5-8,3.3-12,5.1c-3.9,1.8-8,3.5-11.8,5.5c-15.6,7.6-30.5,16.5-45,26.1l23,33.8C415.4,144.5,420.7,141,426.3,137.7
		z M512.3,101.8l9.4-2.2c6.2-1.6,12.6-2.6,19-3.7l-3.9-23.4c-6.7,1.2-13.5,2.3-20.2,4l1.5,6.5l6.6-1.5l6.7-1.2l1.9,10.3l-6.6,1.2
		l-6.5,1.5c-4.3,1.1-8.7,1.8-12.9,3.2l-7.1-26.6c28.4-7.8,57.9-11.6,87.3-12.3l0.5,27.6c-4.5,0.2-8.9,0.1-13.4,0.5l-13.3,1l-1-10.4
		l13.5-1l-0.4-6.6l-10.2,0.8l-5.1,0.4l-5.1,0.6l2.8,23.6l4.8-0.6l4.8-0.4L575,92c6.4-0.4,12.9-0.4,19.4-0.6l0-40.9
		c-34.6,0.2-69.4,4.8-102.7,14.6l11.3,39.3L512.3,101.8z M647,71.6l-10.2-1.3c-3.4-0.4-6.8-0.9-10.2-1.1l-0.6,6.6
		c4.5,0.2,9,1,13.5,1.5l-1.4,10.4c-8.8-1.3-17.7-1.8-26.6-2.5l1.4-27.5c29.4,1.6,58.6,6.7,86.9,15.2l-8,26.4L679,95.6
		c-4.3-1.1-8.7-2-13-3l2.2-10.2l13.2,3.1l1.7-6.4c-6.7-1.6-13.3-3.2-20-4.5l-4.6,23.3c6.3,1.3,12.6,2.8,18.9,4.3l9.3,2.7
		c3.1,0.9,6.2,1.7,9.3,2.8l12.6-38.9c-16.5-5.3-33.4-9.7-50.5-12.5c-8.5-1.7-17.2-2.5-25.8-3.7l-13-1c-2.2-0.2-4.3-0.4-6.5-0.5
		l-6.5-0.2L605,91.7c12.9,0.3,25.7,1.7,38.5,3.4L647,71.6z M723.9,118l8.8,4l4.4,2l4.3,2.2l10.7-21.2l-4.6-2.3l-4.7-2.1l-9.4-4.2
		l-2.6,6.1l12.4,5.6l-4.5,9.4l-12.2-5.5c-4.1-1.8-8.3-3.3-12.4-5l9.9-25.7c27.5,10.6,53.8,24.3,77.9,41.4l-15.8,22.6
		c-3.6-2.7-7.4-5-11.1-7.4c-3.8-2.4-7.5-4.9-11.4-7l5.3-9c4,2.2,7.8,4.6,11.6,7.1l3.6-5.6c-2.9-1.8-5.7-3.8-8.7-5.5l-8.9-5.1
		l-11.6,20.7l8.4,4.8c2.8,1.6,5.5,3.5,8.2,5.2c2.7,1.8,5.5,3.4,8.1,5.3l7.9,5.6l24-33l-10.6-7.5l-11-7c-3.6-2.4-7.4-4.5-11.2-6.7
		c-3.8-2.1-7.5-4.4-11.4-6.3c-15.3-8.2-31.3-15-47.5-21.1L706,110.9C712,113.2,718,115.5,723.9,118z M803.5,166.6l7.3,6.3
		c5,4.1,9.5,8.7,14.2,13.1l16.7-16.9c-5-4.7-9.8-9.6-15.1-14l-4.4,5c1.7,1.5,3.4,2.9,5.1,4.5l4.9,4.7l-7.2,7.6l-4.8-4.6
		c-1.6-1.5-3.4-2.9-5-4.4c-3.4-2.9-6.6-5.9-10.2-8.6l17.3-21.4c23,18.4,43.4,40,61.3,63.3l-22,16.6l-8.3-10.5l-8.7-10.1l7.8-7
		l8.9,10.3l5.1-4.2c-4.5-5.2-8.8-10.5-13.5-15.4L835.5,197c2.3,2.3,4.3,4.8,6.4,7.2c2.1,2.5,4.3,4.9,6.3,7.3l6,7.6
		c2,2.5,4,5.1,5.8,7.7l33-24c-10.3-14-21.3-27.4-33.5-39.8c-12.1-12.4-24.9-24.2-38.7-34.7l-25.1,32.2L803.5,166.6z M876.7,251.9
		c3.2,5.6,6.6,11.1,9.4,16.9l21.1-10.9c-3-6.2-6.6-12-10-18l-5.7,3.4l6.8,11.8l-9.2,5l-6.6-11.6c-2.2-3.9-4.7-7.5-7.1-11.3
		l23.1-15.1c16,24.7,29.3,51.3,38.8,79.2l-26,9c-0.7-2.1-1.4-4.2-2.2-6.3l-2.5-6.2c-1.7-4.1-3.2-8.3-5.1-12.4l9.6-4.2
		c2,4.1,3.5,8.3,5.2,12.5l6.2-2.4c-1.3-3.2-2.5-6.4-3.8-9.5l-4.2-9.4l-21.6,10l4,8.8c1.3,3,2.4,6,3.6,9c2.5,6,4.5,12.1,6.5,18.2
		l38.9-12.6l-4.2-12.3l-4.7-12.1c-1.5-4.1-3.3-8-5.1-12c-1.8-3.9-3.5-8-5.5-11.8c-7.6-15.6-16.5-30.5-26.1-45l-33.8,23
		C869.8,241,873.4,246.3,876.7,251.9z M912.6,337.9l2.2,9.4c1.6,6.2,2.6,12.6,3.7,19l23.4-3.9c-1.2-6.7-2.3-13.5-4-20.2l-6.5,1.5
		l1.5,6.6l1.2,6.7l-10.3,1.9l-1.2-6.6l-1.5-6.5c-1.1-4.3-1.8-8.7-3.2-12.9l26.6-7.1c7.8,28.4,11.6,57.9,12.3,87.3l-27.6,0.5
		c-0.2-4.5-0.1-8.9-0.5-13.4l-1-13.3l10.4-1l1,13.5l6.6-0.4l-0.8-10.2l-0.4-5.1l-0.6-5.1l-23.6,2.8l0.6,4.8l0.4,4.8l0.7,9.7
		c0.4,6.4,0.4,12.9,0.6,19.4l40.9,0c-0.2-34.6-4.8-69.4-14.6-102.7l-39.3,11.3L912.6,337.9z M594.4,107.8
		c172.1,0,312.2,140,312.2,312.2s-140,312.2-312.2,312.2c-5.3,0-10.6-0.1-15.9-0.4l-1.8,0.3c0-0.1-0.1-0.3-0.1-0.4
		C412.6,722.4,282.2,586.1,282.2,420C282.2,247.8,422.2,107.8,594.4,107.8z M598,722.5c-0.1,0.3-0.2,0.5-0.3,0.7c0.8,0,1.6,0,2.3,0
		L598,722.5z M516.5,126.8c-3.2,0.9-6.4,1.8-9.6,2.7c7.6,10.2,20.6,15.8,33.9,13.1c13.1-2.6,22.8-12.6,26-24.7
		c-3.3,0.3-6.6,0.6-9.9,1c-3.1,7.3-9.5,13.1-17.9,14.7c-7.8,1.6-15.4-0.7-21-5.5C517.5,127.8,517,127.3,516.5,126.8z M497.5,132.5
		c-3.1,1-6.1,2.1-9.1,3.2c4,7,9.6,13.1,16.5,17.7c11.8,7.8,25.8,10.5,39.7,7.8c13.8-2.8,25.7-10.8,33.5-22.6
		c2.7-4.1,4.8-8.5,6.3-13.1c-0.3-2.8-0.4-5.7-0.3-8.7c-2.5,0.1-4.9,0.2-7.4,0.3c-3.1,16.9-16.1,31.1-34,34.8
		c-13.6,2.7-27-1.2-36.8-9.6C502.6,139.5,499.8,136.2,497.5,132.5z M645.4,134c6.9,0.4,12.9-3.9,15.1-10.1
		c-9.6-2.2-19.5-3.9-29.4-5.1C631.1,126.8,637.3,133.5,645.4,134z M621.6,117.9c-3-0.3-6-0.5-9.1-0.7c-0.4,8.9,2.6,17.4,8.5,24.1
		c6,6.8,14.3,10.8,23.3,11.3c15.9,1,30-9.4,34.4-24c-2.9-0.8-5.8-1.7-8.8-2.4c-3.3,10.6-13.5,18-25,17.4c-5.6-0.3-10.6-2.5-14.6-5.9
		C624.7,132.9,621.3,125.7,621.6,117.9z M603,116.8c-2.3-0.1-4.7-0.1-7.1-0.1c-0.4,3.3-1,6.6-1.9,9.7c3.5,24.3,23.7,43.6,49.1,45.1
		c14.1,0.8,27.6-3.8,38.2-13.2c6.7-5.9,11.6-13.3,14.6-21.5c0-0.8,0-1.5,0.1-2.3l0.7,0c0,0,0-0.1,0-0.1c-3-1.1-6-2.1-9-3.1
		c-5.7,18.8-23.6,31.9-44,30.7c-9.5-0.6-18.4-4.2-25.5-10.3c-1.5-1.3-2.9-2.7-4.3-4.2C606.3,139.1,602.5,128.1,603,116.8z
		 M672.3,175.5c1.3,2.8,3.1,5.4,5.2,7.8c6,6.8,14.3,10.8,23.3,11.3c7.7,0.5,15-1.7,21-5.8c-1.3-1-2.7-2-3.9-3.1
		c-1.1-1-2.3-2-3.3-3.1c-3.9,2.1-8.4,3.2-13.2,2.9c-5.6-0.3-10.6-2.5-14.6-5.9c-2.7-2.3-4.9-5.2-6.4-8.5
		C677.7,172.8,675,174.2,672.3,175.5z M708,175.1c-4.7-6.4-8.1-13.7-10.1-21.3c-2.8,4.1-6,7.8-9.7,11.2c0.6,2.2,1.7,4.2,3.2,5.9
		c2.7,3,6.4,4.8,10.5,5.1C704,176.1,706.1,175.8,708,175.1z M586,143.9c-3,4.6-6.6,8.7-10.6,12.2c2.8,3.6,7.2,5.8,12.1,5.7
		c3.8-0.1,7.4-1.6,10.1-4.2c-4.1-5.1-7.3-10.8-9.7-16.9C587.4,141.8,586.7,142.9,586,143.9z M559.7,166.3
		c6.3,8.8,16.6,14.4,28.2,14.2c8.9-0.2,17.2-3.8,23.4-10.1c-1.9-1.3-3.7-2.7-5.5-4.2c-0.6-0.5-1.2-1-1.7-1.6
		c-4.3,4.1-10,6.6-16.4,6.7c-6.3,0.1-12.1-2.1-16.6-5.9c-1.2-1.1-2.3-2.2-3.3-3.5C565.2,163.6,562.5,165,559.7,166.3z M540.6,171.4
		c2.6,4.9,5.9,9.4,10,13.3c10.2,9.8,23.5,15,37.6,14.7c16.6-0.3,31.3-8.4,40.7-20.7c-3.2-0.9-6.3-2.1-9.3-3.5
		c-0.4,0.5-0.8,1-1.3,1.4c-8,8.3-18.8,13.1-30.4,13.3c-10.7,0.2-20.9-3.4-29-10.4c-0.6-0.5-1.2-1.1-1.9-1.7
		c-2.6-2.5-4.9-5.3-6.7-8.3c-1.3,0.4-2.7,0.7-4,1C544.5,170.9,542.6,171.2,540.6,171.4z M653.9,180.7c7.4,18.2,24.8,31.6,45.7,32.8
		c14.1,0.8,27.6-3.8,38.2-13.2c0.9-0.8,1.7-1.6,2.5-2.4c-3.4-1-6.7-2.3-9.8-3.9c-8.2,6.8-18.8,10.7-30.3,10
		c-9.5-0.6-18.4-4.2-25.5-10.3c-1.5-1.3-2.9-2.7-4.3-4.2c-2.9-3.3-5.3-6.9-7-10.8C660.2,179.7,657.1,180.3,653.9,180.7z M755,190.9
		c10.7,0.6,20.9-2,29.6-7c-2.7-2.2-5.4-4.3-8.2-6.4c-6.3,2.9-13.4,4.4-20.8,4c-9.5-0.6-18.4-4.2-25.5-10.3c-1.5-1.3-2.9-2.7-4.3-4.2
		c-6.3-7.1-10-15.9-10.8-25.3c-3.1-1.4-6.2-2.7-9.4-3.9c-0.1,0.2-0.1,0.4-0.2,0.6c0,12.9,4.7,25.2,13.3,34.9
		C728.1,183.8,741,190.1,755,190.9z M738.5,153.1c-4.3-2.3-8.6-4.6-13.1-6.7c1.3,5.2,3.8,10.1,7.5,14.2c6,6.8,14.3,10.8,23.3,11.3
		c3.8,0.2,7.5-0.2,10.9-1.2c-4-2.8-8.1-5.5-12.2-8.1c-4.7-0.6-9.1-2.6-12.7-5.7c-0.9-0.7-1.7-1.5-2.4-2.4
		C739.3,154.2,738.9,153.7,738.5,153.1z M291,420c0,67.7,22.3,130.3,59.9,180.8c1.3-0.9,2.3-2.2,2.6-3.7c0.9-3.8-0.9-7.7-2.7-11.2
		c-1.9-3.5-3.9-7.2-3.4-11.1c0.6-4.8,4.7-8.2,7.4-12.2c0.8-1.2,1.3-2.5,1.7-4c0.2,0.7,0.4,1.4,0.6,2c1.4,3.8,3.6,6.6,6.7,8.5
		c1.3,3.6,2.9,7.1,3.9,10.8c1.3,5.5,0.3,12.5-4.7,15.1c2,9.2,4.1,18.4,6.1,27.6c6.6,7.3,13.5,14.2,20.7,20.8
		c1.8,0.1,3.7,0.1,5.5,0.2c4.2,0.1,8.6,0.2,12.5-1.3c3.9-1.6,10.8-3.9,8.8-7.6l-5.3-9.8c4-1.1,7.3-3.9,9.2-7.3
		c1.4,0,2.9-0.3,4.3-1.1c2.6-1.4,4.6-3.5,5.9-6.1c-0.1,1.4-0.2,2.7-0.1,4.1c0,0.7,0.1,1.3,0.2,2c-1.2,2.6-1.8,5.6-2,8.5
		c-0.5,5.6-0.1,11.4-2.5,16.5c-1.4,3-3.6,5.4-5.2,8.3c-2.9,5-3.8,11.1-2.8,16.8c37.7,27,81.7,45.5,129.4,52.9
		c-8.1-4.4-15-11.1-20.4-18.6c-8-11-13.1-23.8-18.1-36.5c25.4,13.8,47.6,33.2,64.7,56.6c-5.5-26.3,0.1-54.9,15.6-77
		c3.1,18,6.2,35.9,9.3,53.9c0.9,5.3,1.8,10.6,1.4,15.9c15.9-18,34.6-32.4,54.8-42.1c-4.4,22.3-18.2,41.3-35.6,50.3
		c36.2-2.9,70.5-12.3,102-26.8c2.4-5.1,4.8-10.1,7.3-15.2c-3.3-2.8-2.8-8.1-0.9-11.9c1.9-3.8,5-7,6.7-11c0.8-2,1.1-4.4,0.7-6.5
		c0.3,0,0.7,0,1-0.1c0.1,0,0.1,0,0.1,0c0,0,0,0,0,0c0.2,0.1,0.9,0.4,1.2,0.5c0.8,0.4,1.6,0.7,2.4,1.1c-0.5,1.7-0.3,3.7,0.3,5.4
		c1.3,3.4,3.7,6.6,3.3,10.2c-0.3,2.9-2.4,5.3-4.4,7.5c-1.9,2.2-3.9,4.8-3.9,7.7c0,1.6,1.1,3.3,2.4,4.1
		c95.3-51.2,160.2-151.8,160.2-267.4c0-91.7-40.9-174-105.4-229.7c-10.8,7.1-23.9,11-37.8,10.1c-1.1-0.1-2.3-0.2-3.4-0.3
		c-2.1,2.6-4.4,5.1-7,7.3c-12.5,11-28.5,16.6-45.1,15.6c-14.1-0.8-26.8-6.3-36.7-14.8c-8.4-7.2-14.8-16.5-18.4-27.1
		c-0.4,0-0.9,0-1.3,0c-1.1-0.1-2.2-0.2-3.3-0.3c-10.9,16.6-29.5,27.7-50.8,28.2c-15.4,0.3-30.1-5-41.8-14.9
		c-0.9-0.8-1.8-1.6-2.7-2.4c-6-5.8-10.6-12.5-13.9-19.9c-10.8-0.7-21.3-4.1-30.6-10.3c-2.2-1.4-4.2-3-6.2-4.7
		c-5.8-4.9-10.5-10.8-14.1-17.4C369,184.7,291,293.4,291,420z M344,489.4c1.3,3.4,2.7,6.9,4,10.3c0.9,2.3,1.7,4.6,2.5,6.9
		c3.4,0.6,6.6,2.5,8.9,4.9c0.2-1,0.4-2,0.6-3.1c0.5-2.4,2.1-4.1,4.2-5.1c-1.5-1.6-3.6-2.6-5.1-4.4c-2.8-3.3-2-9.1,1.7-11.4
		c2.9,0,2.5-2.5,3.8-5.1c1.3-2.6,1.8-5.5,3.1-8.1c1.2-2.6,3.4-5.1,6.3-5.3c-0.2-4-2.2-7.8-5.2-10.3c2.6,3.3,2.1,8.6-1.1,11.3
		c-1.8,1.6-4.2,2.3-6.2,3.7c-1.9,1.4-3.4,4.2-2.1,6.2c-0.5,1.9-5.5,1.7-7.5,1.4c-2-0.3-3.6-2.2-3.6-4.2c0-1.8,1.2-3.4,1.6-5.2
		c0.8-4.3-3.4-7.8-7.4-9.6c-4-1.8-8.6-3.4-10.4-7.3c-1.8-3.9,0.1-8.5,1.8-12.4c1.7-4,3-8.9,0.4-12.4c-2.4-3.3-5-7.4-8-10.1
		c3.1,5.1,6.4,10.8,5.2,16.6c-1,5-5,8.9-6.7,13.8c-1.6,4.7-0.8,10.2,2.1,14.2c2,2.7,4.2,1.9,6.9,3.9c2.9,2.2,4.4,5.7,5.7,9.1
		C341,481.6,342.5,485.5,344,489.4z M777.7,564c-2.5,2.1-2.3,5.9-1.8,9.1s1.2,6.9-0.8,9.4c-2,2.6-5.7,3-8.9,3.6
		c-3.2,0.6-6.9,2.5-7,5.8c-0.1,1.4,0.6,2.7,0.3,4.1c-0.3,1.5-1.8,2.6-3.3,2.4c-1.5-0.1-5.3-0.8-5.3-2.3c1.3-1.3,0.7-3.5-0.5-4.9
		c-1.2-1.4-2.8-2.3-3.9-3.8c-1.9-2.6-1.3-6.6,1.2-8.5c-2.7,1.4-4.7,3.8-5.6,6.7c2.1,0.7,3.3,2.8,3.7,5c0.5,2.1,0.4,4.3,0.9,6.4
		c0.5,2.1-0.2,3.9,1.9,4.4c2.3,2.4,1.9,6.7-0.7,8.7c-0.6,0.4-1.3,0.8-2,1.1c0.3,2.8,0,5.6-1.3,8.5c-0.3,0.6-0.6,1.1-0.9,1.7h6.4
		c1.9-3,3.7-5.9,5.7-8.8c1.5-2.3,3.1-4.6,4.7-6.9c1.8-2.6,3.5-5.2,5.3-7.7c1.5-2.3,3.2-4.6,5.7-5.7c2.3-1,3.8,0,5.7-1.7
		c2.8-2.5,4.3-6.3,4-10.1c-0.4-3.8-2.7-7.4-2.5-11.3c0.2-4.5,3.5-8.1,6.7-11.3C782.6,559.4,780.1,562,777.7,564z M984.2,419.8
		c0,214.4-174.4,388.9-388.9,388.9c-214.4,0-388.9-174.4-388.9-388.9S380.8,30.9,595.3,30.9C809.7,30.9,984.2,205.4,984.2,419.8z
		 M977.3,419.8c0-210.6-171.4-382-382-382c-210.6,0-382,171.4-382,382s171.4,382,382,382C805.9,801.8,977.3,630.4,977.3,419.8z
		 M1007.2,419.8c0,227.1-184.8,411.9-411.9,411.9c-227.1,0-411.9-184.8-411.9-411.9c0-227.1,184.8-411.9,411.9-411.9
		C822.4,7.9,1007.2,192.7,1007.2,419.8z M995.8,419.8c0-220.8-179.7-400.5-400.5-400.5c-220.8,0-400.5,179.7-400.5,400.5
		c0,220.8,179.7,400.5,400.5,400.5C816.1,820.3,995.8,640.6,995.8,419.8z M381.9,508.2c-1.3-2.7-5-4.9-7.9-4.3
		c-2.4,0.5-4.5,2.6-5.5,4.8c-1.3-0.8-3.1-0.2-4.2,0.9c-1,1.1-1.5,2.7-1.8,4.2c-0.5,2.8-1.4,11,2.1,12.4c0.4-0.8,1.3-7.9,1.7-7.9
		c1.5,0,0.3,3.3,1.3,4.6c1.7,2.1,4.7-4.8,5.5-5.8c0.6,2.6-0.4,5.2-0.8,7.7c1.3,2.6,4.8-3.4,5.7-4c-0.7,2.8-1.4,5.5-2.1,8.3
		c0.6,0.2,1.2-0.1,1.7-0.5c2.8-2.9,5-6.4,6.3-10.2c0.4-1,0.7-2.2,0.3-3.3c-0.3-1.1-1.4-1.8-2.5-1.4
		C382.7,512,382.7,509.9,381.9,508.2z M394.7,528.6c0.2-1.5-1-3-2.5-3.5c-1.4-0.5-3-0.3-4.5,0c-2.8,0.7-10.7,3.1-10.5,6.9
		c0.9,0.1,7.8-1.9,7.9-1.6c0.6,1.4-3,1.6-3.7,3c-1.2,2.4,6.3,2.4,7.5,2.7c-2.1,1.6-4.9,1.6-7.4,2.4c-1.9,2.3,5,3.1,5.9,3.6
		c-2.8,0.5-5.6,0.9-8.4,1.4c0,0.6,0.5,1.1,1.1,1.3c3.8,1.5,7.8,2.1,11.9,1.8c1.1-0.1,2.3-0.3,3.1-1c0.9-0.7,1.1-2,0.3-2.8
		c1.9,0.1,3.8-0.7,5-2.1c2-2.2,2.5-6.5,0.8-9C399.9,529.7,397.1,528.5,394.7,528.6z M355.6,520.6c0.3-0.2,4.3,5.9,5,6.4
		c2.6-2.8-1.8-9.7-3.5-12.1c-0.9-1.2-2-2.4-3.4-3c-1.4-0.5-3.3-0.2-4.1,1c-1.8-1.6-4.7-2.5-7-1.9c-2.9,0.8-5.3,4.4-5.3,7.3
		c0,1.9,1,3.7,2.5,4.8c-1.1,0.1-1.8,1.3-1.6,2.4c0.2,1.1,0.9,2,1.7,2.8c2.8,2.9,6.4,5.1,10.2,6.4c0.6,0.2,1.3,0.2,1.7-0.3
		c-1.8-2.2-3.7-4.4-5.5-6.6c1,0.2,6.8,4.1,6.8,1.1c-1.4-2.2-3.5-4.1-4.1-6.6c1.1,0.6,6.9,5.5,7.5,2.9
		C356.9,523.7,354.3,521.2,355.6,520.6z M377,545.2c-0.4-0.5-1-0.8-1.6-0.6c0.6,2.8,1.1,5.6,1.7,8.4c-0.8-0.6-4-6.8-5.5-4.3
		c0.2,2.6,1.1,5.2,0.4,7.8c-0.7-1-3.4-8.1-5.2-6.1c-1.1,1.2,0,4.6-1.5,4.5c-0.4,0-1-7.2-1.3-8c-3.6,1.2-3.1,9.4-2.7,12.3
		c0.2,1.5,0.6,3.1,1.6,4.3c1,1.2,2.8,1.8,4.1,1.1c0.8,2.3,2.9,4.5,5.3,5c2.9,0.7,6.7-1.3,8.1-3.9c0.9-1.7,0.9-3.7,0.2-5.4
		c1,0.4,2.2-0.3,2.5-1.3c0.4-1,0.1-2.2-0.2-3.3C381.8,551.7,379.7,548.1,377,545.2z M354.3,550.8c-1.2-0.9,1.7-2.9,1.7-4.5
		c-0.1-2.7-6.7,1.1-7.9,1.5c1-2.4,3.4-3.9,5.2-5.8c0.5-2.9-5.9-0.1-6.9-0.1c2.2-1.8,4.4-3.7,6.5-5.5c-0.3-0.5-1-0.7-1.6-0.6
		c-4,0.6-7.8,2.2-11.1,4.5c-0.9,0.6-1.8,1.4-2.2,2.4c-0.4,1,0.1,2.3,1.2,2.6c-1.7,0.8-2.9,2.5-3.3,4.3c-0.5,2.9,1.2,6.9,3.9,8.1
		c2.2,1,5.2,0.6,7.2-0.7c0.6,1.4,2.4,2,3.9,1.7c1.5-0.3,2.8-1.3,3.9-2.3c2.1-2,7.6-8.1,5.6-11.3C359.5,545.8,354.6,551,354.3,550.8z
		 M361.6,541.1c1.1,1.2,3.2,1.2,4.3,0c0.5,1.5,2.8,1.8,4.1,0.9c1.3-0.9,2-2.5,0.7-3.4c1,0.5,2.3,0.2,2.9-0.7c0.7-0.9,0.6-2.2-0.2-3
		s-2.1-0.9-3-0.3c0.9-1.4-0.3-3.9-1.8-4.6c-1.6-0.6-3.6,0.4-3.9,2.1c-0.8-1.1-2.5-1.4-3.7-1c-1.3,0.4-2.2,1.8-2,3.1
		c0.2,1.3,1.5,2.4,2.8,2.2C360.5,537.4,360.5,539.9,361.6,541.1z M425.9,580.7c0.2,1.9,1.3,7.1,3.7,7.3c0.1-0.6-0.7-5.1-0.5-5.2
		c0.9-0.3,0.8,2,1.7,2.6c1.4,1,2-3.9,2.2-4.7c0.9,1.5,0.7,3.3,1,4.9c1.3,1.4,2.3-3,2.7-3.6c0.1,1.8,0.2,3.7,0.3,5.5
		c0.4,0,0.7-0.3,0.9-0.6c1.2-2.3,1.9-4.9,1.9-7.5c0-0.7,0-1.5-0.4-2.1c-0.4-0.6-1.2-0.8-1.8-0.4c0.2-1.2-0.2-2.5-1-3.4
		c-1.3-1.4-4-2-5.8-1.1c-1.4,0.7-2.3,2.5-2.5,4c-1-0.2-2,0.5-2.4,1.4C425.7,578.6,425.8,579.7,425.9,580.7z M453.3,584.2
		c-1.2-1-3.2-1.1-4.7-0.7c-0.2-1-1.2-1.6-2.2-1.7c-1,0-1.9,0.4-2.8,0.9c-1.6,1-6,4-5.2,6.3c0.5-0.1,4.4-2.7,4.6-2.5
		c0.7,0.7-1.5,1.6-1.7,2.6c-0.3,1.7,4.4,0.3,5.2,0.2c-1,1.4-2.7,2-4.1,2.9c-0.7,1.8,3.7,0.9,4.4,1.1c-1.6,0.8-3.3,1.7-4.9,2.5
		c0.1,0.4,0.5,0.6,1,0.6c2.6,0.2,5.3-0.2,7.7-1.2c0.7-0.3,1.3-0.6,1.7-1.2c0.4-0.6,0.3-1.5-0.3-1.8c1.2-0.3,2.2-1.1,2.7-2.3
		C455.3,588.2,454.8,585.4,453.3,584.2z M423.3,595.6c-1.6-1-3.1-2-4.7-3c0.7-0.1,5,1.2,4.4-0.6c-1.3-1.1-2.9-1.8-3.8-3.3
		c0.8,0.1,5.3,2,5.2,0.3c-0.1-1-2.2-2-1.4-2.7c0.2-0.2,3.8,2.8,4.3,3c1-2.2-3-5.7-4.5-6.8c-0.8-0.6-1.7-1.1-2.7-1.2
		c-1-0.1-2.1,0.5-2.3,1.4c-1.4-0.6-3.4-0.6-4.7,0.2c-1.6,1-2.4,3.7-1.8,5.6c0.4,1.2,1.3,2.1,2.5,2.5c-0.6,0.3-0.8,1.1-0.5,1.8
		c0.3,0.6,1,1,1.6,1.4c2.3,1.2,4.9,1.9,7.5,2C422.6,596.1,423.1,595.9,423.3,595.6z M447.4,604.5c0-0.7-0.4-1.4-0.8-2
		c-1.5-2.2-3.4-4-5.7-5.3c-0.4-0.2-0.8-0.3-1.1,0c0.9,1.6,1.8,3.2,2.7,4.9c-0.6-0.2-3.8-3.4-4.2-1.6c0.6,1.6,1.7,3,1.8,4.7
		c-0.6-0.5-3.7-4.3-4.4-2.8c-0.4,0.9,0.9,2.8,0,3.1c-0.2,0.1-2-4.3-2.4-4.7c-2,1.4-0.1,6.4,0.7,8.1c0.4,0.9,1,1.8,1.8,2.3
		c0.8,0.5,2.1,0.6,2.8-0.1c1,1.2,2.7,2.2,4.2,2.1c1.9-0.1,3.9-2.1,4.3-4c0.2-1.2-0.1-2.5-1-3.4C446.8,605.9,447.4,605.3,447.4,604.5
		z M428,605.2c-0.9-0.3,0.5-2.1,0.2-3.1c-0.6-1.6-3.9,2-4.6,2.5c0.2-1.7,1.3-3.1,2-4.6c-0.3-1.9-3.7,1.1-4.3,1.3c1-1.6,2-3.1,3-4.7
		c-0.3-0.3-0.8-0.2-1.1,0c-2.3,1.2-4.4,2.9-6,5c-0.4,0.6-0.9,1.2-0.9,1.9c0,0.7,0.5,1.4,1.2,1.4c-0.9,0.8-1.3,2.1-1.2,3.3
		c0.2,1.9,2.1,4,4,4.3c1.5,0.2,3.3-0.6,4.3-1.8c0.6,0.8,1.9,0.8,2.7,0.3c0.9-0.5,1.5-1.3,1.9-2.2c0.9-1.6,3.1-6.5,1.2-8.1
		C430.3,601.1,428.2,605.3,428,605.2z M437.5,593.5c0.2-0.7-0.1-1.5-0.7-1.8c-0.6-0.3-1.5-0.2-1.9,0.4c0.3-1.1-0.9-2.4-2-2.5
		c-1.1-0.1-2.1,1-2,2.1c-0.7-0.5-1.8-0.4-2.5,0.1s-1,1.5-0.6,2.3c0.4,0.8,1.4,1.2,2.2,0.8c-0.7,0.8-0.1,2.4,0.8,2.9
		c0.9,0.5,2.2,0.1,2.6-0.9c0.6,0.8,2.1,0.6,2.7-0.2c0.6-0.8,0.8-1.9-0.2-2.2C436.5,594.6,437.2,594.1,437.5,593.5z M741.3,607.5
		c-0.5-2.9-3.5-6.1-6.5-6.3c-2.4-0.2-5.1,1.2-6.6,3.1c-1-1.1-2.9-1.1-4.2-0.3c-1.3,0.8-2.2,2.2-2.8,3.5c-1.3,2.6-4.4,10.2-1.4,12.5
		c0.6-0.6,3.4-7.2,3.8-7.1c1.5,0.4-0.7,3.3,0,4.8c1.1,2.5,5.9-3.4,6.9-4.1c-0.1,2.6-1.8,4.8-2.9,7.2c0.5,2.9,5.6-1.9,6.5-2.3
		c-1.4,2.5-2.8,4.9-4.3,7.4c0.5,0.4,1.2,0.3,1.7,0c3.5-2,6.6-4.7,8.9-8c0.6-0.9,1.2-1.9,1.2-3c0-1.1-0.9-2.1-2-2.1
		C741,611.3,741.6,609.4,741.3,607.5z M747.9,630.6c0.6-1.4-0.2-3.1-1.4-4c-1.2-0.9-2.8-1.1-4.4-1.2c-2.9-0.1-11.1,0-12,3.7
		c0.8,0.3,8,0.3,8.1,0.6c0.2,1.5-3.3,0.7-4.4,1.9c-1.8,1.9,5.4,4.1,6.5,4.7c-2.5,0.9-5.2,0.2-7.8,0.3c-2.5,1.6,4,4.4,4.7,5.1
		c-2.8-0.3-5.7-0.7-8.5-1c-0.1,0.6,0.2,1.2,0.7,1.6c3.2,2.5,7,4.2,10.9,5c1.1,0.2,2.3,0.4,3.3-0.1c1-0.4,1.6-1.6,1.1-2.6
		c1.8,0.6,3.8,0.4,5.4-0.6c2.5-1.6,4.2-5.6,3.2-8.4C752.6,633.1,750.3,631.2,747.9,630.6z M694.4,612.2c-0.1,1.1,0.4,2.2,0.9,3.1
		c2,3.5,4.7,6.6,8,8.9c0.5,0.4,1.2,0.5,1.7,0.2c-1.2-2.6-2.3-5.2-3.5-7.8c0.9,0.5,5.4,5.8,6.3,2.9c-0.7-2.5-2.2-4.9-2.1-7.5
		c0.9,0.9,5.1,7.1,6.4,4.8c0.8-1.4-1-4.5,0.5-4.7c0.4-0.1,2.5,6.8,3,7.5c3.2-2,0.9-9.9-0.1-12.6c-0.5-1.4-1.2-2.9-2.5-3.8
		c-1.2-0.9-3.1-1.1-4.2-0.1c-1.3-2-3.8-3.7-6.2-3.7c-3-0.1-6.3,2.8-7.1,5.6c-0.5,1.8-0.1,3.8,1,5.3
		C695.5,610.2,694.5,611.1,694.4,612.2z M725,640.7c-0.2,2.8-0.5,5.7-0.7,8.5c-0.6-0.8-2-7.7-4.1-5.6c-0.5,2.5-0.4,5.3-1.8,7.6
		c-0.4-1.2-1.1-8.7-3.3-7.3c-1.3,0.9-1.2,4.4-2.7,3.9c-0.3-0.1,1.1-7.2,0.9-8c-3.8,0.2-5.5,8.2-6,11.1c-0.2,1.5-0.3,3.1,0.3,4.5
		c0.6,1.4,2.2,2.5,3.7,2.2c0.2,2.4,1.6,5.1,3.7,6.3c2.6,1.5,6.8,0.6,8.9-1.5c1.3-1.3,1.9-3.3,1.6-5.2c0.9,0.7,2.2,0.3,2.8-0.6
		c0.6-0.9,0.7-2.1,0.7-3.2c0-4-1-8.1-2.8-11.7C726.1,641.1,725.6,640.6,725,640.7z M710.3,637.3c-0.8,0.2-7,3.8-7.3,3.6
		c-1-1.2,2.5-2.3,2.8-3.8c0.6-2.6-6.7-0.7-8-0.7c1.6-2,4.3-2.8,6.6-4.2c1.3-2.7-5.7-1.7-6.6-2c2.6-1.2,5.2-2.3,7.8-3.5
		c-0.2-0.6-0.8-0.9-1.4-1c-4-0.5-8.1,0-11.9,1.3c-1,0.4-2.1,0.8-2.8,1.7s-0.5,2.2,0.4,2.8c-1.8,0.3-3.5,1.6-4.3,3.3
		c-1.3,2.7-0.7,6.9,1.5,8.9c1.8,1.6,4.8,2,7.1,1.4c0.2,1.5,1.7,2.6,3.3,2.7c1.5,0.1,3-0.5,4.4-1.2
		C704.4,645.3,711.4,640.9,710.3,637.3z M714.8,623.8c-1.3,0.1-2.6,1.1-2.7,2.4c-0.2,1.3,0.8,2.7,2.1,2.9c-1.5,0.5-2.2,2.9-1.5,4.4
		c0.7,1.5,2.8,2,4.1,1.1c0,1.5,2.2,2.5,3.7,2c1.5-0.5,2.6-1.8,1.6-3c0.8,0.8,2.2,0.8,3,0.1c0.9-0.7,1.2-2,0.6-3s-1.8-1.5-2.8-1.1
		c1.3-1.1,0.8-3.9-0.5-4.9c-1.3-1-3.6-0.6-4.3,0.9C717.7,624.5,716.2,623.7,714.8,623.8z M487.9,615.8c-0.5-0.3-1.1-0.5-1.6-0.4
		c-0.6,0.1-1,0.6-0.9,1.1c-0.8-0.6-1.8-0.8-2.8-0.5c-1.5,0.4-2.9,2.2-2.8,3.7c0,1.2,0.9,2.5,2,3.2c-0.5,0.6-0.4,1.6,0.1,2.2
		c0.5,0.6,1.2,1,2,1.2c1.4,0.5,5.5,1.6,6.5-0.1c-0.4-0.3-3.9-1.3-3.9-1.5c0.1-0.8,1.7,0.1,2.4-0.3c1.2-0.7-2.1-2.8-2.5-3.3
		c1.4-0.1,2.6,0.6,3.9,1c1.5-0.5-1.3-2.8-1.6-3.2c1.4,0.6,2.7,1.2,4.1,1.7c0.2-0.3,0.1-0.6-0.1-0.9
		C491.4,618.1,489.8,616.7,487.9,615.8z M500.7,609.2c-1-1.2-3.1-1.8-4.5-1.1c-1.1,0.5-1.9,1.9-2.1,3.1c-0.8-0.2-1.6,0.3-2,1
		c-0.4,0.7-0.4,1.5-0.3,2.3c0.1,1.5,0.7,5.7,2.7,5.9c0.1-0.4-0.4-4.1-0.2-4.2c0.8-0.2,0.6,1.6,1.2,2.1c1.1,0.8,1.8-3,2-3.6
		c0.6,1.2,0.4,2.6,0.6,4c1,1.2,2-2.3,2.3-2.7c0,1.5,0,3,0,4.4c0.3,0,0.6-0.2,0.8-0.5c1.1-1.8,1.7-3.8,1.9-5.9c0-0.6,0-1.2-0.2-1.7
		c-0.3-0.5-0.9-0.7-1.4-0.4C501.5,610.9,501.3,609.9,500.7,609.2z M489.7,635.8c0.2-0.5,2.6-3.2,1.1-3.4c-1.2,0.5-2.4,1.4-3.7,1.5
		c0.4-0.5,3.3-3.1,2.1-3.6c-0.8-0.3-2.2,0.8-2.5,0.1c-0.1-0.2,3.3-1.7,3.7-2c-1.2-1.5-5.1,0.1-6.5,0.8c-0.7,0.4-1.4,0.8-1.8,1.5
		c-0.4,0.7-0.4,1.7,0.2,2.2c-1,0.8-1.7,2.2-1.5,3.4c0.2,1.5,1.8,3.1,3.3,3.3c1,0.1,2-0.2,2.7-0.9c0,0.6,0.5,1,1.1,1
		c0.6,0,1.1-0.3,1.6-0.7c1.7-1.2,3.1-2.8,4.1-4.7c0.2-0.3,0.2-0.6,0-0.9C492.3,634.3,491,635,489.7,635.8z M511.8,621.4
		c-0.8-0.6-1.8-0.8-2.8-0.5c0.3-0.5,0-1.1-0.5-1.4c-0.5-0.3-1.1-0.2-1.7-0.2c-2.1,0.3-4.1,1-5.8,2.2c-0.3,0.2-0.5,0.5-0.4,0.8
		c1.5-0.1,2.9-0.1,4.4-0.2c-0.4,0.3-3.8,1.5-2.6,2.4c1.3,0.1,2.8-0.1,4,0.4c-0.6,0.3-4.4,1.1-3.5,2.2c0.5,0.6,2.4,0.4,2.2,1.1
		c0,0.2-3.8-0.1-4.2,0c0.3,1.9,4.6,2.3,6.1,2.4c0.8,0,1.6,0,2.3-0.5c0.7-0.4,1.1-1.3,0.9-2c1.2-0.2,2.5-1.1,3-2.3
		C513.7,624.4,513,622.3,511.8,621.4z M499.8,630c0.1,0.4,2.4,3.4,2.3,3.5c-0.6,0.6-1.3-1.1-2.1-1.2c-1.4-0.1,0,3.5,0.1,4.1
		c-1.2-0.7-1.7-2-2.6-3.1c-1.4-0.5-0.5,3-0.6,3.5c-0.8-1.3-1.5-2.5-2.3-3.8c-0.3,0.1-0.4,0.5-0.4,0.8c0,2.1,0.5,4.2,1.4,6
		c0.3,0.5,0.6,1,1.1,1.3c0.5,0.3,1.2,0.1,1.4-0.4c0.3,0.9,1,1.7,2,2c1.4,0.5,3.6-0.1,4.5-1.3c0.7-1,0.7-2.6,0.3-3.8
		c0.8-0.2,1.2-1,1.2-1.8c0-0.8-0.4-1.5-0.9-2.2C504.3,632.6,501.6,629.2,499.8,630z M495.4,628.5c0.4,0.8,1.6,1,2.3,0.5
		c0.7-0.4,0.9-1.6,0.3-2.2c0.8-0.1,1.2-1.3,0.8-2c-0.4-0.7-1.1-1.2-1.7-0.7c0.3-0.5,0.3-1.2-0.1-1.6c-0.4-0.4-1.1-0.5-1.6-0.1
		s-0.6,1-0.4,1.5c-0.6-0.6-2-0.2-2.5,0.6c-0.5,0.7-0.1,1.9,0.7,2.2c-0.6,0.3-0.9,1.2-0.8,1.8c0.1,0.7,0.7,1.2,1.4,1.3
		C494.7,629.8,495.3,629.2,495.4,628.5z M593.8,259.9c4-1.3,7.8-3.1,11.9-3.8c4.1-0.7,8.7-0.2,11.7,2.6c2.1,2,3.2,4.8,5,7.1
		c1.2,1.5,3.1,2.8,4.9,3c-2.3,0.6-4.1,1.3-6.8,0.6c-4.2-1.1-8.9-0.4-12.6,2c-2.3,1.5-4.2,3.6-6.5,5.2c-2.2,1.6-5.1,2.8-7.8,2.2
		c4.5,1.3,8.7,1,13.1-0.6c4.9-1.8,10.4-3.5,15-1.2c2.1,1,3.7,2.8,5.6,4.1c1.9,1.4,3,1.4,5.2,0.6c1.7,1.4,6,2.6,8.2,2.2
		c-1.2-2.2-1.2-5,0-7.1c1.2-2.2,3.6-3.6,6.1-3.6c-0.1,0.8,0.5,0,0.4,0.7c-2.1,2.3-1.9,6.2,0.1,8.5s5.6,3,8.6,2
		c2.9-1,5.2-3.5,6.4-6.4c1.5-3.8,1-8.5-1.6-11.5c-2-2.3-5.8-3.7-9.1-3.5c3.3-0.9,6.7-1.3,10-0.7c4.4,0.7,8.7,3.3,10.5,7.3
		c1.8,4,2.8,11.1-1.1,13.2c4.8,1.7,10.3,1.5,15.1-0.4c2.1-0.9,4-2.9,6.1-3.6c1.6-0.5,3.3,0.4,5-0.4c3.2-1.4,3.5-6.1,1.6-9
		c-1.9-2.9-4.6-4.3-7.8-5.6c3.1-3.5,3.3-9.3,0.5-13.1c-2.9-3.8-9.3-6.2-13.6-4.1c1.8-5-0.8-11.3-5.7-13.4c-1.6-0.7-3.4-1-4.9-0.2
		c-1.5,0.8-1.3,3.1-0.5,4.7c2.5,5-0.5,11.4-5.3,14.3c-4.8,2.9-10.7,3-16.3,2.5c-7.9-0.7-15.3-4.8-15.1-13.9
		c0.1-6.5,6.8-10.7,12.9-9.8c-1.5,0-3,0.6-4,1.7c-1.4,1.5-2,3.6-2,5.6c0,5.2,4,10.2,9.1,11.3c7.5,1.7,14.4-4.6,14.9-12.1
		c0.5-7.6-7.7-15.3-14.7-16.8c-12-2.5-26.5,7.1-31.3,17.8c-4.3-1.9-8.7,0.8-12.8,3.1c-4.1,2.3-7.5,5.7-11.4,8.2
		c-11.2,7.4-27.6,9.3-39.4,3C563.3,261.8,579.6,264.5,593.8,259.9z M443.3,213c2.7-0.9,5.3-2.1,8.1-2.6c2.8-0.5,6-0.2,8.1,1.8
		c1.4,1.4,2.2,3.3,3.4,4.9c0.8,1.1,2.1,1.9,3.4,2.1c-1.6,0.4-2.8,0.9-4.7,0.4c-2.9-0.8-6.1-0.3-8.7,1.3c-1.6,1-2.9,2.5-4.4,3.6
		c-1.5,1.1-3.5,2-5.3,1.5c3.1,0.9,6,0.7,9-0.4c3.3-1.2,7.1-2.4,10.3-0.8c1.4,0.7,2.6,1.9,3.9,2.8c1.3,0.9,2.1,1,3.6,0.4
		c1.2,1,4.1,1.8,5.6,1.5c-0.8-1.5-0.8-3.4,0-4.9c0.8-1.5,2.5-2.5,4.2-2.5c-0.1,0.5,0.3,0,0.3,0.5c-1.5,1.6-1.3,4.2,0.1,5.8
		c1.4,1.6,3.9,2.1,5.9,1.4c2-0.7,3.6-2.4,4.4-4.4c1-2.6,0.7-5.8-1.1-7.9c-1.4-1.6-4-2.6-6.2-2.4c2.3-0.6,4.6-0.9,6.9-0.5
		c3,0.5,6,2.2,7.2,5c1.3,2.8,1.9,7.6-0.8,9.1c3.3,1.2,7.1,1,10.3-0.3c1.5-0.6,2.8-2,4.2-2.5c1.1-0.4,2.3,0.3,3.4-0.3
		c2.2-1,2.4-4.2,1.1-6.2c-1.3-2-3.1-2.9-5.3-3.8c2.2-2.4,2.3-6.4,0.3-9c-2-2.6-6.4-4.2-9.3-2.8c1.2-3.5-0.6-7.7-3.9-9.2
		c-1.1-0.5-2.3-0.7-3.4-0.1c-1,0.5-0.9,2.2-0.3,3.2c1.7,3.4-0.3,7.8-3.6,9.8c-3.3,2-7.4,2.1-11.2,1.7c-5.4-0.5-10.5-3.3-10.4-9.5
		c0.1-4.5,4.7-7.3,8.9-6.7c-1,0-2,0.4-2.7,1.2c-1,1-1.4,2.5-1.4,3.9c0,3.6,2.7,7,6.2,7.8c5.2,1.1,9.9-3.2,10.2-8.3
		c0.3-5.2-5.3-10.5-10.1-11.5c-8.2-1.7-18.2,4.9-21.5,12.2c-2.9-1.3-6,0.5-8.8,2.1c-2.8,1.6-5.1,3.9-7.8,5.7c-7.7,5.1-19,6.4-27.1,2
		C422.4,214.2,433.6,216.1,443.3,213z M430.3,507.6c-1.1,9.3-2.1,18.7-3.2,28c-0.5,4.2-0.9,8.5,0.5,12.5c1.2,3.5,4.1,4.1,6.1,6.5
		c2.5,3,2.6,8.4,1.2,11.9c-0.1,0.4-0.3,0.7-0.5,1.1c3.6,0.6,5.7,3.2,6.3,6.2c0.7,0.3,1.3,0.7,1.9,1.2c0.1-1.7,0.1-3.3,0.2-4.5
		c0.3-4,0.4-8,0.4-12c0-3.3,0.1-6.6,0.1-10c-7.1-2.7-11.3-10.6-11.2-18.3C432.2,522.5,433.6,514.4,430.3,507.6z"/>
</g>
<g id="Ox_1_">
	<path fill="#B0252C" d="M861.3,351.6c-1.2-6.3-5.6-10.4-9.9-14.5c-8.9-8.5-18.2-16.7-27-25.3c-3.4-3.3-6.1-7.2-9.1-10.8
		c6-5.4,8.9-14.7,6.6-20.7c-0.8,0.9-1.5,1.7-2.6,2.8c0.1-5.8-0.2-11-2.9-16.4c-1.3,2.2-2.4,4-3.5,5.7c-0.2,0-0.5-0.1-0.7-0.1
		c-0.5-5.5-1.1-11.1-1.6-16.8c-7.2,8.1-10.5,17.1-7.7,27.8c-0.2,0-0.5-0.1-0.7-0.1c-1-1.4-2-2.7-3-4.1c-0.3,0.1-0.5,0.2-0.8,0.3
		c0.2,3.3,0,6.7,0.6,9.9c0.9,4.5,1.5,9.3,5.7,12.2c0.4,0.3,0.5,0.9,0.8,1.4c1.1,2.4,1.9,5.1,3.5,7c10.1,12.3,20.4,24.3,30.5,36.5
		c2.2,2.7,4.2,5.9,5.5,9.2c0.8,2,0.8,4.9-0.1,6.8c-3.6,7.5-8.5,14.1-15,19.2c-3.3,2.6-7,2.5-10.6,0.3c-5-3.1-8.6-7.4-11.4-12.5
		c-7.8-13.9-15.5-27.8-23.4-41.6c-1-1.8-2.7-3.4-4.4-4.7c-4.7-3.6-10.2-5.7-15.9-7c-7.1-1.5-14-3.2-20.6-6.5c-4-2-8.7-3.3-13.2-3.4
		c-10.8-0.2-21.6,0.8-32.2,2.9c-15.7,3.2-31.5,5.8-47.6,5.6c-3.7,0-7.6-0.7-11.2-1.8c-6-1.9-11.9-4.3-17.7-6.5
		c-9.4-3.6-19.3-6.1-27.3-12.8c-0.3-0.2-0.6-0.5-1-0.6c-1.7-0.4-3.4-1.2-5.1-1.2c-5.6-0.2-11.2,0.1-16.8-0.1
		c-3.7-0.1-7.4-0.1-10.8-2.2c-2.9-1.8-6-3.3-9-5c-12.1-7.3-24.3-14.6-36.3-22.2c-5.2-3.3-10.8-5.5-16.7-6
		c-7.3-0.6-14.8-0.1-22.1-0.1c-3.7,0-7.2,0.8-10.4,2.7c-5.4,3.2-10.8,6.5-16.4,9.5c-7.5,4-15,7.9-22.6,11.7c-3,1.4-4.3,2.9-3.6,6.5
		c0.6,3,0.1,6.2,0.1,9.4c2.1-1.6,3.9-3.5,6-4.6c6.7-3.4,13.4-6.5,20.3-9.5c2.5-1.1,5.1-1.8,7.7-2.5c1.1-0.3,2.2-0.5,2.1,1.4
		c-0.4,7.2-2.1,14.1-5,20.7c-0.9,2-2.3,3.7-3.5,5.5c-0.1-0.1-0.2-0.2-0.3-0.3c0.9-3.5,1.7-7,2.6-10.5c-0.3-0.1-0.5-0.3-0.8-0.4
		c-0.8,0.3-1.7,0.5-2.5,1c-5.2,3.4-10.4,6.8-15.6,10.2c-0.8,0.5-1.7,0.9-2.6,1.4c-0.2-0.3-0.4-0.6-0.7-0.9
		c6.6-8.2,14.7-15,22.5-22.2c-2.8-0.4-5.2,0.6-7.6,1.7c-8.3,3.9-16.5,8-23,14.9c-0.4,0.4-1.2,0.6-1.7,0.9c-0.2-0.6-0.6-1.3-0.6-1.9
		c-0.2-3.4-0.2-6.8-0.3-10.1c-0.7-13.1-6.1-23.6-17-30.9c-5.2-3.5-10.5-6.8-15.8-10c-2.9-1.7-5.9-3.1-9-4.5c-0.9-0.4-2-0.1-3.1-0.1
		c0.4,0.9,0.6,2,1.2,2.7c2,2.3,4.4,4.3,6.4,6.6c8.8,10,12.8,21.4,9.9,34.8c-0.8,3.8-2.3,7.5-3.1,11.3c-0.5,2.5-1.7,3.7-3.6,5.2
		c-2.7,2.1-5.6,4.6-7,7.6c-2.4,4.9-5.8,8.1-10.6,10.4c-6.1,2.9-10.4,7.7-12.3,14.3c-0.2,0.6-0.5,1.2-0.9,1.5c-2.5,2-5.1,3.8-7.5,5.9
		c-4.9,4.5-10.6,6.7-17.1,7.1c-4.2,0.3-7.3-2.3-8-6.5c-0.2-1.5-0.1-3.1-0.2-4.7c0-0.5-0.2-1.2-0.5-1.4c-0.4-0.2-1.2,0.1-1.4,0.4
		c-0.7,0.9-1.3,1.9-1.7,3c-2.1,6-1.3,11.9,0.3,17.8c1.2,4.1,3.5,7.3,7.5,8.8c3.1,1.1,6.5,2.4,9.6,2.2c5.9-0.4,11.8-1.9,17.6-3
		c2.7-0.5,5.3-1,8-1.5c-1.8,7.9-3.5,15.2-5.2,22.6c-0.3,1.2-0.8,2.5,1,2.8c5.4,0.8,10.9,1,16-1.6c5.6-2.8,6.5-5.7,3.6-11
		c-0.1-0.2-0.3-0.3-0.5-0.5c-4.5,2.1-8.1,5.9-13.1,7.2c0-0.9,0.2-1.6,0.6-2c3.7-3.8,7.5-7.5,11.3-11.2c0.9-0.9,1.9-0.8,2.5,0.4
		c0.8,1.5,1.5,3.1,2.2,4.7c1.9,4.3,3.6,8.7,5.6,12.9c2.1,4.7,5.7,7.2,10.9,6.8c0.5,0,1.1,0.1,1.6,0c3.4-0.5,6,1,8.3,3.5
		c1.6,1.7,3.1,3.5,4.6,5.3c3.1,3.7,6.1,7.4,9.3,11.3c0.4-1.3,0.9-2.3,1.2-3.4c1.1-3.5,3.2-5.6,6.9-6.1c1.8-0.2,3.6-1,5.4-1.5
		c0.9-0.3,1.8-0.4,2.8-0.6c0.1,0.3,0.2,0.5,0.3,0.8c-2,0.9-3.9,1.9-6,2.7c-4.2,1.6-7.2,4-8.1,8.8c-0.4,2.1-1.3,4.1-1.6,6.2
		c-0.3,2.1-0.3,4.4,0.1,6.4c0.2,1,1.6,2.4,2.6,2.5c2.9,0.2,4.5,1.6,5.7,4.1c1.3,2.6,3.6,2.7,6,0.8c2.7-2.1,5.6-3.8,8.5-5.7
		c0.6-0.4,1.2-0.8,1.7-1.4c2.3-2.6,4.4-5.2,6.7-7.8c0.3-0.4,0.9-0.5,1.4-0.7c-0.9,2-2.3,3.5-3.2,5.2c-1.7,3.3-2.8,7-6.7,8.6
		c-0.3,0.1-0.3,1.9-0.3,2c1.4,0.3,3.2,1.1,4.3,0.6c1.7-0.8,3.2-2.3,4.2-3.9c1.2-1.8,2.4-2.8,4.7-2.8c3,0,4.3-1.4,4.8-4.3
		c0.4-2.5,0.6-5,1.3-7.4c1.3-4.6,2.7-9.1,4.5-13.6c1.1-2.9,2.5-5.8,4.3-8.3c2.6-3.4,5.8-6.4,8.5-9.7c1.2-1.5,1.9-3.3,2.6-5.1
		c0.5-1.2,0.6-2.6,1-4.5c1.6,5.6,1.2,11.9-2.4,16c-2.7,3.1-4.7,6.8-6.8,10.3c-0.4,0.7-0.4,2-0.1,2.8c1.4,3.3,2.9,6.6,4.4,9.9
		c3.1,6.6,4.2,6.4-2.3,13.4c-0.2,0.2-0.3,0.4-0.5,0.5c-6.3,4.8-12.6,9.8-19,14.4c-5,3.6-6,9.2-2.3,14.1c2.1,2.7,4.5,5.4,5.9,8.5
		c3.2,7.2,6,14.5,8.5,21.9c2.1,6.2,4.1,12.4,9.1,16.9c4.5,4,9.1,7.8,11.5,13.6c0.2,0.5,1.7,1,2.3,0.8c1.6-0.7,2.4,0,3.3,1.2
		c2.2,2.9,4.6,5.5,6.7,8.5c1.5,2.1,3,2.2,4.9,0.9c2.5-1.7,5.1-2.9,8.2-2.9c2.3-0.1,4.1-1.5,5.2-3.5c2.7-5,5.2-10,8-14.9
		c2.6-4.5,0-7-3.2-8.1c-2.5-0.9-5.3-1.3-7.9-1.6c-4.9-0.5-5.1-0.7-4.1-5.4c0.5-2.5-0.1-3.2-2.6-3.6c-1.7-0.3-3.6-0.6-5.1-1.4
		c-6-3-11.7-6.4-15.7-12.2c-3-4.5-6.2-8.8-9.3-13.2c-0.6-0.9-0.9-2-1.5-3.5c16.3-0.3,32-0.7,48.3-1c-0.7-1.3-1-2.1-1.5-2.8
		c-1.7-2-3.6-3.7-5.1-5.8c-3.1-4.2-7.5-7.6-8.2-13.4c-0.5-4.5-1.4-8.9-2.2-13.3c0.2,0,0.4-0.1,0.6-0.1c0.3,0.7,0.6,1.4,0.7,2.1
		c1.4,5.7,3.7,10.8,7.3,15.6c7.3,9.7,14.9,19.2,23.6,27.6c4.1,4,5.5,8.6,6.5,13.9c0.7,3.7,1.4,7.7,3.3,10.9c3,4.9,7.1,9.2,10.7,13.8
		c0.9,1.2,1.5,2.5,2.1,3.9c0.6,1.6,1.1,3.3,1.6,4.9c3.2,11.2,4.6,22.4,1.6,33.9c-0.4,1.5,0.3,3.3,0.4,4.9c0,0.6,0,1.2-0.3,1.7
		c-2.6,4.6-5.2,9.3-7.9,13.9c-1.5,2.5-1.2,3.8,1.6,4.8c2.3,0.8,4.7,1.4,7,2.1c0.3,0.1,0.8,0.3,0.9,0.6c0.8,1.9,2.3,1.7,4,1.5
		c1.8-0.3,3.7-0.5,5.5-0.7c5.7-0.5,11.5-0.9,17.2-1.4c2.1-0.2,4-1,4.1-3.4c0.2-4.9,2.1-10-0.9-14.8c0.6-0.3,1-0.6,1.4-0.8
		c5.7-2.6,6-3.8,2.4-9.1c0-0.1-0.1-0.1-0.1-0.2c-4-6.4-8.2-12.6-10.3-19.9c-0.2-0.6-0.6-1.3-1.1-1.7c-2.4-1.8-3.3-4.3-3.8-7
		c-0.4-2.2-1-4.3-1.3-6.5c-0.8-6.9-2.1-13.9-2.2-20.8c-0.1-8.9-0.9-17.6-4.1-26c-0.2-0.5-0.1-1-0.1-1.6c0.4-0.2,0.7-0.5,1.1-0.7
		c0.3,0.6,0.5,1.3,0.9,1.9c1.4,2.5,2.7,5,4.1,7.3c0.6,0.9,1.5,2.2,2.4,2.3c2,0.2,4.2,0.2,6.2-0.3c7.5-1.8,15.2-3.6,22.5-6
		c4.8-1.6,9.8-3.6,13.8-6.6c6.6-5.1,12.5-11,18.5-16.8c5.3-5.1,11.3-8.7,18.2-11.1c0.5-0.2,1,0,2.2,0c-4.3,3.8-8.1,7.1-11.8,10.3
		c7.5,8.8,14.7,17.2,21.7,25.7c2,2.5,4.4,4.1,7.5,4.9c3.2,0.9,6.3,2,9.6,3.1c-0.9,5-2.1,9.8-2.6,14.6c-0.8,7.2-3.4,13.7-7.1,19.8
		c-2.3,3.8-4.3,7.8-6.7,11.6c-1.7,2.8-3.6,5.6-5.9,7.8c-5.4,5.3-11,10.4-16.5,15.5c-1.9,1.8-1.8,3.3,0.2,4.9
		c3.2,2.6,6.4,5.5,10.6,6.5c1.3,0.3,2.6,0.7,3.8,0.5c7.3-1.6,14.5-3.3,21.8-5c1.3-0.3,1.8-1.2,1.7-2.6c-0.2-2.9-0.4-5.8-0.3-8.7
		c0-0.8,0.9-2,1.6-2.3c2.1-0.9,4.3-1.5,6.4-2.1c4.6-1.4,5-2.4,3.2-7c-0.8-2.1-2-4.6-1.5-6.5c1.5-6,2.7-12.3,5.7-17.6
		c5.4-9.5,12-18.3,18.2-27.4c0.4-0.6,0.8-1.2,1.4-2.1c-4-2-7.8-3.9-11.5-5.7c-5.1-2.5-9.7-5.7-13.5-9.9c-1.4-1.6-2.5-3.6-3.7-5.4
		c0.2-0.2,0.4-0.4,0.7-0.5c0.6,0.4,1.2,0.9,1.8,1.3c2,1.5,3.8,3.3,6,4.4c5.5,2.9,11.1,5.7,16.8,8.1c12.7,5.4,25.1,11.5,39.1,12.4
		c7.4,0.4,14.7,0.7,22.1,0.9c1.8,0,2.5,0.7,3.1,2.1c4.8,12.3,9.6,24.5,14.4,36.8c1.7,4.4,2.6,8.8,1.8,13.5c-0.3,1.4-0.4,3.2,0.3,4.4
		c1.4,2.7,0.3,4.8-0.6,7.1c-1.2,2.9-2.5,5.7-3.8,8.6c-1.4,3.4-3,6.7-4.2,10.2c-0.4,1.1-0.1,3.3,0.6,3.8c2.2,1.5,5,2.6,7.7,1.2
		c1.9-1,3.1-0.7,4.6,0.5c2.1,1.7,4.3,1.8,6.8,0.7c2.5-1.1,5-2,7.6-2.9c3.5-1.2,7-2.3,10.4-3.4c3.1-1.1,4.4-2.6,3.7-5.1
		c-1.3-4.4-2.8-8.9-4.7-13c-1.8-4-1.2-6.7,2.9-8.4c3-1.3,4.4-4.2,3-7.3c-2.4-5.2-5-10.4-7.8-15.4c-5.5-9.7-11.5-19-16.8-28.8
		c-6.5-12.1-10.8-25-10.3-39.1c0.1-2.1-0.9-3.5-2.9-4.3c-1.6-0.6-3.3-1.4-4.7-2.3c-7.7-5-12.8-11.9-15.4-20.9
		c-3-10.6-2.2-21.5-2.4-32.3c-0.2-10.7,0.5-21.5,0.6-32.3c0-9.9-1.7-19.4-6.4-28.2c-0.2-0.4-0.2-0.9-0.5-1.9c0.8,0.5,1.3,0.7,1.5,1
		c1.9,3,4.5,5.9,5.4,9.2c2.1,7.6,3.6,15.4,4.9,23.2c0.6,3.8,1.2,7.3,3.4,10.6c2.2,3.2,3.9,6.6,6.2,9.7c1.6,2.2,3.5,4.3,5.6,5.9
		c8.7,6.5,18.7,7.7,29.1,5.9c3.9-0.7,7.3-2.5,9.8-5.8c3.1-4.1,6.3-8.2,9.7-12.1c3.9-4.5,6.6-9.5,7.9-15.3
		C861.3,360.4,862.2,356.1,861.3,351.6z M377.5,365.6c-1.9-0.4-2.8-3-1.9-4.6c-1.6-6.1-0.4-12.9,3.2-18c-0.2,6.9,0.4,14.6,2.6,21.1
		C382,365.9,379.3,366,377.5,365.6z M403.5,370c-1.6,1-3.8,0.5-5.3-0.8c-1.4-1.3-2.2-3.1-3-4.8c-4.2-10.3-9.4-24.7-8.2-36
		c4,2.1,7.4,11.9,9.4,15.9c2.8,5.6,5.4,11.4,7.7,17.2c0.6,1.4,1.1,2.9,1.2,4.4C405.4,367.6,404.8,369.2,403.5,370z M412.8,334.9
		c-0.4,1.5-2.1,2-3.7,1.8c-2.5-6.4-7.3-11.8-13.3-15c6.4-0.7,13.3,2.9,16.2,8.7C412.7,331.8,413.1,333.4,412.8,334.9z M432.7,371.6
		c-0.7,1.4-1.5,2.8-2.4,4c-1.6,2.1-2.1,4.1-0.5,6.4c0.4,0.6,0.2,1.6,0.2,2.5c-0.7-0.5-1.7-0.8-2.1-1.5c-1-1.6-2-3.4-2.6-5.2
		c-0.4-1.1-0.4-2.4-0.3-3.6c0.1-1.2,0.5-2.3,0.9-3.4c1.7-4.7,1.9-9.5,0.6-14.3c-0.2-0.8-0.1-1.6-0.2-2.4c0.3-0.1,0.6-0.1,0.9-0.2
		c0.6,2,1,4.1,1.7,6.1c0.5,1.4,1.2,2.8,2.2,3.8C433.3,366,434.1,368.9,432.7,371.6z M492.5,280.7c2-1.5,4.3-3,6.8-3.4
		c4.5-0.7,11.3,3.9,6.3,8.3c-1.7,1.5-3.9,2-6.1,2.6c-4.2,1.1-10,3.5-13.6,5.9c-3.6,2.5-5.9,3.6-9.5,6.1
		C480.1,292.6,485.7,285.8,492.5,280.7z M523.2,298.3c2.5,0.2,5.2,0.6,7.4,1.9c2.2,1.3,4,3.6,3.9,6.2c-0.1,2.6-3.5,5.8-6,5.2
		c-18.1-4.1-37.4-2.4-54.4,4.9C486.9,303.3,504.8,296.7,523.2,298.3z M528.1,385c-0.9,1.4-2.1,2.5-3.4,3.6c-0.9,0.8-2.7,1.5-2.9,0.4
		c-0.6-2.6-0.4-5.4,0.6-8c0.5-1.2,1.2-2.3,2.4-2.8c1.5-0.6,3.4,0.5,4,2.1C529.3,381.9,528.9,383.6,528.1,385z M495.6,358.5
		c-3.9-7.6-11.9-12.9-20.3-13.6c7.5-4.1,14.6-3.8,21.7,0.9c2.7,1.7,5.1,4.4,5.1,7.6C502,356.5,497,361.4,495.6,358.5z M510,382.6
		c1.6-0.4,3.4,0.3,4.6,1.4c1.3,1.1,2.2,2.5,3,4c0.6,1,1.1,2.9-0.1,3c-2.7,0.2-5.5-0.5-7.9-1.9c-1.1-0.7-2.2-1.6-2.4-2.8
		C507,384.6,508.4,383,510,382.6z M518.4,395.7c-1,2.5-2.7,4.7-4.9,6.3c-1,0.7-2.3,1.3-3.5,1c-1.6-0.4-2.5-2.3-2.2-3.9
		s1.7-2.9,3.2-3.6c1.5-0.7,3.2-0.9,4.8-1.1C516.9,394.3,518.8,394.6,518.4,395.7z M518,338.5c-3.3-0.2-6.3-2-9.2-3.6
		c-11.3-6.1-23-8.9-35.7-8.1c16.6-5.4,35.4-3.5,50.6,5.1C523.5,335.3,521.3,338.7,518,338.5z M527.9,406.7c-0.9,1.4-3,1.8-4.4,0.9
		c-1.5-0.8-2.3-2.5-2.5-4.1c-0.2-1.7,0.1-3.3,0.3-5c0.2-1.2,1.1-2.9,2-2.2c2.2,1.7,3.8,4,4.6,6.7
		C528.3,404.3,528.5,405.6,527.9,406.7z M536.2,396.1c-1.3,1-3.2,1.1-4.8,0.6c-1.6-0.5-3-1.4-4.4-2.3c-1-0.7-2.2-2.2-1.2-2.7
		c2.4-1.3,5.2-1.9,8-1.6c1.3,0.1,2.6,0.5,3.4,1.6C538.1,393,537.5,395.1,536.2,396.1z M582.7,325.3c1.3,0.1,2.6,0.5,3.4,1.6
		c1,1.4,0.4,3.4-0.9,4.4c-1.3,1-3.2,1.1-4.8,0.6c-1.6-0.5-3-1.4-4.4-2.3c-1-0.7-2.2-2.2-1.2-2.7C577.2,325.6,580,325,582.7,325.3z
		 M571.4,316.2c0.5-1.2,1.2-2.3,2.4-2.8c1.5-0.6,3.4,0.5,4,2.1c0.6,1.5,0.2,3.3-0.7,4.7c-0.9,1.4-2.1,2.5-3.4,3.6
		c-0.9,0.8-2.7,1.5-2.9,0.4C570.1,321.6,570.4,318.7,571.4,316.2z M570.2,333.8c0.2-1.2,1.1-2.9,2-2.2c2.2,1.7,3.8,4,4.6,6.7
		c0.4,1.2,0.6,2.6-0.1,3.7c-0.9,1.4-3,1.8-4.4,0.9c-1.5-0.8-2.3-2.5-2.5-4.1C569.6,337.1,569.9,335.4,570.2,333.8z M559,317.8
		c1.6-0.4,3.4,0.3,4.6,1.4c1.3,1.1,2.2,2.5,3,4c0.6,1,1.1,2.9-0.1,3c-2.7,0.2-5.5-0.5-7.9-1.9c-1.1-0.7-2.2-1.6-2.4-2.8
		C556,319.8,557.4,318.2,559,317.8z M556.7,334.3c0.3-1.6,1.7-2.9,3.2-3.6c1.5-0.7,3.2-0.9,4.8-1.1c1.2-0.1,3.1,0.2,2.6,1.3
		c-1,2.5-2.7,4.7-4.9,6.3c-1,0.7-2.3,1.3-3.5,1C557.3,337.8,556.4,335.9,556.7,334.3z M573.4,434c-2.6-0.9-5.3-1.3-7.9-2.3
		c-2.6-0.9-5.1-2.5-6.3-5c-1.2-2.5-0.2-5.3,2.3-6.4c8.5,2.5,15.6,9.2,18.7,17.5C579,435.3,575.9,434.9,573.4,434z M593,435.3
		c-4.3-8-8.2-15.5-14.8-22c-3.6-3.6-7.7-6.9-9.7-11.5s-0.7-11.2,4.1-12.9c2.8-1,5.9,0,8.2,1.8s3.9,4.4,5.2,6.9
		c3.2,6.1,5.5,12.6,6.7,19.3C593.6,421.6,595.8,431.2,593,435.3z M603.5,441.7l-0.9,1c3.2-12.9,3.8-26.4,1.8-39.5
		c-1.6-10.6-14.2-40,4.8-43.5c3.8-0.7,7.7,1.8,9.7,5.2c2,3.4,2.4,7.4,2.6,11.3C622.7,399.2,616.3,422.5,603.5,441.7z M661,341.7
		c0.7-1.1,1.6-2.2,2.8-2.4c1.6-0.3,3.3,1.1,3.6,2.7c0.4,1.6-0.3,3.4-1.4,4.6c-1.1,1.3-2.5,2.2-4,3c-1,0.6-2.9,1.1-3-0.1
		C658.9,346.8,659.6,344.1,661,341.7z M658.4,357.8c1.3,2.4,1.9,5.2,1.6,8c-0.1,1.3-0.5,2.6-1.6,3.4c-1.4,1-3.4,0.4-4.4-0.9
		c-1-1.3-1.1-3.2-0.6-4.8c0.5-1.6,1.4-3,2.3-4.4C656.4,357.9,657.9,356.7,658.4,357.8z M647.1,341.9c0.4-1.6,2.3-2.5,3.9-2.2
		c1.6,0.3,2.9,1.7,3.6,3.2c0.7,1.5,0.9,3.2,1.1,4.8c0.1,1.2-0.2,3.1-1.3,2.6c-2.5-1-4.7-2.7-6.3-4.9
		C647.3,344.4,646.8,343.1,647.1,341.9z M642.4,355.4c0.8-1.5,2.5-2.3,4.1-2.5c1.7-0.2,3.3,0.1,5,0.3c1.2,0.2,2.9,1.1,2.2,2
		c-1.7,2.2-4,3.8-6.7,4.6c-1.2,0.4-2.6,0.6-3.7-0.1C641.9,359,641.6,356.9,642.4,355.4z M622.9,439.2c-1-9.2,3.8-21.9,5.6-31.1
		c0.7-3.6,1.4-7.3,3.6-10.2c2.2-2.9,6.3-4.7,9.6-3.1c2.2,1.1,3.5,3.4,3.9,5.8c0.4,2.4,0,4.8-0.6,7.2c-1.6,6.6-4.4,13-8.3,18.6
		C634.4,429.8,627.7,440.1,622.9,439.2z M663.6,422.5c-0.4,1.9-1.6,3.6-2.8,5.1c-4.8,5.8-11.7,9.6-19.1,10.9
		c7.6-4.5,13.5-11.9,16.1-20.3c0.6-1.9,2.9-2.5,4.4-1.2C663.6,418.4,664,420.6,663.6,422.5z M669.8,360.7c-1.5,0.6-3.3,0.2-4.7-0.7
		c-1.4-0.9-2.5-2.1-3.6-3.4c-0.8-0.9-1.5-2.7-0.4-2.9c2.6-0.6,5.4-0.4,8,0.6c1.2,0.5,2.3,1.2,2.8,2.4
		C672.4,358.3,671.3,360.1,669.8,360.7z M692.1,331.7c1.1-10.5,24.6-5.1,30.8-3.8c12.9,2.8,25.3,8.4,35.8,16.4
		c-10.2-2.9-20.7-4.5-31.3-4.9c-5.5-0.2-11-0.2-16.5,0.4c-4.3,0.5-8.8,2.1-13.1,0.4C694.5,338.9,691.8,335.4,692.1,331.7z
		 M700.5,399.8c-2.3-0.9-4.3-2.5-5.8-4.5c-0.7-0.9-1.2-2.1-0.9-3.2c0.4-1.5,2.1-2.3,3.6-2c1.5,0.3,2.6,1.5,3.3,2.9
		c0.6,1.4,0.8,2.9,1,4.4C701.8,398.5,701.5,400.2,700.5,399.8z M693.8,408.6c-1.1,0.4-2.4,0.5-3.4-0.1c-1.3-0.8-1.6-2.7-0.9-4.1
		c0.7-1.3,2.3-2.1,3.8-2.3c1.5-0.2,3.1,0.1,4.6,0.3c1.1,0.2,2.7,1,2,1.9C698.4,406.3,696.2,407.8,693.8,408.6z M705.7,413.9
		c-0.1,1.2-0.5,2.4-1.4,3.1c-1.2,0.9-3.1,0.4-4.1-0.8s-1-2.9-0.6-4.4c0.4-1.5,1.3-2.8,2.1-4.1c0.6-0.9,2-2,2.5-1.1
		C705.5,408.8,706,411.4,705.7,413.9z M704.9,399.1c-0.2-2.5,0.5-5.1,1.8-7.2c0.6-1,1.4-2,2.6-2.2c1.5-0.3,3,1,3.3,2.5
		s-0.3,3.1-1.3,4.2c-1,1.2-2.3,2-3.6,2.8C706.7,399.8,704.9,400.2,704.9,399.1z M714.6,409.3c-1.4,0.5-3,0.2-4.3-0.6
		c-1.3-0.8-2.3-2-3.3-3.1c-0.7-0.8-1.4-2.4-0.3-2.7c2.4-0.5,5-0.3,7.3,0.6c1.1,0.4,2.1,1.1,2.5,2.2
		C717,407.1,716.1,408.8,714.6,409.3z M725,369.1c-2.8,0.4-6-0.8-7.1-3.4c-1.1-2.5,0.2-5.6,2.4-7.3s3.4-2.6,6.2-2.9
		c11.3-3.7,23.3-5.3,35.2-4.6c-9.4,4.7-19.9,9.4-29.2,14.1C729.9,366.3,727.8,368.7,725,369.1z M744.6,441.3c-2.5-1-4.7-2.7-6.3-4.9
		c-0.7-1-1.3-2.3-1-3.5c0.4-1.6,2.3-2.5,3.9-2.2c1.6,0.3,2.9,1.7,3.6,3.2c0.7,1.5,0.9,3.2,1.1,4.8
		C746,439.9,745.7,441.7,744.6,441.3z M737.3,450.9c-1.2,0.4-2.6,0.6-3.7-0.1c-1.4-0.9-1.8-3-0.9-4.4c0.8-1.5,2.5-2.3,4.1-2.5
		s3.3,0.1,5,0.3c1.2,0.2,2.9,1.1,2.2,2C742.2,448.4,739.9,450.1,737.3,450.9z M750.2,456.7c-0.1,1.3-0.5,2.6-1.6,3.4
		c-1.4,1-3.4,0.4-4.4-0.9c-1-1.3-1.1-3.2-0.6-4.8c0.5-1.6,1.4-3,2.3-4.4c0.7-1,2.2-2.2,2.7-1.2C750,451.2,750.5,454,750.2,456.7z
		 M749.3,440.6c-0.2-2.7,0.5-5.5,1.9-7.9c0.7-1.1,1.6-2.2,2.8-2.4c1.6-0.3,3.3,1.1,3.6,2.7c0.4,1.6-0.3,3.4-1.4,4.6
		c-1.1,1.3-2.5,2.2-4,3C751.3,441.3,749.4,441.8,749.3,440.6z M760,451.7c-1.5,0.6-3.3,0.2-4.7-0.7c-1.4-0.9-2.5-2.1-3.6-3.4
		c-0.8-0.9-1.5-2.7-0.4-2.9c2.6-0.6,5.4-0.4,8,0.6c1.2,0.5,2.3,1.2,2.8,2.4C762.6,449.3,761.5,451.1,760,451.7z M763.3,380.9
		c-1.5,2.4-4.9,2.2-7.7,1.7c-0.2-0.4-0.3-1.2-0.6-1.5c-2.7-3.4-2.5-8.5-0.5-12.4c2-3.9,5.3-6.9,8.6-9.7c0.6,5.8,0,11.4,0.7,17.2
		C764,377.8,764.2,379.6,763.3,380.9z"/>
</g>
</svg>
