<?xml version="1.0" encoding="utf-8"?>
<!-- Generator: Adobe Illustrator 25.2.3, SVG Export Plug-In . SVG Version: 6.00 Build 0)  -->
<svg version="1.1" xmlns="http://www.w3.org/2000/svg" xmlns:xlink="http://www.w3.org/1999/xlink" x="0px" y="0px"
	 viewBox="0 0 1190.55 841.89" style="enable-background:new 0 0 1190.55 841.89;" xml:space="preserve">
<style type="text/css">
	.st0{fill:#B0252C;}
</style>
<g id="Circle">
	<path class="st0" d="M571.33,8.19C344.75,7.18,157.7,190.8,155.9,418.78c-1.81,230.04,184.89,416.74,412.55,417.28
		C791.91,836.59,981.74,656.1,983,422.21C981.91,189.22,793.37,9.17,571.33,8.19z M569.46,824.37
		c-224.34,0.03-403.38-183.81-401.95-405.06C168.96,196.37,354.69,13.41,581.53,20c209.32,6.08,388.97,178.26,389.73,402.22
		C970.59,645.34,790.14,824.35,569.46,824.37z M569.71,31.17c-215.63,0.5-389.66,174.36-390.69,389.09
		C177.99,634.6,349.66,809.4,562.8,812.82c219.16,3.52,393.17-172.64,396.84-383.77C963.38,214.14,790.99,32.29,569.71,31.17z
		 M560.14,805.76c-202.3-4.73-373.74-170.65-374.15-383.95C186.55,207.9,360.93,37.51,571,38.39
		c208.34,0.88,381.39,170.56,381.6,383.5C952.82,637.65,774.24,810.76,560.14,805.76z M885.45,330.35
		c12.69-3.71,25.56-7.47,39.09-11.42c9.86,34.05,14.45,68.07,14.61,103.15c-13.64,0-26.95,0-40.78,0
		c-0.77-12.76-1.54-25.54-2.34-38.75c7.78-0.95,15.31-1.87,23.58-2.87c0.57,6.88,1.12,13.37,1.69,20.28
		c-2.36,0.37-4.22,0.66-6.41,1.01c-0.58-4.53-1.12-8.73-1.74-13.56c-3.07,0.32-6,0.63-9.66,1.02c0.48,8.67,0.95,17.16,1.45,26.02
		c8.85,0,17.64,0,27.02,0c-0.32-29.96-4.25-58.75-12.13-87.42c-8.94,2.41-17.29,4.66-26.18,7.06c1.93,8.59,3.78,16.85,5.76,25.66
		c3.22-0.53,6.14-1.01,9.71-1.59c-0.74-4.45-1.45-8.73-2.19-13.18c1.91-0.57,3.58-1.07,5.73-1.7c2.82,6.42,3.05,13.33,4.66,20.44
		c-7.92,1.31-15.61,2.58-23.43,3.87C891.09,355.72,888.36,343.44,885.45,330.35z M456.47,733.02c-4.53,12.53-9.11,25.17-13.89,38.41
		c-33.31-11.91-63.78-28.2-92.21-48.93c8.09-11.12,15.96-21.93,24.03-33.02c10.99,7.06,21.85,14.03,32.94,21.15
		c-3.76,6.7-7.48,13.36-11.57,20.66c-5.99-3.55-11.72-6.95-17.8-10.55c1.3-2.13,2.29-3.74,3.59-5.86c3.89,2.27,7.53,4.4,11.57,6.76
		c1.67-2.75,3.31-5.43,5.18-8.5c-7.59-4.87-14.86-9.54-22.4-14.38c-5.2,7.49-10.17,14.65-15.53,22.35
		c24.29,17.27,49.92,30.47,77.75,41.41c3.27-8.51,6.47-16.84,9.76-25.41c-8.2-3.56-15.85-6.88-24.03-10.43
		c-1.49,2.83-2.93,5.57-4.66,8.85c4.19,2.01,7.99,3.84,12.23,5.88c-0.82,2.02-1.58,3.89-2.56,6.33c-6.38-2.98-12.29-5.74-18.89-8.82
		c3.64-7.34,7.08-14.28,10.54-21.26C432.49,722.78,444.25,727.8,456.47,733.02z M898.07,433.04c13.49,0.35,26.83,0.7,40.93,1.07
		c-1.13,35.26-7.36,69.04-17.92,103.01c-13.15-4.28-25.91-8.43-38.86-12.65c3.28-12.55,6.47-24.73,9.88-37.79
		c7.83,1.52,15.27,2.96,23.24,4.5c-1.56,6.97-3.02,13.51-4.55,20.33c-2.06-0.54-4.03-1.06-6.48-1.7c0.84-4.24,1.63-8.2,2.56-12.88
		c-2.87-0.82-5.83-1.67-9.45-2.71c-2.29,8.67-4.5,17.02-6.85,25.92c8.61,2.64,17.03,5.22,26.05,7.98
		c8.63-28.47,13.59-57.14,15.21-86.91c-9.26-0.52-17.91-1.01-27.22-1.54c-0.82,8.91-1.6,17.37-2.44,26.42
		c3.28,0.45,6.19,0.85,9.75,1.34c0.66-4.45,1.3-8.77,2.01-13.54c2.03,0.3,4.07,0.61,6.57,0.98c-0.74,6.64-1.47,13.12-2.29,20.43
		c-8.07-1.21-15.87-2.37-23.63-3.53C895.75,458.9,896.88,446.33,898.07,433.04z M238.72,411.75c-13.52-0.46-26.73-0.91-40.84-1.39
		c0.87-34.91,7.32-68.84,17.92-102.82c13,4.2,25.88,8.36,38.81,12.53c-3.38,12.93-6.61,25.27-9.92,37.9
		c-7.72-1.54-15.19-3.03-23.24-4.64c1.52-6.68,3-13.17,4.61-20.24c2.22,0.57,4.04,1.05,6.41,1.66c-0.83,4.31-1.65,8.57-2.54,13.19
		c3.2,0.72,6.1,1.38,9.52,2.15c2.23-8.45,4.4-16.66,6.79-25.69c-8.56-2.6-17.1-5.18-26.1-7.91c-8.51,28.62-13.66,57.09-15.08,86.93
		c9.18,0.45,17.71,0.86,27.02,1.32c0.88-8.63,1.74-17.05,2.66-26.06c-3.4-0.56-6.44-1.06-9.89-1.63c-0.65,4.62-1.22,8.63-1.82,12.92
		c-2.04,0-4.1,0-6.84,0c0.8-6.6,1.57-13.03,2.42-20.02c7.97-0.57,15.4,2.23,23.52,2.59C240.97,385.91,239.86,398.65,238.72,411.75z
		 M617.83,95.69c-12.92-1.19-25.47-2.35-38.83-3.58c0.46-13.47,0.92-26.78,1.4-40.71c35.34,0.95,69.2,7.02,102.67,17.85
		c-4.26,13.15-8.42,26-12.58,38.83c-12.66-3.29-24.85-6.47-37.84-9.85c1.56-7.79,3.05-15.25,4.67-23.32
		c7.02,1.63,13.51,3.13,20.13,4.66c-0.54,2.23-0.95,3.93-1.54,6.34c-4.34-0.79-8.57-1.56-13.21-2.41c-0.77,3.21-1.46,6.11-2.25,9.43
		c8.55,2.25,16.89,4.45,25.74,6.79c2.63-8.67,5.2-17.13,7.93-26.09c-28.4-8.48-56.86-13.66-86.87-15.08
		c-0.48,9.16-0.93,17.93-1.41,27.09c8.92,0.86,17.38,1.67,26.2,2.52c0.52-3.22,1-6.14,1.6-9.83c-4.51-0.66-8.8-1.3-13.34-1.96
		c0.24-2.34,0.43-4.23,0.69-6.76c6.79,0.88,13.25,1.72,20.37,2.64C620.16,80.14,619.04,87.65,617.83,95.69z M366.05,683.18
		c-8.34,10.74-16.6,21.38-25.1,32.32c-27.68-21.95-51.9-46.5-72.16-74.92c0.58-0.67,0.87-1.15,1.29-1.46
		c10.39-7.58,20.8-15.13,31.35-22.8c8.19,10.02,16.29,19.93,24.77,30.3c-5.69,5.28-11.29,10.47-17.31,16.05
		c-4.54-5.1-8.89-9.99-13.71-15.41c1.62-1.44,3.12-2.78,5.09-4.53c3.05,3.38,5.87,6.5,9.1,10.08c2.52-2.25,4.97-4.45,7.44-6.65
		c-5.74-6.99-11.16-13.58-16.83-20.49c-7.29,5.52-14.35,10.87-21.71,16.44c18.04,23.63,38.1,44.61,61.26,63.38
		c5.78-7.11,11.39-14,17.2-21.14c-6.59-5.76-13.04-11.4-19.55-17.1c-2.22,2.23-4.43,4.44-6.99,7.01c2.94,2.81,6,5.75,9.41,9.01
		c-1.34,1.62-2.63,3.19-4.3,5.21c-5.15-4.76-10.06-9.3-15.13-13.98c5.95-5.54,11.67-10.88,17.47-16.28
		C346.39,665.92,356,674.36,366.05,683.18z M660.29,739.65c3.78,13.09,7.48,25.88,11.32,39.14c-33.72,10.02-67.85,14.3-102.89,14.79
		c0-13.93,0-27.29,0-41.14c12.7-0.68,25.3-1.35,38.59-2.06c0.94,7.69,1.88,15.39,2.88,23.62c-7.01,0.55-13.69,1.07-20.79,1.62
		c-0.2-2.43-0.34-4.14-0.53-6.5c4.55-0.55,8.89-1.08,13.44-1.63c-0.28-3.23-0.53-6.18-0.84-9.74c-8.82,0.52-17.31,1.03-26.09,1.55
		c0,8.86,0,17.53,0,26.06c11.22,3.34,74.06-5.43,87.21-11.78c-2.2-8.29-4.42-16.67-6.8-25.65c-8.69,1.93-17.09,3.8-25.83,5.74
		c0.64,3.4,1.21,6.46,1.82,9.75c4.67-0.78,8.79-1.47,13.44-2.25c0.4,2.36,0.71,4.2,1.05,6.26c-6.76,1.76-13.24,3.31-20.24,3.77
		c-1.33-8.11-2.57-15.59-3.79-23.02C635.14,745.29,647.6,742.5,660.29,739.65z M383.14,148.96c-7.66-11.27-15.18-22.35-22.99-33.84
		c29.24-19.63,60-35.15,93.8-45.84c4.26,13.13,8.36,25.78,12.55,38.72c-12.08,4.75-23.97,9.43-36.36,14.31
		c-3.2-6.9-6.48-13.96-10-21.56c6.43-2.77,12.61-5.42,19.06-8.19c0.84,2.05,1.64,3.99,2.59,6.31c-4.1,1.8-7.95,3.49-12.32,5.41
		c1.37,3.17,2.6,6.02,3.94,9.15c8.34-3.26,16.27-6.36,24.72-9.66c-2.97-8.56-5.85-16.89-8.91-25.72
		c-28.14,9.59-54,22.56-79.09,38.78c4.98,7.73,9.77,15.16,14.74,22.87c7.61-4.55,14.89-8.9,22.66-13.54
		c-1.47-2.85-2.9-5.61-4.58-8.84c-4.01,2.18-7.71,4.19-11.95,6.5c-1.1-1.85-2.13-3.6-3.47-5.87c5.98-3.33,11.66-6.49,18.14-10.09
		c3.77,7.23,7.34,14.08,10.98,21.06C405.32,135.7,394.36,142.25,383.14,148.96z M841.45,236.79c11.18-7.62,22.23-15.14,33.73-22.98
		c19.53,29.22,35.03,60.07,45.94,93.87c-13.11,4.26-25.77,8.37-38.81,12.61c-4.67-11.92-9.32-23.8-14.25-36.39
		c6.9-3.22,13.91-6.49,21.45-10.01c2.78,6.41,5.38,12.42,8.23,19c-2.27,0.96-4.16,1.75-6.31,2.66c-1.76-4.02-3.46-7.89-5.36-12.23
		c-3.16,1.28-6.04,2.45-9.26,3.76c3.35,8.44,6.53,16.47,9.84,24.81c8.6-2.99,16.81-5.85,24.94-8.68
		c-2.2-14.64-27.78-67.1-38.62-79.19c-7.33,4.8-14.73,9.65-22.3,14.61c4.65,7.76,9.03,15.06,13.64,22.75
		c2.95-1.66,5.7-3.2,8.69-4.88c-2.14-3.87-4.18-7.56-6.46-11.68c1.85-1.18,3.43-2.19,5.66-3.61c3.48,6.09,6.8,11.9,10.38,18.15
		c-7.33,3.8-14.23,7.37-21.2,10.98C854.69,259.05,848.15,248.05,841.45,236.79z M878.76,534.38c12.53,4.52,25.17,9.08,38.33,13.84
		c-12.07,33.18-27.9,63.71-48.77,92.32c-11.14-8.1-21.94-15.95-33.02-24c7.04-10.99,13.93-21.73,21.11-32.94
		c6.82,3.81,13.58,7.6,20.7,11.59c-3.67,6.13-7.04,11.77-10.64,17.78c-2.16-1.3-3.92-2.37-5.9-3.57c2.33-3.91,4.42-7.43,6.87-11.55
		c-2.82-1.72-5.58-3.4-8.55-5.21c-4.86,7.59-9.46,14.76-14.33,22.36c7.4,5.19,14.66,10.29,22.28,15.63
		c17.22-24.2,30.48-50,41.37-77.87c-8.46-3.3-16.71-6.51-25.36-9.88c-3.51,8.21-6.91,16.16-10.4,24.3c2.96,1.46,5.64,2.78,8.92,4.4
		c1.94-4.11,3.73-7.91,5.7-12.11c1.85,0.7,3.75,1.42,6.37,2.42c-2.89,6.37-5.64,12.43-8.65,19.07c-7.34-3.68-14.25-7.14-21.28-10.66
		C868.65,558.21,873.59,546.57,878.76,534.38z M680.37,111.58c4.52-12.58,9.08-25.23,13.82-38.41
		c33.19,11.8,63.65,28.07,92.25,48.85c-7.99,11-15.92,21.93-24.02,33.08c-11.02-7.08-21.76-13.99-32.94-21.17
		c3.88-6.92,7.54-13.44,11.56-20.62c6.08,3.58,11.83,6.97,17.86,10.52c-1.38,2.29-2.46,4.08-3.61,5.99
		c-3.91-2.33-7.54-4.49-11.62-6.91c-1.75,2.93-3.34,5.61-5.09,8.53c7.45,4.82,14.47,9.37,22.22,14.39
		c5.12-7.25,10.2-14.46,15.24-21.6c-8.59-9.58-53.97-34.15-77.28-41.83c-3.64,8.11-6.64,16.53-9.72,25.16
		c8.15,3.5,15.97,6.87,24.14,10.38c1.42-3.04,2.74-5.88,4.22-9.06c-4.01-1.9-7.69-3.63-11.86-5.6c0.7-1.98,1.38-3.88,2.29-6.44
		c6.5,3,12.43,5.74,19.02,8.78c-3.68,7.35-7.14,14.26-10.62,21.23C704.16,121.71,692.54,116.77,680.37,111.58z M257.98,310.17
		c-12.73-4.59-25.43-9.17-38.35-13.82c12.2-32.89,27.82-63.78,48.91-92.29c11.03,8.02,21.97,15.98,33,24.01
		c-7.03,10.96-13.99,21.8-21.13,32.94c-6.8-3.8-13.45-7.51-20.68-11.55c3.52-5.97,6.83-11.57,10.49-17.77
		c2.16,1.26,3.91,2.28,6.02,3.5c-2.29,3.88-4.44,7.51-6.84,11.57c2.76,1.71,5.42,3.35,8.44,5.22c4.87-7.53,9.58-14.82,14.46-22.37
		c-7.43-5.2-14.57-10.2-21.69-15.18c-9.95,9.04-35.42,56.89-41.68,77.57c8.16,3.14,16.38,6.3,24.98,9.61
		c3.56-8.19,6.93-15.95,10.48-24.12c-2.99-1.5-5.8-2.91-9-4.52c-1.93,4.11-3.71,7.93-5.71,12.21c-2.06-0.89-3.93-1.7-6.26-2.71
		c2.96-6.42,5.69-12.35,8.67-18.81c7.49,3.75,14.43,7.22,21.28,10.65C268.24,286.27,263.32,297.73,257.98,310.17z M828.99,624.88
		c10.59,8.25,21.14,16.46,32.24,25.11c-21.88,27.77-46.54,52.07-75.03,72.61c-8.03-11.06-15.89-21.87-23.95-32.98
		c10.12-8.34,19.99-16.48,30.19-24.88c5.24,5.65,10.52,11.34,16.13,17.4c-5.21,4.61-10.12,8.96-15.41,13.64
		c-1.58-1.74-2.97-3.26-4.62-5.08c3.34-3,6.5-5.84,10.07-9.04c-2.3-2.68-4.26-4.96-6.45-7.51c-6.84,5.61-13.42,11-20.58,16.86
		c5.41,7.2,10.8,14.36,16.37,21.79c23.66-18.09,44.59-38.21,63.34-61.37c-7.15-5.82-14.02-11.4-21.16-17.2
		c-5.89,6.78-11.6,13.34-17.5,20.14c2.48,2.2,4.72,4.18,7.56,6.69c3.1-3.32,5.98-6.4,9.08-9.72c1.74,1.52,3.17,2.77,5.11,4.45
		c-4.69,4.97-9.19,9.75-14.26,15.12c-5.63-5.57-11.13-11.02-16.81-16.63C811.97,644.37,820.4,634.72,828.99,624.88z M753.65,695.62
		c7.55,11.1,15.12,22.24,22.97,33.77c-29.27,19.88-60.24,35.17-93.74,46.03c-4.25-13.16-8.4-26.01-12.57-38.9
		c12.32-4.83,24.21-9.49,36.36-14.25c3.24,6.99,6.47,13.94,9.98,21.52c-6.21,2.7-12.3,5.34-18.98,8.23
		c-0.93-2.13-1.74-3.98-2.74-6.27c4.15-1.83,8-3.53,12.4-5.47c-1.3-3.07-2.52-5.93-3.89-9.18c-8.16,3.21-16.04,6.3-24.74,9.72
		c2.87,8.34,5.74,16.64,8.84,25.65c28.2-9.44,54.13-22.58,79.19-38.76c-5-7.69-9.82-15.1-14.82-22.79
		c-7.64,4.55-14.93,8.89-22.74,13.55c1.6,2.96,3.08,5.7,4.74,8.79c4.05-2.22,7.74-4.25,11.72-6.43c1.18,1.77,2.23,3.35,3.8,5.71
		c-6.06,3.39-11.88,6.64-18.21,10.17c-3.76-7.07-7.4-13.92-11.17-21C731.16,709.08,742.11,702.53,753.65,695.62z M519.01,748.84
		c13.08,1.22,25.49,2.37,38.81,3.61c-0.44,13.2-0.9,26.7-1.37,40.78c-35.11-1.12-69.17-6.93-102.73-17.95
		c4.21-12.96,8.32-25.59,12.59-38.74c12.52,3.22,24.81,6.39,37.81,9.74c-1.49,7.58-2.99,15.17-4.58,23.27
		c-6.87-1.51-13.24-2.91-20.11-4.42c0.5-2.29,0.94-4.28,1.47-6.73c4.32,0.94,8.41,1.84,13.1,2.87c0.76-3.07,1.5-6.09,2.38-9.65
		c-8.41-2.21-16.58-4.35-25.72-6.75c-2.69,8.74-5.24,17.03-7.99,25.98c28.4,8.81,57.09,13.53,86.96,15.36
		c0.43-9.22,0.83-17.92,1.26-27.35c-8.62-0.79-17.07-1.56-26.16-2.39c-0.48,3.2-0.97,6.38-1.49,9.83c4.63,0.68,8.65,1.28,13.08,1.93
		c-0.11,2.06-0.21,3.92-0.34,6.52c-6.91-0.77-13.35-1.49-20.53-2.3C516.71,764.13,517.86,756.47,519.01,748.84z M295.4,607.74
		c-11.07,7.55-22.22,15.16-33.67,22.97c-19.61-29.27-35.15-60.02-45.99-93.78c13.09-4.26,25.88-8.41,38.78-12.6
		c4.86,12.4,9.47,24.14,14.27,36.4c-6.84,3.17-13.71,6.36-21.08,9.78c-3.76-5.92-5.86-12.23-8.39-18.87
		c2.1-0.91,3.82-1.65,6.04-2.61c1.85,4.24,3.53,8.09,5.38,12.33c3.1-1.3,5.97-2.5,9.17-3.84c-3.18-8.2-6.26-16.11-9.62-24.78
		c-8.47,2.91-16.79,5.77-25.7,8.83c9.51,28.12,22.49,54.18,38.81,79.33c7.89-5.19,15.18-9.99,22.72-14.95
		c-4.51-7.56-8.87-14.88-13.5-22.64c-2.86,1.54-5.47,2.93-8.67,4.65c2.07,3.91,4.03,7.6,6.22,11.75c-1.79,1.19-3.49,2.32-5.64,3.76
		c-3.39-6.08-6.59-11.82-10.16-18.23c7.12-3.73,13.98-7.33,21.03-11.02C282.03,585.35,288.59,596.33,295.4,607.74z M307.77,219.66
		c-10.61-8.27-21.13-16.46-31.6-24.62c7.62-14.91,56.47-62.4,74.73-72.63c7.92,10.88,15.88,21.81,23.73,32.59
		c-9.88,8.1-19.68,16.12-29.96,24.54c-5.83-4.8-10.55-11.05-16.41-17.13c5.25-4.59,10.27-8.98,15.68-13.72
		c1.63,2.07,2.91,3.68,4.23,5.35c-3.43,3.07-6.61,5.91-9.87,8.82c0.53,0.77,0.88,1.41,1.34,1.92c1.56,1.72,3.17,3.39,5.17,5.52
		c6.76-5.55,13.44-11.05,20.41-16.77c-5.58-7.38-10.91-14.43-16.22-21.46c-16.93,10.91-52.66,45.53-63.24,61.29
		c6.86,5.57,13.75,11.17,20.85,16.94c5.94-6.72,11.6-13.11,17.42-19.69c-2.37-2.18-4.7-4.32-7.41-6.8
		c-2.87,3.03-5.78,6.11-8.94,9.44c-1.51-1.24-3.09-2.55-5.21-4.3c4.78-5.16,9.32-10.06,14.42-15.57
		c5.52,6.19,10.61,11.89,15.91,17.83C324.89,200.2,316.43,209.82,307.77,219.66z M476.55,104.99c-3.7-12.81-7.45-25.77-11.33-39.2
		c33.67-9.93,67.78-14.53,102.92-14.58c0,13.77,0,26.98,0,40.66c-12.6,0.79-25.33,1.58-38.62,2.41c-0.94-7.71-1.85-15.25-2.86-23.53
		c6.76-0.65,13.25-1.28,20.39-1.97c0.37,2.27,0.72,4.43,1.12,6.91c-4.79,0.41-9.14,0.79-13.84,1.19c0.39,3.57,0.72,6.52,1.09,9.96
		c8.67-0.46,17.15-0.9,25.99-1.37c0-9.01,0-17.84,0-27.42c-29.7,0.81-58.39,4.38-87.33,12.34c2.35,8.83,4.64,17.45,7,26.33
		c8.77-1.99,17.04-3.86,25.68-5.82c-0.53-3.18-1.02-6.11-1.61-9.69c-4.53,0.76-8.66,1.45-13.47,2.25c-0.36-1.97-0.71-3.95-1.18-6.55
		c6.67-1.35,13.04-2.63,20.12-4.06c1.34,7.83,2.63,15.3,4.02,23.43C502.11,99.16,489.56,102.02,476.55,104.99z M868.28,204.28
		c-10.94,7.98-21.73,15.85-32.83,23.95c-8.28-10.06-16.41-19.94-24.88-30.23c5.61-5.21,11.43-10.63,17.42-16.19
		c4.49,5.17,8.92,10.26,13.53,15.57c-1.77,1.62-3.34,3.04-5.04,4.6c-2.93-3.31-5.76-6.49-8.92-10.07c-2.62,2.17-5.02,4.16-7.66,6.35
		c5.73,6.96,11.16,13.56,16.98,20.63c7.2-5.46,14.26-10.8,21.29-16.13c-7.49-13.61-45.88-53.45-61.15-63.33
		c-5.52,6.79-11.1,13.64-16.92,20.8c6.74,5.91,13.23,11.62,19.94,17.5c2.25-2.45,4.29-4.66,6.78-7.37
		c-3.17-2.97-6.23-5.83-9.75-9.14c1.33-1.5,2.68-3.01,4.48-5.04c5.2,4.77,10.15,9.3,15.08,13.83c-5.77,5.76-11.2,11.18-16.89,16.86
		c-9.51-8.36-19.13-16.82-28.96-25.45c8.16-10.51,16.47-21.2,25.07-32.26C823.35,150.92,847.52,175.34,868.28,204.28z
		 M251.53,514.21c-13.02,3.8-25.94,7.56-39.25,11.44c-9.75-33.61-14.53-67.71-14.54-102.94c13.78,0,27.07,0,40.65,0
		c0.8,12.7,1.58,25.16,2.41,38.46c-7.69,0.93-15.35,1.87-23.64,2.87c-0.59-7.1-1.13-13.65-1.7-20.59c2.29,0,4.33,0,6.59,0
		c0.48,4,0.96,8.04,1.45,12.17c3.26,0,6.2,0,9.85,0c-0.48-8.89-0.95-17.36-1.43-26.27c-8.86,0-17.67,0-27.16,0
		c0.46,29.55,4.3,58.23,12.13,87.31c8.74-2.28,17.22-4.5,26.31-6.88c-1.98-8.78-3.87-17.19-5.84-25.92c-3.3,0.6-6.21,1.13-9.72,1.77
		c0.76,4.32,1.46,8.3,2.29,13.06c-1.75,0.51-3.65,1.06-6.35,1.84c-1.46-7.05-2.82-13.59-4.25-20.48c7.72-1.27,15.21-2.51,23.27-3.84
		C245.57,488.84,248.48,501.21,251.53,514.21z M570.74,247.91c12.31-0.65,23.1-5.52,32.91-13.08c8.66-6.67,17.03-14.39,29.47-13.38
		c6.48-10.75,15.15-18.99,27.09-22.73c16.68-5.21,28.12-0.29,35.24,10.5c5.16,7.82,4.65,16.84-1.24,23.38
		c-5.24,5.83-14.15,7.71-20.38,4.29c-7.61-4.18-10.37-11-7.93-19.71c0.34-1.21,0.84-2.37,1.56-4.37c-5.92,0.26-9.51,3.45-11.15,8.01
		c-2.2,6.11-1.29,12.22,3.27,17.32c9.07,10.14,34.78,10.48,43.89,0.35c4.01-4.45,6.64-9.58,4-16.02c-0.79-1.93-0.48-4.31-0.67-6.4
		c11.24-2.8,15.73,1.43,17.99,16.26c18.61,2.74,23.6,9.44,18.77,26.08c2.08,1.53,4.49,3.03,6.57,4.89
		c3.55,3.17,6.07,7.06,4.54,12.03c-1.33,4.32-4.92,5.5-9.2,5.73c-2.13,0.12-4.43,1.04-6.25,2.22c-7.62,4.96-15.71,5.4-24.59,3.21
		c3.55-8.09,3.29-15.92-2.09-22.71c-4.76-6.01-11.52-7.75-20.89-6.49c2.88,2.04,4.65,2.98,6.04,4.32
		c7.42,7.08,6.22,20.34-2.85,25.12c-3.3,1.73-8.22,1.95-11.89,0.97c-4.39-1.17-6.14-5.46-5.51-10.23c0.16-1.21,0.26-2.43,0.45-4.24
		c-8.17,1.52-8.86,7.22-8.72,13.91c-7.51-1.01-14.83-0.53-20.45-5.29c-7.41-6.27-15.17-6.12-23.73-3.37
		c-4.84,1.56-9.94,2.34-16.36,3.79c14.34-14.96,17.42-16.17,38.35-15.52c-1.93-2.9-3.67-5.45-5.34-8.05
		c-7.18-11.12-13.56-13.16-26.43-9.53c-9.92,2.79-19.97,5.85-30.15,6.82c-12.61,1.21-24.98-1.23-36.07-9.07
		C556.63,247.32,563.72,248.28,570.74,247.91z M445.26,192.38c5.24,0.27,10.11,0.93,14.94,0.67c8.46-0.45,15.88-3.79,22.62-8.99
		c5.95-4.59,11.71-9.89,20.26-9.2c4.45-7.39,10.41-13.05,18.62-15.62c11.47-3.58,19.33-0.2,24.22,7.22
		c3.55,5.38,3.19,11.57-0.85,16.07c-3.6,4.01-9.73,5.3-14.01,2.95c-5.23-2.87-7.13-7.56-5.45-13.55c0.23-0.83,0.58-1.63,1.07-3
		c-4.07,0.18-6.53,2.37-7.67,5.51c-1.52,4.2-0.89,8.4,2.25,11.9c6.24,6.97,23.91,7.21,30.17,0.24c2.75-3.06,4.56-6.58,2.75-11.01
		c-0.54-1.33-0.33-2.96-0.46-4.4c7.73-1.92,10.81,0.98,12.36,11.18c12.79,1.88,16.22,6.49,12.9,17.93c1.43,1.05,3.09,2.08,4.52,3.36
		c2.44,2.18,4.17,4.85,3.12,8.27c-0.91,2.97-3.38,3.78-6.33,3.94c-1.46,0.08-3.05,0.71-4.3,1.53c-5.24,3.41-10.8,3.71-16.9,2.21
		c2.44-5.56,2.26-10.94-1.43-15.61c-3.27-4.13-7.92-5.33-14.36-4.46c1.98,1.4,3.19,2.05,4.15,2.97c5.1,4.87,4.27,13.98-1.96,17.26
		c-2.27,1.19-5.65,1.34-8.18,0.66c-3.02-0.81-4.22-3.75-3.79-7.03c0.11-0.83,0.18-1.67,0.31-2.92c-5.62,1.04-6.09,4.96-5.99,9.56
		c-5.16-0.69-10.19-0.36-14.06-3.63c-5.1-4.31-10.43-4.21-16.31-2.31c-3.33,1.07-6.83,1.61-11.24,2.61
		c9.86-10.29,11.97-11.11,26.36-10.67c-1.33-2-2.52-3.75-3.67-5.53c-4.93-7.65-9.32-9.04-18.17-6.55
		c-6.82,1.92-13.73,4.02-20.72,4.69C461.39,199.44,452.89,197.76,445.26,192.38z M336.18,543.72c-0.63-0.32-1.7,0.09-2.53,0.31
		c-3.2,0.86-5.79-0.29-7.48-2.85c-1.62-2.45-2.13-5.24-0.45-8.1c0.63-1.07,0.54-2.58,1.19-3.63c0.98-1.58,2.05-3.43,3.58-4.28
		c3.18-1.78,6.67-3.02,10.04-4.47c-0.02-0.05-0.04-0.09-0.07-0.14c0.08,0.02,0.16,0.05,0.24,0.06l-0.14,0.14
		c2.43,2.68-1.57,2.92-1.7,5.06c1.02,0.24,2.25,0.53,3.97,0.94c-1.18,1.53-2.19,2.85-3.61,4.7c2-0.13,3.56-0.23,5.51-0.36
		c-0.12,1.45-0.23,2.74-0.35,4.13c1.72-1.35,3.34-2.62,5.31-4.17c0.91,4.72-2.23,7.08-4.23,9.79
		C343.21,543.93,340.26,545.81,336.18,543.72z M391.6,520.29c0.22,3.01-0.86,5.57-3.5,7.38c-1.23,0.84-2.18,2.08-3.39,2.96
		c-0.98,0.71-2.11,1.52-3.24,1.64c-4.43,0.47-8.68-0.28-13.67-2.94c2.66-0.65,4.28-1.04,6.33-1.54c-1.29-0.95-2.36-1.74-4.11-3.03
		c2.21-0.94,3.87-1.65,6-2.56c-1.83-0.76-3.39-1.42-5.37-2.24c0.67-1.1,1.3-2.14,2.15-3.53c-2.13,0.34-3.99,0.64-6.37,1.01
		c0.43-1.3,0.73-2.22,1.04-3.14c-0.52-0.07-1.04-0.14-1.95-0.26c0.25-1.71,0.49-3.36,0.84-5.79c-1.54,1.11-2.56,1.84-4.14,2.96
		c-0.14-2.35-0.24-4.18-0.37-6.34c-1.57,1.45-2.94,2.71-4.48,4.12c-0.49-1.34-0.85-2.31-1.49-4.06c-0.84,2.39-1.46,4.13-2.37,6.7
		c-0.93-1.58-2.04-2.63-2.12-3.75c-0.19-2.84-0.24-5.76,0.25-8.55c0.45-2.57,1.23-5.21,4.79-5.59c1.16-0.12,2.18-1.66,3.25-2.56
		c4.48-3.73,10.81-1.48,12,4.2c0.41,1.98,1.09,3.91,2.65,6.13c-2.02,4.08-4.04,8.17-6.07,12.25c1.97-0.83,3.89-1.82,5.92-2.46
		c3.74-1.19,7.63-2.8,10.24,2.12c0.31,0.58,1.56,0.68,2.38,0.98C389.59,515.41,391.38,517.35,391.6,520.29z M372.65,542.59
		c-0.92,2.86-1.61,4.99-2.29,7.12c-1.78,5.62-7.96,7.24-12.39,3.36c-1.69-1.48-3.64-2.65-6.31-4.57
		c-1.96-4.99-2.36-10.31,0.97-16.69c0.95,3.21,1.55,5.2,2.33,7.81c0.5-1.59,0.83-2.6,1.31-4.12c1.59,1.37,2.88,2.48,4.5,3.87
		c0.19-1.86,0.37-3.61,0.59-5.87c1.44,0.84,2.46,1.43,3.72,2.15c0-1.68,0-3.23,0-5.71C369.84,533.79,371.59,538.38,372.65,542.59z
		 M337.89,515.35c0.86,1.74,1.71,3.48,2.57,5.22c-5.28-1.24-9.41-4.24-12.47-7.71c-0.53-2.93-0.85-5.15-1.35-7.32
		c-1.37-5.92,4.48-11.29,9.55-8.91c1.93,0.91,4.44,0.6,7.51,0.93c3.45,3.51,7.37,7.5,6.52,14.92c-1.93-2.12-3.3-3.62-4.9-5.38
		c0.13,1.46,0.23,2.6,0.41,4.52c-2.41-0.83-4.27-1.47-6.62-2.28c1.18,2.09,2.12,3.73,3.25,5.73
		C340.63,515.18,339.26,515.26,337.89,515.35z M358.74,528.19c-2.67-0.47-5.08-0.89-7.85-1.38c-0.9-2.98-1.85-6.1-2.89-9.54
		c3.92-0.72,6.96-1.28,10.09-1.86c1.96,2.46,3.54,4.43,5.37,6.72C361.89,524.14,360.32,526.16,358.74,528.19z M322.94,440.31
		c-0.19-0.5-0.37-0.99-0.53-1.42c1.27-1.42,2.5-2.8,3.86-4.33c-0.64-0.15-1.49-0.35-2.63-0.63c0.21-0.63,0.41-1.23,0.66-1.97
		c-0.81-0.19-1.6-0.38-2.39-0.57c-0.07-1.1,3.57-2.93,6.12-3.11c4.32-0.3,7.76,2.85,7.86,7.24c-1.21,1.35-2.24,2.99-3.71,3.98
		c-1.31,0.89-3.08,1.33-4.69,1.46C326,441.1,324.46,440.58,322.94,440.31z M322.96,440.39c-0.01,0.01-0.01,0.01-0.02,0.02
		c-0.04-0.04-0.08-0.07-0.12-0.11c0.04,0.01,0.07,0.01,0.11,0.02C322.95,440.34,322.95,440.36,322.96,440.39z M316.12,452.2
		c-0.57-2.17-1.21-4.63-1.86-7.1c-2.14,2.35-3.79,4.17-5.32,5.85c-1.82,0-3.23,0.02-4.64,0c-3.84-0.07-5.51-2.32-4.4-5.91
		c0.41-1.33,0.76-2.68,1.22-4.33c2.17-2.07,4.88-3.37,8.78-2.8c-0.69,0.83-1.15,1.39-1.34,1.62c0,1.5,0,2.77,0,4.21
		c0.47-0.12,1.12-0.3,2.2-0.58c0.19,0.74,0.32,1.27,0.47,1.88c0.7,0,1.43,0,3.01,0c-0.05-0.19-0.1-0.37-0.15-0.56
		c0.39-0.26,0.78-0.52,1.17-0.78c0.39,0.74,0.78,1.47,1.2,2.28c0.49-0.7,0.87-1.25,1.39-1.99c0.73,0.66,1.42,1.28,2.17,1.96
		c0.52-1.46,0.94-2.87,1.55-4.19c0.25-0.54,0.9-0.9,1.37-1.33c0.9,0.85,1.84,1.67,2.68,2.58c1.63,1.76,2.83,3.56,1.38,6.16
		c-0.58,1.04-0.41,2.51-0.58,3.71C323.41,455.44,323.41,455.44,316.12,452.2z M301.46,436.05c-1.19-2.52-2.27-4.81-3.39-7.17
		c0.71-5.66,5.27-4.39,9.17-5.06c1.72,1.39,3.56,2.89,5.41,4.38c-1.06,0.93-2.13,1.86-3.46,3.03c-0.16-0.04-0.82-0.21-1.8-0.47
		c0.69,2.14,1.28,3.96,2.11,6.51C306.68,436.85,304.11,436.46,301.46,436.05z M312.76,428.29c-0.04-0.03-0.07-0.06-0.11-0.09
		c0.01-0.01,0.01-0.01,0.02-0.02v0h0l0,0l0,0c0.02,0.01,0.05,0.03,0.07,0.04C312.75,428.25,312.75,428.27,312.76,428.29z
		 M314.26,429.1c-0.62-0.35-1.07-0.61-1.52-0.87c-0.45-2.62-0.9-5.25-1.27-7.46c1.91-2.05,3.34-3.59,4.74-5.09
		c5.37-2.16,5.85,2.96,8.53,5.58c-0.72,2.5-1.44,5.05-2.17,7.59c-0.27-0.02-0.55-0.04-0.82-0.05c-0.2-0.71-0.41-1.43-0.65-2.26
		c-0.55,0.26-1.08,0.52-1.93,0.92c-0.27-0.9-0.5-1.66-0.83-2.73c-0.77,0.86-1.44,1.62-2.16,2.43c-0.53-0.45-0.94-0.79-1.47-1.24
		C314.56,426.93,314.43,427.88,314.26,429.1z M317.07,431.28c0.89,1.07,1.76,2.12,2.75,3.31c-0.34,1.48-0.68,2.98-1.06,4.61
		c-1.92,0.21-3.68,0.41-5.78,0.64c-0.11-2.14-0.21-3.91-0.3-5.73C314.06,433.23,315.32,432.41,317.07,431.28z M403.05,466.69
		c-0.88,0.98-1.64,2.19-2.71,2.91c-0.96,0.65-2.25,0.98-3.43,1.07c-1.09,0.08-2.22-0.29-3.33-0.49c-0.14-0.36-0.27-0.73-0.39-1.04
		c0.93-1.04,1.83-2.05,2.83-3.16c-0.47-0.11-1.09-0.26-1.93-0.46c0.16-0.46,0.3-0.9,0.48-1.44c-0.59-0.14-1.17-0.28-1.75-0.42
		c-0.05-0.81,2.61-2.14,4.48-2.27C400.46,461.17,402.97,463.48,403.05,466.69z M393.49,470.17c0.03,0,0.05,0.01,0.08,0.02
		c0.01,0.02,0.01,0.03,0.02,0.05c0,0-0.01,0.01-0.01,0.01C393.55,470.22,393.52,470.2,393.49,470.17z M393.58,470.25
		c0.66,0.62,1.34,1.22,1.96,1.88c1.19,1.29,2.07,2.6,1.01,4.51c-0.42,0.76-0.3,1.83-0.42,2.72c-2.21,1.89-2.21,1.89-7.54-0.47
		c-0.42-1.59-0.89-3.38-1.36-5.19c-1.56,1.72-2.78,3.05-3.89,4.28c-1.33,0-2.36,0.01-3.39,0c-2.81-0.05-4.03-1.7-3.22-4.32
		c0.3-0.97,0.55-1.96,0.89-3.17c1.59-1.51,3.57-2.47,6.42-2.05c-0.5,0.61-0.84,1.01-0.98,1.18c0,1.1,0,2.03,0,3.08
		c0.34-0.09,0.82-0.22,1.61-0.42c0.14,0.54,0.23,0.93,0.35,1.37c0.52,0,1.05,0,2.2,0c-0.04-0.14-0.07-0.27-0.11-0.41
		c0.29-0.19,0.57-0.38,0.86-0.57c0.28,0.54,0.57,1.08,0.88,1.67c0.36-0.51,0.64-0.91,1.02-1.45c0.54,0.48,1.04,0.93,1.59,1.43
		c0.38-1.07,0.69-2.1,1.13-3.07C392.76,470.83,393.23,470.57,393.58,470.25z M386.07,461.31c0.02,0.01,0.04,0.02,0.05,0.03
		c0,0.02,0.01,0.03,0.01,0.05c-0.03-0.02-0.05-0.04-0.08-0.06C386.06,461.32,386.06,461.32,386.07,461.31z M382.1,458.12
		c1.26,1.02,2.61,2.11,3.96,3.21c-0.78,0.68-1.56,1.36-2.53,2.21c-0.12-0.03-0.6-0.16-1.32-0.34c0.51,1.56,0.94,2.9,1.54,4.77
		c-2.07-0.32-3.95-0.6-5.89-0.9c-0.87-1.84-1.66-3.52-2.48-5.25C375.91,457.68,379.24,458.61,382.1,458.12z M387.23,461.98
		c-0.45-0.26-0.78-0.45-1.11-0.63c-0.33-1.92-0.66-3.84-0.93-5.46c1.39-1.5,2.44-2.62,3.47-3.73c3.93-1.58,4.28,2.17,6.24,4.08
		c-0.52,1.83-1.06,3.69-1.59,5.56c-0.2-0.01-0.4-0.03-0.6-0.04c-0.15-0.52-0.3-1.04-0.47-1.65c-0.4,0.19-0.79,0.38-1.41,0.67
		c-0.2-0.66-0.37-1.21-0.61-2c-0.56,0.63-1.05,1.18-1.58,1.78c-0.39-0.33-0.69-0.58-1.08-0.91
		C387.44,460.39,387.35,461.08,387.23,461.98z M389.28,463.58c0.65,0.78,1.29,1.55,2.01,2.42c-0.25,1.08-0.5,2.18-0.77,3.37
		c-1.41,0.16-2.69,0.3-4.23,0.47c-0.08-1.56-0.15-2.86-0.22-4.19C387.08,465,388.01,464.4,389.28,463.58z M883.14,427.67
		c1.47-84.57-30.42-164.58-89.79-225.31c-59.21-60.56-138.65-94.15-223.7-94.58h-0.02c-83.79,0.19-162.54,32.8-221.75,91.82
		c-59.16,58.97-91.96,137.46-92.36,221c-0.4,83.27,31.46,161.9,89.71,221.39c58.18,59.43,135.9,92.89,218.85,94.22
		c1.71,0.03,3.41,0.04,5.11,0.04C739.81,736.26,880.16,598.87,883.14,427.67z M448.62,699.95c12.76-9.2,37.6-3.15,45.33,15.27
		c-6.13-1.53-11.56-2.28-16.08-6c-4.15-3.41-9.19-4.81-14.54-4.6C457.86,704.83,453.55,702.03,448.62,699.95z M527.35,690.68
		c-2.13,3.47-4.32,7.04-6.73,10.98c-4.46-6.06-8.53-11.6-12.61-17.14C513.95,679.36,523.33,682.22,527.35,690.68z M498.52,677.44
		c-2.39-1.45-4.64-2.83-6.92-4.22c10.5-14.75,39.02-12.59,49.42,4.13c-2.15,1.75-4.07,3.3-6.24,5.07
		c-4.92-5.22-10.29-9.15-17.42-9.99C510.44,671.63,504.36,673.82,498.52,677.44z M576.18,703.76c-12.67,0.58-19.9,8.43-23.4,20.43
		c-2.78-0.17-5.4-0.34-7.98-0.5c-0.21-11.92,12.26-27.85,30.83-29.01c18.74-1.17,33.39,13.81,34.66,26.97
		c-2.58,0.34-5.19,0.69-8.07,1.08C597.8,710.41,589.44,703.15,576.18,703.76z M591.52,723.86c-9.4,0.3-18.58,0.6-27.92,0.9
		c1.76-7.24,6.53-11.12,13.42-11.37C583.66,713.15,589.26,716.97,591.52,723.86z M640,679.08c-2.93,5.26-5.85,10.52-8.88,15.95
		c-3.95-4.6-7.84-9.13-11.96-13.91C625.74,674.05,633.77,673.35,640,679.08z M610.93,675.32c-2.54-1.35-4.86-2.59-7.18-3.83
		c8.99-17.46,37.9-19.81,49.89-5.14c-2.01,1.63-4.03,3.26-6.26,5.07c-5.73-4.18-11.99-6.42-19.05-5.77
		C621.22,666.31,615.59,669.77,610.93,675.32z M657.16,710.95c2.08-10.76,7.89-18.4,17.02-23.17c11.39-5.95,22.82-5.44,34.76,1.75
		l-8.5,4.91c-1.55-0.37-3.09-0.77-4.65-1.09c-10.72-2.15-19.75,1.09-25.81,9.96C666.8,707.96,663.02,709.96,657.16,710.95z
		 M718.97,684.38c-29.15-22.45-68.05-6.23-72.66,30.05c-2.45,0.56-4.67,1.06-7.88,1.79c-0.03-3.65-0.6-6.86,0.01-9.81
		c8.02-38.42,54.36-54.71,84.82-29.89c0.95,0.77,1.75,1.71,3.16,3.11C723.67,681.38,721.24,682.93,718.97,684.38z M663.33,660.86
		c-10.13-9.83-22.2-15.3-36.64-13.8c-14.19,1.48-25.08,8.64-33.17,20.63c-2.83-0.51-5.59-1.02-8.35-1.52
		c0.95-8.39,17.06-23.84,34.27-27.51c23.09-4.93,44.53,6.71,52.12,18.78C668.94,658.53,666.37,659.6,663.33,660.86z M618.45,695.25
		c3.16,3.78,5.4,8.36,7.79,12.73c1.78,3.26,1.58,6.85,0.78,10.78c-2.05,0.41-4.08,0.82-6.42,1.3c-3.4-12.77-10.07-22.8-21.34-29.34
		c-7.63-4.43-15.89-6.28-24.71-5.68c-15.93,1.08-35.05,11.75-40.46,37.57c-2.75-0.32-5.2-0.61-8.32-0.97
		c0.22-2.29,0.1-4.4,0.66-6.32c5.89-20.44,18.97-33.93,39.84-38.4C587,672.5,604.75,678.86,618.45,695.25z M554.22,670.32
		c-1.32,0.52-2.68,0.92-3.98,1.36c-18.61-23.48-50.52-23.76-69.8-2.73c-3.03-0.65-5.81-1.24-9.44-2.01
		c10.83-15.05,25.08-22.46,42.88-22.59c18.86-0.14,33.44,8.25,44.69,23.99C556.69,669.2,555.48,669.82,554.22,670.32z M482.59,680
		c17.16,6.65,31.43,24.44,32.34,39.83c-2.87-0.53-5.65-1.05-8.92-1.65c-4.59-14.3-13.71-24.85-28.18-29.9
		c-14.5-5.06-28.05-2.32-40.59,6.52c-2.9-1.43-5.78-2.9-8.63-4.41C440.39,677.94,463.71,672.69,482.59,680z M355.9,206.85
		c57.35-56.96,133.1-88.27,213.45-88.27c0.43,0,0.87,0,1.31,0c166.26,0.7,301.66,136.78,301.83,303.33
		c0.08,82.25-32.36,159.32-91.36,217.02c-13.9,13.6-28.85,25.67-44.64,36.21c-0.35-0.38-0.7-0.76-1.05-1.14
		c-0.02,0.01-0.03,0.02-0.05,0.03c-14.57-14.05-32.11-20.63-52.51-18.85c-14.7-19.49-33.87-29.44-58.19-27.01
		c-24.09,2.41-40.87,15.71-51.45,37.5c-1.29,0.19-2.64,0.39-4.29,0.64c-12.78-20.33-30.89-31.79-55.07-31.69
		c-23.98,0.1-41.87,11.5-53.88,30.98c-8.01,2.46-15.64,3.99-22.51,7.16c-6.65,3.06-12.55,7.76-19.03,11.94
		c-15.68-9.15-30.49-19.66-44.26-31.38c1.85-0.24,3.67-0.72,5.24-1.55c2.65-1.39,4.45-4.86,3-7.47c-1.07-1.93-3.42-2.71-5.03-4.21
		c-2.47-2.31-2.95-6.17-2.05-9.43c0.9-3.26,2.93-6.08,4.92-8.81c2.73-0.75,3.62-1.81,4.14-4.6c0.52-2.78-0.67-5.82-2.95-7.5
		c-1.52-1.12-3.66-1.96-3.93-3.83c-0.26-1.79,1.49-3.27,3.22-3.8c1.73-0.54,3.64-0.56,5.22-1.45c2.86-1.61,3.6-5.52,2.85-8.71
		c-0.75-3.19-2.62-6-3.85-9.04c-1.23-3.04-1.74-6.74,0.12-9.44c-1.47-4.61-2.6-7.17-0.65-11.6c-2.24-0.09-4.49-0.18-6.73-0.28
		c-0.71-1.99-0.92-4.16-0.59-6.25c-5.05,6.82-15.62,8.74-22.74,4.13c0.87,5.34,6.1,9.59,11.5,9.37c0.92-0.04,2.04-0.09,2.51,0.7
		c0.57,0.97-0.43,2.06-1.23,2.85c-2.34,2.33-3.53,5.77-3.13,9.05c0.4,3.28,2.37,6.33,5.2,8.04c2.02,1.22-0.19,4.32-1.74,6.1
		c-1.55,1.78-3.83,2.69-6,3.63c-2.16,0.94-4.4,2.07-5.64,4.08c-1.24,2.01-0.95,5.12,1.15,6.18c0.56,0.28,1.23,0.41,1.65,0.88
		c0.72,0.79,0.37,2.03-0.01,3.03c-1.25,3.21-2.66,6.62-5.51,8.55c-2.82,1.91-6.28,1.92-9.72,1.24
		c-47.85-53.86-77.12-124.57-77.27-201.32C266.34,340.49,298.22,264.14,355.9,206.85z M323.02,471.75c-1.9-2.73-1.93-6.63-0.06-9.39
		c0.87-1.29,2.48-2.01,3.8-2.82c-0.08,2.53,2.04,4.94,4.57,5.18s5.06-1.73,5.46-4.23c-0.95,3.91,1.98,7.56,4.15,10.95
		c1.22,1.9,2.53,4.07,4.03,6.08c1.47-2.3,4.05-3.92,6.79-3.98c1.47-0.03,2.95,0.34,4.41,0.17c2.52-0.28,4.65-2.13,5.93-4.33
		c1.27-2.19,1.83-4.72,2.38-7.2c2.48,2.24,4.36,5.15,5.36,8.34c-2.56-0.6-4.8,1.79-6.07,4.09c-1.27,2.3-2.49,5.01-4.98,5.84
		c-1.76,0.58-3.66,0.03-5.52,0.01c-1.44-0.02-3.08,0.54-3.83,1.66c1.04,0.74,2.15,1.32,3.36,1.63c-2.02,1.91-4.03,3.82-6.05,5.74
		c-4.26-4.84-11.42-6.89-17.6-5.05c0.89-3.13,1.78-6.26,2.67-9.39C328.57,475.86,324.92,474.48,323.02,471.75z M292.75,406.82
		c-0.92-1.87-0.76-4.06-0.87-6.15c-0.34-6.35-3.31-12.18-6.53-17.72c1.93,2.7,4.76,4.76,7.96,5.68c2.6,0.75,5.97,1.28,6.62,3.9
		c0.51,2.04-1.11,4-1.3,6.09c-0.24,2.7,1.86,4.95,3.7,6.94c1.83,1.99,3.73,4.79,2.85,7.34c0.54-0.51,1.09-1.02,1.63-1.53
		c-0.25,1.78-1.01,3.49-2.18,4.85C303.66,411.47,294.89,411.17,292.75,406.82z M283.96,380.6c0.46,0.78,0.93,1.57,1.39,2.36
		C284.82,382.21,284.34,381.43,283.96,380.6z"/>
</g>
<g id="Dog">
	<path class="st0" d="M340.83,310.17c1.41,1.46,2.15,3.87,2.51,5.96c0.46,2.66,0.27,5.45,0.25,8.18
		c-0.03,6.69-1.09,13.49,2.09,19.82c1.22,2.44,1.34,4.97,0.89,7.55c-1.47,8.43-3.06,16.83-4.49,25.27
		c-0.79,4.67-0.87,9.6,1.69,13.55c2.49,3.84,6.02,7.12,9.47,10.2c3.33,2.97,7.71,2.18,11.46,1.17c3.03-0.82,5.55-0.61,8.29,0.45
		c2.83,1.09,5.29,0.43,7.47-1.73c2.03-2.01,4.25-3.82,6.34-5.76c2.75-2.56,5.6-5.03,8.15-7.78c5.55-5.95,11.85-10.66,19.86-12.71
		c0.49-0.13,1.02-0.09,1.54-0.13c0.08,0.26,0.16,0.51,0.23,0.77c-0.71,0.44-1.44,0.86-2.14,1.32c-2.33,1.55-4.93,2.83-6.91,4.75
		c-3.15,3.05-2.99,4.73-1.18,7.99c1.88,3.38,5.06,5.3,7.72,7.83c10.25,9.73,21.11,18.74,32.63,26.9c4.29,3.04,7.7,6.77,10.28,11.09
		c5.52,9.25,10.59,18.76,15.75,28.22c1.59,2.91,2.97,5.95,4.25,9.01c0.41,0.98,0.59,2.43,0.17,3.33c-2.8,5.96-7.4,10.62-11.73,15.43
		c-5.83,6.48-11.86,12.78-17.85,19.11c-4.17,4.39-8.36,8.77-12.67,13.02c-2.4,2.37-5.58,3.91-6.29,7.79
		c-0.5,2.71-2.05,5.22-2.61,7.92c-1.25,6.07-2.13,12.22-3.25,18.32c-2.23,12.13-4.5,24.24-10.08,35.46
		c-0.96,1.94-1.25,4.48-1.05,6.68c0.43,4.87,4.77,9.66,10.87,6.33c1.8-0.98,3.41-2.31,5.13-3.45c0.84-0.55,1.74-1,2.57-1.57
		c2.23-1.51,4.77-2.76,6.55-4.7c1.19-1.3,0.9-3.86,1.95-5.39c1.07-1.56,3.03-2.47,4.48-3.8c0.56-0.52,0.84-1.38,1.14-2.13
		c1.56-3.92,1.53-7.76-0.58-11.51c-2.75-4.86-1.26-9.07,1.68-13.35c2.78-4.04,5.01-8.45,7.58-12.64c0.94-1.53,1.89-3.25,3.28-4.28
		c10.85-8.06,21.84-15.93,32.72-23.95c3.8-2.8,7.41-5.87,11.12-8.79c3.64-2.87,7.15-5.94,11-8.5c5.95-3.96,12.15-7.55,18.24-11.29
		c4.07-2.5,5.16-5.13,4.12-9.71c-0.18-0.77-0.2-1.61-0.11-2.4c0.42-3.52,0.85-7.04,1.4-10.54c0.14-0.9,0.73-1.73,1.11-2.59
		c0.28,0.01,0.56,0.02,0.84,0.03c0.42,1.5,1.09,2.99,1.22,4.52c0.45,5.37,0.89,10.75,0.93,16.13c0.01,1.99-0.87,4.1-1.76,5.96
		c-1.41,2.99-3.52,5.68-4.68,8.74c-1.21,3.17-1.82,6.47-0.3,10.03c2.59,6.11,4.96,12.34,6.87,18.69
		c5.01,16.57,8.48,33.48,10.29,50.7c0.09,0.85-0.46,2.08-1.13,2.64c-2.2,1.84-4.57,3.48-6.91,5.15c-2.5,1.79-5.34,3.22-7.48,5.36
		c-2.38,2.37-2.56,5.64-1.11,8.68c1.49,3.11,4.46,3.23,7.45,3.12c0.83-0.03,1.81,0.03,2.49,0.44c3.6,2.15,7.23,2.11,11.06,0.69
		c0.92-0.34,2.37-0.45,3.09,0.05c2.63,1.81,5.35,1.63,8.06,0.71c3.45-1.17,6.78-2.7,8.69-6.08c1.87-3.32,2.18-6.96,1.8-10.68
		c-0.17-1.65,0.22-2.89,1.49-4.12c1.95-1.9,3.32-4.22,2.48-7.14c-0.95-3.31-1.99-6.59-2.99-9.89c-0.95-3.1-1.07-6.14-0.24-9.36
		c0.53-2.05,0.69-4.59-0.09-6.45c-0.71-1.67-1.26-3.31-1.65-5.06c-3.82-17.22-7.67-34.44-11.48-51.67
		c-1.88-8.5-3.75-16.99-5.45-25.52c-0.74-3.71-0.58-3.97,3.14-4.75c8.23-1.71,16.45-3.65,24.77-4.64
		c15.1-1.79,28.78-7.98,42.84-12.98c3.77-1.34,7.29-3.59,10.65-5.83c9.46-6.31,18.76-12.84,28.15-19.26
		c0.57-0.39,1.29-0.58,1.94-0.86c-0.32,1.19-0.85,1.99-1.54,2.62c-6.57,6-11.55,13.22-16.14,20.74c-1.46,2.39-1.63,5-0.42,7.61
		c7.62,16.37,18.5,30.08,33.74,39.93c5.11,3.3,9.27,7.47,13.55,11.63c15.17,14.72,17.97,32.11,10.71,51.39
		c-4.35,11.54-9.28,22.85-17.26,32.53c-0.69,0.84-1.15,2.42-0.86,3.43c0.83,2.95,2.59,5.24,5.8,6.09c6.17,1.63,11.5-0.33,16.47-3.81
		c1.01-0.7,2.24-1.54,2.62-2.58c0.9-2.47,2.68-3.71,4.91-4.67c1.01-0.44,1.93-1.09,2.85-1.7c1.79-1.18,2.63-2.81,2.74-5.01
		c0.11-2.26,0.29-4.6,1-6.72c1.72-5.18,3.66-10.29,5.71-15.35c4.67-11.56,9.52-23.05,14.17-34.62c1.89-4.69,0.12-9.57-4.04-12.42
		c-1.27-0.87-2.49-1.88-3.49-3.04c-3.39-3.91-6.71-7.87-9.97-11.88c-8.49-10.43-11.37-22.57-10.16-35.68
		c0.29-3.16,0.07-5.83-1.11-8.69c-2.81-6.74-5.43-13.57-8.06-20.38c-0.35-0.91-0.37-1.94-0.54-2.92c0.31-0.11,0.61-0.21,0.92-0.32
		c0.68,1.06,1.44,2.08,2.02,3.18c4.35,8.2,8.55,16.48,13.02,24.61c3.77,6.85,7.95,13.49,11.78,20.31
		c4.69,8.34,10.04,16.22,16.43,23.33c7.9,8.79,15.92,17.48,24.06,26.05c4.67,4.91,7.46,10.82,9.5,17.05
		c1.25,3.81,1.75,7.91,2.19,11.93c0.77,7.03,1.26,14.09,1.77,21.14c0.05,0.68-0.38,1.62-0.91,2.06c-1.19,0.97-2.51,1.83-3.89,2.51
		c-4.82,2.41-8.85,5.92-11.54,10.41c-3.46,5.77-2.34,9.76,3.17,13.64c3.53,2.49,7.33,2.57,11.17,0.92c2.22-0.95,4.3-1.17,6.59-0.28
		c2.12,0.83,4.2,0.43,6.16-0.74c2.37-1.42,4.38-2.98,5.5-5.78c1.27-3.19,3.14-6.15,4.83-9.17c0.54-0.96,1.16-1.99,2.02-2.63
		c2.69-1.98,3.36-5.06,1.6-7.95c-0.36-0.59-0.6-1.35-0.6-2.03c0.03-16.02,0.11-32.03,0.16-48.05c0.01-2.23-0.18-4.42-1.8-6.23
		c-1.94-2.18-3.98-4.31-5.65-6.7c-2.64-3.78-5.19-7.65-7.46-11.66c-4.69-8.26-6.76-17.34-7.28-26.71
		c-0.56-10.24-1.06-20.51-0.79-30.75c0.32-11.95,1.76-23.86,2.25-35.81c0.46-11.11,0.05-22.19-5.24-32.43
		c-0.48-0.93-0.66-2-0.99-3.01c1.91,2.07,3.31,4.4,4.88,6.6c0.55,0.77,1.49,1.73,2.31,1.78c3.29,0.2,6.73,0.68,9.87-0.03
		c6.44-1.47,12.02-4.83,16.63-9.66c7.36-7.71,12.54-16.75,16.36-26.63c2.01-5.19,3.05-10.5,1.86-16.05
		c-0.25-1.14-0.67-2.25-1.01-3.37c-0.22,0.02-0.44,0.04-0.66,0.06c-0.35,0.72-0.69,1.43-1.19,2.46c-0.24-1.99-0.27-3.63-0.65-5.18
		c-3.95-15.9-11.55-29.18-26.72-36.99c-2.63-1.35-3.63-0.95-4.17,1.88c-6.61-1.55-19.07-1.73-20.8-0.26c0.76,1.78,2,2.85,3.96,3.38
		c13.47,3.68,27.1,19.87,23.3,36.32c-1.25,5.42-2.13,10.88-5.48,15.52c-3.52,4.88-8.2,7.45-14.27,6.72
		c-4.56-0.55-8.85-1.91-12.87-4.39c-9.75-5.99-19.61-11.85-30.56-15.5c-14.24-4.75-28.68-7.79-43.88-6.97
		c-12.67,0.68-25.4,0.29-38.1,0.68c-9.74,0.3-19.46,1.08-29.2,1.64c-6.34,0.36-12.69,1.13-19.01,0.97
		c-8.4-0.22-16.78-1.65-25.18-1.68c-13.95-0.04-27.9,0.63-41.85,0.97c-7.07,0.17-14.15,0.47-21.22,0.34
		c-4.04-0.07-8.09-0.76-12.1-1.38c-14.35-2.23-28.94-2.89-43.04-6.9c-7.49-2.13-15.25-3.3-22.88-4.91c-1.38,1.84-2.68,3.6-3.99,5.36
		c0.52-2.53,1.41-4.78,2.23-7.07c1.65-4.61,3.18-9.34,2.63-14.27c-0.92-8.27-1.99-16.54-3.44-24.73c-1.16-6.56-4.58-12.3-8.1-17.86
		c-2.46-3.88-5.76-3.75-8.42-0.03c-4.69,6.54-9.25,13.18-14.17,19.55c-3.75,4.84-7.93,9.35-12.01,13.92
		c-0.95,1.06-2.29,1.78-3.45,2.66c-0.24-0.2-0.47-0.41-0.71-0.61c1.32-2.83,2.64-5.66,4.03-8.63c-8.74,0-17.02,0-25.44,0
		c0.17,0.69,0.41,1.24,0.44,1.81c0.06,1,0,2.01-0.01,3.01c-1-0.5-2.04-0.94-3-1.52c-0.49-0.29-0.83-0.83-1.23-1.27
		c-3.11-3.45-6.13-6.98-9.33-10.34c-9.64-10.1-19.36-20.11-29.02-30.19c-2.02-2.1-3.09-2.13-4.52,0.51
		c-1.44,2.65-2.9,5.36-3.78,8.23c-3.28,10.59-4.15,21.43-2.33,32.39C330.81,295.09,334.24,303.34,340.83,310.17z M765.59,420.02
		c-8.77,1.99-16.6-8.46-7.42-13.81c10.68-6.23,17.82-18.37,17.77-30.74C780.21,387.32,782.67,416.15,765.59,420.02z M769.3,366.95
		c-0.74,1.21-0.03,5.57-0.26,7.18c-0.34,2.49-0.96,4.97-1.78,7.34c-0.51,1.47-1.3,3.17-2.31,4.8c-1.93,3.1-4.66,5.98-7.78,6.73
		c-7.57,1.82-7.71-5.7-4.05-9.96C758.33,376.98,764.92,374.05,769.3,366.95z M736.56,378.88c-6.23,5.52-15.72,0.77-10.89-7.72
		c1.4-2.47,1.83-3.22,4.27-4.68c10.24-6.09,22.92-7.92,34.46-4.96C753.03,364.73,745.16,371.26,736.56,378.88z M694.05,345.18
		c1.09-3.03,4.15-5,7.29-5.68c18.39-3.96,40.56,2.88,56.96,11c-7.03-3.48-19.98-1.93-27.55-1.34c-5.89,0.46-10.71,2.22-16.18,3.47
		c-0.51,0.12-1.02,0.23-1.53,0.33C707.47,354.1,690.27,355.7,694.05,345.18z M685.42,381.54c-0.96,2.28-3.05,2.79-5.35,1.81
		c-2.73-1.16-4.87-2.9-6.24-7.31c3.63,0.33,6.25,0.39,8.81,0.84C685.14,377.33,686.45,379.1,685.42,381.54z M674.19,364.58
		c0.74-1.18,2.88-2.32,4.17-2.12c2.32,0.37,2.57,2.72,2.09,4.69c-0.87,3.56-4.4,5.6-7.67,6.95
		C671.03,370.68,672.56,367.16,674.19,364.58z M671.02,379.32c3.45,2.67,3.54,7.44,3.05,10.83c-0.13,0.93-1.84,2.36-2.72,2.29
		c-1.23-0.1-3.07-1.16-3.42-2.21C666.66,386.37,667.85,381.98,671.02,379.32z M663.73,362.92c4.95,2.11,5.5,5.87,5.03,11.16
		c-4.47-1.98-8.05-3.61-8.42-8.87C660.59,362.82,662.3,362.21,663.73,362.92z M658.25,377.32c3.11-1.46,6.25-0.95,9.7,0.17
		c-1.77,3.73-4.39,5.45-7.65,6.26c-1.79,0.45-3.56,0.25-4.34-1.78C655.08,379.69,656.43,378.17,658.25,377.32z M621.52,383.73
		c3.45,0.22,8.5,3.54,9.58,6.6c1.95,5.49-2.9,8.86-7.76,10.14c-8.81,2.32-17.45-2.96-24.29-8.51
		C604.45,384.06,613.94,383.23,621.52,383.73z M603.71,354.2c5.5-2.29,8.86,0.72,9.03,4.69c1.27,13.33-6.3,18.98-18.42,24.25
		C593.33,371.04,592.65,361.27,603.71,354.2z M596.05,396.55c3.59,8.31,6.58,14.13,8.62,20.26c1.99,5.98-0.32,10.96-6.87,11.6
		c-6.14,0.61-9.73-3.36-10.32-9.55C586.77,411.53,588.03,404.79,596.05,396.55z M561.84,364.55c3.95-4.64,8.88-3.48,12.89-0.53
		c6.88,5.06,9.49,12.52,11.14,21.41c-10.25,0.56-17.11-3.12-22.77-9.28C560,372.77,558.34,368.66,561.84,364.55z M558.04,400.52
		c6.91-7.37,17.91-9.98,27.5-6.22c-1.74,10.72-12.05,16.58-20.04,19.54c-2.2,0.81-7.34-1.21-8.24-3.22
		C556.02,407.81,556.15,402.54,558.04,400.52z M509.3,446.31c-0.67,0.79-3.08,1.12-3.86,0.54c-1.09-0.81-2.18-2.86-1.88-4.05
		c1.06-4.33,4.73-7.71,9.22-8.34C514.42,438.97,511.73,443.45,509.3,446.31z M524.86,444.93c-2.23,1.56-4.46,0.81-6.03-1.44
		c-1.86-2.67-2.83-5.53-1.53-10.43c3.18,2.42,5.58,4.01,7.69,5.92C527.05,440.85,527.24,443.26,524.86,444.93z M524.31,422.63
		c1.38-0.66,4.03-0.48,5.11,0.46c1.94,1.69,0.8,4.03-0.79,5.58c-2.88,2.8-7.35,2.64-11.18,1.98
		C517.82,426.45,521.29,424.08,524.31,422.63z M511.08,415.13c1.62-2.07,3.56-1.64,4.49-0.15c3.37,4.85,1.68,8.66-1.83,13.3
		C510.74,423.85,508.36,420.24,511.08,415.13z M510.98,430.99c-3.82,2.43-7.25,2.5-10.76,1.36c-1.92-0.63-3.45-1.84-2.99-4.18
		c0.52-2.64,2.66-3.26,4.84-2.99C505.81,425.63,508.43,427.93,510.98,430.99z M472.69,340.26c6.03-2.91,11.01-5.75,17.97-6.53
		c3.34-0.37,5.93,2.22,6.57,5.52c0.63,3.3-0.24,5.6-3.36,6.84c-13.47,5.37-27.98,5.61-41.24-0.25
		C459.33,344.84,466.54,343.22,472.69,340.26z M480.16,364.7c8.28,1.37,20.36,4.14,23.31,13.63c1.44,4.62-0.93,9.99-5.1,12.44
		c-10.33,6.07-20.73-6.36-28.16-12.05c-4.99-3.82-9.97-7.65-14.97-11.46c-3.55-2.71-9.51-9.43-13.78-10.47
		C454.26,359.9,467.17,362.54,480.16,364.7z M455.25,407.7c-3.54,1.65-8.38,0.6-10.26-2.83c-2.93-5.37,1.55-12.56,1.45-18.31
		c-0.07-4.14-1.51-14.09-5.77-16.34C450.34,375.31,473.74,399.08,455.25,407.7z M419.87,295.51c3.58-7.01,7.16-14.02,10.77-21.02
		c0.25-0.49,0.68-0.89,1.45-1.17c-0.53,2.26-0.64,4.72-1.66,6.73c-2.85,5.64-3.59,11.62-4.01,17.79c-0.4,5.86-1.22,11.69-1.85,17.54
		c-0.36,0.07-0.73,0.14-1.09,0.21c-1.31-3.01-2.55-6.05-3.96-9.02C417.71,302.79,418.02,299.14,419.87,295.51z M369.66,332.01
		c-0.48,0.57-2.23,0.81-2.79,0.39c-0.79-0.58-1.57-2.07-1.36-2.93c0.77-3.13,3.42-5.57,6.67-6.03
		C373.36,326.7,371.41,329.94,369.66,332.01z M380.9,331.01c-1.61,1.13-3.23,0.59-4.36-1.04c-1.34-1.93-2.05-4-1.11-7.54
		c2.3,1.75,4.04,2.89,5.56,4.28C382.49,328.07,382.62,329.81,380.9,331.01z M388.51,343.46c2.48-2.42,5.02-4.81,7.71-6.98
		c0.86-0.69,2.36-1.05,3.48-0.9c3.65,0.5,7.26,1.26,10.87,2.03c0.51,0.11,1.1,0.75,1.25,1.26c0.09,0.3-0.61,0.85-1,1.24
		c-0.14,0.15-0.42,0.3-0.6,0.25c-3.03-0.75-4.6,1.64-6.65,3.04c-3.84,2.6-8.19,3.17-12.7,3.12c-1.27-0.01-2.54,0.12-4.55,0.22
		C387.18,345.44,387.67,344.27,388.51,343.46z M380.51,314.89c0.99-0.48,2.91-0.35,3.69,0.34c1.4,1.22,0.58,2.91-0.57,4.03
		c-2.08,2.02-5.31,1.91-8.08,1.43C375.82,317.65,378.33,315.94,380.51,314.89z M370.95,309.48c1.17-1.5,2.58-1.18,3.24-0.11
		c2.44,3.5,1.22,6.26-1.33,9.61C370.7,315.77,368.98,313.17,370.95,309.48z M360.94,318.89c0.37-1.91,1.92-2.35,3.5-2.16
		c2.7,0.33,4.59,1.99,6.44,4.2c-2.76,1.76-5.24,1.81-7.78,0.98C361.71,321.46,360.61,320.58,360.94,318.89z M339.74,262.73
		c0.08,0.35,0.06,0.77,0.25,1.03c4.77,6.47,9.47,13,14.39,19.36c2.46,3.18,3.51,6.39,2.02,10.26c-1.19,3.09-2.17,6.25-3.45,9.3
		c-0.43,1.02-1.48,1.78-2.25,2.65c-0.32-0.2-0.63-0.39-0.95-0.59c0.42-1.28,0.67-2.66,1.3-3.83c1.08-2.01,1.04-3.96,0.19-5.95
		c-2.44-5.76-5.01-11.46-7.33-17.27c-1.87-4.69-3.44-9.51-5.14-14.27C339.1,263.2,339.42,262.97,339.74,262.73z"/>
</g>
</svg>
