<?xml version="1.0" encoding="utf-8"?>
<!-- Generator: Adobe Illustrator 24.1.0, SVG Export Plug-In . SVG Version: 6.00 Build 0)  -->
<svg version="1.1" id="Dog" xmlns="http://www.w3.org/2000/svg" xmlns:xlink="http://www.w3.org/1999/xlink" x="0px" y="0px"
	 viewBox="0 0 1190.55 841.89" style="enable-background:new 0 0 1190.55 841.89;" xml:space="preserve">
<style type="text/css">
	.st0{fill:#B0252C;}
</style>
<path class="st0" d="M135.76,195.31c2.68,2.78,4.09,7.37,4.77,11.35c0.87,5.07,0.51,10.37,0.49,15.57
	c-0.07,12.74-2.07,25.68,3.98,37.74c2.32,4.64,2.56,9.46,1.7,14.38c-2.81,16.04-5.82,32.05-8.55,48.1
	c-1.51,8.89-1.66,18.27,3.22,25.8c4.74,7.32,11.45,13.55,18.04,19.43c6.34,5.66,14.69,4.14,21.81,2.22
	c5.78-1.56,10.56-1.16,15.78,0.85c5.39,2.07,10.07,0.82,14.23-3.3c3.86-3.82,8.1-7.27,12.08-10.97c5.24-4.87,10.65-9.59,15.52-14.8
	c10.57-11.33,22.55-20.29,37.81-24.19c0.94-0.24,1.95-0.18,2.93-0.26c0.15,0.49,0.3,0.98,0.44,1.46c-1.36,0.83-2.75,1.63-4.07,2.51
	c-4.44,2.95-9.39,5.39-13.16,9.04c-6,5.8-5.7,9-2.24,15.21c3.58,6.44,9.63,10.09,14.69,14.9c19.51,18.53,40.2,35.68,62.13,51.21
	c8.16,5.78,14.66,12.88,19.57,21.11c10.5,17.61,20.16,35.72,29.99,53.72c3.03,5.54,5.66,11.33,8.09,17.16
	c0.78,1.87,1.13,4.63,0.32,6.35c-5.33,11.34-14.09,20.21-22.32,29.37c-11.1,12.33-22.57,24.33-33.99,36.38
	c-7.93,8.37-15.91,16.69-24.11,24.79c-4.56,4.51-10.62,7.44-11.98,14.83c-0.95,5.16-3.9,9.93-4.96,15.08
	c-2.38,11.56-4.05,23.26-6.18,34.87c-4.24,23.1-8.57,46.16-19.19,67.5c-1.84,3.69-2.37,8.54-2,12.72
	c0.82,9.27,9.07,18.39,20.7,12.04c3.43-1.87,6.49-4.4,9.76-6.57c1.59-1.06,3.31-1.91,4.89-2.98c4.25-2.88,9.09-5.25,12.46-8.95
	c2.26-2.48,1.71-7.35,3.72-10.27c2.04-2.96,5.78-4.7,8.53-7.24c1.07-0.98,1.6-2.63,2.17-4.06c2.97-7.46,2.92-14.78-1.11-21.92
	c-5.23-9.26-2.4-17.27,3.2-25.41c5.3-7.69,9.55-16.09,14.44-24.07c1.79-2.92,3.6-6.18,6.25-8.15
	c20.66-15.34,41.58-30.32,62.29-45.59c7.24-5.33,14.1-11.17,21.17-16.74c6.93-5.46,13.61-11.31,20.94-16.18
	c11.34-7.53,23.13-14.37,34.73-21.5c7.75-4.77,9.83-9.77,7.85-18.48c-0.33-1.47-0.39-3.07-0.21-4.57c0.79-6.7,1.61-13.4,2.66-20.07
	c0.27-1.71,1.39-3.29,2.12-4.92c0.53,0.02,1.07,0.04,1.6,0.07c0.8,2.86,2.08,5.69,2.32,8.6c0.85,10.22,1.7,20.47,1.77,30.71
	c0.03,3.79-1.66,7.8-3.35,11.35c-2.69,5.68-6.69,10.81-8.91,16.64c-2.3,6.04-3.46,12.31-0.58,19.1c4.93,11.62,9.44,23.5,13.09,35.58
	c9.53,31.54,16.15,63.73,19.59,96.53c0.17,1.62-0.88,3.96-2.15,5.03c-4.18,3.51-8.7,6.63-13.15,9.81
	c-4.76,3.4-10.16,6.14-14.24,10.2c-4.53,4.51-4.88,10.74-2.12,16.52c2.83,5.93,8.49,6.14,14.18,5.94c1.58-0.06,3.45,0.07,4.74,0.84
	c6.85,4.1,13.77,4.01,21.06,1.32c1.76-0.65,4.52-0.85,5.89,0.09c5,3.44,10.18,3.11,15.35,1.35c6.56-2.24,12.91-5.14,16.54-11.57
	c3.56-6.32,4.15-13.26,3.42-20.33c-0.33-3.15,0.43-5.51,2.84-7.85c3.71-3.61,6.33-8.03,4.72-13.6c-1.81-6.3-3.79-12.55-5.7-18.82
	c-1.8-5.9-2.04-11.68-0.45-17.83c1.01-3.9,1.32-8.75-0.17-12.28c-1.34-3.19-2.39-6.3-3.13-9.63c-7.27-32.79-14.61-65.56-21.85-98.36
	c-3.57-16.17-7.14-32.35-10.38-48.59c-1.4-7.05-1.1-7.56,5.97-9.04c15.66-3.26,31.31-6.95,47.16-8.83
	c28.74-3.41,54.79-15.2,81.56-24.72c7.18-2.55,13.88-6.83,20.28-11.1c18-12.02,35.72-24.45,53.58-36.68
	c1.09-0.75,2.45-1.11,3.68-1.64c-0.61,2.26-1.61,3.8-2.92,4.99c-12.5,11.41-21.99,25.17-30.73,39.49c-2.78,4.55-3.11,9.53-0.8,14.5
	c14.51,31.17,35.21,57.26,64.23,76.01c9.72,6.28,17.65,14.22,25.8,22.13c28.88,28.03,34.21,61.13,20.38,97.84
	c-8.28,21.97-17.68,43.5-32.86,61.92c-1.32,1.6-2.18,4.62-1.65,6.52c1.58,5.61,4.94,9.97,11.05,11.59
	c11.75,3.1,21.9-0.63,31.35-7.25c1.91-1.34,4.27-2.93,5-4.92c1.72-4.7,5.1-7.05,9.34-8.89c1.92-0.83,3.67-2.07,5.43-3.23
	c3.41-2.25,5.01-5.34,5.22-9.54c0.21-4.3,0.56-8.76,1.9-12.79c3.28-9.86,6.97-19.59,10.86-29.23c8.89-22.01,18.12-43.88,26.97-65.91
	c3.59-8.93,0.22-18.21-7.69-23.64c-2.41-1.65-4.74-3.58-6.64-5.78c-6.45-7.44-12.78-14.98-18.99-22.62
	c-16.16-19.86-21.64-42.97-19.34-67.93c0.55-6.01,0.14-11.1-2.12-16.54c-5.34-12.84-10.33-25.83-15.35-38.8
	c-0.67-1.73-0.71-3.7-1.04-5.56c0.58-0.2,1.17-0.4,1.75-0.6c1.29,2.02,2.74,3.95,3.85,6.06c8.28,15.61,16.27,31.37,24.79,46.85
	c7.18,13.05,15.13,25.68,22.43,38.67c8.92,15.88,19.11,30.88,31.28,44.41c15.04,16.73,30.3,33.29,45.8,49.6
	c8.88,9.35,14.2,20.59,18.09,32.46c2.38,7.25,3.33,15.06,4.16,22.7c1.46,13.38,2.39,26.82,3.37,40.24c0.09,1.29-0.73,3.09-1.73,3.92
	c-2.26,1.86-4.79,3.47-7.41,4.79c-9.17,4.59-16.84,11.28-21.97,19.81c-6.6,10.98-4.45,18.58,6.04,25.97
	c6.72,4.73,13.96,4.89,21.26,1.76c4.23-1.81,8.19-2.23,12.54-0.52c4.04,1.58,8,0.82,11.72-1.42c4.51-2.71,8.34-5.68,10.46-11
	c2.42-6.08,5.98-11.71,9.2-17.45c1.02-1.83,2.22-3.8,3.85-5c5.12-3.77,6.39-9.64,3.04-15.14c-0.68-1.12-1.14-2.57-1.14-3.86
	c0.06-30.49,0.21-60.99,0.3-91.48c0.01-4.25-0.35-8.41-3.42-11.86c-3.7-4.15-7.58-8.21-10.75-12.75c-5.03-7.2-9.87-14.57-14.21-22.2
	c-8.92-15.72-12.87-33.02-13.85-50.85c-1.07-19.49-2.02-39.06-1.5-58.55c0.61-22.74,3.35-45.42,4.29-68.17
	c0.87-21.14,0.1-42.25-9.98-61.74c-0.91-1.76-1.26-3.81-1.88-5.73c3.64,3.94,6.3,8.37,9.28,12.56c1.05,1.47,2.84,3.29,4.39,3.38
	c6.26,0.39,12.81,1.3,18.79-0.06c12.26-2.8,22.88-9.2,31.66-18.39c14.01-14.67,23.87-31.9,31.16-50.7
	c3.83-9.89,5.81-19.98,3.54-30.56c-0.47-2.18-1.27-4.28-1.92-6.42c-0.42,0.04-0.83,0.07-1.25,0.11c-0.66,1.36-1.32,2.73-2.27,4.69
	c-0.46-3.78-0.51-6.91-1.24-9.86c-7.52-30.27-21.98-55.55-50.87-70.42c-5-2.57-6.91-1.81-7.93,3.59
	c-12.59-2.95-36.3-3.28-39.59-0.49c1.45,3.38,3.81,5.42,7.54,6.44c25.65,7,51.6,37.82,44.35,69.14
	c-2.39,10.31-4.05,20.71-10.43,29.55c-6.7,9.29-15.61,14.18-27.16,12.8c-8.68-1.04-16.84-3.64-24.5-8.35
	c-18.57-11.41-37.33-22.56-58.17-29.51c-27.11-9.04-54.6-14.83-83.54-13.27c-24.13,1.3-48.36,0.55-72.53,1.29
	c-18.54,0.57-37.05,2.05-55.58,3.11c-12.07,0.69-24.16,2.15-36.2,1.84c-16-0.41-31.95-3.14-47.93-3.19
	c-26.56-0.09-53.11,1.2-79.67,1.85c-13.46,0.33-26.94,0.89-40.39,0.65c-7.69-0.14-15.4-1.44-23.03-2.63
	c-27.32-4.25-55.09-5.5-81.93-13.13c-14.26-4.05-29.03-6.29-43.55-9.35c-2.62,3.51-5.11,6.85-7.6,10.2
	c0.99-4.81,2.69-9.11,4.24-13.45c3.15-8.78,6.04-17.78,5-27.17c-1.75-15.74-3.8-31.49-6.55-47.08c-2.2-12.5-8.72-23.42-15.42-34
	c-4.68-7.39-10.96-7.14-16.04-0.06c-8.93,12.45-17.61,25.1-26.98,37.21c-7.13,9.22-15.09,17.8-22.87,26.5
	c-1.81,2.02-4.35,3.39-6.56,5.06c-0.45-0.39-0.9-0.78-1.35-1.17c2.52-5.38,5.03-10.77,7.68-16.43c-16.65,0-32.4,0-48.43,0
	c0.33,1.3,0.78,2.37,0.84,3.45c0.12,1.91,0,3.82-0.02,5.74c-1.91-0.95-3.89-1.78-5.71-2.88c-0.93-0.56-1.58-1.58-2.34-2.42
	c-5.92-6.57-11.66-13.29-17.76-19.68c-18.35-19.22-36.86-38.29-55.25-57.47c-3.84-4-5.88-4.05-8.6,0.97
	c-2.73,5.05-5.51,10.21-7.2,15.66c-6.24,20.16-7.91,40.81-4.43,61.67C116.68,166.6,123.21,182.31,135.76,195.31z M944.41,404.44
	c-16.7,3.78-31.6-16.1-14.12-26.29c20.34-11.86,33.92-34.97,33.83-58.52C972.23,342.2,976.91,397.07,944.41,404.44z M951.46,303.4
	c-1.42,2.3-0.07,10.6-0.49,13.67c-0.65,4.74-1.83,9.46-3.39,13.98c-0.96,2.8-2.47,6.03-4.41,9.14c-3.67,5.9-8.88,11.39-14.82,12.81
	c-14.41,3.46-14.69-10.86-7.71-18.97C930.59,322.5,943.13,316.92,951.46,303.4z M889.14,326.13c-11.87,10.51-29.93,1.47-20.74-14.71
	c2.67-4.7,3.49-6.14,8.14-8.9c19.49-11.6,43.64-15.08,65.61-9.45C920.48,299.18,905.51,311.62,889.14,326.13z M808.21,261.96
	c2.07-5.77,7.9-9.52,13.89-10.81c35.01-7.54,77.22,5.48,108.44,20.95c-13.38-6.63-38.04-3.68-52.44-2.55
	c-11.21,0.88-20.39,4.22-30.8,6.6c-0.96,0.22-1.94,0.43-2.92,0.63C833.76,278.94,801.01,281.99,808.21,261.96z M791.78,331.18
	c-1.84,4.35-5.82,5.31-10.19,3.45c-5.19-2.21-9.27-5.52-11.87-13.92c6.9,0.62,11.91,0.74,16.77,1.61
	C791.24,323.17,793.74,326.54,791.78,331.18z M770.4,298.9c1.41-2.24,5.48-4.42,7.94-4.03c4.41,0.7,4.9,5.18,3.98,8.93
	c-1.66,6.77-8.37,10.66-14.6,13.23C764.38,310.5,767.3,303.81,770.4,298.9z M764.36,326.95c6.57,5.09,6.75,14.17,5.82,20.62
	c-0.26,1.78-3.5,4.5-5.18,4.36c-2.34-0.19-5.84-2.2-6.51-4.21C756.06,340.38,758.33,332.03,764.36,326.95z M750.49,295.73
	c9.43,4.02,10.46,11.18,9.58,21.25c-8.51-3.77-15.33-6.88-16.04-16.89C744.5,295.55,747.76,294.39,750.49,295.73z M740.04,323.16
	c5.92-2.78,11.89-1.81,18.47,0.33c-3.37,7.1-8.36,10.37-14.57,11.92c-3.4,0.85-6.77,0.47-8.26-3.39
	C734.01,327.67,736.6,324.78,740.04,323.16z M670.13,335.34c6.58,0.43,16.18,6.73,18.25,12.56c3.72,10.46-5.51,16.86-14.78,19.3
	c-16.77,4.43-33.23-5.63-46.25-16.2C637.62,335.99,655.7,334.41,670.13,335.34z M636.21,279.14c10.47-4.37,16.88,1.38,17.19,8.93
	c2.42,25.37-12,36.14-35.07,46.17C616.47,311.19,615.16,292.59,636.21,279.14z M621.64,359.77c6.84,15.82,12.53,26.89,16.41,38.56
	c3.79,11.39-0.6,20.86-13.08,22.09c-11.68,1.15-18.51-6.4-19.65-18.18C603.98,388.27,606.38,375.44,621.64,359.77z M556.51,298.83
	c7.53-8.84,16.91-6.62,24.54-1.01c13.09,9.64,18.08,23.84,21.21,40.75c-19.51,1.07-32.58-5.95-43.36-17.67
	C553,314.48,549.84,306.67,556.51,298.83z M549.28,367.32c13.16-14.04,34.1-19,52.35-11.85c-3.32,20.41-22.94,31.57-38.15,37.2
	c-4.19,1.55-13.98-2.3-15.68-6.13C545.43,381.2,545.68,371.16,549.28,367.32z M456.48,454.49c-1.27,1.5-5.87,2.14-7.35,1.04
	c-2.07-1.54-4.14-5.45-3.59-7.71c2.02-8.24,9-14.68,17.56-15.88C466.24,440.51,461.11,449.04,456.48,454.49z M486.11,451.86
	c-4.24,2.97-8.5,1.54-11.48-2.74c-3.54-5.08-5.39-10.53-2.92-19.85c6.05,4.6,10.63,7.63,14.65,11.27
	C490.28,444.1,490.64,448.69,486.11,451.86z M485.07,409.4c2.62-1.26,7.67-0.91,9.73,0.88c3.69,3.22,1.53,7.67-1.5,10.61
	c-5.49,5.33-13.99,5.02-21.28,3.78C472.72,416.68,479.32,412.16,485.07,409.4z M459.88,395.14c3.08-3.94,6.78-3.12,8.54-0.28
	c6.42,9.23,3.2,16.48-3.49,25.33C459.22,411.72,454.7,404.86,459.88,395.14z M459.69,425.32c-7.27,4.63-13.81,4.76-20.48,2.58
	c-3.66-1.19-6.56-3.51-5.69-7.96c0.98-5.02,5.07-6.2,9.21-5.69C449.84,415.12,454.82,419.5,459.69,425.32z M386.8,252.6
	c11.47-5.53,20.96-10.95,34.2-12.42c6.36-0.71,11.3,4.23,12.5,10.52c1.21,6.29-0.45,10.65-6.4,13.02
	c-25.64,10.22-53.27,10.67-78.52-0.47C361.36,261.32,375.09,258.24,386.8,252.6z M401.01,299.12c15.76,2.62,38.76,7.89,44.39,25.95
	c2.74,8.79-1.77,19.02-9.71,23.68c-19.67,11.56-39.47-12.11-53.62-22.94c-9.5-7.27-18.99-14.56-28.49-21.82
	c-6.76-5.17-18.1-17.96-26.23-19.94C351.7,289.99,376.28,295.02,401.01,299.12z M353.6,380.98c-6.74,3.14-15.96,1.14-19.53-5.39
	c-5.59-10.21,2.95-23.91,2.77-34.85c-0.13-7.89-2.88-26.83-10.99-31.11C344.23,319.33,388.79,364.58,353.6,380.98z M286.24,167.41
	c6.82-13.34,13.64-26.69,20.5-40.02c0.48-0.93,1.3-1.69,2.75-2.23c-1,4.3-1.22,8.99-3.15,12.82c-5.43,10.73-6.83,22.13-7.64,33.86
	c-0.77,11.16-2.31,22.26-3.52,33.38c-0.69,0.13-1.39,0.27-2.08,0.4c-2.5-5.73-4.85-11.53-7.54-17.16
	C282.13,181.27,282.7,174.32,286.24,167.41z M190.64,236.89c-0.92,1.08-4.24,1.55-5.31,0.75c-1.49-1.11-2.99-3.94-2.59-5.57
	c1.46-5.96,6.5-10.61,12.69-11.47C197.69,226.78,193.98,232.95,190.64,236.89z M212.05,234.99c-3.06,2.15-6.14,1.12-8.3-1.98
	c-2.56-3.67-3.9-7.61-2.11-14.35c4.37,3.33,7.68,5.51,10.58,8.15C215.06,229.38,215.32,232.7,212.05,234.99z M226.53,258.69
	c4.73-4.6,9.55-9.15,14.69-13.28c1.64-1.32,4.49-2,6.62-1.71c6.94,0.95,13.83,2.41,20.69,3.87c0.97,0.21,2.09,1.43,2.37,2.41
	c0.16,0.56-1.17,1.61-1.9,2.37c-0.27,0.28-0.81,0.56-1.13,0.48c-5.77-1.43-8.76,3.13-12.67,5.78c-7.3,4.96-15.59,6.04-24.17,5.94
	c-2.42-0.03-4.84,0.23-8.67,0.43C223.99,262.45,224.94,260.24,226.53,258.69z M211.3,204.3c1.89-0.91,5.54-0.66,7.03,0.64
	c2.67,2.32,1.1,5.54-1.09,7.67c-3.97,3.85-10.11,3.63-15.38,2.73C202.37,209.56,207.15,206.3,211.3,204.3z M193.1,194
	c2.23-2.85,4.9-2.25,6.17-0.21c4.64,6.67,2.31,11.91-2.52,18.3C192.62,205.98,189.35,201.02,193.1,194z M174.04,211.92
	c0.71-3.63,3.66-4.48,6.66-4.11c5.14,0.63,8.75,3.8,12.26,8c-5.25,3.35-9.98,3.44-14.8,1.87
	C175.51,216.81,173.41,215.14,174.04,211.92z M133.68,105.01c0.15,0.66,0.11,1.47,0.48,1.97c9.08,12.33,18.04,24.75,27.4,36.86
	c4.68,6.05,6.68,12.16,3.85,19.53c-2.26,5.88-4.13,11.91-6.57,17.71c-0.81,1.94-2.82,3.38-4.28,5.05c-0.6-0.37-1.2-0.75-1.81-1.12
	c0.8-2.44,1.27-5.06,2.47-7.29c2.05-3.82,1.98-7.53,0.36-11.34c-4.64-10.96-9.54-21.82-13.95-32.88c-3.56-8.94-6.55-18.1-9.79-27.17
	C132.47,105.89,133.07,105.45,133.68,105.01z"/>
</svg>
