<?xml version="1.0" encoding="utf-8"?>
<!-- Generator: Adobe Illustrator 24.1.0, SVG Export Plug-In . SVG Version: 6.00 Build 0)  -->
<svg version="1.1" id="Goat" xmlns="http://www.w3.org/2000/svg" xmlns:xlink="http://www.w3.org/1999/xlink" x="0px" y="0px"
	 viewBox="0 0 1190.55 841.89" style="enable-background:new 0 0 1190.55 841.89;" xml:space="preserve">
<style type="text/css">
	.st0{fill:#B0252C;}
</style>
<path class="st0" d="M1025.31,274.18c1.43-1.73,2.84-3.31,4.1-4.99c4.73-6.32,8.07-13.13,7.4-21.34c-0.44-5.38-2.47-6.61-7.57-5.12
	c-6.15,1.79-12.41,3.18-18.62,4.78c-9.5,2.45-19.14,4.49-28.44,7.54c-6.85,2.25-13.04,6.59-19.92,8.71
	c-17.59,5.41-35.8,5.54-53.93,4.11c-17.24-1.37-33.14-8.35-49.56-13.12c-21.62-6.28-43.12-13.06-64.91-18.68
	c-22.8-5.88-46.25-4.51-69.52-3.99c-10.12,0.23-20.41,0.12-30.31,1.9c-25.36,4.58-50.87,7.58-76.58,7.96
	c-46.14,0.67-92.3,0.66-138.2-5.3c-14.04-1.83-28.05-4.47-40.92-10.5c-14.6-6.84-28.86-14.42-43.01-22.14
	c-6.47-3.53-12.41-8.08-18.43-12.38c-3.67-2.62-6.92-5.82-10.59-8.45c-2.53-1.82-5.55-2.95-8.18-4.64
	c-5.53-3.55-6.89-3.16-9.27,3.05c-0.51,1.33-0.76,2.93-1.66,3.91c-1.23,1.34-2.89,3.01-4.5,3.16c-11.7,1.12-22.72-1.24-32.8-7.45
	c-0.94-0.58-1.68-1.48-2.51-2.22c0.21-0.32,0.43-0.65,0.64-0.97c1.25,0.49,2.48,1.04,3.76,1.47c9.77,3.28,19.58,5.67,29.4,0.23
	c6.59-3.65,7.72-9.53,2.77-15.27c-4.2-4.86-8.66-9.5-13.02-14.23c-3.87-4.2-7.91-8.25-11.54-12.65c-1.1-1.34-1.83-3.78-1.45-5.41
	c1.31-5.48,2.4-11.18,7.69-14.74c1.86-1.26,3.27-3.18,4.91-4.77c18.52-18,39.84-31.4,64.46-39.46c11.02-3.61,21.99-7.35,33.68-11.27
	c-14.91-4.87-29.66-3.87-44.26-3.15c-14.89,0.73-29.33,4.12-43.32,9.5c-13.76,5.29-26.89,11.67-39.71,19
	c-12.89,7.37-22.92,17.89-33.77,27.79c1.88-5.04,4.54-9.36,7.14-13.72c1.6-2.67,3.96-5.23,4.52-8.12
	c1.52-7.82,2.75-15.77,3.16-23.72c0.41-7.87-0.48-15.79-5.51-22.43c-1.25-1.65-3.17-2.79-5.5-4.79c-1.06,3.09-1.92,5.02-2.37,7.04
	c-0.68,3.06-0.73,6.29-1.65,9.25c-5.15,16.59-12.97,31.96-21.75,46.88c-2.43,4.12-4.74,8.31-7.3,12.79
	c4.12,2.45,7.64,4.53,11.15,6.61c-0.15,0.4-0.3,0.81-0.45,1.21c-1.9-0.17-3.94,0.05-5.67-0.57c-6.83-2.46-13.7-4.88-20.3-7.89
	c-12.08-5.5-23.93-11.49-35.98-17.05c-1.71-0.79-3.98-0.38-5.99-0.53c0.47,1.89,0.4,4.19,1.48,5.62
	c8.02,10.54,16.28,20.9,24.45,31.33c0.6,0.76,1.08,1.61,1.62,2.42c-0.32,0.26-0.63,0.52-0.95,0.78
	c-11.13-6.04-17.35-17.28-26.69-25.82c-0.1,3.87,0.18,7.59,1.4,10.98c3.93,10.98,11.13,18.99,22.65,22.9
	c-2.22,3.44-4.3,6.66-6.38,9.88c-5.19,8.04-4.48,17.14-4.92,26.1c-0.5,10.2-0.01,20.68-7.35,29.28c-3.8,4.45-7,9.4-10.76,13.88
	c-7.87,9.39-15.89,18.66-23.95,27.89c-2.57,2.95-2.73,5.91-1.51,9.49c2.09,6.15,5.66,11.87,3.07,19.14
	c-1.94,5.46,0.61,8.53,6.61,8.64c9.25,0.17,18.51-0.39,27.77-0.63c1.38-0.04,2.77-0.01,4.15-0.01c0.05,0.58,0.09,1.17,0.14,1.75
	c-6.78,1.09-13.56,2.19-20.34,3.28c2.34,7.77,10.11,12.12,18.07,10.13c6.56-1.64,6.71-1.46,9.13,4.96
	c2.67,7.07,5.52,14.07,8.38,21.06c1.59,3.88,3.44,7.54,8.5,4.6c2.26,7.11,4.26,13.94,6.67,20.62c0.58,1.61,2.99,4.09,3.71,3.83
	c2.02-0.73,3.73-2.55,5.28-4.21c0.69-0.74,0.82-2.11,1-3.22c1.4-8.72,2.75-17.45,4.17-26.52c4.45,0.56,5.05-0.41,6.91-4.63
	c2.91-6.61,6.53-12.91,9.95-19.29c0.43-0.8,1.38-1.48,2.24-1.84c5.93-2.49,15.38,0,19.98,4.55c4.12,4.07,8.77,7.6,13.17,11.38
	c1.97,1.7,4.19,3.2,5.81,5.19c3.79,4.63,6.83,9.96,11.05,14.12c2.63,2.59,6.73,4.6,10.38,5c5.17,0.57,8.24,1.91,10.03,7.06
	c2.76,7.94,5.43,15.92,8.42,23.78c8.93,23.46,17.79,46.95,27.08,70.27c5.5,13.79,11.33,27.57,20.74,39.26
	c8.14,10.12,17.05,19.62,25.44,29.55c2.45,2.9,5.06,6.07,6.25,9.57c10.98,32.21,17.24,65.35,18.74,99.36
	c0.97,21.84,1.69,43.68,2.67,65.52c0.48,10.78,0.74,21.3-7.21,30.17c-6.28,7.01-12.01,14.51-17.98,21.8
	c-3.95,4.82-3.58,10.2,1.69,12.58c7.23,3.26,14.72,6.29,22.41,8.1c13.06,3.08,21.18-0.89,25.5-14.12c1.05-3.23,3.18-3,5.69-2.87
	c5.46,0.28,7.38-1.49,7.3-6.92c-0.04-2.7-0.44-5.4-0.85-8.08c-0.77-5.1,0.53-7.7,5.1-9.82c4.09-1.9,5.78-5.03,4.92-9.19
	c-5.28-25.77-6.58-51.85-4.93-78.01c1.35-21.37,3.48-42.7,5.59-64.02c0.4-4.09,2.02-8.14,3.54-12.03
	c3.3-8.48,6.99-16.81,10.33-25.27c0.99-2.5,1.28-5.26,2.03-7.86c0.71-2.43,1.61-4.81,2.43-7.2c0.97,7.24,1.36,14.33,0.82,21.35
	c-0.3,3.89,0.9,4.87,4.32,4.73c5.73-0.24,5.76-0.16,6.46,5.67c3.02,25.36,6.58,50.68,8.84,76.11c1.25,14.03,4.4,28.22-0.15,42.42
	c-1.84,5.75-1.15,12.53-3.74,17.79c-4.76,9.67-10.99,18.64-16.85,27.73c-1.83,2.83-1.87,5.36,0.55,7.19
	c5.09,3.84,10.39,7.44,15.87,10.68c1.92,1.14,4.63,1.18,6.99,1.28c5.34,0.21,10.69,0.09,16.04,0.2c2.99,0.06,6,0.59,8.96,0.38
	c2.69-0.19,5.56-1.48,4.52-4.8c-2.15-6.89,1.18-10.09,7.01-12.22c3.35-1.22,4.21-3.76,2.62-6.87c-1.98-3.88-1.5-7.45,1.05-10.78
	c6.4-8.36,4.97-16.76,0.31-25.23c-1.31-2.38-2.68-4.73-3.76-7.21c-0.66-1.52-1.26-3.28-1.15-4.88c1.89-27.92,3.44-55.88,6.16-83.73
	c0.83-8.54-1.77-14.27-7.59-19.42c-1.91-1.69-4.17-3-6.22-4.54c-8.22-6.17-16.45-12.32-24.59-18.6c-1.09-0.84-1.64-2.37-2.45-3.58
	c0.39-0.38,0.77-0.75,1.16-1.13c1.53,0.84,3.12,1.58,4.57,2.54c3.57,2.35,6.8,5.46,10.66,7.1c20.09,8.52,39.98,17.73,60.62,24.69
	c29.57,9.98,60.5,12.97,91.6,13.69c25.36,0.59,50.54-0.91,75.07-8.11c11.55-3.39,22.46-8.11,32.02-15.38
	c-4.81-13.6-12.13-26.02-13.27-40.66c1.83,1.2,3.08,2.75,4.19,4.39c14.91,21.96,29.65,44.03,44.77,65.85
	c6.91,9.97,14.91,19.18,21.76,29.18c7.64,11.16,14.66,22.75,21.67,34.32c1.76,2.9,2.45,6.44,3.64,9.69
	c-0.41,0.23-0.82,0.46-1.24,0.7c-0.9-1.11-1.92-2.14-2.69-3.34c-3.54-5.52-6.92-11.14-10.56-16.59c-0.74-1.11-2.33-1.64-3.54-2.44
	c-0.71,1.41-1.78,2.75-2.08,4.24c-1.37,6.71-1.54,13.84-3.98,20.11c-4.79,12.34-10.76,24.22-16.31,36.27
	c-3.31,7.19-7.59,13.46-14.15,18.4c-7.28,5.48-14.04,11.72-20.55,18.12c-6.19,6.09-3.67,14.08,4.73,16.12
	c2.06,0.5,4.24,0.59,6.38,0.69c8.7,0.41,17.41,0.84,26.12,1.06c2.19,0.06,4.52-0.32,6.59-1.04c6.72-2.35,8.46-9.04,12.04-14.15
	c1.58-2.26,3.37-4.56,5.57-6.15c2.73-1.96,4.49-4.09,5.05-7.48c1.44-8.73,3.07-17.43,4.71-26.13c0.44-2.35,1.22-4.63,1.85-6.94
	c0.42,0.07,0.84,0.14,1.27,0.21c0,1.9,0.21,3.83-0.03,5.7c-1.45,11.04-3.15,22.05-4.46,33.11c-0.76,6.38-2.43,12.17-6.84,17.1
	c-4.38,4.89-8.33,10.16-12.58,15.16c-3.76,4.42-4.23,14.19-0.66,18.73c0.57,0.73,1.6,1.61,2.39,1.58
	c6.47-0.24,11.91,2.84,17.65,5.06c1.53,0.59,3.42,0.73,5.06,0.49c11.28-1.63,21.72-5.85,31.82-10.89c1.41-0.7,2.56-3.3,2.61-5.05
	c0.11-3.82-0.61-7.67-0.91-11.51c-0.3-3.92,0.64-6.65,5.19-7.84c7.95-2.07,10.35-5.54,10.9-13.79c0.28-4.28,0.67-8.55,0.84-12.83
	c1.56-37.67,3.08-75.35,4.61-113.02c0.03-0.71-0.16-1.54,0.12-2.12c2.05-4.18,0.23-7.86-1.68-11.33c-1.7-3.11-3.7-6.15-6.07-8.76
	c-3.05-3.36-4.89-7.09-6.33-11.39c-10.41-30.89-5.33-60.56,8.18-88.92c11.28-23.68,24.21-46.55,32.4-71.64
	c7.19-22.02,13.12-44.32,17.03-67.17c1.21-7.07,3.11-14.04,5.04-20.96c0.38-1.38,2.4-3.36,3.55-3.29
	c10.32,0.63,18.68-3.22,25.68-10.49c1.35-1.4,3.39-2.97,3.47-4.54c0.08-1.57-1.91-3.25-3.06-4.99c6.7-5.01,10.21-12.51,13.32-20.23
	C1032.28,275.97,1031.66,274.98,1025.31,274.18z M274.21,204.99c-4.48,0.31-9.04-0.63-13.56-0.7c-1.86-0.03-3.95,0.38-5.56,1.27
	c-3.34,1.84-6.43,4.13-9.62,6.24c-0.34-0.37-0.69-0.74-1.03-1.1c3.25-3.06,6.44-6.18,9.76-9.16c1.58-1.42,3.51-2.44,5.12-3.83
	c3.25-2.79,6.96-3.51,11.15-3.28c4.61,0.26,9.25,0.04,13.87,0.07c0.53,0,1.06,0.28,2.36,0.65
	C283.69,200.59,280.09,204.58,274.21,204.99z M457.46,423.43c3.56-0.86,5.31,1.3,5.03,3.72c-0.51,8.21-5.66,10.91-13.52,12.94
	C449.54,432.64,450.07,426.65,457.46,423.43z M399.03,241.1c9.24,1.09,20.89-1.19,29.01,4.43c15.27,10.56-1.01,17.6-12.55,16.53
	c-23.89-2.22-44.65-12.42-60.48-30.45C369.34,236.16,384.1,239.34,399.03,241.1z M356.2,325.21c-10.2,8.89-23.68-12.39-25.69-19.64
	c-2.41-8.68-1.9-17.87-1.36-26.86c0.54-9.13,2.41-18.22,2.96-27.35c1.93,13.64,5.73,27.55,12.54,39.61
	C348.39,297.59,365.65,316.98,356.2,325.21z M368.82,291.86c-12.47-17.39-21.29-36.79-30.27-56.22
	c24.18,24.81,52.77,45.3,83.97,60.35c10.04,4.84,25.43,9.44,29.3,21.45c3.47,10.76-4.47,17.47-14.7,18.57
	c-6.7,0.72-13.44-1.04-19.7-3.54C397.54,324.53,381.29,309.25,368.82,291.86z M443.62,440.65c-6.27-0.65-10.08-3.55-12.93-7.84
	c-1.56-2.35-2.17-5,0.36-7.16c2.85-2.44,5.73-1.25,7.88,0.93C442.62,430.32,443.48,435.1,443.62,440.65z M428.51,455.93
	c-1.41,0.28-4.34-1.44-4.69-2.75c-0.49-1.82,0.1-5.01,1.45-6.05c4.91-3.81,11.84-4.33,17.29-1.12
	C440.47,452.34,433.65,454.91,428.51,455.93z M446.71,467.9c-3.78-0.23-5.58-2.98-5.34-6.79c0.28-4.52,1.7-8.49,7.36-12.71
	c1.38,5.39,2.63,9.21,3.28,13.13C452.63,465.34,450.75,468.14,446.71,467.9z M464.91,453.4c-5.57,0.56-10.31-3.48-13.92-7.51
	c4.04-4.27,9.88-3.86,14.43-2.82c2.07,0.47,4.82,2.97,5.18,4.93C471.26,451.52,467.99,453.09,464.91,453.4z M744.3,316.78
	c0.65,3.49-2.59,5.05-5.64,5.35c-5.52,0.55-10.21-3.45-13.79-7.44c4-4.23,9.79-3.82,14.3-2.8
	C741.23,312.36,743.94,314.84,744.3,316.78z M731.29,292.45c3.53-0.85,5.26,1.28,4.98,3.68c-0.51,8.13-5.61,10.81-13.39,12.82
	C723.45,301.57,723.97,295.64,731.29,292.45z M722.64,317.17c1.36,5.34,2.6,9.12,3.24,13c0.62,3.79-1.24,6.56-5.24,6.32
	c-3.75-0.22-5.52-2.95-5.29-6.73C715.63,325.28,717.03,321.35,722.64,317.17z M705.14,294.66c2.82-2.41,5.67-1.24,7.8,0.92
	c3.65,3.7,4.51,8.44,4.65,13.93c-6.21-0.64-9.99-3.52-12.8-7.76C703.24,299.42,702.63,296.8,705.14,294.66z M699.41,315.92
	c4.86-3.77,11.72-4.29,17.13-1.11c-2.07,6.28-8.83,8.82-13.92,9.83c-1.4,0.28-4.3-1.43-4.64-2.72
	C697.49,320.11,698.08,316.95,699.41,315.92z M563.17,315.74c0.64,3.46-2.56,5-5.58,5.3c-5.47,0.55-10.11-3.42-13.66-7.37
	c3.96-4.19,9.7-3.78,14.16-2.77C560.13,311.36,562.82,313.81,563.17,315.74z M550.28,291.63c3.49-0.84,5.21,1.27,4.93,3.65
	c-0.51,8.06-5.55,10.71-13.27,12.7C542.51,300.67,543.03,294.79,550.28,291.63z M541.71,316.12c1.35,5.29,2.58,9.04,3.21,12.88
	c0.62,3.75-1.23,6.49-5.19,6.26c-3.71-0.22-5.47-2.92-5.24-6.66C534.76,324.16,536.15,320.27,541.71,316.12z M524.37,293.82
	c2.79-2.39,5.62-1.23,7.73,0.91c3.62,3.67,4.47,8.36,4.61,13.81c-6.16-0.64-9.9-3.48-12.68-7.69
	C522.49,298.54,521.89,295.94,524.37,293.82z M517.28,320.82c-0.48-1.79,0.1-4.92,1.42-5.94c4.82-3.74,11.62-4.25,16.97-1.1
	c-2.06,6.22-8.75,8.73-13.79,9.74C520.49,323.8,517.62,322.1,517.28,320.82z M557.44,501.21c-5.3-4.13-10.31-7.65-16.38-10.31
	c-6.85-3-24.83-12.61-18.9-22.66c1.95-3.31,6.37-4.49,10.13-3.71c3.76,0.78,6.99,3.13,9.96,5.56c14.96,12.27,26.77,28.8,31.61,47.53
	C572.38,511.86,561.92,504.7,557.44,501.21z M602.1,527.45c-4.55-2.22-7.62-11.64-10.1-19.72c-1.2-3.92-2.27-7.53-3.3-9.85
	c-4.97-11.16-10.45-24.28-17.54-34.18c-7.17-10.02-18.57-16.19-25-27.03c-5.29-8.91-4.2-22.47,4.95-27.33
	c7.35-3.91,16.88-0.6,22.57,5.48c5.69,6.08,8.41,14.28,10.86,22.23C593.15,465.01,604.09,497.84,602.1,527.45z M637.3,501.65
	c-0.76,6.94-0.9,14.16-1.42,21.32c-0.41,5.73-1.06,11.43-2.45,16.9c-12.27-43.89-13.86-85.08-18.34-130.44
	c-1.04-10.49-2.07-21.11-0.49-31.53s6.08-20.79,14.31-27.37c8.24-6.57,20.61-8.47,29.48-2.77c9.44,6.06,12.54,18.44,12.74,29.66
	c0.53,29.24-12.72,56.23-22.68,83C643.51,473.72,638.85,487.47,637.3,501.65z M670.19,520.38c-4.47,8.34-9.88,18.03-15.36,19.49
	c4.21-32.96,23.34-66.68,38.85-95.54c4.41-8.21,9.18-16.64,16.74-22.08c7.57-5.45,18.75-7.02,25.98-1.14
	c9,7.32,7.27,22.46-0.47,31.11c-9.41,10.52-23.27,14.83-33.31,24.29c-9.93,9.35-18.79,22.58-26.67,33.77
	C674.31,512.6,672.36,516.33,670.19,520.38z M729.8,512.91c-7.24,1.61-13.51,4.39-20.23,7.78c-5.67,2.87-18.71,8.48-21.6,14.48
	c9.37-19.54,25.93-35.13,45.02-45.39c3.79-2.03,7.84-3.91,12.14-3.96c4.3-0.04,8.9,2.22,10.33,6.27
	C759.81,504.43,737.98,511.1,729.8,512.91z M792.68,301.44c4.34-17.6,28.53-20.43,43.13-20.71c33.65-0.66,67.41,4.99,99.01,16.58
	c-35.55-5.37-70,8.38-103.36,21.76C818.51,324.26,787.51,322.39,792.68,301.44z M836.63,492.29c-1.69,0.34-5.18-1.72-5.6-3.28
	c-0.58-2.18,0.12-5.98,1.73-7.22c5.86-4.54,14.13-5.16,20.64-1.34C850.9,488.01,842.76,491.07,836.63,492.29z M839.66,456.16
	c3.4-2.91,6.84-1.49,9.4,1.1c4.4,4.46,5.43,10.17,5.6,16.79c-7.49-0.78-12.04-4.24-15.43-9.35
	C837.38,461.9,836.65,458.73,839.66,456.16z M858.35,506.57c-4.52-0.27-6.66-3.56-6.38-8.11c0.33-5.4,2.02-10.14,8.78-15.17
	c1.64,6.44,3.14,10.99,3.91,15.67C865.41,503.52,863.17,506.86,858.35,506.57z M880.07,489.27c-6.65,0.67-12.3-4.16-16.62-8.97
	c4.82-5.1,11.8-4.6,17.23-3.37c2.48,0.56,5.75,3.54,6.18,5.89C887.65,487.03,883.75,488.9,880.07,489.27z M861.04,473.38
	c0.68-8.89,1.32-16.04,10.14-19.89c4.25-1.03,6.34,1.55,6,4.44C876.57,467.74,870.43,470.96,861.04,473.38z M838.24,401.29
	c-15.14-0.48-25.82-12.51-18.18-26.11c7.26-12.91,17.61-22.41,30.03-30.27c28.48-18.04,60.18-30.99,93.14-38.06
	c-9.76,2.09-26.29,23.05-32.87,30.41c-6.84,7.66-10.94,16.88-17.67,24.7C879.07,377.81,861.7,402.03,838.24,401.29z M944.9,354.85
	c-0.82,10.41-0.24,20.91-1.28,31.3c-0.75,7.54-2.46,15.23-6.84,21.41c-11.51,16.25-23.85,7.31-27.74-6.06
	c-1.27-4.36-1.64-9.19-0.79-13.77c4.49-24.24,26.54-48.52,46.08-62.04C948.15,334.1,945.72,344.44,944.9,354.85z"/>
</svg>
