<?xml version="1.0" encoding="utf-8"?>
<!-- Generator: Adobe Illustrator 24.1.0, SVG Export Plug-In . SVG Version: 6.00 Build 0)  -->
<svg version="1.1" id="Horse" xmlns="http://www.w3.org/2000/svg" xmlns:xlink="http://www.w3.org/1999/xlink" x="0px" y="0px"
	 viewBox="0 0 1190.55 841.89" style="enable-background:new 0 0 1190.55 841.89;" xml:space="preserve">
<style type="text/css">
	.st0{fill:#B0252C;}
</style>
<path class="st0" d="M840.35,546.35c-5.71-9.67-15.24-15.55-24.11-21.99c-2.44-1.77-4.58-3.94-7.32-6.34
	c4.57-1.37,9.35,0.04,11.51-5.11c-1.49-0.15-2.6-0.27-3.71-0.38c-11.72-1.14-20.8-5.56-25.09-17.71c-3.57-10.11-9.2-19.2-16.8-26.97
	c-1.44-1.47-2.55-3.44-3.27-5.39c-2.44-6.57-5.11-12.98-10.5-17.78c-8.81-7.85-17.13-16.36-26.59-23.34
	c-24.26-17.91-48.89-35.32-73.62-52.58c-20.68-14.43-36.08-32.28-41.02-57.86c-3.77-19.52-9.74-38.27-21.26-54.84
	c-0.72-1.04-1.1-2.32-1.63-3.48c0.21-0.11,0.42-0.22,0.63-0.33c1.67,1.55,3.35,3.1,5.48,5.07c-0.97-5.49-2.42-10.21-2.54-14.96
	c-0.36-14.16-0.07-28.35-6.94-41.76c4.45,2.06,8.35,3.86,12.25,5.66c-0.57-2.27-1.84-3.59-2.81-5.1c-2.97-4.64-6.29-9.13-8.63-14.08
	c-5.71-12.07-6.91-26.06-16.15-36.66c0.4-0.41,0.81-0.82,1.21-1.23c6.55,4.46,13.09,8.93,20.41,13.92
	c-2.97-10.58-5.27-20.21-15.7-24.95c-7.63-3.47-15.27-7-22.54-11.15c-5.67-3.24-10.77-7.47-16.12-11.25
	c0.22-0.44,0.45-0.88,0.67-1.31c8.53,2.11,16.37,7.83,26.81,5.57c-1.94-1.13-3.09-1.8-4.24-2.48c-5.69-3.43-12.05-5.96-15.86-11.91
	c-3.73-5.84-9.09-9.26-15.89-10.48c-3.91-0.7-7.84-1.31-11.72-2.17c-4.88-1.08-9.7-2.37-14.99-3.68c1.64-2.94,2.72-4.77,3.69-6.65
	c4.91-9.54,6.2-19.45,2.65-29.71c-0.71-2.06-2.23-3.83-4.02-6.81c-8.85,12.15-16.77,23.22-24.95,34.09c-1.6,2.13-3.98,4.46-6.4,5.04
	c-8.95,2.15-18,4.03-27.12,5.19c-8.24,1.05-13.82,5.15-18.13,11.91c-2.11,3.31-4.55,6.63-7.51,9.15
	c-12.46,10.56-27.68,16.15-42.52,22.15c-8.41,3.4-12.44,7.21-13.22,16.13c-0.36,4.06-1.11,8.12-1.97,12.11
	c-0.73,3.36-0.38,6.35,2.34,8.53c2.53,2.03,5.23,3.96,8.13,5.34c1.48,0.71,3.58,0.12,5.52,0.12c-1.38-7.15,0.26-12.15,4.92-14.93
	c2.83-1.69,5.93-3.09,10.09-0.28c-2.47,0.9-4.19,1.44-5.83,2.16c-1.4,0.61-2.96,1.18-4.02,2.21c-3.84,3.72-3.52,9.36,0.62,14.52
	c2.81,3.51,6.87,4.03,11.27,0.38c4.32-3.58,8.93-4.47,14.19-3.96c11.32,1.1,22.71,1.66,33.94,3.36c11.38,1.72,22.36,3.45,31.35-6.19
	c1.5-1.61,3.21-3.04,4.82-4.56c0.34,1.67,0.28,3.28-0.49,4.39c-2.75,3.95-5.5,7.94-8.71,11.51c-2.83,3.14-3.87,6.18-2.81,10.41
	c0.73,2.91,0.97,6.34,0.16,9.18c-2.98,10.5-5.56,21.28-10.11,31.12c-3.5,7.58-2.85,13.2,1.96,19.34c2.78,3.56,5.01,7.56,7.49,11.36
	c-2.41-0.82-4.29-2.09-5.81-3.7c-12.04-12.69-23.98-25.47-36.05-38.13c-1.16-1.22-2.93-2.27-4.56-2.55
	c-4.43-0.77-8.97-0.94-13.42-1.62c-4.84-0.74-9.34-0.47-13.29,2.83c-4.14,3.47-8.2,7.05-12.53,10.28
	c-10.24,7.65-20.7,15.01-30.88,22.73c-5.03,3.82-10.24,7.63-9.93,15.27c0.22,5.37-0.29,10.78-0.71,16.15
	c-0.14,1.85-0.58,3.92-1.57,5.43c-3.94,6.02-5.91,12.05-2.81,19.21c1.06,2.45,0.68,5.55,0.82,8.36c0.14,2.82-0.13,5.69,0.22,8.47
	c0.66,5.24,2.88,6.46,7.52,3.76c8.45-4.92,15.47-11.49,21.1-19.53c3.8-5.43,4.74-10.97,3.35-17.69c-0.9-4.34-0.13-9.89,1.94-13.8
	c5.74-10.81,14.74-19.05,24.27-26.62c4.35-3.45,8.71-6.3,14.63-2.77c1.59,0.95,3.37,0.79,3.99,3.28
	c3.53,14.19,6.5,28.59,11.14,42.42c7.46,22.22,14.54,45.09,37.87,57.25c-4.33-1.07-9.03-1.94-12.4-4.53
	c-10.76-8.3-18.74-18.95-23.99-31.57c-0.97-2.33-2.22-4.53-3.35-6.79c-4.56,17.93-0.78,34.96,2.64,52.11
	c-0.95-0.74-1.78-1.52-2.18-2.48c-2.14-5.1-4.23-10.22-6.24-15.38c-2.47-6.35-4.05-12.7-12.96-13.9
	c-11.22-1.52-22.2-4.77-33.32-7.09c-1.53-0.32-3.63-0.13-4.86,0.71c-5.16,3.5-10.28,7.1-14.98,11.17c-1.53,1.32-2.42,4.21-2.37,6.35
	c0.16,5.95,1.11,11.88,1.49,17.84c0.98,15.32,1.99,30.64,2.62,45.97c0.19,4.68,2.01,8.03,5.13,11.23c6.92,7.1,13.75,14.3,20.4,21.65
	c3.91,4.32,7.32,9.08,11.15,13.48c2.69,3.09,5.43,2.68,6.77-1.12c3.2-9.09,4.97-18.39,2.86-28.07c-1.33-6.09-3.25-11.47-10.62-12.6
	c-2.01-0.31-3.87-1.74-5.74-2.74c-0.56-0.3-1.19-0.83-1.37-1.39c-2.43-7.68-4.11-15.67-7.31-23.01
	c-4.51-10.35-1.39-19.61,2.05-29.44c1.06,0.63,1.89,1.1,2.69,1.61c18.45,11.77,36.88,23.57,55.37,35.27
	c1.94,1.23,4.7,1.41,6.28,2.92c11.3,10.73,22.99,21.12,33.43,32.65c21.41,23.67,44.07,45.71,72.24,61.29
	c19.12,10.58,37.94,21.81,59.81,26.33c6.32,1.31,12.29,4.36,18.39,6.67c0.98,0.37,1.84,1.05,2.76,1.59
	c-1.68,0.51-3.12,0.32-4.55,0.04c-7.8-1.54-15.65-2.87-23.37-4.76c-4.75-1.16-7,0.39-8.36,4.86c-1.84,6.06-5.63,11.82-3.53,18.47
	c2.86,9.06,5.78,18.14,9.4,26.91c4.17,10.11,8.98,19.96,13.78,29.79c4.92,10.08,9.56,20.38,15.43,29.9
	c4.79,7.76,5.85,15.81,5.58,24.41c-0.04,1.13-0.86,2.38-1.63,3.33c-9.08,11.25-19.16,21.75-31.49,29.15
	c-8.88,5.33-13.5,12.37-15.77,21.81c-0.73,3.04-1.24,6.22-2.55,9.01c-4.17,8.87-2.07,15.88,5.89,21.15
	c1.63,1.08,4.31,1.96,5.96,1.38c4.8-1.66,9.24-4.31,13.98-6.2c4.7-1.88,5.46-4.9,3.9-9.36c-1.86-5.34-0.44-9.93,3.59-13.95
	c3.12-3.1,5.82-6.63,8.83-9.85c15.84-16.92,31.51-34.01,47.71-50.58c5.07-5.18,4.41-10.52,2.61-15.95
	c-2.1-6.3-5.81-12.05-7.95-18.34c-2.45-7.18-4.08-14.66-5.73-22.09c-0.3-1.35,0.6-4.02,1.61-4.42c4.73-1.88,3.28-5.22,2.99-8.74
	c-0.72-8.54-1-17.11-1.45-25.67c0.61-0.09,1.22-0.17,1.82-0.26c0.63,3.33,1.36,6.64,1.86,9.98c3.41,22.56,12.31,42.64,28.12,59.15
	c12.1,12.64,24.84,24.67,37.62,36.63c3.95,3.7,6.31,7.83,7.73,12.87c1.35,4.78,3.31,9.38,4.61,14.17c0.78,2.91,1.3,6.05,1.08,9.03
	c-0.51,6.92-1.55,13.8-2.36,20.7c-0.76,6.48-0.93,13.1-2.34,19.43c-2.89,13.01-9.47,24.22-18.2,34.25c-4.12,4.73-1.41,12.61,4.53,15
	c8.36,3.36,16.17,1.19,24.06-1.45c4.87-1.62,7.61-4.5,6.78-10.09c-0.37-2.49-0.15-5.13,0.19-7.64c0.15-1.14,0.99-2.71,1.94-3.14
	c3.76-1.7,4.73-4.55,4.39-8.33c-0.4-4.53-0.78-9.07-0.9-13.62c-0.72-28.29,6.52-55.55,11.04-83.15c1.06-6.46-0.49-11.33-4.41-16.05
	c-5.63-6.78-11.02-13.76-16.72-20.48c-3.75-4.43-3.73-8.58-0.77-13.48c11.21-18.57,18.73-38.55,22.2-60.01
	c0.65-4.05,1.66-8.04,2.51-12.06c1.01,0.59,1.31,1.1,1.27,1.58c-1.01,10.9-1.71,21.84-3.26,32.66c-0.57,3.96-0.37,7.36,1.55,10.58
	c4.17,7.01,8.57,13.89,12.99,21.03c0.36-0.28,1.38-0.8,1.31-1.08c-1.89-8.47-3.88-16.92-5.86-25.36c1.25,0.74,1.82,1.79,2.49,2.78
	c6.76,9.83,7.48,21.07,8.29,32.52c1.82,25.44,14.02,44.9,35.66,58.38c1.17,0.73,2.67,0.93,4.02,1.38c0.28-0.41,0.56-0.82,0.84-1.23
	c-1.93-1.93-4.02-3.71-5.75-5.8c-8.12-9.84-14.91-20.18-11.7-33.94c0.42-1.8,0.78-3.61,1.27-5.39c2.09-7.53,4.28-15.03,6.31-22.57
	c3.23-11.99,2.57-24.08,0.48-36.21c10.41,9.7,10.53,22.59,11.14,35.43c1.21-0.91,1.77-1.67,2.06-2.52
	C854.3,579.24,849.77,562.3,840.35,546.35z M458.61,105.62c-1.57,0.43-3.38,0.39-5.01,0.13c-2.5-0.4-4.95-1.17-7.27-1.75
	c5.95-8.35,15.59-8.93,21.59-1.58C464.96,103.46,461.84,104.73,458.61,105.62z M662.25,468.29c2.81-0.68,4.19,1.02,3.97,2.93
	c-0.41,6.48-4.47,8.61-10.67,10.21C656,475.56,656.41,470.83,662.25,468.29z M641.42,470.05c2.25-1.92,4.52-0.99,6.21,0.73
	c2.91,2.95,3.59,6.72,3.7,11.1c-4.95-0.51-7.95-2.8-10.19-6.18C639.91,473.84,639.42,471.75,641.42,470.05z M597.5,302.81
	c0.77,4.17-3.1,6.03-6.74,6.4c-6.6,0.66-12.21-4.12-16.49-8.89c4.78-5.06,11.7-4.56,17.09-3.34
	C593.83,297.53,597.07,300.49,597.5,302.81z M564.31,300.45c-2.48,7.51-10.56,10.54-16.64,11.75c-1.67,0.33-5.14-1.71-5.55-3.26
	c-0.58-2.16,0.12-5.93,1.71-7.17C549.64,297.27,557.85,296.66,564.31,300.45z M550.68,276.36c3.37-2.88,6.78-1.48,9.32,1.1
	c4.36,4.43,5.39,10.09,5.56,16.66c-7.43-0.77-11.94-4.2-15.3-9.28C548.41,282.06,547.69,278.92,550.68,276.36z M571.6,303.28
	c1.63,6.38,3.11,10.9,3.88,15.54c0.75,4.53-1.48,7.84-6.26,7.55c-4.48-0.27-6.6-3.53-6.32-8.04
	C563.22,312.98,564.9,308.28,571.6,303.28z M581.95,273.72c4.21-1.02,6.29,1.54,5.95,4.41c-0.61,9.72-6.7,12.92-16.01,15.32
	C572.57,284.63,573.19,277.53,581.95,273.72z M575.82,194.49c0.49,3.59,0.68,7.33-0.55,10.74c-2.29,6.36-7.68,8.94-10.9,2.53
	c-2.91-5.78-3.07-13.95-4.39-20.17c-3.44-16.14-10.68-31.48-21.08-44.29C558.38,153.65,572.85,172.62,575.82,194.49z M526.59,230.03
	c8.51-25.08,9.06-52.02,2.72-77.74c13.68,27.4,18.87,58.96,14.69,89.29c-0.86,6.25-4.68,12.14-10.98,12.47
	c-4.93,0.25-8.83-4.72-9.35-9.63C523.14,239.51,525,234.71,526.59,230.03z M505.08,190.13c4.9-10.14,7.79-22.11,8.16-33.4
	c3.69,14.93,3.28,30.86,2.23,46.2c-0.25,3.63-0.56,7.4-2.38,10.55c-3.1,5.36-12.67,5.23-15.83-0.57
	C493.3,205.64,502.18,196.13,505.08,190.13z M510.15,304.82c1.64,0.37,3.8,2.34,4.09,3.89c0.52,2.78-2.06,4.02-4.49,4.26
	c-4.39,0.44-8.13-2.75-10.98-5.92C501.95,303.68,506.56,304.01,510.15,304.82z M497.17,302.47c0.45-5.87,0.87-10.6,6.7-13.14
	c2.81-0.68,4.19,1.02,3.97,2.93C507.43,298.74,503.37,300.87,497.17,302.47z M483.04,291.09c2.25-1.92,4.52-0.99,6.21,0.73
	c2.91,2.95,3.59,6.72,3.7,11.1c-4.95-0.51-7.95-2.8-10.19-6.18C481.53,294.88,481.05,292.79,483.04,291.09z M481.03,314.96
	c-1.12,0.22-3.42-1.14-3.7-2.17c-0.38-1.44,0.08-3.95,1.14-4.77c3.87-3,9.34-3.41,13.64-0.88
	C490.47,312.14,485.08,314.16,481.03,314.96z M491.17,319.05c0.22-3.57,1.34-6.7,5.8-10.03c1.09,4.25,2.07,7.26,2.58,10.35
	c0.5,3.02-0.99,5.22-4.17,5.03C492.4,324.23,490.99,322.05,491.17,319.05z M509.34,386.66c-0.95,10.21-5.4,17.96-8.32,27.42
	c2.38-7.72-1.62-13.71-3.4-21.59c-1.43-6.31-2.83-16.64,1.87-22.16C510.57,357.37,509.87,381.03,509.34,386.66z M509.61,423.95
	c13.09-14.92,14.95-31.1,17.5-49.75c1.31-9.53-0.84-19.7,2.3-28.96c4.06-11.97,12.86-8.91,15.93,2.12
	c3.91,14.07-0.78,32.6-7.01,45.36c-3.28,6.72-7.53,12.97-12.64,18.43C521.07,416.07,513.85,419.12,509.61,423.95z M567.7,382.98
	c3.95-9.93,10.12-20.22,19.29-26.15c9.32-6.03,22.4-2.91,26.1,8.43c3.01,9.24-4.92,22.31-12.22,27.34
	c-9.99,6.89-18.94,14.8-29.7,20.67c-14.71,8.02-30.01,14.69-45.34,21.44C541.74,421.35,559.88,402.65,567.7,382.98z M597.84,469.77
	c-6.52,3.17-16.17-0.79-21.92-3.76c-7.18-3.7-11.97-9.08-20.04-8.72c9.89-0.44,18.51-2.8,28.63-1.16
	C590.09,457.05,613.17,462.32,597.84,469.77z M629.64,447.13c-9.75,0.71-19.05-3.93-28.61-5.06c-18.7-2.22-34.82-4.49-52.56,4.43
	c5.74-2.89,10.51-9.11,16.44-12.34c6.57-3.57,13.69-6.12,21.01-7.6c13.92-2.82,33.03-2.7,45.66,4.62
	C641.5,436.93,642.25,446.21,629.64,447.13z M639.41,493.92c-1.12,0.22-3.42-1.14-3.7-2.17c-0.38-1.44,0.08-3.95,1.14-4.77
	c3.87-3,9.34-3.41,13.64-0.88C648.84,491.1,643.46,493.12,639.41,493.92z M653.76,503.36c-2.98-0.18-4.4-2.35-4.21-5.36
	c0.22-3.57,1.34-6.7,5.8-10.03c1.09,4.25,2.07,7.26,2.58,10.35C658.43,501.35,656.95,503.55,653.76,503.36z M668.12,491.93
	c-4.39,0.44-8.13-2.75-10.98-5.92c3.19-3.37,7.79-3.04,11.38-2.23c1.64,0.37,3.8,2.34,4.09,3.89
	C673.12,490.45,670.55,491.69,668.12,491.93z M693.68,444.66c0.7-4.3,4.93-7.36,9.24-7.97c4.31-0.61,8.66,0.72,12.7,2.35
	c18.42,7.42,44.28,27.33,47.43,48.53c-6.9-1.06-17.53-12.91-24.44-16.8c-8.72-4.9-18.03-8.73-27.69-11.34
	c-4.03-1.09-8.21-2.01-11.71-4.29C695.72,452.84,693.01,448.78,693.68,444.66z M703.43,506.03c-1.84-1.39-3.44-3.32-3.69-5.61
	c-0.3-2.75,1.47-5.41,3.8-6.91c2.33-1.5,5.13-2.05,7.87-2.45c17.03-2.49,34.73-0.25,50.6,6.41c-5.25,0.07-10.95,0.59-16.56,1.59
	c-5.86,1.05-11.62,2.61-16.68,4.74C721.14,507,711.37,512.04,703.43,506.03z M742.29,534.49c-0.69,5.13-0.79,10.98-4.64,14.45
	c-4.28,3.85-13.13,2.62-14.63-3.3c-0.73-2.89-0.47-6.31,0.41-9.72c1.43-5.55,4.49-11.1,7.62-14.35c3.34-3.47,7.57-6.76,11.73-9.19
	c3.64-2.14,12.17-2.94,14.8-5.41C750.01,514.08,743.68,524.2,742.29,534.49z M761.09,550.03c-1.42-0.1-2.53-0.49-3.37-1.12
	c-7.41-5.54,5.42-29.46,8.37-34.23C762.66,520.22,777.2,551.15,761.09,550.03z"/>
</svg>
