<?xml version="1.0" encoding="utf-8"?>
<!-- Generator: Adobe Illustrator 25.2.3, SVG Export Plug-In . SVG Version: 6.00 Build 0)  -->
<svg version="1.1" xmlns="http://www.w3.org/2000/svg" xmlns:xlink="http://www.w3.org/1999/xlink" x="0px" y="0px"
	 viewBox="0 0 1190.55 841.89" style="enable-background:new 0 0 1190.55 841.89;" xml:space="preserve">
<style type="text/css">
	.st0{fill:#B0252C;}
</style>
<g id="Circle">
	<path class="st0" d="M597.16,8.89C371.6,7.9,185.4,190.68,183.62,417.62c-1.8,229,184.05,414.84,410.67,415.38
		c222.44,0.53,411.4-179.14,412.66-411.97C1005.86,189.11,818.18,9.87,597.16,8.89z M595.29,821.37
		c-223.32,0.03-401.55-182.98-400.12-403.22C196.61,196.23,381.5,14.1,607.31,20.66c208.37,6.05,387.2,177.45,387.95,400.39
		C994.59,643.15,814.96,821.34,595.29,821.37z M595.54,31.77c-214.65,0.49-387.89,173.57-388.92,387.32
		c-1.02,213.37,169.87,387.37,382.04,390.78c218.16,3.5,391.38-171.85,395.03-382.03C987.41,213.91,815.81,32.89,595.54,31.77z
		 M586.01,802.83c-201.38-4.71-372.04-169.87-372.45-382.21c0.56-212.93,174.15-382.55,383.27-381.66
		c207.4,0.88,379.65,169.78,379.86,381.75C976.9,635.49,799.13,807.82,586.01,802.83z M909.85,329.59
		c12.63-3.69,25.44-7.43,38.91-11.37c9.82,33.89,14.38,67.76,14.55,102.68c-13.58,0-26.82,0-40.59,0
		c-0.77-12.71-1.54-25.42-2.33-38.58c7.75-0.94,15.24-1.86,23.47-2.86c0.57,6.85,1.11,13.31,1.69,20.19c-2.35,0.37-4.2,0.66-6.38,1
		c-0.58-4.51-1.12-8.7-1.73-13.5c-3.06,0.32-5.97,0.63-9.62,1.01c0.48,8.63,0.95,17.09,1.44,25.9c8.81,0,17.56,0,26.89,0
		c-0.32-29.83-4.23-58.49-12.08-87.02c-8.9,2.4-17.21,4.64-26.07,7.03c1.92,8.55,3.77,16.77,5.74,25.54c3.21-0.53,6.11-1,9.67-1.59
		c-0.74-4.43-1.44-8.69-2.18-13.12c1.9-0.57,3.56-1.06,5.7-1.7c2.81,6.39,3.04,13.27,4.64,20.35c-7.88,1.3-15.54,2.57-23.33,3.85
		C915.46,354.85,912.74,342.62,909.85,329.59z M482.81,730.43c-4.51,12.48-9.07,25.06-13.83,38.23
		c-33.16-11.86-63.49-28.07-91.79-48.7c8.06-11.07,15.88-21.83,23.92-32.87c10.94,7.02,21.75,13.97,32.79,21.06
		c-3.74,6.67-7.45,13.3-11.52,20.57c-5.96-3.53-11.67-6.91-17.72-10.5c1.3-2.12,2.28-3.72,3.57-5.83c3.87,2.26,7.5,4.38,11.51,6.73
		c1.67-2.74,3.29-5.41,5.15-8.47c-7.55-4.85-14.8-9.5-22.3-14.32c-5.18,7.46-10.13,14.58-15.46,22.25
		c24.18,17.19,49.69,30.33,77.4,41.22c3.25-8.47,6.44-16.76,9.71-25.29c-8.16-3.54-15.77-6.84-23.92-10.38
		c-1.48,2.82-2.92,5.54-4.63,8.81c4.17,2,7.95,3.82,12.18,5.86c-0.81,2.01-1.57,3.88-2.55,6.3c-6.35-2.97-12.23-5.71-18.8-8.78
		c3.62-7.3,7.05-14.21,10.49-21.16C458.95,720.24,470.65,725.24,482.81,730.43z M922.41,431.82c13.43,0.35,26.71,0.7,40.74,1.06
		c-1.13,35.1-7.33,68.73-17.84,102.54c-13.09-4.26-25.79-8.39-38.69-12.59c3.27-12.49,6.44-24.62,9.84-37.62
		c7.79,1.51,15.2,2.94,23.14,4.48c-1.55,6.94-3.01,13.45-4.53,20.24c-2.05-0.54-4.01-1.05-6.45-1.69c0.84-4.22,1.62-8.16,2.54-12.82
		c-2.85-0.82-5.8-1.66-9.41-2.7c-2.28,8.63-4.48,16.94-6.82,25.8c8.57,2.62,16.95,5.19,25.93,7.94
		c8.59-28.34,13.53-56.88,15.14-86.51c-9.22-0.52-17.83-1.01-27.09-1.53c-0.82,8.87-1.6,17.29-2.43,26.3
		c3.26,0.45,6.16,0.85,9.7,1.34c0.66-4.43,1.3-8.73,2.01-13.48c2.02,0.3,4.06,0.6,6.54,0.97c-0.74,6.61-1.46,13.06-2.28,20.34
		c-8.03-1.2-15.8-2.36-23.52-3.52C920.09,457.56,921.22,445.05,922.41,431.82z M266.06,410.62c-13.46-0.46-26.61-0.91-40.65-1.38
		c0.87-34.75,7.28-68.53,17.84-102.35c12.94,4.18,25.77,8.32,38.64,12.48c-3.37,12.87-6.58,25.16-9.87,37.72
		c-7.69-1.53-15.12-3.02-23.13-4.61c1.52-6.65,2.99-13.11,4.59-20.14c2.21,0.57,4.02,1.04,6.38,1.65
		c-0.83,4.29-1.64,8.53-2.53,13.13c3.18,0.72,6.07,1.37,9.47,2.14c2.22-8.41,4.38-16.58,6.76-25.57
		c-8.52-2.58-17.02-5.16-25.99-7.88c-8.47,28.49-13.6,56.83-15.02,86.53c9.14,0.45,17.63,0.86,26.9,1.31
		c0.88-8.59,1.73-16.97,2.65-25.95c-3.39-0.56-6.41-1.06-9.85-1.62c-0.65,4.6-1.21,8.59-1.81,12.86c-2.03,0-4.08,0-6.81,0
		c0.79-6.57,1.57-12.97,2.41-19.92c7.94-0.56,15.33,2.22,23.42,2.58C268.29,384.9,267.19,397.58,266.06,410.62z M643.44,96
		c-12.86-1.19-25.36-2.34-38.65-3.56c0.46-13.41,0.92-26.66,1.39-40.52c35.18,0.94,68.89,6.98,102.21,17.77
		c-4.24,13.09-8.38,25.89-12.52,38.66c-12.6-3.28-24.74-6.44-37.67-9.81c1.55-7.75,3.04-15.18,4.65-23.21
		c6.99,1.62,13.45,3.11,20.04,4.64c-0.54,2.22-0.95,3.91-1.53,6.31c-4.32-0.79-8.53-1.56-13.15-2.4c-0.76,3.2-1.45,6.08-2.24,9.38
		c8.51,2.24,16.82,4.43,25.62,6.76c2.62-8.63,5.18-17.05,7.89-25.98c-28.27-8.44-56.6-13.6-86.47-15.01
		c-0.47,9.12-0.93,17.85-1.4,26.97c8.88,0.85,17.3,1.66,26.08,2.51c0.52-3.2,0.99-6.11,1.59-9.78c-4.49-0.66-8.76-1.29-13.28-1.96
		c0.24-2.33,0.43-4.21,0.68-6.73c6.76,0.88,13.19,1.71,20.27,2.63C645.76,80.52,644.64,87.99,643.44,96z M392.8,680.81
		c-8.3,10.69-16.52,21.28-24.98,32.18c-27.55-21.85-51.66-46.29-71.83-74.58c0.58-0.67,0.87-1.15,1.28-1.45
		c10.35-7.54,20.71-15.06,31.2-22.69c8.16,9.98,16.22,19.84,24.65,30.16c-5.67,5.25-11.24,10.42-17.23,15.97
		c-4.51-5.07-8.85-9.95-13.65-15.34c1.61-1.43,3.11-2.77,5.06-4.51c3.04,3.36,5.85,6.47,9.06,10.03c2.51-2.24,4.95-4.43,7.4-6.62
		c-5.71-6.95-11.11-13.52-16.76-20.4c-7.25,5.49-14.29,10.82-21.61,16.36c17.95,23.53,37.93,44.41,60.98,63.09
		c5.76-7.07,11.34-13.94,17.12-21.04c-6.56-5.74-12.98-11.35-19.46-17.02c-2.21,2.22-4.41,4.42-6.96,6.98
		c2.92,2.8,5.97,5.72,9.37,8.97c-1.33,1.61-2.62,3.18-4.28,5.19c-5.13-4.74-10.02-9.26-15.06-13.91
		c5.92-5.52,11.62-10.83,17.39-16.21C373.24,663.64,382.8,672.04,392.8,680.81z M685.71,737.03c3.77,13.03,7.45,25.77,11.27,38.96
		c-33.57,9.97-67.54,14.23-102.43,14.72c0-13.86,0-27.17,0-40.96c12.64-0.68,25.18-1.35,38.41-2.06c0.93,7.65,1.87,15.32,2.87,23.51
		c-6.98,0.54-13.63,1.06-20.69,1.61c-0.2-2.42-0.33-4.12-0.53-6.47c4.53-0.55,8.85-1.07,13.38-1.62c-0.28-3.21-0.53-6.15-0.84-9.69
		c-8.78,0.52-17.23,1.02-25.97,1.54c0,8.82,0,17.45,0,25.94c11.17,3.33,73.73-5.4,86.81-11.72c-2.19-8.26-4.4-16.59-6.77-25.53
		c-8.65,1.92-17.01,3.78-25.71,5.71c0.63,3.39,1.2,6.43,1.81,9.71c4.65-0.78,8.75-1.46,13.38-2.24c0.39,2.35,0.7,4.19,1.05,6.23
		c-6.73,1.76-13.18,3.3-20.14,3.75c-1.33-8.07-2.56-15.52-3.77-22.91C660.67,742.65,673.07,739.87,685.71,737.03z M409.82,149.03
		c-7.62-11.22-15.11-22.25-22.88-33.69c29.11-19.54,59.72-34.99,93.37-45.63c4.24,13.07,8.32,25.66,12.5,38.54
		c-12.03,4.73-23.86,9.39-36.2,14.24c-3.19-6.87-6.45-13.89-9.96-21.46c6.4-2.75,12.55-5.39,18.97-8.16
		c0.84,2.04,1.63,3.97,2.58,6.28c-4.08,1.79-7.91,3.48-12.26,5.39c1.36,3.16,2.58,5.99,3.93,9.11c8.31-3.24,16.19-6.33,24.61-9.61
		c-2.95-8.52-5.83-16.82-8.87-25.6c-28.01,9.55-53.75,22.46-78.73,38.6c4.96,7.69,9.73,15.09,14.68,22.77
		c7.58-4.53,14.83-8.86,22.56-13.48c-1.47-2.83-2.89-5.58-4.56-8.8c-4,2.17-7.67,4.17-11.89,6.47c-1.09-1.84-2.12-3.58-3.46-5.85
		c5.95-3.31,11.61-6.46,18.06-10.05c3.75,7.2,7.31,14.02,10.93,20.96C431.89,135.83,420.99,142.35,409.82,149.03z M866.04,236.46
		c11.13-7.58,22.13-15.07,33.58-22.87c19.44,29.09,34.87,59.8,45.74,93.44c-13.05,4.24-25.65,8.33-38.63,12.55
		c-4.65-11.86-9.28-23.69-14.19-36.22c6.87-3.2,13.84-6.46,21.36-9.97c2.76,6.38,5.35,12.37,8.19,18.91
		c-2.26,0.95-4.14,1.75-6.28,2.65c-1.75-4-3.44-7.85-5.34-12.18c-3.14,1.28-6.01,2.44-9.22,3.74c3.33,8.41,6.5,16.4,9.79,24.7
		c8.56-2.98,16.73-5.82,24.83-8.64c-2.19-14.58-27.65-66.8-38.44-78.83c-7.3,4.78-14.66,9.6-22.2,14.54
		c4.63,7.72,8.99,14.99,13.58,22.64c2.94-1.65,5.67-3.18,8.65-4.85c-2.13-3.85-4.16-7.53-6.43-11.63c1.84-1.17,3.42-2.18,5.64-3.59
		c3.47,6.07,6.77,11.84,10.33,18.07c-7.3,3.78-14.17,7.34-21.1,10.93C879.22,258.62,872.71,247.67,866.04,236.46z M903.18,532.69
		c12.48,4.5,25.05,9.04,38.16,13.77c-12.01,33.03-27.77,63.42-48.55,91.9c-11.09-8.06-21.84-15.87-32.87-23.89
		c7.01-10.94,13.86-21.63,21.01-32.79c6.78,3.8,13.52,7.57,20.61,11.53c-3.65,6.1-7.01,11.72-10.59,17.69
		c-2.15-1.3-3.9-2.36-5.87-3.55c2.32-3.89,4.4-7.39,6.84-11.5c-2.81-1.71-5.55-3.39-8.51-5.19c-4.84,7.55-9.42,14.7-14.27,22.26
		c7.37,5.17,14.6,10.24,22.18,15.56c17.14-24.09,30.35-49.77,41.19-77.51c-8.43-3.28-16.63-6.48-25.25-9.83
		c-3.49,8.17-6.88,16.08-10.35,24.19c2.94,1.45,5.61,2.77,8.88,4.38c1.93-4.1,3.71-7.88,5.68-12.05c1.85,0.7,3.73,1.42,6.34,2.41
		c-2.88,6.34-5.61,12.37-8.61,18.98c-7.31-3.66-14.18-7.1-21.18-10.61C893.12,556.41,898.03,544.83,903.18,532.69z M705.7,111.82
		c4.5-12.52,9.04-25.12,13.76-38.23c33.04,11.75,63.36,27.94,91.83,48.63c-7.95,10.95-15.85,21.83-23.91,32.93
		c-10.97-7.05-21.66-13.92-32.79-21.08c3.87-6.89,7.51-13.38,11.51-20.52c6.06,3.57,11.78,6.94,17.78,10.47
		c-1.37,2.28-2.45,4.07-3.59,5.97c-3.9-2.32-7.5-4.46-11.56-6.88c-1.74,2.92-3.33,5.59-5.06,8.49c7.41,4.8,14.4,9.33,22.11,14.32
		c5.09-7.22,10.15-14.39,15.17-21.5c-8.55-9.54-53.72-33.99-76.93-41.64c-3.62,8.07-6.61,16.45-9.67,25.04
		c8.11,3.49,15.89,6.84,24.03,10.34c1.41-3.03,2.73-5.86,4.2-9.02c-4-1.89-7.65-3.62-11.8-5.57c0.7-1.97,1.37-3.86,2.28-6.41
		c6.47,2.99,12.37,5.71,18.93,8.74c-3.66,7.32-7.1,14.2-10.58,21.13C729.37,121.9,717.81,116.98,705.7,111.82z M285.23,309.5
		c-12.67-4.57-25.31-9.12-38.17-13.76c12.15-32.74,27.69-63.49,48.69-91.87c10.98,7.99,21.87,15.91,32.85,23.9
		c-7,10.91-13.92,21.7-21.04,32.79c-6.77-3.78-13.39-7.48-20.59-11.5c3.51-5.94,6.8-11.52,10.44-17.69c2.15,1.25,3.9,2.27,5.99,3.49
		c-2.28,3.86-4.42,7.48-6.8,11.52c2.75,1.7,5.4,3.34,8.4,5.2c4.84-7.5,9.53-14.75,14.39-22.27c-7.39-5.17-14.5-10.15-21.59-15.11
		c-9.91,9-35.26,56.63-41.49,77.22c8.13,3.13,16.3,6.27,24.87,9.56c3.54-8.15,6.9-15.88,10.44-24.01c-2.98-1.5-5.78-2.9-8.96-4.5
		c-1.92,4.1-3.7,7.9-5.69,12.15c-2.05-0.89-3.91-1.69-6.23-2.7c2.95-6.39,5.67-12.3,8.63-18.72c7.45,3.73,14.36,7.19,21.18,10.6
		C295.44,285.71,290.54,297.12,285.23,309.5z M853.64,622.79c10.55,8.21,21.04,16.39,32.1,25c-21.78,27.65-46.32,51.83-74.69,72.28
		c-8-11.01-15.81-21.77-23.85-32.83c10.08-8.3,19.9-16.4,30.06-24.77c5.22,5.63,10.47,11.29,16.06,17.32
		c-5.19,4.59-10.08,8.92-15.34,13.58c-1.58-1.73-2.95-3.25-4.6-5.05c3.32-2.98,6.47-5.81,10.02-9c-2.29-2.66-4.24-4.94-6.42-7.48
		c-6.81,5.58-13.36,10.95-20.48,16.79c5.38,7.16,10.75,14.3,16.3,21.69c23.55-18.01,44.39-38.04,63.05-61.09
		c-7.12-5.79-13.96-11.35-21.06-17.13c-5.87,6.75-11.55,13.28-17.42,20.05c2.47,2.19,4.7,4.16,7.52,6.66
		c3.09-3.3,5.96-6.37,9.04-9.68c1.73,1.51,3.16,2.76,5.08,4.43c-4.67,4.95-9.15,9.7-14.19,15.05c-5.6-5.54-11.08-10.97-16.74-16.56
		C836.7,642.18,845.09,632.58,853.64,622.79z M778.64,693.2c7.51,11.05,15.05,22.14,22.86,33.62
		c-29.13,19.79-59.97,35.01-93.31,45.82c-4.23-13.1-8.36-25.89-12.51-38.72c12.26-4.8,24.1-9.44,36.2-14.18
		c3.23,6.96,6.44,13.88,9.94,21.42c-6.18,2.68-12.24,5.31-18.89,8.19c-0.93-2.12-1.73-3.96-2.73-6.24
		c4.13-1.82,7.97-3.51,12.34-5.44c-1.3-3.06-2.5-5.91-3.87-9.14c-8.12,3.19-15.97,6.28-24.63,9.68c2.86,8.3,5.71,16.57,8.8,25.53
		c28.07-9.4,53.89-22.47,78.83-38.59c-4.98-7.66-9.77-15.03-14.75-22.69c-7.6,4.53-14.87,8.85-22.64,13.48
		c1.59,2.95,3.06,5.67,4.72,8.75c4.04-2.21,7.71-4.23,11.67-6.4c1.17,1.77,2.22,3.34,3.78,5.69c-6.03,3.37-11.82,6.61-18.12,10.13
		c-3.74-7.04-7.37-13.86-11.12-20.91C756.25,706.59,767.16,700.08,778.64,693.2z M545.07,746.18c13.02,1.21,25.37,2.36,38.64,3.6
		c-0.44,13.14-0.89,26.58-1.36,40.59c-34.95-1.12-68.85-6.9-102.26-17.87c4.19-12.9,8.28-25.48,12.54-38.56
		c12.46,3.21,24.7,6.36,37.64,9.7c-1.49,7.54-2.97,15.1-4.56,23.16c-6.84-1.5-13.18-2.9-20.02-4.4c0.5-2.28,0.93-4.26,1.47-6.7
		c4.3,0.94,8.37,1.83,13.05,2.85c0.75-3.06,1.49-6.06,2.37-9.6c-8.37-2.2-16.5-4.33-25.6-6.72c-2.68,8.7-5.22,16.95-7.96,25.86
		c28.28,8.77,56.83,13.47,86.57,15.29c0.42-9.18,0.82-17.84,1.26-27.23c-8.58-0.78-16.99-1.55-26.04-2.38
		c-0.48,3.18-0.96,6.35-1.48,9.79c4.61,0.68,8.61,1.27,13.02,1.92c-0.11,2.05-0.21,3.9-0.34,6.49c-6.87-0.77-13.29-1.49-20.44-2.29
		C542.78,761.39,543.93,753.78,545.07,746.18z M322.47,605.72c-11.02,7.51-22.12,15.09-33.52,22.86
		c-19.53-29.14-34.99-59.75-45.78-93.36c13.03-4.24,25.76-8.37,38.6-12.55c4.84,12.34,9.42,24.03,14.21,36.23
		c-6.81,3.16-13.65,6.33-20.99,9.74c-3.74-5.9-5.84-12.17-8.35-18.78c2.09-0.91,3.8-1.64,6.01-2.6c1.84,4.22,3.51,8.05,5.36,12.28
		c3.09-1.29,5.95-2.49,9.13-3.82c-3.17-8.16-6.23-16.04-9.58-24.67c-8.43,2.9-16.72,5.75-25.58,8.79
		c9.46,27.99,22.39,53.93,38.63,78.97c7.86-5.17,15.11-9.94,22.61-14.88c-4.49-7.53-8.83-14.81-13.44-22.54
		c-2.85,1.53-5.44,2.92-8.63,4.63c2.06,3.89,4.01,7.57,6.19,11.69c-1.78,1.19-3.48,2.31-5.62,3.74
		c-3.38-6.06-6.56-11.77-10.11-18.15c7.09-3.71,13.91-7.29,20.94-10.97C309.17,583.43,315.69,594.36,322.47,605.72z M334.79,219.41
		c-10.56-8.23-21.04-16.39-31.46-24.51c7.59-14.85,56.21-62.12,74.39-72.3c7.88,10.83,15.8,21.71,23.62,32.44
		c-9.84,8.06-19.59,16.04-29.82,24.43c-5.8-4.78-10.5-11-16.34-17.06c5.22-4.57,10.22-8.94,15.61-13.66
		c1.63,2.06,2.9,3.67,4.21,5.32c-3.41,3.05-6.58,5.88-9.82,8.78c0.53,0.77,0.87,1.4,1.34,1.91c1.56,1.71,3.16,3.38,5.15,5.49
		c6.72-5.53,13.38-11,20.32-16.7c-5.55-7.34-10.86-14.37-16.15-21.36c-16.86,10.86-52.42,45.33-62.95,61.01
		c6.83,5.55,13.68,11.12,20.75,16.86c5.92-6.69,11.55-13.05,17.34-19.6c-2.36-2.17-4.68-4.3-7.37-6.77c-2.85,3.01-5.75,6.08-8.9,9.4
		c-1.5-1.24-3.08-2.54-5.19-4.29c4.76-5.14,9.28-10.02,14.35-15.5c5.5,6.16,10.56,11.84,15.84,17.75
		C351.83,200.04,343.41,209.61,334.79,219.41z M502.8,105.26c-3.69-12.75-7.42-25.65-11.28-39.02
		c33.51-9.88,67.47-14.46,102.45-14.51c0,13.71,0,26.85,0,40.48c-12.54,0.78-25.21,1.57-38.44,2.4c-0.93-7.67-1.84-15.18-2.85-23.43
		c6.73-0.65,13.19-1.27,20.3-1.96c0.37,2.26,0.71,4.41,1.11,6.88c-4.77,0.41-9.1,0.78-13.78,1.18c0.39,3.55,0.71,6.49,1.09,9.92
		c8.63-0.45,17.07-0.9,25.88-1.36c0-8.97,0-17.76,0-27.3c-29.56,0.81-58.12,4.36-86.93,12.28c2.34,8.79,4.62,17.37,6.97,26.21
		c8.73-1.98,16.96-3.84,25.57-5.79c-0.53-3.17-1.01-6.08-1.61-9.65c-4.51,0.75-8.62,1.44-13.41,2.24c-0.35-1.97-0.71-3.94-1.18-6.52
		c6.64-1.34,12.98-2.62,20.03-4.04c1.34,7.8,2.61,15.23,4,23.33C528.25,99.45,515.75,102.3,502.8,105.26z M892.75,204.1
		c-10.89,7.94-21.63,15.78-32.68,23.84c-8.24-10.02-16.34-19.85-24.77-30.1c5.58-5.19,11.38-10.58,17.34-16.12
		c4.47,5.15,8.88,10.22,13.47,15.5c-1.76,1.61-3.32,3.03-5.02,4.58c-2.92-3.29-5.73-6.46-8.88-10.02c-2.61,2.16-5,4.14-7.63,6.32
		c5.7,6.92,11.11,13.5,16.9,20.53c7.17-5.43,14.2-10.75,21.19-16.05c-7.45-13.55-45.67-53.21-60.87-63.04
		c-5.5,6.76-11.04,13.58-16.84,20.71c6.7,5.89,13.17,11.57,19.85,17.42c2.24-2.44,4.27-4.64,6.75-7.34c-3.15-2.96-6.2-5.81-9.71-9.1
		c1.32-1.49,2.67-3,4.46-5.02c5.18,4.75,10.1,9.26,15.01,13.76c-5.74,5.73-11.15,11.13-16.81,16.78
		c-9.46-8.32-19.04-16.74-28.83-25.34c8.13-10.46,16.4-21.1,24.96-32.12C848.03,150.97,872.08,175.29,892.75,204.1z M278.81,512.62
		c-12.96,3.78-25.82,7.53-39.07,11.39c-9.71-33.45-14.47-67.4-14.47-102.47c13.72,0,26.94,0,40.46,0
		c0.79,12.64,1.57,25.04,2.4,38.28c-7.66,0.93-15.28,1.86-23.53,2.86c-0.59-7.07-1.12-13.58-1.7-20.49c2.28,0,4.31,0,6.56,0
		c0.47,3.98,0.95,8,1.44,12.11c3.24,0,6.17,0,9.8,0c-0.48-8.85-0.94-17.29-1.43-26.15c-8.82,0-17.59,0-27.04,0
		c0.46,29.42,4.28,57.96,12.07,86.91c8.7-2.27,17.14-4.48,26.19-6.84c-1.97-8.74-3.86-17.12-5.81-25.8
		c-3.29,0.6-6.18,1.13-9.67,1.77c0.75,4.3,1.45,8.26,2.28,13c-1.75,0.51-3.63,1.05-6.32,1.84c-1.46-7.02-2.81-13.52-4.23-20.39
		c7.68-1.27,15.14-2.5,23.17-3.82C272.87,487.37,275.77,499.68,278.81,512.62z M749.78,266.21c13.8-4.31,23.26-0.24,29.15,8.69
		c4.27,6.47,3.84,13.93-1.02,19.34c-4.34,4.82-11.71,6.37-16.85,3.55c-6.3-3.46-8.58-9.1-6.56-16.3c0.28-1,0.69-1.96,1.29-3.61
		c-4.89,0.21-7.86,2.85-9.23,6.63c-1.82,5.06-1.07,10.11,2.71,14.32c7.5,8.39,28.77,8.67,36.31,0.29c3.31-3.68,5.49-7.92,3.31-13.25
		c-0.65-1.6-0.4-3.57-0.55-5.29c9.3-2.31,13.01,1.18,14.88,13.45c15.39,2.27,19.52,7.81,15.53,21.57c1.72,1.26,3.71,2.5,5.44,4.04
		c2.94,2.63,5.02,5.84,3.75,9.95c-1.1,3.57-4.07,4.55-7.61,4.74c-1.76,0.1-3.67,0.86-5.17,1.84c-6.31,4.1-13,4.47-20.34,2.66
		c2.93-6.69,2.72-13.17-1.73-18.79c-3.94-4.97-9.53-6.41-17.28-5.37c2.39,1.68,3.84,2.47,5,3.57c6.14,5.86,5.14,16.83-2.36,20.77
		c-2.73,1.43-6.8,1.61-9.84,0.8c-3.63-0.97-5.08-4.51-4.56-8.46c0.13-1,0.22-2.01,0.37-3.51c-6.76,1.25-7.32,5.97-7.21,11.51
		c-6.21-0.83-12.26-0.44-16.92-4.37c-6.13-5.18-12.55-5.06-19.63-2.79c-4.01,1.29-8.22,1.93-13.53,3.14
		c11.86-12.38,14.41-13.37,31.72-12.84c-1.6-2.4-3.03-4.51-4.42-6.66c-5.94-9.2-11.21-10.88-21.86-7.88
		c-8.2,2.31-16.52,4.84-24.94,5.64c-10.43,1-20.66-1.02-29.84-7.5c6.3,0.32,12.17,1.12,17.97,0.81
		c10.18-0.54,19.11-4.57,27.22-10.82c7.16-5.52,14.09-11.9,24.38-11.07C732.73,276.11,739.9,269.29,749.78,266.21z M804.71,417.15
		c-2.12,0.68-4.36,1.02-7.17,1.66c6.29-6.56,7.64-7.09,16.82-6.81c-0.85-1.27-1.61-2.39-2.34-3.53c-3.15-4.88-5.95-5.77-11.59-4.18
		c-4.35,1.23-8.76,2.56-13.22,2.99c-5.53,0.53-10.96-0.54-15.82-3.98c3.34,0.17,6.45,0.59,9.53,0.43c5.4-0.29,10.13-2.42,14.44-5.74
		c3.8-2.93,7.47-6.31,12.92-5.87c2.84-4.72,6.64-8.33,11.88-9.97c7.32-2.29,12.33-0.13,15.45,4.61c2.26,3.43,2.04,7.38-0.54,10.25
		c-2.3,2.56-6.21,3.38-8.94,1.88c-3.34-1.83-4.55-4.82-3.48-8.64c0.15-0.53,0.37-1.04,0.68-1.91c-2.6,0.11-4.17,1.51-4.89,3.52
		c-0.97,2.68-0.57,5.36,1.43,7.6c3.98,4.45,15.25,4.6,19.25,0.15c1.76-1.95,2.91-4.2,1.76-7.03c-0.35-0.85-0.21-1.89-0.29-2.81
		c4.93-1.23,6.9,0.63,7.89,7.13c8.16,1.2,10.35,4.14,8.23,11.44c0.91,0.67,1.97,1.33,2.88,2.14c1.56,1.39,2.66,3.1,1.99,5.28
		c-0.58,1.89-2.16,2.41-4.04,2.52c-0.93,0.05-1.94,0.45-2.74,0.97c-3.34,2.17-6.89,2.37-10.78,1.41c1.55-3.55,1.44-6.98-0.92-9.96
		c-2.09-2.64-5.05-3.4-9.16-2.85c1.27,0.89,2.04,1.31,2.65,1.89c3.25,3.11,2.73,8.92-1.25,11.02c-1.45,0.76-3.6,0.86-5.22,0.42
		c-1.92-0.52-2.69-2.39-2.42-4.49c0.07-0.53,0.11-1.07,0.2-1.86c-3.58,0.66-3.88,3.17-3.82,6.1c-3.29-0.44-6.5-0.23-8.97-2.32
		C811.87,415.88,808.47,415.94,804.71,417.15z M651.4,224.39c3.34,0.17,6.45,0.59,9.53,0.43c5.4-0.29,10.13-2.42,14.44-5.74
		c3.8-2.93,7.47-6.31,12.92-5.87c2.84-4.72,6.64-8.33,11.88-9.97c7.32-2.29,12.33-0.13,15.45,4.61c2.26,3.43,2.04,7.38-0.54,10.25
		c-2.3,2.56-6.21,3.38-8.94,1.88c-3.34-1.83-4.55-4.82-3.48-8.64c0.15-0.53,0.37-1.04,0.68-1.91c-2.59,0.11-4.17,1.51-4.89,3.52
		c-0.97,2.68-0.57,5.36,1.43,7.6c3.98,4.45,15.25,4.6,19.25,0.15c1.76-1.95,2.91-4.2,1.76-7.03c-0.35-0.85-0.21-1.89-0.29-2.81
		c4.93-1.23,6.9,0.63,7.89,7.13c8.16,1.2,10.35,4.14,8.23,11.44c0.91,0.67,1.97,1.33,2.88,2.14c1.56,1.39,2.66,3.1,1.99,5.28
		c-0.58,1.89-2.16,2.41-4.04,2.52c-0.93,0.05-1.94,0.45-2.74,0.97c-3.34,2.17-6.89,2.37-10.78,1.41c1.55-3.55,1.44-6.98-0.92-9.96
		c-2.09-2.64-5.05-3.4-9.16-2.85c1.27,0.89,2.04,1.31,2.65,1.89c3.25,3.11,2.73,8.92-1.25,11.02c-1.45,0.76-3.6,0.86-5.22,0.42
		c-1.92-0.52-2.69-2.39-2.42-4.49c0.07-0.53,0.11-1.07,0.2-1.86c-3.58,0.66-3.88,3.17-3.82,6.1c-3.29-0.44-6.5-0.23-8.97-2.32
		c-3.25-2.75-6.65-2.69-10.41-1.48c-2.12,0.68-4.36,1.02-7.17,1.66c6.29-6.56,7.64-7.09,16.82-6.81c-0.85-1.27-1.61-2.39-2.34-3.53
		c-3.15-4.88-5.95-5.77-11.59-4.18c-4.35,1.23-8.76,2.56-13.22,2.99C661.69,228.9,656.26,227.83,651.4,224.39z M322.76,454.97
		c-2.93,2.4-6.23,3.49-9.66,0.48c-0.53-0.47-1.67-0.33-2.52-0.32c-3.3,0.05-5.52-1.7-6.52-4.58c-0.96-2.76-0.77-5.58,1.55-7.93
		c0.87-0.88,1.15-2.35,2.04-3.21c1.33-1.28,2.82-2.8,4.5-3.25c3.51-0.94,7.17-1.28,10.78-1.85c-0.01-0.05-0.02-0.1-0.03-0.15
		c0.07,0.04,0.14,0.08,0.21,0.12l-0.17,0.1c1.69,3.18-2.23,2.43-2.88,4.47c0.93,0.48,2.04,1.06,3.6,1.88
		c-1.51,1.19-2.81,2.22-4.63,3.65c1.96,0.36,3.49,0.65,5.4,1.01c-0.47,1.37-0.89,2.58-1.35,3.9c1.98-0.88,3.86-1.71,6.14-2.72
		C328.96,451.33,325.35,452.84,322.76,454.97z M372.31,446.4c-0.52,2.96-2.19,5.17-5.18,6.27c-1.39,0.51-2.62,1.48-4,2.03
		c-1.12,0.45-2.41,0.95-3.53,0.79c-4.39-0.63-8.31-2.39-12.47-6.18c2.72,0.03,4.38,0.04,6.49,0.06c-1.01-1.24-1.85-2.25-3.22-3.93
		c2.36-0.37,4.14-0.65,6.42-1c-1.58-1.19-2.92-2.19-4.63-3.48c0.92-0.9,1.78-1.75,2.94-2.88c-2.13-0.19-4.01-0.36-6.39-0.58
		c0.73-1.15,1.25-1.96,1.77-2.78c-0.49-0.19-0.97-0.39-1.82-0.72c0.66-1.59,1.29-3.12,2.23-5.38c-1.76,0.69-2.92,1.14-4.72,1.85
		c0.44-2.3,0.79-4.1,1.2-6.21c-1.87,1.01-3.5,1.89-5.33,2.88c-0.15-1.41-0.25-2.44-0.45-4.28c-1.4,2.1-2.42,3.63-3.92,5.89
		c-0.51-1.75-1.33-3.04-1.13-4.14c0.51-2.79,1.18-5.62,2.34-8.18c1.06-2.37,2.46-4.73,5.99-4.22c1.15,0.17,2.51-1.07,3.77-1.67
		c5.23-2.5,10.79,1.21,10.55,6.99c-0.09,2.01,0.09,4.04,1.05,6.56c-2.95,3.45-5.9,6.89-8.85,10.34c2.1-0.32,4.2-0.8,6.32-0.93
		c3.9-0.23,8.05-0.83,9.36,4.55c0.15,0.64,1.33,1.04,2.06,1.52C371.57,441.2,372.83,443.51,372.31,446.4z M344.35,449.22
		c3.67,4.88,4.23,9.73,4.22,14.05c-1.59,2.54-2.78,4.42-3.95,6.31c-3.09,4.98-9.45,5.04-12.78,0.21c-1.27-1.84-2.87-3.45-4.97-5.95
		c-0.66-5.3,0.25-10.52,5.02-15.86c0.14,3.33,0.22,5.4,0.33,8.11c0.87-1.41,1.44-2.31,2.27-3.66c1.2,1.71,2.18,3.1,3.4,4.84
		c0.64-1.75,1.24-3.39,2.01-5.52c1.19,1.16,2.03,1.98,3.06,2.98C343.37,453.11,343.75,451.62,344.35,449.22z M321.7,428.49
		c0.4,1.89,0.8,3.78,1.2,5.67c-4.79-2.49-8.04-6.39-10.15-10.5c0.2-2.96,0.44-5.18,0.49-7.4c0.13-6.05,7.09-9.8,11.39-6.26
		c1.64,1.35,4.14,1.66,7.02,2.73c2.47,4.24,5.28,9.04,2.64,15.99c-1.35-2.52-2.29-4.3-3.41-6.39c-0.23,1.44-0.41,2.56-0.72,4.46
		c-2.13-1.39-3.76-2.46-5.83-3.82c0.63,2.3,1.13,4.12,1.73,6.33C324.38,428.99,323.04,428.74,321.7,428.49z M330.98,432.82
		c3.96,0.26,7.03,0.47,10.19,0.68c1.29,2.85,2.33,5.14,3.54,7.8c-2.01,1.56-4.01,3.12-6.04,4.69c-2.46-1.11-4.68-2.1-7.24-3.25
		C331.29,439.63,331.15,436.39,330.98,432.82z M440.81,491.33c-1.31,1.46-2.43,3.24-4.02,4.32c-1.42,0.96-3.34,1.45-5.08,1.58
		c-1.62,0.13-3.29-0.44-4.94-0.72c-0.2-0.54-0.41-1.08-0.58-1.54c1.38-1.54,2.71-3.03,4.19-4.69c-0.7-0.17-1.61-0.38-2.85-0.68
		c0.23-0.68,0.45-1.34,0.72-2.13c-0.88-0.21-1.74-0.42-2.59-0.62c-0.07-1.19,3.87-3.18,6.64-3.37
		C436.97,483.15,440.7,486.57,440.81,491.33z M426.78,496.6c0.97,0.92,1.99,1.81,2.9,2.79c1.77,1.91,3.07,3.85,1.5,6.68
		c-0.63,1.13-0.45,2.72-0.62,4.02c-3.27,2.81-3.27,2.81-11.17-0.7c-0.62-2.35-1.31-5.01-2.02-7.7c-2.32,2.55-4.11,4.52-5.77,6.34
		c-1.97,0-3.5,0.02-5.03,0c-4.17-0.07-5.97-2.52-4.77-6.41c0.44-1.44,0.82-2.9,1.32-4.7c2.36-2.24,5.29-3.66,9.52-3.04
		c-0.75,0.9-1.25,1.5-1.45,1.75c0,1.63,0,3,0,4.56c0.51-0.13,1.21-0.32,2.38-0.63c0.2,0.8,0.35,1.37,0.51,2.04c0.76,0,1.56,0,3.26,0
		c-0.05-0.2-0.11-0.4-0.16-0.61c0.42-0.28,0.85-0.57,1.27-0.85c0.42,0.8,0.84,1.6,1.3,2.47c0.53-0.76,0.94-1.35,1.51-2.16
		c0.79,0.72,1.54,1.39,2.35,2.12c0.57-1.58,1.02-3.11,1.68-4.55C425.57,497.46,426.27,497.08,426.78,496.6z M426.65,496.49
		c0.04,0.01,0.08,0.02,0.12,0.02c0.01,0.03,0.02,0.05,0.03,0.08c-0.01,0.01-0.02,0.01-0.02,0.02
		C426.74,496.56,426.7,496.53,426.65,496.49z M403.49,491.89c-1.29-2.73-2.46-5.21-3.67-7.78c0.77-6.13,5.72-4.76,9.94-5.48
		c1.86,1.51,3.86,3.13,5.86,4.75c-1.15,1.01-2.31,2.02-3.75,3.28c-0.18-0.05-0.89-0.23-1.95-0.5c0.75,2.32,1.39,4.29,2.29,7.06
		C409.16,492.75,406.37,492.33,403.49,491.89z M415.74,483.48c-0.04-0.03-0.08-0.06-0.11-0.09c0.01-0.01,0.02-0.01,0.02-0.02v0h0
		l0,0c0.03,0.01,0.05,0.03,0.08,0.05C415.73,483.43,415.74,483.45,415.74,483.48z M417.37,484.35c-0.67-0.38-1.16-0.66-1.64-0.94
		c-0.49-2.85-0.97-5.69-1.38-8.09c2.07-2.22,3.62-3.89,5.14-5.52c5.83-2.34,6.34,3.21,9.25,6.05c-0.78,2.71-1.57,5.47-2.36,8.23
		c-0.3-0.02-0.59-0.04-0.89-0.06c-0.22-0.77-0.44-1.55-0.7-2.45c-0.59,0.28-1.18,0.56-2.09,1c-0.3-0.97-0.55-1.8-0.9-2.96
		c-0.83,0.94-1.56,1.76-2.34,2.63c-0.58-0.49-1.02-0.86-1.6-1.35C417.69,482,417.55,483.02,417.37,484.35z M420.42,486.72
		c0.96,1.16,1.9,2.29,2.98,3.59c-0.37,1.61-0.74,3.23-1.15,4.99c-2.08,0.23-3.98,0.44-6.27,0.69c-0.12-2.32-0.22-4.24-0.33-6.21
		C417.15,488.82,418.52,487.94,420.42,486.72z M368.5,329.2c4.3-0.3,7.72,2.84,7.83,7.21c-1.2,1.34-2.23,2.97-3.69,3.96
		c-1.3,0.88-3.07,1.33-4.67,1.45c-1.49,0.12-3.02-0.4-4.53-0.66c-0.19-0.5-0.37-0.99-0.53-1.41c1.26-1.41,2.49-2.79,3.84-4.31
		c-0.64-0.15-1.48-0.35-2.62-0.62c0.21-0.63,0.41-1.23,0.66-1.96c-0.8-0.19-1.6-0.38-2.38-0.57
		C362.34,331.2,365.96,329.38,368.5,329.2z M363.44,341.25c0.9,0.85,1.83,1.66,2.66,2.56c1.63,1.75,2.82,3.54,1.38,6.13
		c-0.58,1.04-0.41,2.49-0.57,3.69c-3,2.58-3,2.58-10.26-0.64c-0.57-2.16-1.21-4.6-1.85-7.07c-2.13,2.34-3.78,4.15-5.29,5.82
		c-1.81,0-3.22,0.02-4.62,0c-3.82-0.07-5.48-2.31-4.38-5.88c0.41-1.32,0.75-2.67,1.21-4.31c2.16-2.06,4.86-3.36,8.74-2.79
		c-0.68,0.83-1.14,1.38-1.33,1.61c0,1.5,0,2.76,0,4.19c0.47-0.12,1.11-0.29,2.19-0.58c0.18,0.73,0.32,1.26,0.47,1.87
		c0.7,0,1.43,0,3,0c-0.05-0.19-0.1-0.37-0.15-0.56c0.39-0.26,0.78-0.52,1.17-0.78c0.39,0.73,0.77,1.47,1.19,2.27
		c0.48-0.69,0.87-1.24,1.38-1.98c0.73,0.66,1.41,1.27,2.16,1.95c0.52-1.45,0.94-2.86,1.54-4.17
		C362.33,342.04,362.97,341.69,363.44,341.25z M363.32,341.14c0.04,0.01,0.07,0.02,0.11,0.02c0.01,0.02,0.02,0.05,0.03,0.07
		c-0.01,0.01-0.01,0.01-0.02,0.02C363.4,341.22,363.36,341.18,363.32,341.14z M342.05,336.92c-1.18-2.5-2.26-4.79-3.37-7.14
		c0.71-5.63,5.25-4.37,9.13-5.03c1.71,1.39,3.54,2.87,5.38,4.36c-1.06,0.93-2.12,1.85-3.44,3.01c-0.16-0.04-0.82-0.21-1.79-0.46
		c0.69,2.13,1.28,3.94,2.1,6.48C347.26,337.72,344.7,337.33,342.05,336.92z M354.8,330c-0.62-0.35-1.07-0.61-1.51-0.86
		c-0.45-2.61-0.89-5.22-1.27-7.43c1.9-2.04,3.32-3.57,4.72-5.07c5.35-2.15,5.82,2.95,8.49,5.55c-0.71,2.49-1.44,5.03-2.16,7.56
		c-0.27-0.02-0.55-0.04-0.82-0.05c-0.2-0.71-0.41-1.42-0.65-2.25c-0.55,0.26-1.08,0.51-1.92,0.91c-0.27-0.89-0.5-1.65-0.83-2.72
		c-0.77,0.86-1.44,1.61-2.15,2.42c-0.53-0.45-0.94-0.79-1.47-1.24C355.09,327.84,354.97,328.78,354.8,330z M353.3,329.2
		c-0.04-0.03-0.07-0.06-0.11-0.09c0.01-0.01,0.01-0.01,0.02-0.02c0.02,0.01,0.05,0.03,0.07,0.04
		C353.3,329.16,353.3,329.18,353.3,329.2z M359.28,340.06c-1.91,0.21-3.66,0.41-5.75,0.64c-0.11-2.13-0.21-3.89-0.3-5.7
		c1.37-0.88,2.63-1.7,4.37-2.82c0.88,1.07,1.75,2.11,2.74,3.3C360,336.94,359.65,338.44,359.28,340.06z M907.54,426.47
		c1.46-84.18-30.28-163.84-89.38-224.28c-58.94-60.28-138.02-93.72-222.68-94.15h-0.02c-83.41,0.19-161.8,32.65-220.74,91.4
		c-58.89,58.7-91.54,136.83-91.94,219.99c-0.4,82.89,31.32,161.16,89.3,220.39c57.91,59.16,135.28,92.46,217.86,93.79
		c1.7,0.03,3.39,0.04,5.09,0.04C764.86,733.65,904.57,596.89,907.54,426.47z M371.1,622.01c-2.89-3.23-5.71-6.52-8.46-9.86
		c-0.62-1.13-1.15-2.32-1.54-3.63c-1.52-5.13-4.9-9.09-9.43-11.9c-0.83-0.51-1.55-1.1-2.23-1.72c-2.41-3.39-4.75-6.83-7.02-10.32
		C357.89,584.33,374.64,602.77,371.1,622.01z M385.99,637.5c-2.2-2.14-4.37-4.3-6.5-6.5c3.97-14.14,2.26-27.72-6.75-39.78
		c-9.1-12.2-21.74-17.5-36.92-17.23c-1.66-2.78-3.26-5.6-4.83-8.44c16.65-3.7,38.8,4.95,50.29,21.49
		C391.63,601.93,393.54,624.24,385.99,637.5z M379,569.81c17.32-6.38,33.2-4.56,47.96,5.24c15.64,10.39,22.99,25.43,23.5,44.69
		c-2.03-0.33-3.38-0.5-4.69-0.79c-1.38-0.31-2.73-0.74-4.04-1.1c-2.27-29.74-28.44-47.75-56.06-41.13
		C383.52,574.5,381.56,572.47,379,569.81z M430.96,617.41c-2.75,0.24-5.19,0.46-7.97,0.7c-1.15-7.04-3.39-13.28-8.81-17.94
		c-5.25-4.52-11.5-6.1-18.33-6.36c-1.16-2.53-2.25-4.92-3.36-7.33C409.37,580.15,431.7,597.82,430.96,617.41z M412.26,620.78
		c-3.68,1.67-7.49,3.4-11.67,5.3c-0.3-7.48-0.58-14.32-0.85-21.17C407.51,603.99,413.65,611.57,412.26,620.78z M446.81,683.41
		c-7.94-4.56-15.66-9.47-23.14-14.71c5.35-4.58,11.26-5.03,16.91-1.51C446.06,670.61,448.54,676.67,446.81,683.41z M463.53,692.32
		c-2.45-1.21-4.88-2.45-7.29-3.72c3.09-12.47,0.2-23-10.99-29.82c-10.64-6.49-20.85-4.18-30.33,3.54c-2.15-1.62-4.28-3.27-6.38-4.95
		c6.71-9.72,25.55-15.64,41.31-6.38C465.87,660.39,469.65,680.71,463.53,692.32z M484.2,690.14c-0.34,3.64-2.48,6.47-5.29,9.25
		c-2.02-0.86-4.03-1.74-6.03-2.64c4.24-12.35,4.29-24.28-1.33-35.88c-3.83-7.91-9.61-14.03-17.23-18.45
		c-13.67-7.93-35.22-9.8-54,8.17c-2.13-1.82-4.23-3.68-6.31-5.56c1.29-1.63,2.33-3.26,3.73-4.43c16.25-13.59,34.55-17.43,54.25-9.49
		c19.6,7.9,30.69,23.03,32.86,44.19C485.37,680.18,484.66,685.21,484.2,690.14z M473.6,632.77c5.46-6.39,27.35-10.16,43.6-3.61
		c21.8,8.8,33,30.34,32.54,44.52c-2.76-0.56-5.48-1.11-8.69-1.76c-2.88-13.75-9.79-24.99-22.54-31.79
		c-12.53-6.69-25.51-6.85-38.86-1.46C477.6,636.68,475.6,634.72,473.6,632.77z M530,671.06c-2.57,0.22-5.14,0.45-7.99,0.69
		c-2.4-6.64-6.31-11.98-12.51-15.37c-6.23-3.42-12.8-3.7-19.74-1.72c-1.34-2.53-2.57-4.85-3.79-7.16
		C503.11,638.11,528.28,652.27,530,671.06z M511.65,673.97c-5.34,2.71-10.69,5.42-16.21,8.21c-0.7-5.99-1.39-11.9-2.11-18.14
		C502.7,661.87,509.7,665.77,511.65,673.97z M556.32,720.54c-1.2-0.16-2.4-0.33-3.59-0.5c-0.99-1.08-1.96-2.18-2.99-3.22
		c-7.64-7.74-16.9-10.1-26.84-6.16c-3.4,1.35-6.39,1.61-9.56,0.95c-1.14-0.33-2.27-0.67-3.4-1.01c-0.61-0.23-1.24-0.5-1.88-0.79
		c7.71-7.72,16.75-10.78,26.95-9.63c12.71,1.44,21.86,8.22,27.71,20.81L556.32,720.54z M574.32,722.34
		c-0.16-0.01-0.31-0.02-0.47-0.03c-11.53-34.68-52.51-42.99-76.54-15.81c-2.56-0.89-5.1-1.82-7.62-2.78
		c2.01-3.02,3.32-5.98,5.47-8.07c28.01-27.23,75.33-14.85,86.63,22.59c0.35,1.16,0.49,2.39,0.88,4.33
		C579.59,722.48,576.87,722.41,574.32,722.34z M593.22,722.93c-0.02,0-0.04,0-0.06,0c-4.19-19.71-15-34.9-32.82-44.8
		c-1.27-24.27-11.54-43.15-32.96-54.69c-21.22-11.43-42.47-9.81-63.34,2.28c-1.17-0.56-2.4-1.15-3.9-1.86
		c0.78-23.9-7.77-43.43-27.78-56.82c-19.84-13.27-40.95-13.84-61.71-4.46c-7.98-2.43-15.12-5.42-22.56-6.64
		c-7.26-1.19-14.82-0.57-22.57-0.75c-0.26-0.49-0.5-1-0.75-1.49c0,0-0.01,0-0.01,0c-3.63-7.31-6.97-14.77-10.01-22.38
		c0.39-2.14,0.98-4.22,1.86-6.12c1.91-4.15,6.45-7.37,7.93-11.59c0.59-1.7-1.82-16.31-0.36-16.66c9-2.15,17.11-7.8,22.24-15.5
		c-3.94,0.54-6.7,3.45-10.75,3.28c-5.34-0.23-8.52-4.58-10.96-8.81c-1.72-2.98-3.4-6.12-6.12-8.23c-0.63,1.14-2.17,1.58-2.8,2.71
		c2.23,2.07,2.45,5.95,0.47,8.26c-0.8-0.47-1.61-0.94-2.41-1.41c0.06,3.39-2.47,6.24-5.08,8.4c-2.39,1.97-5.07,3.82-6.63,6.46
		c-5.69-22.95-8.75-46.88-8.8-71.43c0.21-80.99,31.95-156.99,89.37-214.01c57.09-56.7,132.49-87.87,212.48-87.87
		c0.43,0,0.87,0,1.3,0c165.51,0.7,300.29,136.15,300.46,301.95c0.08,81.88-32.22,158.6-90.95,216.03
		c-57.53,56.26-132.91,86.78-212.75,86.27C593.23,723.01,593.23,722.97,593.22,722.93z M354.46,365.67
		c-0.27-0.06-0.54-0.16-0.8-0.25C353.96,365.34,354.26,365.4,354.46,365.67z M356.96,300.83c-0.2-1.67-0.91-3.25-1.08-4.92
		c-0.45-4.25,2.54-8,5.34-11.22c3.17-3.65,6.35-7.3,9.52-10.95c1.44,3.25-0.49,6.95-2.51,9.88c-2.02,2.93-4.32,6.22-3.62,9.71
		c0.61,3.04,3.38,5.32,3.88,8.38c0.45,2.75-1.04,5.4-2.47,7.79c-2.34-1.55-4.9-2.78-7.58-3.63c-0.15-0.4,0.17-0.91,0.6-0.93
		l-3.94,0.25C356.64,304.46,357.16,302.5,356.96,300.83z M378.77,376.99c4.68-4.65,12.99-4.1,18.88-6.8
		c-1.45,4.51-5.88,7.29-10.08,9.47c-4.2,2.19-8.78,4.42-11.05,8.57c-1.51,2.77-2.46,6.68-5.59,7.11c-2.93,0.4-5.94-2.86-8.48-1.37
		c-0.81,0.48-1.31,1.34-1.85,2.11c-0.17,0.23-0.35,0.46-0.55,0.67c-0.01,0.03,0,0.07-0.01,0.1c-0.04,0.01-0.09,0.02-0.13,0.04
		c-0.43,0.42-0.93,0.76-1.52,0.82c-0.28,0.03-0.56-0.05-0.81-0.18c-0.42,0.1-0.84,0.18-1.26,0.26c-7,3.96-14.96,6.22-23,6.39
		c0.49-2.5,0.98-5,1.46-7.5c-1.13-0.27-1.7-2-1.13-3.15c0.65-1.3,2.07-2,3.29-2.8c4.65-3.03,6.8-8.3,6.21-13.82
		c1.14,0.1,1.97-1.19,1.93-2.33c-0.04-1.14-0.66-2.17-1.1-3.22c-1.63-3.9-0.76-8.71,2.12-11.8c2.12,2.28,4.59,4.88,7.55,5.86
		c-0.49,0.13-0.97,0.62-0.98,1.16c-0.02,0.88,0.63,1.6,1.17,2.3c3,3.84,3.28,9.45,1.04,13.73c1.39-0.69,2.95-0.99,4.43-0.61
		c2.66,0.69,4.47,3.33,7.14,3.97c2.61,0.63,5.3-0.87,7.17-2.79C375.5,381.26,376.87,378.88,378.77,376.99z"/>
</g>
<g id="Horse">
	<path class="st0" d="M786.51,507.66c-4.33-7.33-11.56-11.79-18.29-16.68c-1.85-1.34-3.47-2.99-5.55-4.81
		c3.47-1.04,7.09,0.03,8.73-3.88c-1.13-0.12-1.97-0.21-2.82-0.29c-8.89-0.86-15.78-4.22-19.03-13.43
		c-2.71-7.66-6.98-14.56-12.75-20.46c-1.09-1.11-1.93-2.61-2.48-4.09c-1.85-4.99-3.87-9.84-7.96-13.48
		c-6.68-5.95-12.99-12.41-20.16-17.7c-18.4-13.59-37.08-26.79-55.84-39.88c-15.69-10.95-27.36-24.48-31.11-43.88
		c-2.86-14.8-7.39-29.03-16.12-41.59c-0.55-0.79-0.83-1.76-1.24-2.64c0.16-0.08,0.32-0.16,0.48-0.25c1.27,1.18,2.54,2.35,4.15,3.85
		c-0.74-4.17-1.83-7.74-1.92-11.35c-0.27-10.74-0.05-21.5-5.26-31.67c3.38,1.56,6.33,2.93,9.29,4.29c-0.43-1.72-1.39-2.72-2.13-3.87
		c-2.25-3.52-4.77-6.92-6.54-10.68c-4.33-9.16-5.24-19.77-12.25-27.81c0.31-0.31,0.61-0.62,0.92-0.94
		c4.96,3.39,9.93,6.77,15.48,10.56c-2.25-8.02-3.99-15.33-11.91-18.92c-5.79-2.63-11.58-5.31-17.1-8.46
		c-4.3-2.45-8.17-5.66-12.23-8.54c0.17-0.33,0.34-0.66,0.51-1c6.47,1.6,12.41,5.94,20.33,4.23c-1.47-0.86-2.35-1.36-3.21-1.88
		c-4.32-2.6-9.14-4.52-12.03-9.04c-2.83-4.43-6.9-7.02-12.05-7.95c-2.97-0.53-5.95-1-8.89-1.65c-3.7-0.82-7.36-1.8-11.37-2.79
		c1.24-2.23,2.06-3.62,2.8-5.04c3.72-7.24,4.71-14.76,2.01-22.54c-0.54-1.56-1.69-2.91-3.05-5.17
		c-6.71,9.21-12.72,17.61-18.93,25.85c-1.21,1.61-3.02,3.38-4.85,3.83c-6.78,1.63-13.65,3.06-20.57,3.94
		c-6.25,0.79-10.48,3.9-13.75,9.04c-1.6,2.51-3.45,5.03-5.7,6.94c-9.45,8.01-21,12.25-32.25,16.8c-6.38,2.58-9.43,5.47-10.03,12.24
		c-0.27,3.08-0.84,6.15-1.5,9.18c-0.55,2.55-0.29,4.82,1.77,6.47c1.92,1.54,3.97,3,6.17,4.05c1.12,0.54,2.71,0.09,4.19,0.09
		c-1.05-5.42,0.2-9.21,3.73-11.32c2.14-1.28,4.5-2.34,7.65-0.21c-1.87,0.69-3.18,1.09-4.42,1.64c-1.06,0.47-2.24,0.9-3.05,1.68
		c-2.91,2.82-2.67,7.1,0.47,11.02c2.13,2.66,5.21,3.05,8.54,0.29c3.27-2.72,6.78-3.39,10.76-3c8.58,0.84,17.23,1.26,25.74,2.55
		c8.63,1.31,16.96,2.62,23.78-4.69c1.14-1.22,2.43-2.31,3.66-3.46c0.26,1.27,0.21,2.49-0.37,3.33c-2.08,2.99-4.17,6.02-6.6,8.73
		c-2.14,2.38-2.94,4.69-2.13,7.89c0.56,2.21,0.73,4.81,0.12,6.96c-2.26,7.96-4.22,16.14-7.67,23.6c-2.66,5.75-2.16,10.01,1.49,14.67
		c2.11,2.7,3.8,5.73,5.68,8.62c-1.83-0.63-3.25-1.59-4.4-2.8c-9.13-9.62-18.19-19.32-27.34-28.92c-0.88-0.92-2.22-1.72-3.46-1.93
		c-3.36-0.58-6.8-0.71-10.18-1.23c-3.67-0.56-7.09-0.36-10.08,2.15c-3.14,2.63-6.22,5.35-9.5,7.8c-7.76,5.81-15.7,11.38-23.42,17.24
		c-3.82,2.9-7.76,5.79-7.53,11.58c0.17,4.07-0.22,8.18-0.54,12.25c-0.11,1.41-0.44,2.97-1.19,4.12c-2.99,4.57-4.48,9.14-2.13,14.57
		c0.8,1.86,0.52,4.21,0.62,6.34c0.11,2.14-0.1,4.31,0.17,6.43c0.5,3.98,2.19,4.9,5.7,2.85c6.41-3.73,11.73-8.72,16-14.82
		c2.89-4.12,3.59-8.32,2.54-13.42c-0.68-3.29-0.1-7.5,1.48-10.47c4.36-8.2,11.18-14.45,18.4-20.19c3.3-2.62,6.61-4.78,11.09-2.1
		c1.21,0.72,2.56,0.6,3.03,2.48c2.68,10.76,4.93,21.68,8.45,32.17c5.66,16.85,11.03,34.2,28.72,43.42c-3.28-0.81-6.85-1.47-9.4-3.44
		c-8.16-6.3-14.21-14.37-18.2-23.94c-0.74-1.76-1.69-3.44-2.54-5.15c-3.46,13.6-0.59,26.51,2,39.53c-0.72-0.56-1.35-1.15-1.65-1.88
		c-1.63-3.87-3.21-7.75-4.73-11.66c-1.88-4.81-3.08-9.63-9.83-10.54c-8.51-1.15-16.84-3.62-25.27-5.38
		c-1.16-0.24-2.75-0.1-3.69,0.54c-3.91,2.65-7.8,5.38-11.36,8.47c-1.16,1-1.84,3.2-1.8,4.82c0.12,4.52,0.84,9.01,1.13,13.53
		c0.75,11.62,1.51,23.24,1.99,34.87c0.15,3.55,1.53,6.09,3.89,8.52c5.25,5.39,10.43,10.85,15.47,16.42
		c2.97,3.27,5.55,6.89,8.45,10.23c2.04,2.34,4.12,2.03,5.13-0.85c2.43-6.9,3.77-13.95,2.17-21.29c-1.01-4.62-2.46-8.7-8.05-9.55
		c-1.52-0.23-2.93-1.32-4.36-2.08c-0.42-0.23-0.9-0.63-1.04-1.06c-1.84-5.82-3.12-11.89-5.55-17.45
		c-3.42-7.85-1.05-14.87,1.55-22.33c0.8,0.48,1.43,0.84,2.04,1.22c13.99,8.93,27.97,17.88,42,26.75c1.47,0.93,3.56,1.07,4.76,2.21
		c8.57,8.13,17.44,16.02,25.35,24.77c16.24,17.95,33.43,34.67,54.79,46.49c14.5,8.02,28.77,16.54,45.37,19.97
		c4.8,0.99,9.32,3.31,13.95,5.06c0.74,0.28,1.4,0.8,2.09,1.2c-1.27,0.39-2.37,0.24-3.45,0.03c-5.92-1.17-11.87-2.18-17.73-3.61
		c-3.6-0.88-5.31,0.3-6.34,3.69c-1.4,4.6-4.27,8.97-2.68,14.01c2.17,6.87,4.39,13.76,7.13,20.41c3.16,7.67,6.81,15.14,10.45,22.6
		c3.73,7.65,7.25,15.46,11.71,22.68c3.63,5.89,4.44,11.99,4.24,18.51c-0.03,0.86-0.66,1.8-1.24,2.52
		c-6.88,8.53-14.53,16.5-23.88,22.11c-6.74,4.04-10.24,9.38-11.96,16.54c-0.55,2.3-0.94,4.72-1.93,6.84
		c-3.16,6.73-1.57,12.04,4.47,16.04c1.24,0.82,3.27,1.48,4.52,1.05c3.64-1.26,7.01-3.27,10.6-4.71c3.56-1.43,4.14-3.71,2.96-7.1
		c-1.41-4.05-0.34-7.53,2.72-10.58c2.37-2.35,4.41-5.03,6.7-7.47c12.01-12.83,23.9-25.8,36.19-38.36c3.85-3.93,3.35-7.98,1.98-12.1
		c-1.59-4.78-4.4-9.14-6.03-13.91c-1.86-5.45-3.09-11.12-4.35-16.75c-0.23-1.02,0.45-3.05,1.22-3.35c3.59-1.43,2.49-3.96,2.27-6.63
		c-0.55-6.48-0.76-12.98-1.1-19.47c0.46-0.07,0.92-0.13,1.38-0.2c0.48,2.52,1.03,5.03,1.41,7.57c2.58,17.11,9.33,32.34,21.32,44.86
		c9.18,9.58,18.84,18.71,28.53,27.78c3,2.81,4.78,5.94,5.86,9.76c1.02,3.62,2.51,7.12,3.49,10.75c0.59,2.2,0.98,4.59,0.82,6.85
		c-0.39,5.25-1.18,10.47-1.79,15.7c-0.57,4.92-0.71,9.93-1.78,14.74c-2.19,9.86-7.18,18.37-13.81,25.98
		c-3.13,3.59-1.07,9.56,3.44,11.38c6.34,2.55,12.27,0.9,18.25-1.1c3.69-1.23,5.77-3.41,5.14-7.65c-0.28-1.89-0.11-3.89,0.14-5.8
		c0.12-0.87,0.75-2.06,1.47-2.38c2.85-1.29,3.59-3.45,3.33-6.32c-0.31-3.44-0.59-6.88-0.68-10.33c-0.54-21.46,4.94-42.13,8.37-63.06
		c0.8-4.9-0.37-8.59-3.35-12.17c-4.27-5.15-8.36-10.44-12.68-15.54c-2.84-3.36-2.83-6.51-0.59-10.22
		c8.5-14.08,14.2-29.24,16.83-45.52c0.5-3.07,1.26-6.1,1.9-9.15c0.77,0.45,0.99,0.83,0.96,1.2c-0.76,8.27-1.29,16.57-2.47,24.77
		c-0.43,3-0.28,5.58,1.18,8.03c3.16,5.32,6.5,10.54,9.85,15.95c0.27-0.21,1.04-0.61,1-0.82c-1.43-6.42-2.94-12.83-4.44-19.24
		c0.95,0.56,1.38,1.36,1.89,2.11c5.12,7.46,5.67,15.98,6.29,24.66c1.38,19.3,10.63,34.05,27.05,44.28c0.89,0.55,2.03,0.71,3.05,1.05
		c0.21-0.31,0.43-0.62,0.64-0.94c-1.46-1.46-3.05-2.82-4.36-4.4c-6.16-7.46-11.31-15.31-8.87-25.74c0.32-1.36,0.59-2.74,0.97-4.09
		c1.58-5.71,3.24-11.4,4.78-17.12c2.45-9.09,1.95-18.27,0.36-27.46c7.9,7.36,7.99,17.13,8.45,26.87c0.92-0.69,1.34-1.27,1.56-1.91
		C797.09,532.61,793.65,519.77,786.51,507.66z M496.97,173.39c-1.19,0.33-2.56,0.3-3.8,0.1c-1.9-0.3-3.75-0.89-5.52-1.33
		c4.51-6.33,11.83-6.78,16.37-1.2C501.79,171.75,499.42,172.72,496.97,173.39z M651.42,448.46c2.13-0.52,3.18,0.78,3.01,2.23
		c-0.31,4.91-3.39,6.53-8.09,7.74C646.68,453.97,647,450.39,651.42,448.46z M635.62,449.8c1.7-1.46,3.43-0.75,4.71,0.55
		c2.2,2.24,2.72,5.1,2.81,8.42c-3.75-0.39-6.03-2.12-7.73-4.69C634.48,452.67,634.11,451.09,635.62,449.8z M602.32,322.95
		c0.59,3.16-2.35,4.58-5.11,4.85c-5,0.5-9.26-3.13-12.5-6.75c3.63-3.83,8.88-3.46,12.96-2.54
		C599.53,318.95,601.99,321.19,602.32,322.95z M577.14,321.17c-1.88,5.69-8.01,7.99-12.62,8.91c-1.27,0.25-3.9-1.3-4.21-2.47
		c-0.44-1.64,0.09-4.5,1.3-5.44C566.02,318.75,572.24,318.29,577.14,321.17z M566.8,302.89c2.56-2.19,5.14-1.12,7.07,0.83
		c3.31,3.36,4.09,7.65,4.22,12.64c-5.63-0.58-9.06-3.19-11.61-7.04C565.08,307.21,564.53,304.83,566.8,302.89z M582.67,323.31
		c1.24,4.84,2.36,8.27,2.94,11.79c0.57,3.43-1.12,5.94-4.75,5.73c-3.4-0.2-5.01-2.68-4.8-6.1
		C576.32,330.66,577.59,327.1,582.67,323.31z M590.52,300.89c3.2-0.77,4.77,1.16,4.52,3.34c-0.46,7.38-5.08,9.8-12.15,11.62
		C583.41,309.16,583.88,303.78,590.52,300.89z M585.87,240.8c0.37,2.72,0.51,5.56-0.42,8.15c-1.74,4.82-5.82,6.78-8.27,1.92
		c-2.21-4.39-2.33-10.58-3.33-15.3c-2.61-12.24-8.1-23.87-15.99-33.59C572.65,209.82,583.62,224.21,585.87,240.8z M548.53,267.75
		c6.45-19.02,6.87-39.46,2.06-58.96c10.37,20.78,14.31,44.72,11.15,67.73c-0.65,4.74-3.55,9.21-8.33,9.45
		c-3.74,0.19-6.69-3.58-7.1-7.31C545.92,274.94,547.33,271.3,548.53,267.75z M532.22,237.49c3.71-7.69,5.91-16.77,6.19-25.33
		c2.8,11.32,2.49,23.4,1.69,35.04c-0.19,2.75-0.42,5.61-1.81,8c-2.35,4.06-9.61,3.97-12.01-0.43
		C523.29,249.26,530.02,242.04,532.22,237.49z M536.06,324.48c1.24,0.28,2.88,1.78,3.1,2.95c0.39,2.11-1.56,3.05-3.4,3.23
		c-3.33,0.33-6.17-2.08-8.33-4.49C529.84,323.61,533.34,323.86,536.06,324.48z M526.22,322.69c0.34-4.46,0.66-8.04,5.08-9.97
		c2.13-0.52,3.18,0.78,3.01,2.23C534,319.87,530.92,321.48,526.22,322.69z M515.5,314.06c1.7-1.46,3.43-0.75,4.71,0.55
		c2.2,2.24,2.72,5.1,2.81,8.42c-3.75-0.39-6.03-2.12-7.73-4.69C514.36,316.94,513.99,315.35,515.5,314.06z M513.98,332.17
		c-0.85,0.17-2.6-0.86-2.8-1.64c-0.29-1.09,0.06-3,0.87-3.62c2.94-2.28,7.08-2.59,10.35-0.67
		C521.13,330.03,517.05,331.56,513.98,332.17z M521.67,335.27c0.17-2.71,1.01-5.08,4.4-7.61c0.82,3.23,1.57,5.51,1.96,7.85
		c0.38,2.29-0.75,3.96-3.16,3.82C522.6,339.2,521.53,337.55,521.67,335.27z M535.45,386.55c-0.72,7.74-4.1,13.62-6.31,20.79
		c1.8-5.85-1.23-10.4-2.58-16.37c-1.08-4.79-2.15-12.62,1.42-16.81C536.38,364.33,535.85,382.28,535.45,386.55z M535.66,414.83
		c9.93-11.32,11.34-23.59,13.28-37.74c0.99-7.23-0.64-14.94,1.74-21.96c3.08-9.08,9.75-6.76,12.08,1.61
		c2.96,10.67-0.59,24.72-5.31,34.4c-2.49,5.09-5.71,9.83-9.59,13.98C544.35,408.86,538.87,411.17,535.66,414.83z M579.72,383.76
		c3-7.53,7.68-15.34,14.63-19.83c7.07-4.57,16.99-2.21,19.8,6.39c2.29,7.01-3.73,16.92-9.27,20.74
		c-7.58,5.23-14.37,11.23-22.53,15.68c-11.16,6.08-22.76,11.14-34.39,16.26C560.02,412.86,573.78,398.68,579.72,383.76z
		 M602.57,449.58c-4.95,2.4-12.26-0.6-16.62-2.85c-5.44-2.81-9.08-6.89-15.2-6.61c7.5-0.34,14.04-2.13,21.71-0.88
		C596.7,439.93,614.2,443.93,602.57,449.58z M626.7,432.41c-7.4,0.54-14.45-2.98-21.7-3.84c-14.18-1.68-26.41-3.41-39.86,3.36
		c4.35-2.19,7.97-6.91,12.47-9.36c4.98-2.71,10.38-4.64,15.94-5.77c10.56-2.14,25.05-2.05,34.63,3.51
		C635.69,424.67,636.25,431.72,626.7,432.41z M634.1,467.9c-0.85,0.17-2.6-0.86-2.8-1.64c-0.29-1.09,0.06-3,0.87-3.62
		c2.94-2.28,7.08-2.59,10.35-0.67C641.26,465.76,637.18,467.29,634.1,467.9z M644.99,475.06c-2.26-0.13-3.34-1.78-3.2-4.06
		c0.17-2.71,1.01-5.08,4.4-7.61c0.82,3.23,1.57,5.51,1.96,7.85C648.53,473.54,647.4,475.21,644.99,475.06z M655.88,466.39
		c-3.33,0.33-6.17-2.08-8.33-4.49c2.42-2.55,5.91-2.31,8.63-1.69c1.24,0.28,2.88,1.78,3.1,2.95
		C659.67,465.27,657.72,466.21,655.88,466.39z M675.26,430.54c0.53-3.26,3.74-5.58,7.01-6.05c3.27-0.47,6.57,0.55,9.63,1.78
		c13.97,5.63,33.59,20.73,35.98,36.81c-5.24-0.81-13.3-9.79-18.54-12.74c-6.61-3.72-13.68-6.62-21-8.6
		c-3.06-0.83-6.23-1.52-8.88-3.26C676.81,436.74,674.75,433.66,675.26,430.54z M682.66,477.09c-1.39-1.05-2.61-2.52-2.8-4.25
		c-0.23-2.09,1.12-4.1,2.88-5.24c1.77-1.14,3.89-1.55,5.97-1.86c12.92-1.89,26.34-0.19,38.38,4.86c-3.98,0.05-8.3,0.45-12.56,1.21
		c-4.44,0.79-8.81,1.98-12.65,3.59C696.09,477.82,688.68,481.64,682.66,477.09z M712.13,498.67c-0.53,3.89-0.6,8.33-3.52,10.96
		c-3.25,2.92-9.96,1.99-11.09-2.51c-0.55-2.19-0.36-4.78,0.31-7.37c1.08-4.21,3.4-8.42,5.78-10.89c2.54-2.64,5.74-5.12,8.89-6.97
		c2.76-1.62,9.23-2.23,11.23-4.1C717.98,483.19,713.18,490.86,712.13,498.67z M726.39,510.46c-1.07-0.07-1.92-0.37-2.56-0.85
		c-5.62-4.2,4.11-22.34,6.35-25.96C727.58,487.85,738.61,511.3,726.39,510.46z"/>
</g>
</svg>
