<?xml version="1.0" encoding="utf-8"?>
<!-- Generator: Adobe Illustrator 24.1.0, SVG Export Plug-In . SVG Version: 6.00 Build 0)  -->
<svg version="1.1" id="Rabbit_1_" xmlns="http://www.w3.org/2000/svg" xmlns:xlink="http://www.w3.org/1999/xlink" x="0px" y="0px"
	 viewBox="0 0 1190.55 841.89" style="enable-background:new 0 0 1190.55 841.89;" xml:space="preserve">
<style type="text/css">
	.st0{fill:#B0252C;}
</style>
<path class="st0" d="M1031.01,674.65c-0.55-4.85-1.19-5.43-6.11-4.35c-0.19-2.3-0.38-4.57-0.55-6.84
	c-1.41-18.62-6.98-35.53-20.54-49.03c-1.37-1.36-3.68-2.85-5.25-2.58c-1.26,0.22-2.06,3.04-3.19,4.93
	c-5.62-3.44-12.3-5.81-19.88-4.84c0.48,15.93-0.41,31.36-3.79,46.61c-0.91-1.22-1.36-2.43-1.46-3.66
	c-0.71-9.28-1.41-18.57-2.01-27.86c-1.62-24.85-5.83-49.17-15.55-72.22c-19.76-46.88-47.03-88.76-83.44-124.53
	c-13.14-12.91-26.46-25.57-41.95-35.69c-31.67-20.69-67.44-29.95-103.99-36.74c-30.77-5.72-61.93-6.02-93.11-5.71
	c-11.06,0.11-10.82,0.1-11.4,11.28c-0.25,4.88-0.88,10.07-2.82,14.47c-4.32,9.8-9.5,19.22-14.5,28.7c-0.75,1.42-2.38,2.38-4.03,3.96
	c-0.31-1.45-0.5-1.83-0.44-2.17c0.15-0.88,0.32-1.76,0.63-2.6c6.03-16.41,8.39-33.6,10.65-50.8c0.17-1.32-0.04-2.85-0.55-4.08
	c-3.82-9.16-7.93-18.2-11.6-27.42c-2.43-6.12-4.4-12.43-6.29-18.74c-0.4-1.34-0.03-3.34,0.74-4.55
	c5.21-8.18,10.78-16.14,15.94-24.36c4.34-6.9,8.81-13.79,12.32-21.12c9.57-19.99,16.36-40.95,21.02-62.65
	c6.17-28.7,9.28-57.72,9.91-87.01c0.28-13.03,0.16-26.13-3.46-38.79c-2.91-10.17-10.05-14.42-19.65-8
	c-11.04,7.38-22.21,14.57-33.11,22.14c-12.92,8.98-24.24,19.02-32.95,32.91c-22.33,35.62-39.77,73.65-57.97,111.34
	c-1.78,3.68-4.17,5.88-7.85,7.13c-5.43,1.84-10.83,3.8-16.24,5.7c-8.79,3.08-17.56,6.18-26.38,9.16c-1.38,0.47-2.95,0.36-4.43,0.52
	c-0.17-0.45-0.35-0.91-0.52-1.36c1.39-1.15,2.63-2.58,4.19-3.39c9.64-4.97,19.41-9.69,29.01-14.73c7.54-3.95,10.58-8.62,7.09-16.61
	c-3.56-8.17-6.38-16.68-9.34-25.1c-9.34-26.59-17.49-53.67-32.23-78.04c-3.23-5.34-8.17-6.49-12.5-1.98
	c-11.57,12.05-20.52,25.77-25.03,42.02c-6.06,21.87-5.11,43.97-1.56,66.1c2.39,14.92,6.71,29.27,12.96,43.28
	c-1.81,0.83-3.54,1.56-5.23,2.4c-17.91,8.87-34.73,19.51-50.37,31.93c-4.42,3.51-9.25,7.47-11.68,12.33
	c-4.85,9.75-9.22,19.99-11.91,30.51c-5.18,20.26-9.22,40.81-13.37,61.32c-1.15,5.68-1.03,11.62-1.52,17.84
	c-21-4.06-42.03-8.07-63.63-7.01c1.6,1.16,3.32,1.66,5.07,2c18.03,3.49,36.08,6.83,54.07,10.5c6.26,1.28,6.19,1.64,6.43,7.99
	c-13.46,1.11-26.93,2.06-40.37,3.37c-17.72,1.72-36.94,6.1-40.04,9.51c4.29-0.76,7.68-1.7,11.11-1.92
	c22.02-1.4,44.06-2.67,66.09-3.91c5.05-0.28,5.77,0.46,6.31,5.64c0.14,1.37,0.02,2.77,0.02,4.49c-20.33,3.93-40.14,9.38-59.26,17.01
	c0.16,0.63,0.32,1.26,0.48,1.89c19.69-5.33,39.44-10.34,60.05-11.93c0.47,3.15,0.71,5.82,1.3,8.41c0.57,2.52-0.59,3.4-2.65,4.57
	c-6.52,3.69-12.88,7.68-19.18,11.75c-1.4,0.91-2.29,2.62-3.41,3.96c0.28,0.31,0.55,0.63,0.83,0.94c1.3-0.61,2.59-1.26,3.9-1.84
	c6.86-3.02,13.72-6.01,20.57-9.04c1.87-0.83,3.06-0.32,4.64,1.12c4.8,4.37,9.79,8.57,15.03,12.39c1.37,1,4.57,1.15,5.77,0.22
	c1.2-0.93,1.86-4.18,1.16-5.64c-4.16-8.63-7.18-18.15-16.1-23.56c-0.43-0.26-0.95-0.58-1.14-1c-0.42-0.95-0.66-1.98-0.98-2.98
	c1.14-0.22,2.34-0.78,3.4-0.58c1.33,0.25,2.66,0.96,3.79,1.75c2.18,1.53,3.71,1.3,5.53-0.78c2.51-2.87,5.3-5.55,8.29-7.91
	c1-0.79,2.96-0.36,4.49-0.48c-0.1,1.56,0.23,3.33-0.41,4.62c-1.06,2.15-2.77,3.96-4.14,5.96c-0.64,0.93-1.32,1.9-1.67,2.95
	c-3.09,9.37,2.72,20.37,11.88,23.49c15.54,5.28,31.31,9.21,47.78,9.93c1.28,0.06,2.54,0.56,3.81,0.86c0.02,0.37,0.04,0.74,0.06,1.11
	c-1.2,0.41-2.42,1.22-3.59,1.16c-6.75-0.33-13.52-0.61-20.22-1.39c-6.71-0.77-13.33-2.24-20.03-3.12c-3.79-0.5-6.83,2.96-4.91,5.41
	c4.29,5.46,7.51,11.91,14,15.45c4.44,2.42,8.69,5.19,12.48,7.48c-0.5,2.25-1.3,3.89-1.12,5.42c1.18,10.4,2.23,20.83,3.95,31.15
	c3.21,19.32,8.84,38.01,15.9,56.27c2.94,7.61,5.64,15.31,8.81,22.82c3.61,8.56,7.55,16.98,11.5,25.39
	c2.11,4.49,2.18,8.11-1.12,12.52c-2.23,2.98-3.95,4.34-7.51,4.06c-10.39-0.83-19.2,3.34-27.31,9.24c-1.55,1.12-3.05,2.99-3.52,4.79
	c-2.41,9.14-2.08,17.69,5.28,25.02c4.07,4.05,8.46,5.79,14.08,5.29c1.87-0.16,3.99,0.23,5.7,1.01c8.33,3.77,16.52,5.56,25.36,1.16
	c4.95-2.46,10.37-5.3,15.67-5.5c12.57-0.47,21.68-5.61,27.98-16.27c0.64-1.09,1.46-2.12,2.35-3.01c1.59-1.58,1.35-2.91,0.12-4.67
	c-3.51-5.02-7.02-10.06-10.18-15.3c-6.59-10.94-13-21.98-19.36-33.05c-0.84-1.46-0.94-3.35-1.38-5.05c0.4-0.14,0.81-0.29,1.21-0.43
	c0.74,0.65,1.66,1.18,2.2,1.96c7.55,10.99,17.83,19.24,27.88,27.69c14.66,12.33,29.15,24.94,46.88,32.87
	c10.69,4.78,21.46,9.39,32.28,13.86c1.14,0.47,3.34-0.08,4.29-0.97c5.63-5.26,10.61-11.04,13.11-18.57
	c0.42-1.26,1.42-2.31,2.48-3.98c1.7,7.24-2.92,24.04-7.25,30.71c-5.49,8.46-13.59,12.8-22.62,16.11
	c-10.7,3.93-12.63,7.29-10.87,18.51c0.32,2.01,0.5,4.21,1.48,5.9c1.42,2.45,3.08,5.29,5.4,6.61c7.67,4.34,15.96,7.1,24.78,4.02
	c3.99-1.39,7.35-2.07,10.7,1.07c0.59,0.55,1.64,0.71,2.51,0.85c6.97,1.12,13.77,0.91,20.01-2.94c3.16-1.95,6.11-3.51,9.54-0.17
	c1.12,1.09,3.33,1.47,5.04,1.47c5.22-0.01,10.52,0.16,15.63-0.69c9.27-1.54,12.81-6.1,13.99-15.42
	c1.37-10.85,4.45-21.24,10.06-30.71c1.2-2.02,3.06-3.65,4.62-5.45c0.16,0.18,0.33,0.37,0.49,0.55c-1.63,6.87-3.25,13.73-5.07,21.42
	c6.55,1.74,12.52,3.41,18.55,4.82c0.74,0.17,1.94-0.9,2.68-1.64c3.43-3.42,6.73-6.99,10.18-10.39c2.07-2.04,5.57-3.55,6.16-5.88
	c0.59-2.33-1.78-5.34-2.62-8.12c-7-23.17-9.79-46.64-5.07-70.67c1.98-10.09,4.87-19.84,10.24-28.69c1.22-2.02,2.35-4.59,5.68-4.13
	c0.03,0.57,0.14,0.95,0.04,1.28c-1.9,6.74-3.81,13.47-5.74,20.2c-6.57,22.98-7.07,45.81,1.55,68.45
	c2.24,5.87,6.21,10.27,11.49,13.38c1.63,0.96,4.08,1.07,6.06,0.82c9.35-1.19,18.64-2.89,28-3.87c3.27-0.34,6.89,0.34,10.15,3.62
	c-2.13,0.21-3.37,0.39-4.63,0.44c-18.95,0.84-36.3,6.13-51.67,17.68c-12.08,9.08-17.58,21.51-19.61,35.89
	c-0.73,5.14,0.67,6.89,5.6,8.45c4.81,1.52,9.8,1.79,14.1-0.93c4.1-2.59,7.77-1.86,11.52-0.02c4.98,2.45,10.16,2.82,15.3,1.35
	c5-1.42,9.83-3.47,14.64-5.48c1.71-0.72,2.86-1.11,4.81-0.15c9.69,4.74,22.05,3.8,30.59-4.11c4.3-3.99,10.98-7.03,16.8-7.44
	c13.97-0.99,28.1-0.8,42.09,0.09c15.88,1.02,31.59,0.37,47.29-1.7c2.36-0.31,4.64-1.31,6.94-2.05c7.98-2.55,14.3-7.62,20.52-13.02
	c11.8-10.25,12.38-24.08,1.07-34.76c-1.75-1.66-3.79-3.01-5.65-4.55c-0.89-0.73-1.68-1.57-2.92-2.74c1.23-0.34,1.72-0.64,2.15-0.57
	c11.38,1.9,23.01,6.72,24.26,20.8c0.31,3.52,2.47,5.39,6.27,5.17c3.18-0.19,6.48-0.59,9.56,0c10.07,1.93,19.98,0.75,29.5-2.12
	c15.36-4.63,28.59-12.42,35.15-28.26C1031.18,694.01,1032.12,684.48,1031.01,674.65z M506.5,365
	c15.17-13.52,30.99-25.79,46.95-38.37c-7.52,22-25.84,40.01-47.96,47.16C503.49,370.62,503.71,367.49,506.5,365z M558.67,360.06
	c-5.93,49.42-57.09,66.99-92.58,56.26C502.68,412.95,538.4,390.7,558.67,360.06z M442.57,372.91c-0.68-0.05-1.86,0.01-2.96-0.25
	c-3.21-0.77-6.23-1.17-8.47,2.11c-0.46,0.68-1.41,1.21-2.23,1.41c-1.13,0.28-2.36,0.19-3.54,0.26c0.01-1.08-0.19-2.22,0.08-3.23
	c1.58-5.77,3.38-11.48,4.91-17.26c3.77-14.24,12.3-20.49,27.07-19.9c3.52,0.14,7.07-0.35,10.61-0.4c1.05-0.02,2.1,0.46,3.16,0.71
	c-0.33,0.98-0.37,2.28-1.03,2.9c-3.48,3.26-3.9,7.01-2.96,11.52c1.27,6.16-1.82,12.37-7.4,15.38
	C454.48,369.03,449.65,373.23,442.57,372.91z M510.29,432.79c-7.27,10.32-16.21,20.01-28.39,23.33c-8.17,2.22-17.19,0.46-24.35-4.07
	c-7.16-4.53-11.36-10.61-14.45-18.49C462.8,447,490.9,446.68,510.29,432.79z M472.64,601.95c-1.95,4.41-7.57,6.79-12.09,5.11
	c-4.52-1.68-10.98-6.9-9.58-11.51c-4.44-18.25-3.22-37.83,3.46-55.38c-1.39,15.27,4.24,29.01,12.36,42.02
	C470.6,588.28,475.54,595.38,472.64,601.95z M554.72,621.51c-12.61,23.33-41.44-11.26-50.36-21.5
	c-15.87-18.23-26.74-40.89-30.36-64.83c12.53,28.38,40.64,55.83,70.7,63.49C554,601.02,559.28,613.08,554.72,621.51z M566.18,568.23
	c-1.41,5.21-6.55,6.72-11.73,5.16c-23.41-7.02-44.77-20.75-60.89-39.12c17.98,4.73,33.87,9.05,51.85,13.78
	c5.22,1.37,10.6,2.82,14.89,6.09C564.59,557.41,567.59,563.01,566.18,568.23z M571.47,528.49c-7.38,1.08-15.32,2.21-22.59,1.74
	c-4.22-0.27-8.4-0.99-12.47-2.16c-2.03-0.58-4.03-1.28-5.98-2.08c-1.04-0.43-4.36-2.72-5.34-2.54c11.62-2.19,26.5-5.61,38.11-7.8
	c3.66-0.69,7.46-1.38,11.08-0.49c3.62,0.89,7.03,3.81,7.22,7.54C581.77,527.62,574.87,527.99,571.47,528.49z M572.1,292.39
	c-6.54,3.16-12.97,6.54-19.47,9.78c-1.25,0.62-2.57,1.18-3.92,1.53c-4.8,1.25-8.18-0.25-9.68-4.79c-5.42-16.4-9.01-33.33-6.05-50.45
	c2-11.57,6.09-22.99,10.76-33.83c10.19-23.66,21.04-47.05,32.22-70.26c7.58-15.74,18.92-29.06,30.05-42.39
	c5.64-6.75,11.7-13.17,17.74-19.57c1.01-1.07,2.92-1.28,4.42-1.88c-0.34,1.5-0.34,3.21-1.09,4.47
	c-13.44,22.75-27.01,45.41-40.44,68.17c-3.51,5.94-5.92,12.18-2.8,19.26c0.37,0.84-0.64,2.54-1.37,3.59
	c-4.89,7.01-9.91,13.92-14.82,20.92c-4.61,6.57-5.66,14.38-7.32,21.93c-1.11,5.03,1.99,8.71,4.94,12.29
	c0.48,0.58,0.91,1.19,1.73,2.27c-1.86,1.72-3.4,3.21-5.01,4.63c-10.94,9.66-15.09,21.83-13.07,36.11c1.33,9.4,6.8,12.32,15.57,8.37
	c5.81-2.61,11.39-5.71,17.13-8.47c2.09-1,4.35-1.66,6.8-2.02C584.36,280.1,580.72,288.22,572.1,292.39z M589.13,445.57
	c2.48-0.54,5.1,0.52,7.02,2.18c1.93,1.66,3.29,3.86,4.62,6.03c0.95,1.55,1.69,4.42-0.13,4.53c-4.16,0.26-8.4-0.77-11.98-2.92
	c-1.66-0.99-3.28-2.39-3.64-4.28C584.55,448.61,586.65,446.12,589.13,445.57z M601.77,465.51c-1.46,3.84-4.1,7.22-7.48,9.55
	c-1.56,1.08-3.47,1.97-5.31,1.52c-2.43-0.59-3.82-3.48-3.3-5.92c0.52-2.45,2.53-4.36,4.8-5.41c2.27-1.05,4.79-1.38,7.28-1.69
	C599.54,463.34,602.41,463.84,601.77,465.51z M633.05,599.72c0.71-1.76,1.81-3.55,3.59-4.2c2.35-0.85,5.1,0.8,6.01,3.13
	c0.91,2.33,0.29,5.03-1.02,7.16c-1.31,2.13-3.24,3.79-5.14,5.42c-1.36,1.17-4.03,2.33-4.42,0.58
	C631.17,607.81,631.52,603.53,633.05,599.72z M607.94,443.15c0.71-1.76,1.81-3.55,3.59-4.2c2.35-0.85,5.1,0.8,6.01,3.13
	c0.91,2.33,0.29,5.03-1.02,7.16c-1.31,2.13-3.24,3.79-5.14,5.42c-1.36,1.17-4.03,2.33-4.42,0.58
	C606.07,451.24,606.41,446.96,607.94,443.15z M609.51,483.68c-2.22-1.24-3.48-3.76-3.83-6.28c-0.35-2.52,0.09-5.07,0.52-7.57
	c0.31-1.79,1.66-4.43,3.09-3.31c3.3,2.56,5.79,6.14,7.05,10.11c0.58,1.84,0.88,3.96-0.11,5.62
	C614.95,484.43,611.73,484.92,609.51,483.68z M614.24,602.15c2.48-0.54,5.1,0.52,7.02,2.18c1.93,1.66,3.29,3.86,4.62,6.03
	c0.95,1.55,1.69,4.42-0.13,4.53c-4.16,0.26-8.4-0.77-11.98-2.92c-1.66-0.99-3.28-2.39-3.64-4.28
	C609.66,605.18,611.75,602.69,614.24,602.15z M626.88,622.09c-1.46,3.84-4.1,7.22-7.48,9.55c-1.56,1.08-3.47,1.97-5.31,1.52
	c-2.43-0.59-3.82-3.48-3.3-5.92c0.52-2.45,2.53-4.36,4.8-5.41c2.27-1.05,4.79-1.38,7.28-1.69
	C624.65,619.91,627.52,620.41,626.88,622.09z M628.87,466.01c-2.03,1.53-4.84,1.67-7.29,0.98c-2.44-0.7-4.6-2.12-6.72-3.53
	c-1.52-1.01-3.39-3.3-1.79-4.17c3.67-1.99,7.95-2.83,12.1-2.38c1.92,0.21,3.97,0.79,5.1,2.36
	C631.74,461.33,630.89,464.48,628.87,466.01z M641.35,638.82c-1.3,2.19-4.52,2.67-6.74,1.44c-2.22-1.24-3.48-3.76-3.83-6.28
	c-0.35-2.52,0.09-5.07,0.52-7.57c0.31-1.79,1.66-4.43,3.09-3.31c3.3,2.56,5.79,6.14,7.05,10.11
	C642.04,635.04,642.33,637.16,641.35,638.82z M653.97,622.59c-2.03,1.53-4.84,1.67-7.29,0.98c-2.44-0.7-4.6-2.12-6.72-3.53
	c-1.52-1.01-3.39-3.3-1.79-4.17c3.67-1.99,7.95-2.83,12.1-2.38c1.92,0.21,3.97,0.79,5.1,2.36
	C656.85,617.91,656,621.05,653.97,622.59z M681.58,401.03c1.4-2.71,3.95-4.61,6.51-6.26c7.84-5.22,26.39-15.38,35.48-10.59
	c-7.51,8.59-18.89,15.38-27.97,22.47c-3.81,2.97-9.36,5.96-13.01,2.79C680.29,407.44,680.18,403.74,681.58,401.03z M676.76,479.91
	c-2.17-0.01-4.45-0.5-6.07-1.95c-5.63-5.09,3.08-21.1,6.04-26.08c4.85-8.16,11.5-15.22,19.07-20.9
	c13.69-10.28,43.35-31.96,59.8-36.74c-7.74,2.25-15.88,10.01-21.9,15.07c-8.12,6.83-15.67,14.34-22.7,22.29
	c-7.64,8.64-15.27,17.3-19.54,28c-0.6,1.51-1.14,3.07-1.6,4.67C687.78,471.51,686.02,479.97,676.76,479.91z M717.75,539.46
	c-1.27,9.59-14.76,16.06-24.18,13.84c-9.42-2.23-12.75-12.11-10.22-21.45c11.98-44.19,56.63-104.37,90.81-134.82
	C751.56,435.81,723.63,494.95,717.75,539.46z M788.3,474.57c-2.92,2.99-8.03,3.5-11.48,1.15c-5.36-3.65-5.24-11.48-4.23-17.88
	c2.74-17.43,10.08-35.89,17.18-52.05c-3.72,18.44-3.75,37.61-0.08,56.06C790.5,465.94,791.22,471.58,788.3,474.57z M863.9,502.42
	c1.92,0.21,3.97,0.79,5.1,2.36c1.48,2.07,0.63,5.21-1.4,6.74c-2.03,1.53-4.84,1.67-7.29,0.98c-2.44-0.7-4.6-2.12-6.72-3.53
	c-1.52-1.01-3.39-3.3-1.79-4.17C855.47,502.81,859.75,501.97,863.9,502.42z M846.67,488.66c0.71-1.76,1.81-3.55,3.59-4.2
	c2.35-0.85,5.1,0.8,6.01,3.13c0.91,2.33,0.29,5.03-1.02,7.16c-1.31,2.13-3.24,3.79-5.14,5.42c-1.36,1.17-4.03,2.33-4.42,0.58
	C844.8,496.75,845.14,492.47,846.67,488.66z M844.93,515.34c0.31-1.79,1.66-4.43,3.09-3.31c3.3,2.56,5.79,6.14,7.05,10.11
	c0.58,1.84,0.88,3.96-0.11,5.62c-1.3,2.19-4.52,2.67-6.74,1.44c-2.22-1.24-3.48-3.76-3.83-6.28
	C844.06,520.39,844.5,517.84,844.93,515.34z M827.86,491.08c2.48-0.54,5.1,0.52,7.02,2.18c1.93,1.66,3.29,3.86,4.62,6.03
	c0.95,1.55,1.69,4.42-0.13,4.53c-4.16,0.26-8.4-0.77-11.98-2.92c-1.66-0.99-3.28-2.39-3.64-4.28
	C823.28,494.12,825.38,491.63,827.86,491.08z M840.5,511.02c-1.46,3.84-4.1,7.22-7.48,9.55c-1.56,1.08-3.47,1.97-5.31,1.52
	c-2.43-0.59-3.82-3.48-3.3-5.92c0.52-2.45,2.53-4.36,4.8-5.41c2.27-1.05,4.79-1.38,7.28-1.69
	C838.27,508.85,841.14,509.35,840.5,511.02z M805.43,440.64c-2.35-3.97-2.25-9.02-0.81-13.41c1.44-4.39,4.17-6.7,6.78-10.51
	c-0.46,6.19,2.26,12.53,7.06,16.47c3.57,2.93,3.08,10.41-1.21,12.13C812.96,447.04,807.77,444.62,805.43,440.64z M888.32,694.16
	c-4.32,3.94-10.09,6.91-15.87,6c-5.78-0.91-10.83-6.95-9.05-12.53c1.57-4.93,7.15-7.18,12.13-8.58c6.36-1.79,24.17-8.67,29.27-2.91
	C900.31,682.11,893.95,689.02,888.32,694.16z M855.43,660.73c-6.8,0.92-13.8,2.24-20.42,0.44c-6.62-1.8-12.7-7.9-11.77-14.7
	c0.74-5.48,5.83-9.58,11.21-10.84c5.38-1.26,11.02-0.23,16.41,1.01c11.18,2.59,22.14,6.14,32.72,10.59
	c7.29,3.07,23.09,7.92,27.1,14.92C891.99,660.07,874.26,658.18,855.43,660.73z M880.65,626.45c-16.62-8.29-34.37-14.54-50.52-23.64
	c-4.6-2.59-9.13-5.6-12.24-9.86c-3.12-4.26-4.63-10.02-2.72-14.94c2.38-6.15,9.48-9.44,16.06-9.26c6.59,0.18,12.76,3.12,18.54,6.28
	c33.64,18.35,62.06,46.14,81.16,79.35l0.3,1.1C914.94,644.83,898.05,635.13,880.65,626.45z M945.35,654.18
	c-10.86-25.35-25.33-49.16-42.84-70.47c-7.63-9.28-20.19-19.3-17.48-32.36c0.9-4.33,3.41-8.53,7.38-10.47
	c15.99-7.79,32.65,34.92,37.19,45.33c5.05,11.57,9.09,23.57,12.07,35.83c1.49,6.15,2.56,12.34,3.66,18.56
	C945.89,643.75,944.42,652.01,945.35,654.18z"/>
</svg>
