<?xml version="1.0" encoding="utf-8"?>
<!-- Generator: Adobe Illustrator 24.1.0, SVG Export Plug-In . SVG Version: 6.00 Build 0)  -->
<svg version="1.1" id="Dragon" xmlns="http://www.w3.org/2000/svg" xmlns:xlink="http://www.w3.org/1999/xlink" x="0px" y="0px"
	 viewBox="0 0 1190.55 841.89" style="enable-background:new 0 0 1190.55 841.89;" xml:space="preserve">
<style type="text/css">
	.st0{fill:#AF252B;}
</style>
<path class="st0" d="M328.1,679.92c-3.05-5.97-7.97-11.18-12.77-16.02c-7.28-7.32-14.25-7.4-22.62-1.23
	c-0.99,0.73-1.86,1.64-2.91,2.27c-3.72,2.26-7.54,1.13-9.53-2.71c-1.78-3.44-3.8-6.77-5.34-10.31c-3.6-8.28-4.89-16.65-0.75-24.88
	c9.19,1.97,17.79,3.75,26.33,5.7c2.5,0.57,5.16,1.22,7.26,2.58c18.87,12.26,39.42,20.76,61.53,23.98
	c32.28,4.71,64.54,4.29,95.86-6.78c4.23-1.5,8.33-3.36,12.49-5.05c-2.82,3.58-6.23,6.13-9.61,8.72c-3.65,2.79-3.72,6.06-1.24,9.67
	c1.53,2.22,3.02,4.47,5.25,7.79c-3.27-0.55-5.14-0.87-7.01-1.18c-15.58-2.64-31.11-5.55-46.76-7.67c-3.07-0.42-7.31,1.44-9.71,3.66
	c-6.06,5.59-11.49,11.89-16.91,18.13c-1.04,1.2-0.99,3.4-1.27,5.17c-0.3,1.85-0.01,3.86-0.64,5.56c-2.29,6.22-5.3,12.21-7.12,18.55
	c-0.78,2.72,0.68,6.09,1.12,9.16c0.83,0.15,1.65,0.3,2.48,0.46c2.94-5.5,6.87-10.72,8.58-16.58c2.1-7.2,3.71-14.08,11.42-17.49
	c-5.54,4.73-8.06,10.69-8.21,17.89c-0.06,2.87-0.93,5.77-1.75,8.56c-2.43,8.2-4.28,16.41-0.93,24.78c1.08,2.7,3.41,4.7,5.18,1.21
	c3.14-6.17,5.93-12.65,7.78-19.3c1.77-6.36,5.4-13.28,8.28-14.38c-1.66,3.97-4.51,8.62-5.43,13.63c-0.9,4.87,0.41,10.1,0.35,15.17
	c-0.12,9.89,4.67,17.81,13.76,21.73c1.23,0.53,2.88,0.07,4.49,0.07c-3.06-8.65-4-16.07,2.39-22.87c2.86-3.05,5.62-6.45,7.48-10.16
	c3.32-6.63,8.51-8.88,15.48-8.44c1.92,0.12,3.87-0.07,5.8-0.18c14.09-0.85,27.94-2.34,36.69-15.33c10.89,4.32,10.93,4.36,18.6-4.17
	c3.49-3.88,6.79-7.93,10.46-12.23c2.18,2.39,3.93,4.92,6.25,6.68c2.47,1.87,5.6,4.37,8.26,4.18c4.47-0.32,6.61,1.76,8.37,4.87
	c2.74,4.85,5.18,9.87,7.95,15.22c1.08-0.87,2.29-1.41,2.83-2.34c5.93-10.03,4.33-29.29-3.6-37.74c-6.5-6.92-13.58-13.29-20.47-19.83
	c-4.09-3.89-8.63-4.58-13.38-1.21c-4.73,3.35-9.34,6.85-14.04,10.24c-5.5,3.97-9.05,2.53-10.27-3.94
	c-1.1-5.88-2.25-11.76-3.78-17.54c-0.74-2.79-0.19-4.08,2.42-5.28c23.3-10.63,42.5-26.83,59.85-45.26
	c14.35-15.25,27.93-31.22,42.19-46.56c10.89-11.71,21.88-23.41,33.72-34.12c5.26-4.75,12.38-8.71,19.27-10.16
	c23.28-4.88,52.04,9.06,60.7,32.47c7.97,21.57,20.09,40.61,36.9,56.5c0.82,0.78,1.48,1.72,2.21,2.59c-0.3,0.32-0.61,0.65-0.91,0.97
	c-6.15-5.36-12.35-10.67-18.45-16.09c-4.42-3.93-7.25-3.91-11.29,0.26c-5.96,6.14-8.18,13.41-6.55,21.79
	c2.57,13.22,8.93,24.73,16.26,35.8c1.95,2.94,3.74,5.98,6.04,9.68c-9.61-2.42-18.05-4.92-26.65-6.63
	c-13.6-2.71-26.89-10.13-41.32-2.65c-4.94,2.56-10.74,3.44-15.78,5.84c-2.31,1.1-3.76,4.02-5.6,6.11c2.56,0.47,5.1,1.14,7.68,1.38
	c4.56,0.42,10.08-2.15,12.2,4.29c5.41-0.62,10.46-1.54,15.52-1.67c4.87-0.13,9.76,0.55,14.64,0.87c-9.95,0.72-19.97,0.26-28.43,6.57
	c-2.12,1.58-4.19,4.21-4.73,6.69c-0.64,2.97-1.85,4.16-4.54,4.79c-6.5,1.53-10.45,5.45-11.21,12.3c-0.49,4.37-1.22,8.7-1.67,13.07
	c-0.11,1.03,0.5,2.13,1.13,4.59c3.11-3.42,5.06-6.51,7.83-8.37c4.1-2.76,8.77-6.26,13.24-6.32c2.84-0.03,5.79,0.12,8.6-0.63
	c6.12-1.64,12.18-3.51,18.26-5.29c-7.96,4.35-16.06,8.12-23.9,12.38c-1.52,0.83-2.83,3.6-2.76,5.42c0.12,3.04-1.03,4.59-3.1,6.61
	c-3.17,3.1-7.44,6.83-7.82,10.63c-0.58,5.77,1.78,11.84,2.9,17.78c0.49,0.13,0.98,0.25,1.47,0.38c1.37-1.65,2.69-3.35,4.13-4.94
	c3.89-4.3,5.36-12.74,14.33-8.5c0.13,0.06,0.35-0.03,0.51-0.1c7.7-3.64,17.05-5.11,22.03-12.59c5.36-8.08,13.14-11.06,21.52-11.05
	c10.59,0.01,21.24,1.79,31.74,3.58c4.5,0.77,7.72,0.62,10.77-3.02c1.06-1.27,3.33-1.54,5.05-2.24c1.43-0.59,3.01-0.93,4.28-1.76
	c3.69-2.39,7.23-5.02,10.9-7.44c4.8-3.16,7.93-1.99,11.3,2.78c2.15,3.03,5.08,6.29,8.37,7.51c3.14,1.17,4.16,2.7,4.52,5.39
	c0.58,4.4,1,8.83,1.5,13.4c6.77-3.3,12.79-15.17,11.74-22.45c-0.17-1.2-0.94-2.89-0.43-3.5c3.73-4.41,1.11-8.32-1.4-11.42
	c-6.7-8.3-13.65-16.44-21.08-24.09c-4.25-4.37-9.78-5.12-15.49-1.7c-2.38,1.43-5.18,2.18-7.81,3.16
	c-10.03,3.74-12.79,2.51-14.26-7.7c-1.46-10.13-2.04-20.39-3.01-30.59c0.6-0.46,1.21-0.93,1.81-1.39
	c10.6,2.74,21.29,5.15,31.77,8.29c14.62,4.37,28.78,10.92,43.66,13.6c25.96,4.66,50.71-2.81,74.35-12.93
	c8.53-3.65,15.97-10.07,23.53-15.74c4.54-3.4,8.35-7.79,12.48-11.73c-3.24,6.33-7.19,12.2-11.71,17.59
	c-4.3,5.12-4.65,7.01-0.77,12.24c2.09,2.83,4.07,5.75,5.91,8.75c3.78,6.14,7.43,12.36,11.47,19.1c-15.58-1.88-30.09-3.36-44.51-5.44
	c-10.66-1.54-20.47-1.56-27.25,8.64c-0.18,0.27-0.58,0.4-0.84,0.63c-6.32,5.82-12.67,11.59-18.89,17.51
	c-1.15,1.09-1.73,2.78-2.84,4.64c1.61,0.33,2.51,0.81,3.22,0.61c7.91-2.21,16.17-3.68,23.59-7c11.13-4.99,22.41-7.2,34.46-5.82
	c-4.95,0.73-9.97,0.86-14.93,1.51c-15.94,2.09-23.25,16.29-34.54,24.91c-1.57,8.7-3.15,17.4-4.72,26.1
	c0.82,0.36,1.63,0.71,2.45,1.07c6.21-5.71,13.2-10.78,18.44-17.27c7.83-9.71,19.13-12.79,29.38-18.02
	c-6.6,4.87-13.46,9.33-20.57,13.36c-4.58,2.6-5.68,6.75-6.61,11.33c-0.48,2.4-1.07,5.01-2.42,6.96c-6.5,9.38-6.79,23.76-0.01,32.42
	c1.46-1.55,2.95-2.96,4.25-4.54c2.78-3.41,5.38-6.96,8.22-10.31c0.81-0.95,2.25-2,3.36-1.96c7.69,0.31,11.85-4.6,15.39-10.23
	c8.87-14.11,8.81-14.16,25.53-17.51c1.72-0.35,3.48-0.55,5.2-0.91c7.56-1.58,15.2-2.89,22.66-4.87c7.27-1.93,12.37-8.12,20.04-10.1
	c4.58-1.18,8.33-6.22,12.03-9.96c5.02-5.07,6.89-5.36,12.84-1.07c4.57,3.3,9.57,7.78,15.22,5.64c5.38-2.04,7.75,0.3,10.55,3.45
	c2.1,2.36,3.98,4.92,6.11,7.26c0.83,0.92,2.07,1.47,3.13,2.19c0.71-1.13,1.94-2.21,2.06-3.41c0.66-6.44,0.13-12.64-4.39-17.91
	c-1-1.17-2.19-3.24-1.79-4.36c1.5-4.22-0.07-7.45-2.88-10.01c-8.06-7.32-16.16-14.63-24.71-21.35c-1.93-1.52-6.28-1.76-8.61-0.66
	c-7.45,3.5-14.53,7.81-21.64,12c-3.92,2.31-9.83,0.79-11.36-3.42c-6.64-18.36-13.28-36.71-19.65-55.16
	c-0.67-1.93-0.34-4.98,0.8-6.64c20.18-29.52,31.61-62.09,32.57-97.8c0.96-35.66-5.92-69.7-25.57-100.23
	c-12.56-19.52-27.03-37.35-46.64-50.41c-10.84-7.22-21.63-14.52-32.41-21.82c-19.31-13.07-36.35-27.98-46.55-49.87
	c-14.17-30.41-13.62-71.54,19.15-97.55c2.44-1.93,6.28-3.01,9.44-2.95c8.39,0.16,15.54,3.91,21.88,9.34
	c0.99,0.85,2.85,1.33,4.06,1.01c0.69-0.18,1.17-2.32,1.18-3.58c0.02-1.73-0.52-3.47-0.77-5.21c-1-6.89-0.47-7.39,6.67-7.64
	c7.99-0.27,15.21,2.21,22.31,5.55c1.46,0.69,3.56,0.03,5.37-0.01c-0.39-1.68-0.32-3.7-1.26-4.97c-2.72-3.7-5.84-7.1-8.8-10.62
	c0.27-0.64,0.53-1.28,0.8-1.92c12.24,2.06,24.46,4.29,36.73,6.11c9.7,1.44,19.47,2.51,29.24,3.38c1.55,0.14,3.26-1.62,4.9-2.51
	c-1.05-1.45-1.81-3.33-3.21-4.28c-11.88-8.15-25.13-13.42-38.92-17.17c-8.5-2.31-17.27-3.64-27.07-5.65
	c6.73-5.09,13.09-9.91,19.45-14.72c-0.27-0.54-0.54-1.07-0.82-1.61c-19.23,0.46-37.2,5.22-52.99,17.39c-0.4-0.26-0.8-0.52-1.2-0.78
	c1.24-7.21,2.49-14.41,3.73-21.62c-0.41-0.33-0.82-0.65-1.22-0.98c-2.44,2.25-5.61,4.07-7.21,6.82
	c-6.8,11.7-13.13,23.66-19.63,35.53c-0.75,1.38-1.15,3.4-2.31,4.03c-6.09,3.31-12.36,6.27-19.08,9.6c-0.21-2.66-0.15-4.59-0.56-6.42
	c-0.44-1.96-1.31-3.82-1.99-5.73c-1.75,0.92-3.85,1.5-5.2,2.83c-6.41,6.29-12.64,12.76-18.88,19.2c-3.18,3.28-5.83,2.52-8.21-0.89
	c-1.25-1.79-2.43-3.63-3.64-5.44c-0.63-0.05-1.26-0.09-1.89-0.14c-6.1,16.25-12.2,32.51-18.82,50.16
	c-6.09-8.43-11.91-16.48-18.66-25.83c-0.63,4.86-1.63,8.52-1.5,12.13c1.56,42.77,11.91,82.65,40.06,117.6
	c-2.01-0.45-2.83-0.57-3.6-0.83c-0.83-0.28-1.6-0.9-2.43-0.97c-1.06-0.09-2.37-0.09-3.16,0.47c-0.4,0.28-0.15,1.97,0.25,2.8
	c0.52,1.08,1.48,1.95,2.27,2.89c15.58,18.74,33.79,34.32,55.24,46.02c1.77,0.97,3.36,2.27,4.84,3.29c-1.61,1.98-2.86,3.51-4.11,5.04
	c1.72,1,3.4,2.07,5.17,2.98c1.87,0.97,3.88,1.69,5.73,2.69c15.89,8.56,32.62,16.12,40.46,34.22c4.26,9.83,10.33,19.24,12.57,29.5
	c3.94,18.03,1.61,36.17-5.86,53.24c-7.82,17.89-19.42,31.76-40.61,33.06c-15.47,0.95-30.8-0.42-42.54-12.21
	c-15.43-15.49-22.11-35.42-26.94-56.14c7.52-2.45,7.84-3.39,2.51-9.74c-2.48-2.95-5.31-5.62-8.14-8.26
	c-2.95-2.76-6.21-5.21-9.07-8.07c-0.94-0.94-1.48-2.78-1.33-4.11c0.07-0.61,2.23-1.28,3.49-1.39c3.15-0.27,6.36,0.02,9.48-0.41
	c2.92-0.4,4.97-2.15,2.21-4.96c-9.72-9.89-18.96-20.37-32.96-24.73c-4.64-1.44-8.86-4.22-13.27-6.39c0.19-0.49,0.39-0.98,0.58-1.47
	c2.92-0.52,5.95-0.7,8.72-1.66c1.95-0.68,3.54-2.4,5.3-3.66c-1.38-1.42-2.5-3.41-4.17-4.16c-12.19-5.47-24.49-10.68-36.74-15.99
	c-6.68-2.9-13.35-5.83-21.36-9.33c4.62-5.32,8.33-9.44,11.85-13.72c0.9-1.1,1.22-2.68,1.8-4.04c-1.24-0.43-2.49-1.27-3.7-1.21
	c-7.02,0.38-14.08,0.59-21.03,1.56c-16.57,2.31-31.8,8.75-46.83,15.78c-2.81,1.32-6.09,1.63-10.67,2.78
	c3.08-6.99,5.39-12.23,8.15-18.49c-9.58,1.21-16.67,3.86-22.33,10.05c-9.27,10.12-18.69,20.11-28.15,30.06
	c-2.17,2.28-4.65,4.31-7.16,6.22c-3.36,2.56-6.73,2.35-9.09-1.29c-2.5-3.86-4.53-3.05-6.79,0.04c-5.83,7.94-11.66,15.88-17.52,23.8
	c-18.95,25.59-37.99,51.1-56.83,76.77c-9.15,12.47-21.1,21.6-34.12,29.49c-13.35,8.1-27.73,11.25-43.01,7.04
	c-11.88-3.27-19.54-11.51-21.74-23.48c-1.97-10.71-0.47-21.4,4.9-31.24c7.3-13.38,18.04-23.74,29.21-33.77
	c2.77-2.49,4.61-1.07,6.86,0.57c4.2,3.07,6.74,2.23,8.96-2.43c2.22-4.65,4.7-9.18,7.35-14.31c1.26,4.41,2.3,8.01,3.56,12.42
	c9.6-5.68,11.99-15.91,18.64-22.9c0.41,2.09,0.73,3.74,1.28,6.54c10.33-8.38,19.98-16.2,30.36-24.62c0.69,3.9,0.98,6.49,1.65,8.96
	c0.27,1,1.32,2.39,2.14,2.48c0.93,0.1,2.4-0.83,2.9-1.73c1.28-2.29,2.21-4.78,3.17-7.24c5.73-14.71,14.82-27.39,24.18-40.89
	c0.99,4.05,1.78,7.28,2.57,10.51c0.49,0.09,0.98,0.18,1.47,0.27c0.84-1.5,1.95-2.92,2.47-4.53c0.96-3.01,1.46-6.16,2.36-9.19
	c3.09-10.52,8.74-19.43,17.14-27.16c2.06,3.13,3.68,6.05,5.78,8.55c0.9,1.07,2.83,1.28,4.28,1.88c0.47-1.37,1.33-2.74,1.34-4.11
	c0.05-11.94-0.33-23.88-0.01-35.81c0.24-9.09,1.31-18.15,2.03-27.52c1.92,0.29,3.49,0.89,4.95,0.68c2.65-0.38,5.23-1.24,7.83-1.9
	c-0.9-2.13-1.51-4.46-2.76-6.37c-6.11-9.43-12.66-18.59-18.47-28.19c-2.33-3.86-3.18-8.61-5.1-14.08c3.7,1.59,5.88,2.85,8.22,3.44
	c2.36,0.59,4.88,0.5,7.33,0.71c-0.41-2.6-0.14-5.59-1.36-7.74c-6.37-11.31-14.35-21.29-25.27-28.64c-4.25-2.86-8.48-5.73-13.11-8.86
	c3.93-0.84,7.1-1.52,10.27-2.19c0.06-0.73,0.13-1.46,0.19-2.19c-2.92-1.23-5.73-2.93-8.77-3.6c-15.61-3.46-31.21-7.13-46.97-9.78
	c-11.77-1.98-23.12-5.58-35.76-4.06c-16.31,1.97-31.81,5.49-46.67,12.27c-4.2,1.92-8.48,3.65-12.72,5.47
	c-0.34-0.35-0.68-0.7-1.02-1.05c23.27-16.27,29.56-41.05,35.06-66.54c2.31-10.72,6.52-21.08,10.38-31.41
	c1.54-4.11,4.47-7.7,7.39-12.58c-2.31,0.35-3.64,0.32-4.77,0.77c-12.81,5.07-22.22,13.77-28.44,26.15
	c-4.97,9.89-10.07,19.76-15.85,29.19c-9.36,15.27-21.23,27.82-38.49,34.74c-7.07,2.83-13.31,7.75-19.94,11.7
	c-2.19,1.3-4.42,2.53-7.94,4.53c3.72-9.07,2.47-16.81,0.93-24.58c-2.06-10.41-2.02-21.12,2.01-30.71
	c4.65-11.07,11.56-21.17,17.29-31.8c4.48-8.31,8.88-16.69,12.83-25.27c1.01-2.19,0.15-5.23,0.15-7.89
	c-0.61-0.09-1.21-0.18-1.82-0.26c-0.79,1.04-1.83,1.97-2.34,3.14c-6.02,13.61-16.04,23.65-27.68,32.62
	c-18.8,14.49-30.96,33.46-35.41,56.99c-1.93,10.19-2.91,20.59-5.37,30.64c-5.72,23.39-16.91,42.51-42.1,49.47
	c-6.36,1.76-9.87,6.36-12.46,12.01c-2.8,6.11-2.82,12.1-0.21,18.37c1.68,4.03,3.27,8.94-0.5,12.35
	c-8.94,8.09-18.38,15.62-28.56,24.18c1.01-4.97,2.06-8.52,2.41-12.14c0.96-10.01-4.5-17.26-10.57-24.39
	c-11.44-13.45-9.5-29.42,4.16-40.67c4.97-4.1,9.85-8.68,13.53-13.91c7.51-10.67,6.14-23.02-3.38-30.23
	c-5.09-3.86-11.32-6.23-17.11-9.13c-0.66-0.33-1.79,0.27-4.12,0.71c2.26,1.58,3.41,2.44,4.62,3.22
	c14.84,9.51,16.23,24.75,3.24,36.86c-3.86,3.59-8.03,6.85-12.06,10.25c-13.03,10.98-13.82,30.29-9.12,42.22
	c1.11,2.82,3.21,5.7,5.64,7.47c8.95,6.5,10.21,15.63,9.22,25.45c-0.86,8.44-9.08,18.14-16.02,19.18
	c-6.84,1.03-11.56,4.94-15.22,10.34c-4.05,5.98-3.74,12.36-0.48,18.53c3.07,5.83,6.86,9.92,14.74,9.64
	c8.46-0.3,17.29-0.24,24.76,5.41c5.69,4.3,11.42,8.94,20.08,5.22c-4.25,8.23-9.74,6.57-15.56,4.83c-12.09-3.6-13.54-2.95-20.48,7.36
	c-0.59,0.88-1.23,1.72-1.79,2.61c-3.04,4.84-2.27,7.84,1.58,12.19c3.77,4.27,7.35,8.88,10.05,13.87c3.93,7.27,7.9,9.84,16.12,8.26
	c2.73-0.53,5.56-1.34,7.95-2.72c8.99-5.18,18.08-5.8,27.87-2.28c6.26,2.25,11.92,0.05,15.49-4.76c3.63-4.9,2.45-9.79-0.63-14.22
	c-2.72-3.91-2.14-6.65,1.61-9.22c9.28-6.36,18.46-12.89,27.87-19.06c1.35-0.89,3.89-0.64,5.64-0.13c6.87,2.03,13.5,5.28,20.49,6.4
	c12.44,1.99,25.38,2.51,36.3-4.96c8.49-5.81,16.54-11.2,27.39-9.43c0.07,0.01,0.18-0.21,0.88-1.09c-2.74-0.75-5.1-1.66-7.55-2.01
	c-7.65-1.07-14.39,2.07-21.39,4.57c-15.17,5.41-30.26,4.17-46.51-1.88c3.35-1.5,5.44-3.01,7.71-3.35
	c9.18-1.38,18.41-2.35,27.61-3.58c20.45-2.74,37.33-11.19,47.25-30.28c6.15-11.83,3.94-23.97-5.65-33.19
	c-0.65-0.63-1.21-1.36-2.29-2.58c9.18,2.73,14.61,7.41,18.89,15.84c2.73,5.38,4.22,5.89,9.37,2.72c2.84-1.75,5.46-3.85,8.16-5.81
	c6.25-4.53,15.07-4.6,20.08-0.14c6.71,5.98,7.89,12.83,3.47,20.68c-5.68,10.08-13.98,17.9-23.6,23.75
	c-23.3,14.15-46.85,27.9-70.69,41.11c-19.63,10.88-38.09,23.18-55.31,37.62c-33.07,27.74-52.33,62.24-55.32,105.72
	c-2.27,33.09,5.1,63.2,24.9,90.04c3.68,4.99,7.28,10.04,10.91,15.06c-2.77-1.41-5.08-3.26-6.98-5.46
	c-5.75-6.66-11.72-13.19-16.87-20.3c-3.78-5.23-8.85-7.4-14.61-8.41c-7.24-1.26-12.76,2.05-14.31,9.21
	c-1.13,5.22-1.77,10.99-0.78,16.15c3.62,18.86,8.35,37.45,19.22,53.78c0.63,0.95,1.02,2.07,1.95,4c-2.66-0.9-4.41-1.54-6.19-2.08
	c-10.76-3.25-21.43-6.87-32.34-9.56c-5.71-1.41-12.5-3.05-17.62-1.24c-7.97,2.82-16.12,2.88-24.09,4.61
	c-1.37,0.3-2.69,0.82-4.04,1.21c-1.2,0.35-2.41,0.66-3.61,0.99c0.51,0.84,1.02,1.67,1.54,2.51c2.79,0.77,5.55,1.88,8.39,2.22
	c4.73,0.57,8.43,1.66,6.85,6.99c8.31-0.71,16.53-1.41,24.74-2.12c0.05,0.82,0.11,1.64,0.16,2.46c-3.21,0-6.43-0.14-9.64,0.03
	c-7.95,0.43-16.33,6.02-17.27,12.23c-0.64,4.22-3.24,6.08-6.09,8.55c-4.57,3.97-8.54,8.63-12.54,13.21
	c-0.65,0.75-0.42,2.65,0.02,3.78c0.16,0.4,2.16,0.25,3.28,0.08c3.64-0.56,7.25-1.69,10.89-1.77c4.95-0.11,8.99-1.6,13.08-4.46
	c6.25-4.37,13.38-6.96,22.25-7.72c-5.91,2.58-10.92,4.31-15.47,6.85c-7.81,4.34-10.62,11.56-8.86,20.14c0.47,2.3,0.33,4.85-0.1,7.18
	c-1.73,9.24,0.21,17.51,6.33,24.62c0.95,1.11,2.94,1.33,4.45,1.95c0.47-1.39,1.24-2.76,1.36-4.18c0.24-2.97-0.03-5.99,0.26-8.96
	c0.14-1.44,0.94-3.94,1.67-4.03c9.18-1.1,11.33-9.03,14.41-15.37c3.76-7.72,8.98-11.92,17.6-11.35c5.43,0.36,10.83,1.27,16.25,1.49
	c10.39,0.43,20.91,6.25,31.18-0.58c0.24-0.16,0.72-0.14,1-0.01c7.94,3.82,10.94-2.43,14.79-7.14c3-3.66,5.88-7.54,9.46-10.54
	c1.8-1.51,5.4-2.35,7.59-1.65c5.94,1.92,10.16,5.88,10.35,12.83c0.05,2.03,0.47,4.05,0.92,7.59c2.57-2.44,4.35-3.74,5.63-5.42
	C334.29,698.63,332.68,688.87,328.1,679.92z M801.73,204.83c-17.37,45.45-7.68,85.75,23.26,122.07
	C791.31,296.47,780.68,250.68,801.73,204.83z M967.05,471.83c-2.66,1.86-5.33,0.97-7.2-1.72c-2.22-3.18-3.38-6.6-1.83-12.45
	c3.79,2.88,6.66,4.78,9.18,7.07C969.66,466.97,969.89,469.84,967.05,471.83z M966.39,445.21c1.64-0.79,4.81-0.57,6.1,0.55
	c2.31,2.02,0.96,4.81-0.94,6.65c-3.44,3.34-8.77,3.15-13.34,2.37C958.65,449.77,962.79,446.94,966.39,445.21z M950.6,436.27
	c1.93-2.47,4.25-1.96,5.35-0.18c4.02,5.78,2.01,10.33-2.19,15.88C950.19,446.67,947.35,442.36,950.6,436.27z M948.47,473.48
	c-0.8,0.94-3.68,1.34-4.61,0.65c-1.3-0.96-2.6-3.42-2.25-4.83c1.27-5.17,5.64-9.2,11.01-9.95
	C954.59,464.71,951.37,470.06,948.47,473.48z M934.07,451.82c0.62-3.15,3.18-3.89,5.78-3.57c4.46,0.55,7.59,3.29,10.64,6.94
	c-4.56,2.9-8.66,2.98-12.84,1.62C935.34,456.06,933.52,454.61,934.07,451.82z M932.5,539.04c3.07-1.03,6.11-2.32,9.34-2.54
	c3.23-0.21,6.8,0.92,8.45,3.7c5.07,8.58-7.71,13.39-14.57,14.01c-10.53,0.95-23.66-4.41-31.2-11.66
	C913.47,543.87,923.93,541.9,932.5,539.04z M919.29,575.46c7.34,5.27,20.78,16.04,10.09,25.67c-3.62,3.26-9.2,3.74-13.74,1.96
	c-4.53-1.78-8.09-5.51-10.56-9.71c-4.15-7.04-5.77-15.37-8.85-22.88c-2.66-6.49-3.71-19.08-7.91-24.29
	C897.26,557.3,907.72,567.15,919.29,575.46z M864.56,572.56c5.24-4.01,10.02-9.45,11.17-15.94c0.71,6.67,1.41,13.41,0.63,20.07
	c-0.82,7.07-2.37,12.4-9.14,15.01c-0.07,0.03-0.13,0.05-0.2,0.08c-4.71,1.76-12.55,2.76-15.42-2.65
	C847.57,581.53,860.12,575.96,864.56,572.56z M633.63,478.5c-0.68-0.47-1.37-0.94-2.07-1.39c-4.77-3.14-9.81-5.94-15.38-7.02
	c-4.49-0.87-11.85-2.57-14.57-6.62c-1.31-1.95-0.82-4-0.24-6.27c0.82-3.21,3.89-5.5,7.14-6.13c3.25-0.63,6.62,0.17,9.67,1.46
	c7.27,3.08,13.13,8.87,17.55,15.42c4.42,6.54,7.53,13.86,10.62,21.13C642,485.5,638.33,481.73,633.63,478.5z M676.01,447.1
	c-2.33,7.15-3.72,14.55-5.03,21.93c-1.18,6.67-3.86,12.83-4.97,19.46c-10.19-19.04-16.08-37.73-18-59.25
	c-0.67-7.51,4.7-15.11,12.01-16.99c7.31-1.88,15.68,2.19,18.71,9.09C682.29,429.45,678.75,438.69,676.01,447.1z M721.36,468.9
	c-3.9,1.84-8.36,2.35-12.42,3.81c-6.51,2.34-14.85,5.23-21.13,9.7c-2.09,1.49-3.95,3.14-5.43,5.02c2.48-9.96,7.34-19.53,13.48-27.72
	c3.08-4.11,6.62-7.99,11.08-10.53c6.19-3.52,16.16-3.83,19.91,3.52C729.68,458.24,727.14,466.17,721.36,468.9z M771.6,575
	c-1.26,1.49-5.81,2.12-7.27,1.03c-2.05-1.52-4.1-5.4-3.55-7.63c2-8.15,8.9-14.52,17.37-15.71C781.25,561.17,776.18,569.61,771.6,575
	z M800.92,572.4c-4.2,2.94-8.41,1.53-11.36-2.71c-3.5-5.03-5.34-10.42-2.89-19.64c5.99,4.55,10.52,7.55,14.49,11.15
	C805.04,564.72,805.4,569.26,800.92,572.4z M799.89,530.39c2.59-1.24,7.59-0.9,9.63,0.87c3.65,3.18,1.51,7.59-1.49,10.5
	c-5.43,5.27-13.84,4.97-21.05,3.74C787.66,537.58,794.2,533.12,799.89,530.39z M774.96,516.27c3.05-3.9,6.71-3.09,8.45-0.28
	c6.35,9.13,3.17,16.31-3.45,25.06C774.31,532.68,769.84,525.89,774.96,516.27z M748.87,540.81c0.97-4.97,5.02-6.14,9.12-5.63
	c7.04,0.86,11.97,5.2,16.79,10.96c-7.19,4.58-13.66,4.71-20.27,2.56C750.88,547.51,748.01,545.22,748.87,540.81z M581.63,415.53
	c10.05-8.49,21.33-14.97,33.71-19.31c24.22-8.49,49.3-12.57,74.78-9.45c18.61,2.29,36.13,9.05,51.19,20.89
	c1.51,1.19,2.82,2.64,4.18,4.01c0.43,0.43,0.71,1,1.57,2.23c-26.85-16.3-54.15-26.76-85.52-23.51c-30.25,3.13-59.06,9.56-82.9,30.21
	c-0.29-0.32-0.57-0.65-0.86-0.97C579.05,418.26,580.2,416.73,581.63,415.53z M497.24,586.17c-1.26,1.49-5.81,2.12-7.27,1.03
	c-2.05-1.52-4.1-5.4-3.55-7.63c2-8.15,8.9-14.52,17.37-15.71C506.89,572.33,501.82,580.78,497.24,586.17z M526.56,583.57
	c-4.2,2.94-8.41,1.53-11.36-2.71c-3.5-5.03-5.34-10.42-2.89-19.64c5.99,4.55,10.52,7.55,14.49,11.15
	C530.69,575.89,531.04,580.43,526.56,583.57z M525.53,541.55c2.59-1.24,7.59-0.9,9.63,0.87c3.65,3.18,1.51,7.59-1.49,10.5
	c-5.43,5.27-13.84,4.97-21.05,3.74C513.31,548.75,519.84,544.28,525.53,541.55z M500.61,527.44c3.05-3.9,6.71-3.09,8.45-0.28
	c6.35,9.13,3.17,16.31-3.45,25.06C499.95,543.85,495.48,537.06,500.61,527.44z M474.51,551.98c0.97-4.97,5.02-6.14,9.12-5.63
	c7.04,0.86,11.97,5.2,16.79,10.96c-7.19,4.58-13.66,4.71-20.27,2.56C476.52,558.68,473.65,556.39,474.51,551.98z M531.19,288.17
	c-1.92,5.93-9.32,9.74-15.34,7.58c-4.06-1.46-7.58-4.25-11.48-6.09c-6.25-2.95-14.2-6.8-21.8-8.08c-2.53-0.43-5.01-0.57-7.39-0.3
	c8.8-5.29,19-8.61,29.14-10.07c5.08-0.73,10.33-0.97,15.28,0.39C526.46,273.5,533.73,280.32,531.19,288.17z M558.25,299.81
	c0.68-3.99,1.22-8.01,2.06-11.96c5.5-25.93,1.93-50.41-12.31-72.9c-7.54-11.92-17.86-21.19-30.09-28.29c-2.34-1.36-4.63-2.8-8-4.86
	C552.95,192.57,581.58,262.96,558.25,299.81z M492.01,215.86c4.84-5.79,14.01-7.36,20.51-3.53c6.49,3.84,9.54,12.63,6.8,19.66
	c-3.21,8.24-12.25,12.27-20.13,16.28c-6.7,3.41-12.91,7.66-19.06,11.95c-5.55,3.88-11.8,6.34-17.28,10.25
	C469.1,249.8,478.16,232.43,492.01,215.86z M176.99,329.37c4.82,0.28,7.78,2.47,10.57,6.37
	C181.58,337.65,179.61,336.44,176.99,329.37z M249.2,343.83c-0.95,1.2-3.5,1.67-5.29,1.57c-7.3-0.4-14.59-1.11-21.88-1.8
	c-1.28-0.12-2.52-0.66-3.71-0.99c5.62-1.84,10.87-3.6,16.14-5.29c3.66-1.18,7.3-2.82,11.05-3.21c2.09-0.22,5.97,1.37,6.25,2.72
	C252.21,338.95,250.73,341.91,249.2,343.83z M316.62,232.92c-5.17,2.71-5.29,7.53-6.36,12.58c-2.11,9.89-11.16,15.28-21.55,14.5
	c-1.27-0.09-2.76,0.95-3.95,1.75c-1.62,1.1-3.05,2.48-4.56,3.74c4.98-16.51,24.26-33.46,36.18-33.52
	C316.47,232.31,316.69,232.89,316.62,232.92z M448.54,256.97c-0.54-5.6-0.47-10.86-1.52-16.47c-0.15-0.82-0.31-1.63-0.48-2.45
	c-1.15-5.59-2.74-11.13-5.91-15.84c-2.56-3.8-6.56-10.2-5.62-14.99c0.45-2.31,2.25-3.41,4.27-4.6c2.85-1.68,6.64-1.14,9.38,0.71
	c2.74,1.85,4.56,4.81,5.8,7.87c2.96,7.32,3.01,15.56,1.5,23.31C454.47,242.27,451.49,249.65,448.54,256.97z M370.62,601.65
	c-10.66-5.94-9.12-20.18-5.5-29.51c2.26-5.83,5.12-12.06,8.5-17.36c2.2-3.45,11.43-10.44,12.11-13.7
	c-2.65,12.79-0.92,26.24,4.7,38.03c1.84,3.87,4.16,7.76,4.14,12.05C394.53,602.86,379.38,606.53,370.62,601.65z M393.48,424.69
	c-1.08,1.27-4.97,1.81-6.22,0.88c-1.75-1.3-3.5-4.61-3.04-6.52c1.71-6.97,7.61-12.42,14.85-13.43
	C401.73,412.86,397.39,420.07,393.48,424.69z M418.54,422.46c-3.59,2.51-7.19,1.31-9.71-2.32c-2.99-4.3-4.56-8.91-2.47-16.79
	c5.12,3.89,8.99,6.45,12.39,9.54C422.07,415.9,422.38,419.78,418.54,422.46z M417.66,386.54c2.22-1.06,6.49-0.77,8.23,0.75
	c3.12,2.72,1.29,6.49-1.27,8.98c-4.64,4.51-11.83,4.25-18,3.2C407.21,392.7,412.8,388.87,417.66,386.54z M396.35,374.47
	c2.6-3.34,5.74-2.64,7.22-0.24c5.43,7.81,2.71,13.95-2.95,21.43C395.8,388.5,391.97,382.7,396.35,374.47z M374.04,395.45
	c0.83-4.25,4.29-5.25,7.79-4.82c6.02,0.74,10.24,4.44,14.35,9.37c-6.15,3.92-11.68,4.03-17.33,2.19
	C375.76,401.18,373.31,399.22,374.04,395.45z M307.32,506.09c5.27-12.45,18.76-3.68,27.58,0.02c8.72,3.65,18.38,3.29,27.78,0.85
	c-7.81,8.23-18.83,11.38-29.79,14.33c-6.67,1.8-13.91,1.42-20.36-1.06C305.92,517.68,304.59,512.53,307.32,506.09z M319.3,549.92
	c8.24-5.43,18.31-9.07,27.28-13.14c6.46-2.93,23.99-6.79,28.19-12.13c-11.28,14.34-21.66,29.35-32.43,44.06
	c-7.16,9.78-12.75,21.04-26.16,21.33C288.13,590.65,306.41,558.42,319.3,549.92z"/>
</svg>
