<?xml version="1.0" encoding="utf-8"?>
<!-- Generator: Adobe Illustrator 25.2.3, SVG Export Plug-In . SVG Version: 6.00 Build 0)  -->
<svg version="1.1" xmlns="http://www.w3.org/2000/svg" xmlns:xlink="http://www.w3.org/1999/xlink" x="0px" y="0px"
	 viewBox="0 0 1190.55 841.89" style="enable-background:new 0 0 1190.55 841.89;" xml:space="preserve">
<style type="text/css">
	.st0{fill:#AF252B;}
</style>
<g id="Circle">
	<path class="st0" d="M581.09,10.31c-224.93-1-410.61,181.28-412.39,407.59c-1.8,228.36,183.53,413.69,409.53,414.23
		c221.82,0.53,410.26-178.64,411.51-410.82C988.66,190.03,801.5,11.29,581.09,10.31z M579.23,820.53
		c-222.7,0.03-400.43-182.47-399.01-402.1c1.43-221.3,185.81-402.93,410.99-396.39C799,28.08,977.34,199,978.09,421.32
		C977.42,642.81,798.29,820.5,579.23,820.53z M579.48,33.12c-214.05,0.49-386.81,173.09-387.84,386.25
		c-1.02,212.77,169.4,386.3,380.98,389.69c217.56,3.49,390.29-171.38,393.93-380.96C970.26,214.76,799.14,34.24,579.48,33.12z
		 M569.97,802.05c-200.82-4.69-371.01-169.4-371.42-381.15c0.56-212.34,173.67-381.48,382.2-380.6
		c206.82,0.87,378.6,169.31,378.81,380.69C959.78,635.17,782.51,807.02,569.97,802.05z M892.91,330.12
		c12.59-3.68,25.37-7.41,38.8-11.33c9.79,33.8,14.34,67.57,14.51,102.4c-13.54,0-26.75,0-40.48,0c-0.77-12.67-1.53-25.35-2.32-38.47
		c7.72-0.94,15.2-1.85,23.41-2.85c0.57,6.83,1.11,13.27,1.68,20.13c-2.34,0.37-4.19,0.66-6.36,1c-0.58-4.5-1.11-8.67-1.73-13.46
		c-3.05,0.32-5.96,0.63-9.59,1.01c0.48,8.61,0.95,17.04,1.43,25.82c8.78,0,17.51,0,26.82,0c-0.32-29.74-4.22-58.32-12.04-86.78
		c-8.87,2.39-17.16,4.63-25.99,7.01c1.92,8.53,3.76,16.73,5.72,25.47c3.2-0.52,6.09-1,9.64-1.58c-0.73-4.42-1.44-8.67-2.17-13.08
		c1.9-0.56,3.55-1.06,5.69-1.69c2.8,6.37,3.03,13.23,4.63,20.3c-7.86,1.3-15.5,2.56-23.26,3.84
		C898.51,355.31,895.8,343.12,892.91,330.12z M467.06,729.85c-4.5,12.44-9.04,24.99-13.79,38.13
		c-33.07-11.82-63.31-27.99-91.54-48.57c8.04-11.04,15.84-21.77,23.85-32.78c10.91,7,21.69,13.93,32.7,21
		c-3.73,6.66-7.43,13.26-11.49,20.51c-5.94-3.52-11.63-6.9-17.67-10.48c1.29-2.11,2.27-3.71,3.56-5.82
		c3.86,2.26,7.48,4.37,11.48,6.71c1.66-2.73,3.28-5.39,5.14-8.44c-7.53-4.84-14.75-9.47-22.24-14.28
		c-5.17,7.44-10.1,14.54-15.41,22.19c24.11,17.14,49.55,30.24,77.18,41.11c3.24-8.44,6.42-16.71,9.69-25.22
		c-8.14-3.53-15.73-6.83-23.85-10.35c-1.48,2.81-2.91,5.53-4.62,8.78c4.16,2,7.93,3.81,12.14,5.84c-0.81,2.01-1.56,3.86-2.54,6.28
		c-6.33-2.96-12.2-5.7-18.75-8.76c3.61-7.28,7.03-14.17,10.46-21.1C443.26,719.68,454.94,724.67,467.06,729.85z M905.44,432.06
		c13.4,0.35,26.64,0.69,40.63,1.06c-1.12,35-7.31,68.54-17.79,102.26c-13.05-4.25-25.72-8.37-38.58-12.56
		c3.26-12.46,6.42-24.55,9.81-37.51c7.77,1.5,15.16,2.94,23.07,4.47c-1.55,6.92-3,13.42-4.51,20.18c-2.05-0.54-4-1.05-6.43-1.69
		c0.83-4.21,1.62-8.14,2.54-12.78c-2.85-0.81-5.79-1.66-9.38-2.69c-2.27,8.61-4.47,16.9-6.8,25.73c8.54,2.62,16.91,5.18,25.86,7.92
		c8.57-28.26,13.49-56.72,15.1-86.27c-9.19-0.52-17.78-1.01-27.02-1.53c-0.82,8.84-1.59,17.25-2.42,26.23
		c3.25,0.45,6.14,0.85,9.68,1.33c0.66-4.42,1.29-8.7,2-13.44c2.02,0.3,4.04,0.6,6.52,0.97c-0.74,6.59-1.46,13.02-2.27,20.28
		c-8.01-1.2-15.75-2.36-23.46-3.51C903.13,457.73,904.25,445.26,905.44,432.06z M250.91,410.92c-13.43-0.46-26.54-0.9-40.54-1.38
		c0.87-34.66,7.26-68.34,17.79-102.07c12.9,4.17,25.69,8.3,38.53,12.44c-3.36,12.84-6.57,25.09-9.84,37.62
		c-7.67-1.53-15.08-3.01-23.07-4.6c1.51-6.63,2.98-13.08,4.58-20.09c2.2,0.57,4.01,1.04,6.36,1.65c-0.82,4.27-1.64,8.51-2.52,13.09
		c3.17,0.72,6.05,1.37,9.45,2.14c2.22-8.39,4.37-16.54,6.74-25.5c-8.5-2.58-16.97-5.15-25.91-7.86
		c-8.44,28.41-13.56,56.67-14.97,86.29c9.12,0.45,17.58,0.86,26.82,1.31c0.87-8.56,1.73-16.93,2.64-25.87
		c-3.38-0.56-6.39-1.05-9.82-1.62c-0.65,4.59-1.21,8.56-1.81,12.83c-2.02,0-4.07,0-6.79,0c0.79-6.55,1.56-12.94,2.4-19.87
		c7.92-0.56,15.29,2.22,23.35,2.57C253.14,385.27,252.04,397.92,250.91,410.92z M627.24,97.17c-12.83-1.18-25.28-2.33-38.54-3.55
		c0.46-13.37,0.91-26.59,1.39-40.41c35.08,0.94,68.69,6.97,101.92,17.72c-4.23,13.05-8.36,25.81-12.48,38.55
		c-12.57-3.27-24.67-6.42-37.57-9.78c1.55-7.73,3.03-15.14,4.63-23.15c6.97,1.61,13.41,3.11,19.99,4.63
		c-0.54,2.21-0.94,3.9-1.52,6.3c-4.3-0.79-8.51-1.55-13.11-2.39c-0.76,3.19-1.45,6.06-2.24,9.36c8.49,2.24,16.77,4.42,25.55,6.74
		c2.62-8.61,5.17-17.01,7.87-25.9c-28.19-8.42-56.44-13.56-86.23-14.97c-0.47,9.09-0.92,17.8-1.4,26.89c8.85,0.85,17.26,1.66,26,2.5
		c0.52-3.19,0.99-6.09,1.58-9.75c-4.48-0.66-8.73-1.29-13.24-1.95c0.24-2.33,0.43-4.2,0.68-6.71c6.74,0.87,13.15,1.7,20.22,2.62
		C629.56,81.74,628.44,89.19,627.24,97.17z M377.3,680.37c-8.28,10.66-16.48,21.22-24.91,32.09
		c-27.47-21.79-51.52-46.16-71.63-74.37c0.58-0.67,0.87-1.14,1.28-1.45c10.32-7.52,20.65-15.02,31.12-22.63
		c8.13,9.95,16.17,19.79,24.58,30.08c-5.65,5.24-11.21,10.39-17.18,15.93c-4.5-5.06-8.83-9.92-13.61-15.29
		c1.6-1.43,3.1-2.76,5.05-4.5c3.03,3.35,5.83,6.45,9.03,10c2.5-2.24,4.94-4.41,7.38-6.6c-5.7-6.94-11.07-13.48-16.71-20.34
		c-7.23,5.48-14.25,10.79-21.55,16.32c17.9,23.46,37.82,44.29,60.81,62.91c5.74-7.05,11.31-13.9,17.07-20.98
		c-6.54-5.72-12.94-11.32-19.41-16.97c-2.2,2.21-4.4,4.41-6.94,6.96c2.91,2.79,5.96,5.7,9.34,8.95c-1.33,1.61-2.61,3.17-4.27,5.18
		c-5.11-4.72-9.99-9.23-15.02-13.88c5.9-5.5,11.59-10.8,17.34-16.16C357.79,663.24,367.33,671.61,377.3,680.37z M669.4,736.43
		c3.76,12.99,7.43,25.69,11.23,38.85c-33.48,9.95-67.36,14.19-102.14,14.68c0-13.82,0-27.09,0-40.84
		c12.61-0.67,25.11-1.34,38.31-2.05c0.93,7.63,1.86,15.28,2.86,23.45c-6.96,0.54-13.59,1.06-20.64,1.61
		c-0.2-2.41-0.33-4.11-0.52-6.46c4.52-0.55,8.82-1.07,13.34-1.62c-0.28-3.21-0.53-6.13-0.83-9.67c-8.76,0.52-17.18,1.02-25.9,1.54
		c0,8.8,0,17.4,0,25.87c11.13,3.32,73.52-5.39,86.57-11.69c-2.18-8.23-4.39-16.55-6.75-25.46c-8.63,1.92-16.96,3.77-25.64,5.7
		c0.63,3.38,1.2,6.42,1.81,9.68c4.64-0.78,8.72-1.46,13.34-2.23c0.39,2.34,0.7,4.17,1.04,6.22c-6.71,1.75-13.15,3.29-20.09,3.74
		c-1.33-8.05-2.55-15.47-3.76-22.85C644.43,742.03,656.79,739.26,669.4,736.43z M394.27,150.06c-7.6-11.19-15.07-22.19-22.82-33.59
		c29.03-19.49,59.56-34.89,93.11-45.5c4.23,13.03,8.3,25.59,12.46,38.43c-12,4.72-23.8,9.36-36.1,14.2
		c-3.18-6.85-6.43-13.85-9.93-21.4c6.38-2.74,12.51-5.38,18.92-8.13c0.84,2.04,1.62,3.96,2.57,6.27c-4.07,1.79-7.89,3.47-12.23,5.37
		c1.36,3.15,2.58,5.98,3.92,9.08c8.28-3.24,16.15-6.31,24.54-9.59c-2.94-8.5-5.81-16.77-8.85-25.53
		c-27.93,9.52-53.6,22.39-78.52,38.5c4.94,7.67,9.7,15.05,14.64,22.71c7.55-4.51,14.78-8.83,22.5-13.44
		c-1.46-2.83-2.88-5.57-4.54-8.78c-3.98,2.17-7.65,4.16-11.86,6.45c-1.09-1.84-2.11-3.57-3.45-5.83c5.94-3.3,11.58-6.44,18.01-10.02
		c3.74,7.18,7.29,13.98,10.9,20.9C416.28,136.9,405.41,143.4,394.27,150.06z M849.23,237.24c11.1-7.56,22.06-15.03,33.48-22.81
		c19.39,29.01,34.77,59.63,45.61,93.18c-13.02,4.23-25.58,8.31-38.52,12.51c-4.63-11.83-9.25-23.62-14.15-36.12
		c6.85-3.2,13.8-6.44,21.3-9.94c2.76,6.36,5.34,12.33,8.17,18.86c-2.26,0.95-4.13,1.74-6.26,2.64c-1.75-3.99-3.43-7.83-5.32-12.14
		c-3.14,1.27-6,2.44-9.2,3.73c3.32,8.38,6.48,16.35,9.76,24.63c8.54-2.97,16.68-5.8,24.76-8.61c-2.19-14.54-27.57-66.61-38.33-78.61
		c-7.28,4.77-14.62,9.58-22.14,14.5c4.62,7.7,8.97,14.95,13.54,22.58c2.93-1.65,5.65-3.17,8.62-4.84c-2.12-3.84-4.15-7.5-6.41-11.6
		c1.84-1.17,3.41-2.17,5.62-3.58c3.46,6.05,6.75,11.81,10.3,18.02c-7.28,3.77-14.13,7.32-21.04,10.9
		C862.37,259.35,855.87,248.42,849.23,237.24z M886.26,532.66c12.44,4.49,24.98,9.02,38.05,13.73
		c-11.98,32.94-27.69,63.25-48.41,91.65c-11.06-8.04-21.77-15.83-32.78-23.83c6.99-10.91,13.82-21.57,20.96-32.7
		c6.77,3.79,13.48,7.55,20.55,11.5c-3.64,6.09-6.99,11.69-10.56,17.65c-2.14-1.29-3.89-2.35-5.86-3.54
		c2.31-3.88,4.39-7.37,6.82-11.46c-2.8-1.71-5.53-3.38-8.49-5.18c-4.83,7.53-9.39,14.66-14.23,22.2
		c7.35,5.15,14.56,10.21,22.12,15.52c17.1-24.03,30.26-49.64,41.07-77.3c-8.4-3.27-16.58-6.46-25.18-9.81
		c-3.49,8.15-6.86,16.04-10.32,24.13c2.94,1.45,5.6,2.76,8.86,4.37c1.92-4.08,3.7-7.85,5.66-12.02c1.84,0.7,3.72,1.41,6.32,2.4
		c-2.87,6.32-5.6,12.34-8.59,18.93c-7.29-3.65-14.14-7.08-21.13-10.58C876.23,556.31,881.13,544.76,886.26,532.66z M689.33,112.95
		c4.49-12.48,9.01-25.05,13.72-38.13c32.95,11.71,63.19,27.86,91.58,48.49c-7.93,10.92-15.81,21.77-23.84,32.84
		c-10.93-7.03-21.6-13.89-32.7-21.02c3.85-6.87,7.48-13.34,11.48-20.47c6.04,3.56,11.74,6.92,17.73,10.44
		c-1.37,2.27-2.44,4.05-3.58,5.95c-3.88-2.31-7.48-4.45-11.53-6.86c-1.74,2.91-3.32,5.57-5.05,8.47c7.39,4.79,14.36,9.3,22.05,14.28
		c5.08-7.2,10.12-14.35,15.13-21.45c-8.52-9.51-53.57-33.9-76.72-41.52c-3.61,8.05-6.59,16.4-9.65,24.97
		c8.09,3.48,15.85,6.82,23.97,10.31c1.41-3.02,2.72-5.84,4.18-8.99c-3.98-1.88-7.63-3.61-11.77-5.56c0.7-1.96,1.37-3.85,2.27-6.39
		c6.45,2.98,12.34,5.69,18.88,8.71c-3.65,7.3-7.09,14.16-10.55,21.07C712.94,123.01,701.41,118.1,689.33,112.95z M270.03,310.08
		c-12.64-4.56-25.24-9.1-38.07-13.72c12.12-32.65,27.62-63.31,48.56-91.62c10.95,7.97,21.81,15.87,32.76,23.83
		c-6.98,10.88-13.88,21.64-20.98,32.7c-6.76-3.77-13.35-7.46-20.53-11.47c3.5-5.92,6.78-11.49,10.41-17.64
		c2.14,1.25,3.88,2.26,5.97,3.48c-2.28,3.85-4.4,7.46-6.79,11.49c2.74,1.69,5.38,3.33,8.38,5.18c4.83-7.47,9.51-14.71,14.35-22.21
		c-7.37-5.16-14.46-10.12-21.53-15.07c-9.88,8.97-35.17,56.47-41.37,77c8.1,3.12,16.26,6.25,24.8,9.54
		c3.53-8.13,6.88-15.83,10.41-23.95c-2.97-1.49-5.76-2.89-8.93-4.48c-1.91,4.08-3.69,7.88-5.67,12.12c-2.05-0.89-3.9-1.69-6.21-2.69
		c2.94-6.38,5.65-12.26,8.6-18.67c7.43,3.72,14.32,7.17,21.12,10.57C280.21,286.37,275.33,297.74,270.03,310.08z M836.86,622.5
		c10.52,8.19,20.98,16.34,32.01,24.93c-21.72,27.57-46.2,51.69-74.48,72.08c-7.98-10.98-15.77-21.71-23.78-32.74
		c10.05-8.28,19.85-16.36,29.97-24.7c5.21,5.61,10.44,11.26,16.02,17.27c-5.18,4.58-10.05,8.89-15.3,13.54
		c-1.57-1.73-2.95-3.24-4.58-5.04c3.31-2.98,6.45-5.79,9.99-8.98c-2.28-2.66-4.22-4.92-6.4-7.46c-6.79,5.56-13.33,10.92-20.43,16.74
		c5.37,7.14,10.72,14.26,16.25,21.63c23.49-17.96,44.26-37.93,62.88-60.92c-7.1-5.77-13.92-11.32-21-17.08
		c-5.85,6.73-11.51,13.25-17.38,19.99c2.46,2.18,4.68,4.15,7.5,6.65c3.08-3.29,5.94-6.36,9.02-9.65c1.72,1.5,3.15,2.75,5.07,4.42
		c-4.65,4.93-9.12,9.67-14.15,15.01c-5.59-5.53-11.05-10.94-16.69-16.51C819.97,641.84,828.33,632.27,836.86,622.5z M762.07,692.72
		c7.49,11.02,15.01,22.08,22.8,33.53c-29.05,19.74-59.8,34.92-93.05,45.69c-4.22-13.06-8.34-25.81-12.48-38.62
		c12.23-4.79,24.03-9.42,36.1-14.14c3.22,6.94,6.42,13.84,9.91,21.36c-6.17,2.68-12.21,5.3-18.84,8.17
		c-0.92-2.11-1.73-3.95-2.72-6.22c4.12-1.81,7.94-3.5,12.31-5.43c-1.29-3.05-2.5-5.89-3.86-9.11c-8.1,3.18-15.93,6.26-24.56,9.65
		c2.85,8.28,5.69,16.52,8.77,25.46c27.99-9.37,53.74-22.41,78.61-38.48c-4.96-7.64-9.74-14.99-14.71-22.63
		c-7.58,4.52-14.82,8.83-22.58,13.45c1.59,2.94,3.06,5.66,4.71,8.72c4.02-2.21,7.69-4.22,11.64-6.38c1.17,1.76,2.21,3.33,3.77,5.67
		c-6.02,3.36-11.79,6.59-18.07,10.1c-3.73-7.02-7.35-13.82-11.08-20.85C739.75,706.08,750.62,699.57,762.07,692.72z M529.15,745.55
		c12.98,1.21,25.3,2.35,38.53,3.59c-0.44,13.11-0.89,26.51-1.36,40.48c-34.86-1.11-68.66-6.88-101.98-17.82
		c4.18-12.86,8.26-25.41,12.5-38.45c12.42,3.2,24.63,6.35,37.53,9.67c-1.48,7.52-2.97,15.06-4.55,23.1
		c-6.82-1.5-13.14-2.89-19.96-4.39c0.5-2.27,0.93-4.25,1.46-6.68c4.28,0.94,8.35,1.83,13.01,2.85c0.75-3.05,1.49-6.04,2.36-9.58
		c-8.35-2.19-16.46-4.32-25.53-6.7c-2.67,8.68-5.2,16.9-7.94,25.79c28.2,8.75,56.67,13.43,86.33,15.25
		c0.42-9.16,0.82-17.79,1.25-27.15c-8.56-0.78-16.94-1.55-25.97-2.37c-0.48,3.17-0.96,6.34-1.48,9.76
		c4.59,0.68,8.58,1.27,12.98,1.92c-0.11,2.04-0.2,3.89-0.34,6.47c-6.85-0.77-13.26-1.48-20.38-2.28
		C526.86,760.72,528.01,753.13,529.15,745.55z M307.17,605.48c-10.99,7.49-22.06,15.05-33.43,22.8
		c-19.47-29.06-34.89-59.59-45.66-93.1c13-4.22,25.69-8.35,38.5-12.51c4.83,12.3,9.4,23.96,14.17,36.13
		c-6.79,3.15-13.61,6.32-20.93,9.71c-3.73-5.88-5.82-12.14-8.33-18.73c2.09-0.9,3.79-1.64,5.99-2.59c1.84,4.21,3.5,8.03,5.34,12.24
		c3.08-1.29,5.93-2.48,9.1-3.81c-3.16-8.14-6.21-15.99-9.55-24.6c-8.4,2.89-16.67,5.73-25.51,8.77
		c9.44,27.92,22.32,53.78,38.53,78.75c7.83-5.15,15.07-9.92,22.55-14.84c-4.48-7.51-8.81-14.77-13.4-22.48
		c-2.84,1.52-5.43,2.91-8.61,4.62c2.05,3.88,4,7.55,6.17,11.66c-1.78,1.18-3.47,2.31-5.6,3.73c-3.37-6.04-6.54-11.74-10.09-18.1
		c7.07-3.7,13.88-7.27,20.88-10.94C293.9,583.25,300.41,594.15,307.17,605.48z M319.46,220.24c-10.53-8.21-20.98-16.34-31.37-24.44
		c7.57-14.8,56.06-61.95,74.19-72.1c7.86,10.8,15.76,21.65,23.55,32.35c-9.81,8.04-19.53,16-29.74,24.36
		c-5.78-4.77-10.47-10.97-16.29-17.01c5.21-4.56,10.19-8.92,15.57-13.62c1.62,2.05,2.89,3.66,4.19,5.31
		c-3.4,3.04-6.56,5.86-9.8,8.76c0.53,0.77,0.87,1.4,1.34,1.91c1.55,1.7,3.15,3.37,5.14,5.48c6.71-5.51,13.34-10.97,20.26-16.65
		c-5.54-7.32-10.83-14.33-16.1-21.31c-16.81,10.83-52.27,45.2-62.78,60.84c6.81,5.53,13.65,11.09,20.69,16.81
		c5.9-6.67,11.51-13.01,17.3-19.54c-2.36-2.16-4.67-4.28-7.35-6.75c-2.85,3.01-5.74,6.06-8.87,9.38c-1.49-1.24-3.07-2.54-5.17-4.27
		c4.75-5.12,9.25-9.99,14.31-15.46c5.48,6.15,10.53,11.81,15.79,17.7C336.45,200.93,328.05,210.47,319.46,220.24z M487,106.41
		c-3.68-12.72-7.39-25.58-11.25-38.91c33.42-9.86,67.28-14.42,102.17-14.47c0,13.67,0,26.78,0,40.36
		c-12.51,0.78-25.14,1.57-38.34,2.39c-0.93-7.65-1.84-15.14-2.84-23.36c6.71-0.65,13.16-1.27,20.24-1.95
		c0.36,2.25,0.71,4.4,1.11,6.86c-4.76,0.41-9.08,0.78-13.74,1.18c0.39,3.54,0.71,6.48,1.08,9.89c8.6-0.45,17.02-0.9,25.8-1.36
		c0-8.95,0-17.71,0-27.22c-29.48,0.8-57.96,4.35-86.69,12.25c2.33,8.76,4.6,17.32,6.95,26.13c8.7-1.97,16.92-3.83,25.5-5.78
		c-0.53-3.16-1.01-6.06-1.6-9.62c-4.5,0.75-8.6,1.44-13.37,2.24c-0.35-1.96-0.71-3.92-1.17-6.5c6.62-1.34,12.94-2.61,19.97-4.03
		c1.33,7.77,2.61,15.19,3.99,23.26C512.37,100.62,499.91,103.46,487,106.41z M875.86,204.97c-10.86,7.92-21.57,15.73-32.59,23.77
		c-8.22-9.99-16.29-19.8-24.7-30.01c5.57-5.18,11.35-10.55,17.29-16.07c4.46,5.13,8.85,10.19,13.43,15.46
		c-1.76,1.6-3.31,3.02-5,4.56c-2.91-3.28-5.71-6.45-8.86-9.99c-2.6,2.15-4.98,4.13-7.61,6.3c5.68,6.91,11.08,13.46,16.85,20.48
		c7.15-5.42,14.16-10.72,21.13-16.01c-7.43-13.51-45.54-53.06-60.7-62.87c-5.48,6.74-11.01,13.54-16.79,20.65
		c6.69,5.87,13.14,11.53,19.79,17.37c2.24-2.43,4.26-4.63,6.73-7.32c-3.15-2.95-6.18-5.79-9.68-9.07c1.32-1.49,2.66-2.99,4.45-5.01
		c5.16,4.73,10.07,9.24,14.97,13.72c-5.73,5.72-11.12,11.1-16.76,16.73c-9.44-8.3-18.99-16.69-28.75-25.27
		c8.1-10.43,16.35-21.05,24.89-32.03C831.26,152,855.25,176.25,875.86,204.97z M263.62,512.64c-12.93,3.77-25.75,7.51-38.96,11.36
		c-9.68-33.36-14.43-67.21-14.43-102.19c13.68,0,26.87,0,40.35,0c0.79,12.61,1.57,24.97,2.4,38.18c-7.64,0.93-15.24,1.85-23.47,2.85
		c-0.58-7.05-1.12-13.55-1.69-20.44c2.27,0,4.3,0,6.55,0c0.47,3.97,0.95,7.98,1.44,12.08c3.23,0,6.15,0,9.77,0
		c-0.48-8.83-0.94-17.24-1.42-26.08c-8.8,0-17.54,0-26.96,0c0.46,29.34,4.26,57.8,12.04,86.67c8.67-2.27,17.1-4.47,26.12-6.82
		c-1.96-8.71-3.85-17.07-5.8-25.73c-3.28,0.6-6.17,1.13-9.65,1.76c0.75,4.29,1.45,8.23,2.28,12.96c-1.74,0.51-3.62,1.05-6.3,1.83
		c-1.45-7-2.8-13.49-4.22-20.33c7.66-1.26,15.1-2.49,23.1-3.81C257.71,487.46,260.59,499.73,263.62,512.64z M509.75,191.99
		c6.64,0.34,12.83,1.18,18.95,0.85c10.74-0.57,20.15-4.81,28.71-11.41c7.55-5.82,14.85-12.55,25.7-11.67
		c5.65-9.38,13.21-16.57,23.63-19.82c14.55-4.55,24.53-0.25,30.73,9.16c4.5,6.82,4.05,14.69-1.08,20.39
		c-4.57,5.09-12.35,6.72-17.77,3.74c-6.64-3.65-9.04-9.6-6.92-17.19c0.29-1.05,0.73-2.06,1.36-3.81c-5.16,0.23-8.29,3.01-9.73,6.99
		c-1.92,5.33-1.13,10.66,2.85,15.11c7.91,8.84,30.33,9.14,38.29,0.31c3.5-3.88,5.79-8.35,3.49-13.98c-0.69-1.68-0.42-3.76-0.58-5.58
		c9.8-2.44,13.72,1.24,15.69,14.19c16.23,2.39,20.58,8.24,16.38,22.75c1.81,1.33,3.91,2.64,5.73,4.26c3.1,2.77,5.3,6.16,3.96,10.5
		c-1.16,3.76-4.29,4.8-8.03,5c-1.86,0.1-3.86,0.9-5.45,1.94c-6.65,4.32-13.71,4.71-21.45,2.8c3.09-7.06,2.87-13.89-1.82-19.81
		c-4.15-5.24-10.05-6.76-18.22-5.66c2.52,1.78,4.05,2.6,5.27,3.76c6.47,6.18,5.42,17.75-2.49,21.91c-2.87,1.51-7.17,1.7-10.37,0.84
		c-3.83-1.02-5.36-4.76-4.8-8.93c0.14-1.06,0.23-2.12,0.39-3.7c-7.13,1.32-7.72,6.3-7.6,12.13c-6.55-0.88-12.93-0.46-17.84-4.61
		c-6.47-5.47-13.23-5.34-20.7-2.94c-4.22,1.36-8.67,2.04-14.27,3.31c12.51-13.05,15.19-14.1,33.45-13.54
		c-1.68-2.53-3.2-4.76-4.66-7.02c-6.26-9.7-11.83-11.48-23.05-8.31c-8.65,2.44-17.42,5.1-26.29,5.95
		C530.21,200.96,519.42,198.83,509.75,191.99z M772.52,329.22c-1.6-2.44-2.12-5.2-0.45-8.04c0.62-1.06,0.54-2.56,1.18-3.6
		c0.98-1.57,2.04-3.4,3.55-4.25c3.16-1.77,6.62-3,9.96-4.43c-0.02-0.04-0.04-0.09-0.07-0.13c0.08,0.02,0.15,0.05,0.24,0.06
		l-0.14,0.14c2.41,2.66-1.56,2.9-1.69,5.02c1.02,0.24,2.23,0.53,3.94,0.93c-1.17,1.52-2.17,2.83-3.58,4.67
		c1.98-0.13,3.53-0.23,5.47-0.35c-0.12,1.44-0.23,2.72-0.35,4.1c1.7-1.34,3.31-2.6,5.27-4.14c0.91,4.68-2.21,7.03-4.2,9.72
		c-2.24,3.04-5.16,4.9-9.22,2.83c-0.63-0.32-1.69,0.09-2.51,0.31C776.77,332.9,774.2,331.76,772.52,329.22z M818.66,330.62
		c-0.91,2.84-1.6,4.95-2.27,7.07c-1.77,5.58-7.9,7.19-12.3,3.33c-1.68-1.47-3.62-2.64-6.26-4.53c-1.94-4.96-2.34-10.23,0.96-16.56
		c0.95,3.18,1.54,5.16,2.31,7.76c0.5-1.57,0.82-2.58,1.3-4.09c1.58,1.36,2.86,2.46,4.47,3.84c0.19-1.85,0.36-3.58,0.59-5.83
		c1.43,0.83,2.45,1.42,3.69,2.14c0-1.67,0-3.21,0-5.67C815.88,321.88,817.61,326.44,818.66,330.62z M784.16,303.58
		c0.85,1.73,1.7,3.46,2.55,5.18c-5.24-1.23-9.34-4.21-12.38-7.66c-0.53-2.91-0.85-5.11-1.34-7.27c-1.36-5.88,4.45-11.21,9.48-8.84
		c1.92,0.9,4.41,0.59,7.45,0.92c3.43,3.49,7.32,7.44,6.47,14.81c-1.92-2.11-3.27-3.6-4.86-5.34c0.13,1.45,0.23,2.58,0.4,4.49
		c-2.4-0.82-4.24-1.46-6.57-2.26c1.17,2.07,2.1,3.71,3.23,5.69C786.87,303.41,785.52,303.49,784.16,303.58z M805.81,279.61
		c4.44-3.7,10.73-1.47,11.91,4.17c0.41,1.97,1.08,3.88,2.63,6.08c-2.01,4.05-4.02,8.11-6.02,12.16c1.96-0.83,3.86-1.8,5.88-2.44
		c3.72-1.18,7.58-2.78,10.16,2.1c0.31,0.58,1.54,0.68,2.36,0.97c2.76,0.99,4.54,2.91,4.76,5.83c0.22,2.99-0.85,5.53-3.47,7.33
		c-1.22,0.84-2.17,2.07-3.37,2.94c-0.97,0.71-2.1,1.51-3.22,1.63c-4.4,0.47-8.62-0.28-13.57-2.92c2.64-0.64,4.25-1.03,6.28-1.53
		c-1.28-0.95-2.34-1.72-4.08-3c2.19-0.93,3.85-1.64,5.96-2.54c-1.82-0.76-3.36-1.4-5.33-2.23c0.67-1.09,1.29-2.12,2.14-3.51
		c-2.11,0.34-3.96,0.63-6.32,1.01c0.42-1.29,0.73-2.2,1.03-3.12c-0.52-0.07-1.04-0.14-1.94-0.25c0.25-1.69,0.48-3.34,0.84-5.75
		c-1.53,1.1-2.54,1.82-4.11,2.94c-0.13-2.34-0.24-4.15-0.36-6.3c-1.56,1.44-2.92,2.69-4.44,4.09c-0.49-1.33-0.84-2.3-1.48-4.03
		c-0.84,2.37-1.45,4.1-2.35,6.66c-0.92-1.57-2.03-2.61-2.11-3.73c-0.19-2.82-0.23-5.72,0.25-8.48c0.45-2.55,1.22-5.17,4.75-5.55
		C803.73,282.02,804.74,280.5,805.81,279.61z M797.06,314.96c-0.9-2.96-1.83-6.06-2.87-9.47c3.89-0.72,6.91-1.27,10.02-1.84
		c1.95,2.44,3.52,4.4,5.33,6.67c-1.56,2-3.12,4-4.69,6.02C802.2,315.86,799.82,315.44,797.06,314.96z M852.13,374.87
		c4.29-0.3,7.7,2.83,7.81,7.19c-1.2,1.34-2.22,2.97-3.68,3.95c-1.3,0.88-3.06,1.32-4.65,1.45c-1.48,0.12-3.01-0.4-4.52-0.66
		c-0.19-0.49-0.37-0.99-0.53-1.41c1.26-1.41,2.48-2.78,3.83-4.29c-0.64-0.15-1.48-0.35-2.61-0.62c0.21-0.63,0.41-1.23,0.66-1.95
		c-0.8-0.19-1.59-0.38-2.37-0.57C845.98,376.86,849.59,375.04,852.13,374.87z M847.08,386.89c0.89,0.85,1.82,1.66,2.66,2.56
		c1.62,1.75,2.81,3.53,1.37,6.11c-0.58,1.04-0.41,2.49-0.57,3.68c-3,2.57-3,2.57-10.23-0.64c-0.57-2.16-1.2-4.59-1.85-7.05
		c-2.12,2.33-3.77,4.14-5.28,5.81c-1.81,0-3.21,0.02-4.6,0c-3.81-0.07-5.47-2.31-4.37-5.87c0.41-1.32,0.75-2.66,1.21-4.3
		c2.16-2.05,4.85-3.35,8.72-2.78c-0.68,0.82-1.14,1.38-1.33,1.6c0,1.49,0,2.75,0,4.17c0.47-0.12,1.11-0.29,2.18-0.58
		c0.18,0.73,0.32,1.26,0.47,1.86c0.7,0,1.43,0,2.99,0c-0.05-0.19-0.1-0.37-0.15-0.56c0.39-0.26,0.78-0.52,1.17-0.78
		c0.38,0.73,0.77,1.46,1.19,2.27c0.48-0.69,0.86-1.24,1.38-1.97c0.73,0.65,1.41,1.27,2.16,1.94c0.52-1.45,0.93-2.85,1.54-4.16
		C845.97,387.67,846.61,387.32,847.08,386.89z M846.97,386.78c0.04,0.01,0.07,0.02,0.11,0.02c0.01,0.02,0.02,0.05,0.03,0.07
		c-0.01,0.01-0.01,0.01-0.02,0.02C847.04,386.85,847,386.81,846.97,386.78z M831.5,370.43c1.71,1.38,3.54,2.86,5.37,4.35
		c-1.06,0.92-2.11,1.85-3.43,3c-0.16-0.04-0.82-0.21-1.79-0.46c0.69,2.12,1.27,3.93,2.1,6.47c-2.8-0.43-5.36-0.82-7.99-1.22
		c-1.18-2.5-2.25-4.77-3.36-7.12C823.1,369.83,827.63,371.09,831.5,370.43z M836.89,374.76c0.02,0.01,0.05,0.03,0.07,0.04
		c0,0.02,0.01,0.04,0.01,0.06c-0.04-0.03-0.07-0.06-0.1-0.08C836.87,374.77,836.88,374.77,836.89,374.76L836.89,374.76
		L836.89,374.76L836.89,374.76L836.89,374.76z M835.7,367.4c1.89-2.03,3.31-3.56,4.7-5.06c5.34-2.15,5.81,2.94,8.47,5.54
		c-0.71,2.48-1.43,5.01-2.16,7.54c-0.27-0.02-0.54-0.04-0.82-0.05c-0.2-0.71-0.41-1.42-0.64-2.24c-0.54,0.26-1.08,0.51-1.92,0.91
		c-0.27-0.89-0.5-1.65-0.83-2.71c-0.76,0.86-1.43,1.61-2.15,2.41c-0.53-0.44-0.94-0.79-1.46-1.23c-0.14,1.02-0.27,1.96-0.43,3.17
		c-0.61-0.35-1.06-0.61-1.5-0.86C836.52,372.2,836.07,369.59,835.7,367.4z M842.93,385.69c-1.91,0.21-3.65,0.4-5.74,0.64
		c-0.11-2.12-0.21-3.88-0.3-5.69c1.37-0.88,2.63-1.69,4.36-2.81c0.88,1.06,1.74,2.1,2.73,3.29
		C843.65,382.59,843.31,384.08,842.93,385.69z M327.01,454.99c-0.01,0-0.02,0-0.04,0c-0.01-0.07-0.03-0.15-0.04-0.22
		c0.04,0.04,0.07,0.08,0.11,0.12C327.03,454.92,327.02,454.95,327.01,454.99z M327.04,454.89c0.2-0.71,0.4-1.42,0.57-2.02
		c2.58-0.54,5.08-1.07,7.86-1.65c-0.59-0.7-1.37-1.61-2.42-2.86c0.75-0.53,1.48-1.04,2.35-1.65c-0.74-0.88-1.47-1.75-2.19-2.6
		c0.83-1.28,6.39-0.34,9.38,1.56c5.07,3.21,6.31,9.55,2.82,14.53c-2.45,0.51-4.95,1.49-7.4,1.39c-2.19-0.09-4.53-1.04-6.43-2.22
		C329.81,458.27,328.52,456.43,327.04,454.89z M320.63,471.72c-5.49,0.41-5.49,0.41-10.96-9.19c1.15-2.89,2.45-6.15,3.76-9.44
		c-4.31,0.87-7.66,1.54-10.74,2.16c-2.03-1.5-3.62-2.63-5.17-3.81c-4.23-3.23-4.23-7.11-0.05-10.2c1.55-1.15,3.04-2.36,4.92-3.83
		c4.12-0.52,8.21,0.25,12.09,4.09c-1.45,0.36-2.42,0.6-2.82,0.7c-1.24,1.68-2.27,3.09-3.45,4.69c0.63,0.25,1.49,0.59,2.92,1.16
		c-0.4,0.97-0.69,1.68-1.02,2.48c0.78,0.58,1.6,1.18,3.36,2.47c0.1-0.25,0.2-0.5,0.3-0.74c0.65,0.03,1.3,0.06,1.95,0.09
		c-0.17,1.14-0.35,2.28-0.54,3.53c1.12-0.38,2-0.68,3.18-1.08c0.27,1.34,0.53,2.59,0.81,3.97c1.78-1.2,3.41-2.43,5.17-3.4
		c0.72-0.4,1.74-0.27,2.62-0.36c0.3,1.69,0.68,3.37,0.87,5.07c0.37,3.31,0.24,6.29-3.52,8
		C322.82,468.75,321.81,470.51,320.63,471.72z M314.56,440.47c-2.79-2.8-5.34-5.35-7.97-7.98c0.74-3.78,1.42-7.23,2.12-10.78
		c5.44-5.72,9.48-0.57,14.38,1.9c0.77,2.96,1.6,6.14,2.43,9.33c-1.95,0.16-3.9,0.33-6.34,0.53c-0.15-0.18-0.74-0.91-1.62-2
		C316.57,434.43,315.73,436.94,314.56,440.47z M326.58,435.25c-0.4-0.9-0.69-1.56-0.98-2.21c1.66-3.29,3.31-6.59,4.71-9.36
		c3.81-0.72,6.66-1.26,9.47-1.79c7.77,2,4.09,8.11,4.93,13.22c-2.85,2.2-5.76,4.44-8.66,6.68c-0.29-0.25-0.58-0.49-0.87-0.74
		c0.36-0.96,0.71-1.93,1.13-3.05c-0.82-0.16-1.63-0.32-2.91-0.56c0.43-1.22,0.8-2.26,1.32-3.73c-1.57,0.33-2.94,0.62-4.41,0.93
		c-0.22-0.93-0.4-1.66-0.62-2.59C328.69,433.08,327.77,434.03,326.58,435.25z M325.56,433.12c-0.02-0.06-0.03-0.12-0.05-0.18
		c0.01,0,0.03,0,0.04,0l0,0l0,0h0v0c0.02,0.03,0.03,0.07,0.05,0.11C325.59,433.07,325.58,433.1,325.56,433.12z M320.69,439.55
		c2.26,0.14,4.35,0.27,7.22,0.45c0.11,1.92,0.22,3.8,0.35,5.95c-1.6,1.37-3.21,2.76-4.96,4.27c-2.32-1.34-4.43-2.56-6.97-4.03
		C317.96,443.71,319.31,441.66,320.69,439.55z M890.61,426.73c1.46-83.95-30.19-163.38-89.13-223.66
		c-58.78-60.12-137.64-93.46-222.06-93.89h-0.02c-83.18,0.19-161.35,32.56-220.12,91.15c-58.72,58.54-91.28,136.45-91.68,219.38
		c-0.4,82.66,31.23,160.71,89.05,219.77c19.87,20.3,42.04,37.54,65.93,51.49c-0.13,0.09-0.26,0.19-0.39,0.28
		c4.25,2.32,8.57,4.51,12.91,6.63c42.41,22.19,89.68,34.34,138.8,35.12c1.7,0.03,3.38,0.04,5.07,0.04
		C748.33,733.06,887.65,596.68,890.61,426.73z M443.99,689.92c11.98-12.66,35.22-18.47,54.52-11.71
		c17.93,6.28,33.25,24.15,34.72,39.99c-2.98-0.45-5.86-0.89-9.26-1.4c-5.22-14.59-14.98-25.17-30.08-29.88
		c-14.78-4.62-28.38-1.58-40.78,7.47C450.04,692.94,447,691.46,443.99,689.92z M742.04,674.38c-30.77-21.65-69.96-3.61-73.46,33.78
		c-2.51,0.66-4.78,1.26-8.07,2.12c-0.15-3.76-0.86-7.05-0.32-10.12c6.97-39.91,54.23-58.28,86.49-33.71
		c0.92,0.7,1.74,1.57,3.02,2.77C747.17,670.97,744.62,672.7,742.04,674.38z M723.29,685.61c-1.47-0.3-2.92-0.63-4.39-0.87
		c-11.13-1.86-20.33,1.79-26.29,11.15c-3.12,4.91-6.95,7.1-12.97,8.32c1.78-11.17,7.51-19.25,16.77-24.48
		c11.54-6.52,23.36-6.39,35.92,0.62l-2.11,1.31C727.93,683.01,725.62,684.33,723.29,685.61z M595.86,699.54
		c-13.05,1.03-20.24,9.37-23.45,21.87c-2.88-0.08-5.58-0.16-8.25-0.24c-0.62-12.29,11.7-29.15,30.82-30.98
		c19.29-1.85,34.92,13.11,36.67,26.65c-2.65,0.44-5.33,0.89-8.29,1.39C618.4,705.67,609.53,698.46,595.86,699.54z M612.37,719.76
		c-9.69,0.63-19.15,1.25-28.77,1.88c1.57-7.52,6.36-11.7,13.46-12.19C603.89,708.98,609.81,712.72,612.37,719.76z M660.86,671.91
		c-2.84,5.52-5.68,11.05-8.62,16.76c-4.23-4.61-8.4-9.15-12.81-13.95C645.99,667.2,654.24,666.22,660.86,671.91z M630.74,669.02
		c-2.67-1.31-5.1-2.51-7.54-3.7c8.68-18.32,38.43-21.73,51.3-6.99c-2.02,1.75-4.05,3.5-6.28,5.44c-6.05-4.12-12.59-6.22-19.85-5.31
		C641.06,659.37,635.37,663.13,630.74,669.02z M684.32,652.33c-10.79-9.79-23.42-15.03-38.27-12.99
		c-14.59,2.01-25.58,9.76-33.52,22.41c-2.93-0.44-5.8-0.86-8.67-1.29c0.7-8.69,16.79-25.17,34.42-29.54
		c23.66-5.87,46.17,5.41,54.41,17.6C690.02,649.73,687.41,650.92,684.32,652.33z M639.18,689.33c3.39,3.79,5.86,8.44,8.47,12.86
		c1.95,3.3,1.86,7.01,1.17,11.1c-2.1,0.5-4.18,0.99-6.58,1.56c-3.94-13.06-11.16-23.18-23.01-29.54
		c-8.03-4.31-16.61-5.94-25.69-5.02c-16.4,1.66-35.76,13.31-40.46,40.14c-2.84-0.24-5.39-0.45-8.62-0.72
		c0.15-2.37-0.04-4.55,0.46-6.54c5.38-21.29,18.42-35.65,39.79-40.96C605.97,666.92,624.49,672.88,639.18,689.33z M545.05,687.7
		c-2.08,3.65-4.22,7.41-6.57,11.55c-4.8-6.1-9.19-11.68-13.59-17.26C530.84,676.48,540.61,679.12,545.05,687.7z M514.86,675.03
		c-2.51-1.42-4.89-2.76-7.28-4.12c10.34-15.58,39.83-14.31,51.12,2.59c-2.16,1.87-4.08,3.54-6.27,5.44
		c-5.25-5.22-10.92-9.09-18.31-9.71C526.96,668.62,520.75,671.09,514.86,675.03z M572.07,665.79c-1.34,0.58-2.74,1.04-4.06,1.54
		c-19.99-23.59-52.92-22.8-72.1-0.45c-3.15-0.56-6.04-1.08-9.8-1.75c10.66-15.89,25.11-24.02,43.47-24.76
		c19.45-0.79,34.78,7.37,46.91,23.23C574.58,664.55,573.36,665.23,572.07,665.79z M464.72,699.56c13.02-9.36,38.22-3.88,46.7,14.6
		c-6.38-1.37-12-1.96-16.8-5.64c-4.4-3.38-9.65-4.65-15.16-4.26c-1.06,0.08-2.08,0.01-3.08-0.11
		C472.47,702.69,468.57,701.17,464.72,699.56z M278.11,420.95c0.21-80.76,31.86-156.56,89.12-213.42
		c56.93-56.54,132.13-87.63,211.89-87.63c0.43,0,0.87,0,1.3,0c165.05,0.7,299.46,135.78,299.62,301.11
		c0.02,17.3-1.43,34.36-4.26,51.07c-2.49-4.65-1.21-10.37-1.05-16.45c0.07-2.71,0.05-5.71-1.75-7.73c-2.37-2.67-6.53-2.38-9.94-3.45
		c-1.06-0.33-2.09-0.83-2.87-1.63c-1.53-1.58-1.76-4.09-1.14-6.2c0.63-2.11,1.97-3.93,3.29-5.7c-0.36-2.25-0.99-3.37-2.47-5.11
		c-1.48-1.74-2.89-3.87-2.53-6.13c0.31-2,1.99-3.9,1.32-5.81c-0.41-1.18-1.6-1.88-2.31-2.92c-1.74-2.55-0.07-5.95,1.58-8.55
		c-1.56,0.3-2.75,1.52-3.8,2.71c-1.05,1.19-2.14,2.47-3.65,2.95c-1.51,0.48-3.53-0.28-3.74-1.85c-1.54-1.13-2.28-0.72-4.18-0.56
		c0.99,3.21,3.07,5.98,4.31,9.1c1.9,4.8,1.69,10.39-0.57,15.02c-0.63,1.28-1.43,2.6-1.31,4.02c0.27,3.3,4.79,4.29,6.58,7.09
		c-1.72,2.28-3.5,4.73-3.85,7.56c-0.35,2.83,1.32,6.13,4.15,6.5c0.7,0.09,1.42,0,2.09,0.22c0.67,0.22,1.27,0.9,1.06,1.57
		c-0.15,0.47-0.63,0.73-1.07,0.95c-3.05,1.52-6.16,3.06-9.54,3.53c-3.37,0.47-7.11-0.29-9.41-2.8c-2.28-2.48-3.15-6.51-6.31-7.67
		c-2.56-0.94-5.4,0.57-7.28,2.55c-1.87,1.98-3.21,4.45-5.26,6.24c3.41-0.91,7.23-0.07,9.95,2.18c1.45,1.21,5.18,3.25,5.99,4.73
		c0.67,1.23,1,2.72,2.09,3.6c1.69,1.37,4.19,0.57,6.2-0.28c2.63-1.12,5.27-2.25,7.9-3.37c3.72-1.59,6.52,1.54,8.85,4.85
		s2.6,7.64,2.24,11.66c-0.35,4.03-1.24,8.05-0.89,12.08c0.46,5.32,3.01,10.18,4.93,15.16c0.66,1.72,1.24,3.53,1.64,5.35
		c-14.88,45.21-40.53,86.55-75.7,120.94c-9.8,9.58-20.13,18.4-30.9,26.46c-15.37-13.59-33.46-19.6-54.16-17.1
		c-15.83-19.61-35.94-29.22-60.94-25.89c-24.77,3.31-41.63,17.59-51.81,40.44c-1.33,0.24-2.71,0.5-4.4,0.8
		c-13.88-20.54-32.94-31.75-57.89-30.82c-24.74,0.92-42.8,13.28-54.54,33.78c-8.18,2.81-16,4.65-22.98,8.15
		c-6.34,3.18-11.96,7.82-18.03,12.12C341.38,632.53,278.33,533.25,278.11,420.95z M819.4,346.6c1.83-0.96,2.72-3.4,1.94-5.32
		c-0.5-1.22-1.59-2.3-1.49-3.61c0.1-1.22,1.19-2.08,2.07-2.94c1.9-1.87,3.06-4.46,3.25-7.12c-0.08,3.35,0.54,6.71,1.88,9.77
		c1.99,4.54,1.67,8.53,2.04,13.35c0.99-0.61,2.31-0.9,3.43-0.43c1.15,0.49,2.54,0.93,2.56,2.18c-1.62,2.55-3.07,6.53-5.2,8.63
		C824.03,366.88,820.39,349.54,819.4,346.6z M825.19,326.38c0.02,0.41,0.01,0.82-0.02,1.23
		C825.18,327.2,825.16,326.79,825.19,326.38z M795.11,275.54c0,2.34-0.06,4.68-0.05,7.02c0.13-2.18,0.26-4.35,0.39-6.53l0.42,6.81
		c-3.36,0.75-6.21-1.94-6.91-5.3c-1.64,1.09-3.95,0.44-5.43-0.86s-2.39-3.11-3.46-4.77c-1.08-1.65-0.25-5.31-2.22-5.34
		c-3.68-0.07-7.36-0.13-11.04-0.2c5.27-0.92,8.69-5.91,11.5-10.47C779.96,264.77,786.6,272.53,795.11,275.54z"/>
</g>
<g id="Dragon">
	<path class="st0" d="M418.03,545.49c-1.79-3.49-4.66-6.54-7.47-9.37c-4.26-4.28-8.33-4.33-13.23-0.72
		c-0.58,0.43-1.09,0.96-1.7,1.33c-2.18,1.32-4.41,0.66-5.57-1.58c-1.04-2.01-2.22-3.96-3.12-6.03c-2.11-4.84-2.86-9.74-0.44-14.55
		c5.38,1.15,10.4,2.19,15.4,3.33c1.46,0.33,3.02,0.71,4.25,1.51c11.04,7.17,23.06,12.14,35.99,14.03
		c18.89,2.75,37.75,2.51,56.07-3.97c2.48-0.88,4.87-1.97,7.31-2.96c-1.65,2.09-3.65,3.59-5.62,5.1c-2.14,1.63-2.18,3.55-0.72,5.66
		c0.9,1.3,1.77,2.62,3.07,4.55c-1.91-0.32-3.01-0.51-4.1-0.69c-9.11-1.54-18.2-3.25-27.35-4.49c-1.8-0.24-4.28,0.84-5.68,2.14
		c-3.55,3.27-6.72,6.96-9.89,10.61c-0.61,0.7-0.58,1.99-0.75,3.03c-0.17,1.08-0.01,2.26-0.37,3.25c-1.34,3.64-3.1,7.14-4.17,10.85
		c-0.46,1.59,0.4,3.56,0.65,5.36c0.48,0.09,0.97,0.18,1.45,0.27c1.72-3.22,4.02-6.27,5.02-9.7c1.23-4.21,2.17-8.24,6.68-10.23
		c-3.24,2.77-4.71,6.25-4.8,10.47c-0.03,1.68-0.54,3.37-1.03,5c-1.42,4.8-2.5,9.6-0.54,14.5c0.63,1.58,1.99,2.75,3.03,0.71
		c1.84-3.61,3.47-7.4,4.55-11.29c1.04-3.72,3.16-7.77,4.85-8.41c-0.97,2.32-2.64,5.04-3.18,7.97c-0.52,2.85,0.24,5.91,0.21,8.87
		c-0.07,5.79,2.73,10.42,8.05,12.71c0.72,0.31,1.69,0.04,2.63,0.04c-1.79-5.06-2.34-9.4,1.4-13.38c1.68-1.79,3.29-3.77,4.37-5.94
		c1.94-3.88,4.98-5.19,9.05-4.94c1.13,0.07,2.26-0.04,3.4-0.11c8.24-0.5,16.34-1.37,21.46-8.97c6.37,2.53,6.39,2.55,10.88-2.44
		c2.04-2.27,3.97-4.64,6.12-7.16c1.28,1.4,2.3,2.88,3.66,3.91c1.45,1.1,3.27,2.55,4.83,2.44c2.62-0.19,3.86,1.03,4.89,2.85
		c1.6,2.84,3.03,5.77,4.65,8.9c0.63-0.51,1.34-0.82,1.66-1.37c3.47-5.87,2.53-17.13-2.11-22.08c-3.8-4.05-7.95-7.77-11.97-11.6
		c-2.39-2.28-5.05-2.68-7.83-0.71c-2.76,1.96-5.46,4.01-8.21,5.99c-3.22,2.32-5.3,1.48-6.01-2.3c-0.65-3.44-1.32-6.88-2.21-10.26
		c-0.43-1.63-0.11-2.39,1.42-3.09c13.63-6.22,24.86-15.69,35.01-26.48c8.4-8.92,16.34-18.27,24.68-27.23
		c6.37-6.85,12.8-13.7,19.73-19.96c3.07-2.78,7.24-5.1,11.27-5.94c13.62-2.85,30.44,5.3,35.51,19
		c4.66,12.62,11.75,23.75,21.58,33.05c0.48,0.45,0.86,1.01,1.29,1.52c-0.18,0.19-0.36,0.38-0.53,0.57
		c-3.6-3.13-7.22-6.24-10.79-9.41c-2.59-2.3-4.24-2.29-6.61,0.15c-3.49,3.59-4.78,7.85-3.83,12.75c1.5,7.73,5.22,14.47,9.51,20.94
		c1.14,1.72,2.19,3.5,3.53,5.66c-5.62-1.42-10.56-2.88-15.59-3.88c-7.96-1.59-15.73-5.92-24.17-1.55c-2.89,1.5-6.28,2.01-9.23,3.42
		c-1.35,0.64-2.2,2.35-3.27,3.58c1.5,0.28,2.98,0.66,4.49,0.8c2.67,0.25,5.89-1.26,7.14,2.51c3.16-0.36,6.12-0.9,9.08-0.98
		c2.85-0.08,5.71,0.32,8.56,0.51c-5.82,0.42-11.68,0.15-16.63,3.85c-1.24,0.93-2.45,2.46-2.77,3.91c-0.38,1.73-1.08,2.44-2.66,2.8
		c-3.8,0.89-6.11,3.19-6.56,7.2c-0.28,2.55-0.71,5.09-0.98,7.65c-0.06,0.6,0.29,1.25,0.66,2.69c1.82-2,2.96-3.81,4.58-4.9
		c2.4-1.61,5.13-3.66,7.75-3.7c1.66-0.02,3.39,0.07,5.03-0.37c3.58-0.96,7.12-2.05,10.68-3.09c-4.66,2.55-9.4,4.75-13.98,7.24
		c-0.89,0.48-1.65,2.11-1.61,3.17c0.07,1.78-0.6,2.68-1.81,3.86c-1.86,1.81-4.35,4-4.57,6.22c-0.34,3.38,1.04,6.92,1.69,10.4
		c0.29,0.07,0.57,0.15,0.86,0.22c0.8-0.97,1.57-1.96,2.41-2.89c2.28-2.51,3.14-7.45,8.38-4.98c0.07,0.03,0.21-0.02,0.3-0.06
		c4.5-2.13,9.98-2.99,12.89-7.37c3.14-4.73,7.68-6.47,12.59-6.47c6.2,0.01,12.43,1.05,18.57,2.1c2.63,0.45,4.52,0.36,6.3-1.76
		c0.62-0.74,1.95-0.9,2.95-1.31c0.84-0.34,1.76-0.55,2.5-1.03c2.16-1.4,4.23-2.94,6.38-4.35c2.81-1.85,4.64-1.16,6.61,1.62
		c1.26,1.77,2.97,3.68,4.9,4.39c1.84,0.68,2.44,1.58,2.64,3.15c0.34,2.58,0.58,5.17,0.88,7.84c3.96-1.93,7.48-8.88,6.87-13.13
		c-0.1-0.7-0.55-1.69-0.25-2.05c2.18-2.58,0.65-4.87-0.82-6.68c-3.92-4.86-7.99-9.62-12.33-14.09c-2.49-2.56-5.72-3-9.06-0.99
		c-1.39,0.83-3.03,1.28-4.57,1.85c-5.87,2.19-7.48,1.47-8.34-4.51c-0.85-5.93-1.2-11.93-1.76-17.9c0.35-0.27,0.71-0.54,1.06-0.81
		c6.2,1.6,12.46,3.02,18.59,4.85c8.55,2.56,16.83,6.39,25.54,7.95c15.18,2.73,29.66-1.64,43.49-7.57c4.99-2.14,9.34-5.89,13.76-9.21
		c2.66-1.99,4.88-4.56,7.3-6.86c-1.9,3.7-4.21,7.14-6.85,10.29c-2.51,2.99-2.72,4.1-0.45,7.16c1.22,1.65,2.38,3.36,3.46,5.12
		c2.21,3.59,4.35,7.23,6.71,11.18c-9.11-1.1-17.6-1.97-26.04-3.19c-6.23-0.9-11.98-0.91-15.94,5.05c-0.11,0.16-0.34,0.23-0.49,0.37
		c-3.69,3.4-7.41,6.78-11.05,10.24c-0.67,0.64-1.01,1.63-1.66,2.71c0.94,0.19,1.47,0.48,1.89,0.36c4.63-1.29,9.46-2.15,13.8-4.1
		c6.51-2.92,13.11-4.21,20.16-3.41c-2.89,0.43-5.83,0.5-8.74,0.88c-9.33,1.22-13.6,9.53-20.21,14.57
		c-0.92,5.09-1.84,10.18-2.76,15.26c0.48,0.21,0.96,0.42,1.43,0.62c3.63-3.34,7.72-6.31,10.79-10.1
		c4.58-5.68,11.19-7.48,17.18-10.54c-3.86,2.85-7.88,5.46-12.03,7.81c-2.68,1.52-3.33,3.95-3.86,6.63c-0.28,1.4-0.62,2.93-1.42,4.07
		c-3.8,5.49-3.97,13.9,0,18.96c0.85-0.91,1.73-1.73,2.48-2.66c1.63-1.99,3.15-4.07,4.81-6.03c0.47-0.56,1.32-1.17,1.97-1.15
		c4.5,0.18,6.93-2.69,9-5.99c5.19-8.26,5.15-8.28,14.94-10.24c1.01-0.2,2.03-0.32,3.04-0.53c4.42-0.92,8.89-1.69,13.26-2.85
		c4.25-1.13,7.24-4.75,11.72-5.91c2.68-0.69,4.87-3.64,7.04-5.83c2.94-2.97,4.03-3.14,7.51-0.63c2.67,1.93,5.6,4.55,8.9,3.3
		c3.14-1.19,4.53,0.18,6.17,2.02c1.23,1.38,2.33,2.88,3.57,4.25c0.49,0.54,1.21,0.86,1.83,1.28c0.42-0.66,1.13-1.3,1.2-1.99
		c0.38-3.77,0.07-7.39-2.57-10.48c-0.59-0.68-1.28-1.89-1.05-2.55c0.88-2.47-0.04-4.36-1.68-5.85c-4.71-4.28-9.45-8.56-14.45-12.49
		c-1.13-0.89-3.67-1.03-5.04-0.39c-4.36,2.05-8.5,4.57-12.66,7.02c-2.29,1.35-5.75,0.46-6.64-2c-3.89-10.74-7.77-21.48-11.5-32.27
		c-0.39-1.13-0.2-2.91,0.47-3.88c11.81-17.27,18.49-36.32,19.05-57.21c0.56-20.86-3.46-40.77-14.96-58.63
		c-7.35-11.42-15.81-21.85-27.28-29.49c-6.34-4.22-12.65-8.49-18.96-12.77c-11.29-7.65-21.26-16.37-27.23-29.17
		c-8.29-17.79-7.97-41.85,11.2-57.06c1.43-1.13,3.67-1.76,5.52-1.73c4.91,0.09,9.09,2.28,12.8,5.46c0.58,0.5,1.67,0.78,2.37,0.59
		c0.4-0.11,0.68-1.36,0.69-2.09c0.01-1.01-0.3-2.03-0.45-3.05c-0.58-4.03-0.27-4.32,3.9-4.47c4.67-0.16,8.9,1.29,13.05,3.25
		c0.86,0.4,2.08,0.02,3.14-0.01c-0.23-0.98-0.19-2.16-0.74-2.91c-1.59-2.16-3.42-4.16-5.15-6.21c0.16-0.37,0.31-0.75,0.47-1.12
		c7.16,1.2,14.31,2.51,21.49,3.57c5.68,0.84,11.39,1.47,17.11,1.98c0.9,0.08,1.91-0.95,2.87-1.47c-0.62-0.85-1.06-1.95-1.88-2.51
		c-6.95-4.77-14.7-7.85-22.77-10.05c-4.97-1.35-10.1-2.13-15.84-3.3c3.94-2.98,7.66-5.8,11.38-8.61c-0.16-0.31-0.32-0.63-0.48-0.94
		c-11.25,0.27-21.76,3.05-31,10.17c-0.23-0.15-0.47-0.31-0.7-0.46c0.73-4.22,1.46-8.43,2.18-12.65c-0.24-0.19-0.48-0.38-0.72-0.57
		c-1.43,1.31-3.28,2.38-4.22,3.99c-3.98,6.84-7.68,13.84-11.48,20.79c-0.44,0.81-0.67,1.99-1.35,2.36
		c-3.56,1.94-7.23,3.67-11.16,5.61c-0.12-1.55-0.09-2.69-0.33-3.76c-0.26-1.15-0.76-2.24-1.16-3.35c-1.03,0.54-2.25,0.88-3.04,1.66
		c-3.75,3.68-7.39,7.46-11.04,11.23c-1.86,1.92-3.41,1.47-4.8-0.52c-0.73-1.05-1.42-2.12-2.13-3.18c-0.37-0.03-0.74-0.05-1.1-0.08
		c-3.57,9.51-7.13,19.02-11.01,29.34c-3.56-4.93-6.97-9.64-10.92-15.11c-0.37,2.85-0.95,4.98-0.88,7.1
		c0.91,25.02,6.97,48.35,23.43,68.79c-1.17-0.27-1.65-0.34-2.1-0.49c-0.49-0.16-0.94-0.52-1.42-0.57c-0.62-0.05-1.38-0.05-1.85,0.27
		c-0.23,0.16-0.09,1.15,0.15,1.64c0.31,0.63,0.87,1.14,1.33,1.69c9.11,10.96,19.76,20.07,32.31,26.92c1.04,0.57,1.96,1.33,2.83,1.92
		c-0.94,1.16-1.67,2.05-2.4,2.95c1.01,0.58,1.99,1.21,3.02,1.74c1.1,0.57,2.27,0.99,3.35,1.57c9.29,5.01,19.08,9.43,23.67,20.02
		c2.49,5.75,6.04,11.25,7.35,17.25c2.3,10.55,0.94,21.16-3.43,31.14c-4.58,10.46-11.36,18.58-23.76,19.34
		c-9.05,0.56-18.02-0.25-24.88-7.14c-9.02-9.06-12.94-20.72-15.76-32.84c4.4-1.43,4.58-1.98,1.47-5.7
		c-1.45-1.73-3.11-3.29-4.76-4.83c-1.73-1.62-3.63-3.05-5.3-4.72c-0.55-0.55-0.87-1.63-0.78-2.4c0.04-0.36,1.3-0.75,2.04-0.81
		c1.84-0.16,3.72,0.01,5.55-0.24c1.71-0.24,2.91-1.26,1.29-2.9c-5.69-5.78-11.09-11.92-19.28-14.46c-2.71-0.84-5.18-2.47-7.76-3.74
		c0.11-0.29,0.23-0.57,0.34-0.86c1.71-0.3,3.48-0.41,5.1-0.97c1.14-0.4,2.07-1.41,3.1-2.14c-0.81-0.83-1.46-1.99-2.44-2.43
		c-7.13-3.2-14.32-6.25-21.49-9.36c-3.91-1.69-7.81-3.41-12.5-5.46c2.7-3.11,4.87-5.52,6.93-8.02c0.53-0.64,0.71-1.57,1.05-2.36
		c-0.72-0.25-1.46-0.74-2.17-0.71c-4.11,0.22-8.24,0.35-12.3,0.91c-9.69,1.35-18.6,5.12-27.39,9.23c-1.64,0.77-3.56,0.95-6.24,1.63
		c1.8-4.09,3.15-7.15,4.76-10.82c-5.61,0.71-9.75,2.26-13.06,5.88c-5.42,5.92-10.93,11.76-16.47,17.58
		c-1.27,1.33-2.72,2.52-4.19,3.64c-1.97,1.5-3.94,1.38-5.32-0.76c-1.46-2.26-2.65-1.78-3.97,0.02c-3.41,4.64-6.82,9.29-10.25,13.92
		c-11.08,14.97-22.22,29.89-33.24,44.91c-5.35,7.3-12.34,12.63-19.96,17.25c-7.81,4.74-16.22,6.58-25.16,4.12
		c-6.95-1.91-11.43-6.73-12.72-13.73c-1.15-6.26-0.27-12.52,2.87-18.28c4.27-7.83,10.55-13.89,17.09-19.75
		c1.62-1.45,2.7-0.62,4.01,0.33c2.46,1.79,3.94,1.3,5.24-1.42c1.3-2.72,2.75-5.37,4.3-8.37c0.74,2.58,1.34,4.69,2.08,7.27
		c5.62-3.32,7.02-9.31,10.9-13.4c0.24,1.22,0.43,2.19,0.75,3.83c6.04-4.9,11.69-9.48,17.76-14.4c0.4,2.28,0.57,3.79,0.97,5.24
		c0.16,0.58,0.77,1.4,1.25,1.45c0.54,0.06,1.41-0.49,1.7-1.01c0.75-1.34,1.3-2.8,1.86-4.23c3.35-8.6,8.67-16.02,14.14-23.92
		c0.58,2.37,1.04,4.26,1.5,6.15c0.29,0.05,0.58,0.11,0.86,0.16c0.49-0.88,1.14-1.71,1.44-2.65c0.56-1.76,0.86-3.6,1.38-5.38
		c1.81-6.15,5.11-11.37,10.03-15.89c1.21,1.83,2.15,3.54,3.38,5c0.53,0.63,1.65,0.75,2.51,1.1c0.27-0.8,0.78-1.6,0.78-2.4
		c0.03-6.98-0.19-13.97-0.01-20.95c0.14-5.32,0.77-10.62,1.19-16.1c1.12,0.17,2.04,0.52,2.9,0.4c1.55-0.22,3.06-0.73,4.58-1.11
		c-0.53-1.25-0.89-2.61-1.61-3.73c-3.57-5.52-7.41-10.87-10.81-16.49c-1.37-2.26-1.86-5.04-2.98-8.23c2.17,0.93,3.44,1.67,4.81,2.01
		c1.38,0.34,2.86,0.29,4.29,0.42c-0.24-1.52-0.08-3.27-0.79-4.53c-3.72-6.61-8.39-12.46-14.78-16.75c-2.48-1.67-4.96-3.35-7.67-5.18
		c2.3-0.49,4.15-0.89,6.01-1.28c0.04-0.43,0.07-0.85,0.11-1.28c-1.71-0.72-3.35-1.71-5.13-2.11c-9.13-2.02-18.26-4.17-27.47-5.72
		c-6.89-1.16-13.52-3.27-20.92-2.37c-9.54,1.15-18.61,3.21-27.3,7.18c-2.46,1.12-4.96,2.13-7.44,3.2c-0.2-0.21-0.4-0.41-0.6-0.62
		c13.61-9.52,17.29-24.01,20.51-38.92c1.35-6.27,3.82-12.33,6.07-18.37c0.9-2.4,2.61-4.5,4.33-7.36c-1.35,0.21-2.13,0.19-2.79,0.45
		c-7.5,2.97-13,8.05-16.64,15.3c-2.91,5.79-5.89,11.56-9.27,17.07c-5.48,8.93-12.42,16.28-22.52,20.32
		c-4.14,1.66-7.79,4.54-11.66,6.84c-1.28,0.76-2.59,1.48-4.64,2.65c2.17-5.3,1.45-9.83,0.54-14.38c-1.21-6.09-1.18-12.36,1.18-17.96
		c2.72-6.47,6.76-12.39,10.11-18.6c2.62-4.86,5.2-9.76,7.51-14.78c0.59-1.28,0.09-3.06,0.09-4.61c-0.36-0.05-0.71-0.1-1.07-0.15
		c-0.46,0.61-1.07,1.15-1.37,1.83c-3.52,7.96-9.38,13.83-16.19,19.08c-11,8.48-18.11,19.57-20.71,33.34
		c-1.13,5.96-1.7,12.04-3.14,17.92c-3.35,13.68-9.89,24.87-24.63,28.94c-3.72,1.03-5.77,3.72-7.29,7.02
		c-1.64,3.57-1.65,7.08-0.12,10.75c0.98,2.36,1.92,5.23-0.29,7.23c-5.23,4.73-10.75,9.14-16.71,14.14c0.59-2.91,1.21-4.99,1.41-7.1
		c0.56-5.85-2.63-10.1-6.18-14.27c-6.69-7.87-5.56-17.21,2.43-23.79c2.91-2.4,5.76-5.08,7.91-8.14c4.39-6.24,3.59-13.46-1.98-17.69
		c-2.98-2.26-6.62-3.64-10.01-5.34c-0.39-0.19-1.05,0.16-2.41,0.42c1.32,0.92,2,1.43,2.7,1.88c8.68,5.56,9.49,14.48,1.89,21.56
		c-2.26,2.1-4.69,4.01-7.06,6c-7.62,6.42-8.09,17.72-5.34,24.7c0.65,1.65,1.88,3.34,3.3,4.37c5.23,3.8,5.97,9.15,5.39,14.89
		c-0.5,4.94-5.31,10.61-9.37,11.22c-4,0.6-6.76,2.89-8.9,6.05c-2.37,3.5-2.19,7.23-0.28,10.84c1.8,3.41,4.01,5.8,8.62,5.64
		c4.95-0.18,10.11-0.14,14.48,3.17c3.33,2.52,6.68,5.23,11.75,3.05c-2.49,4.81-5.7,3.84-9.1,2.83c-7.07-2.1-7.92-1.73-11.98,4.31
		c-0.34,0.51-0.72,1.01-1.05,1.53c-1.78,2.83-1.33,4.58,0.93,7.13c2.21,2.5,4.3,5.2,5.88,8.11c2.3,4.25,4.62,5.75,9.43,4.83
		c1.6-0.31,3.25-0.79,4.65-1.59c5.26-3.03,10.58-3.39,16.31-1.33c3.66,1.32,6.97,0.03,9.06-2.79c2.12-2.87,1.43-5.73-0.37-8.32
		c-1.59-2.29-1.25-3.89,0.94-5.39c5.43-3.72,10.8-7.54,16.3-11.15c0.79-0.52,2.27-0.38,3.3-0.07c4.02,1.19,7.9,3.09,11.99,3.75
		c7.28,1.16,14.85,1.47,21.23-2.9c4.97-3.4,9.68-6.55,16.02-5.52c0.04,0.01,0.1-0.12,0.52-0.64c-1.6-0.44-2.98-0.97-4.41-1.17
		c-4.48-0.63-8.42,1.21-12.51,2.67c-8.87,3.16-17.7,2.44-27.21-1.1c1.96-0.88,3.19-1.76,4.51-1.96c5.37-0.81,10.77-1.37,16.15-2.09
		c11.96-1.6,21.84-6.55,27.64-17.72c3.6-6.92,2.3-14.02-3.31-19.42c-0.38-0.37-0.71-0.79-1.34-1.51c5.37,1.59,8.55,4.34,11.05,9.27
		c1.6,3.15,2.47,3.45,5.48,1.59c1.66-1.02,3.19-2.25,4.78-3.4c3.66-2.65,8.82-2.69,11.74-0.08c3.92,3.5,4.62,7.51,2.03,12.09
		c-3.32,5.89-8.18,10.47-13.81,13.89c-13.63,8.28-27.41,16.32-41.35,24.05c-11.48,6.36-22.28,13.56-32.36,22.01
		c-19.34,16.22-30.61,36.41-32.36,61.84c-1.33,19.36,2.98,36.97,14.57,52.67c2.15,2.92,4.26,5.87,6.38,8.81
		c-1.62-0.82-2.97-1.91-4.08-3.19c-3.36-3.9-6.85-7.71-9.87-11.87c-2.21-3.06-5.18-4.33-8.54-4.92c-4.24-0.74-7.47,1.2-8.37,5.39
		c-0.66,3.06-1.04,6.43-0.46,9.45c2.12,11.03,4.88,21.91,11.24,31.46c0.37,0.56,0.6,1.21,1.14,2.34c-1.55-0.52-2.58-0.9-3.62-1.22
		c-6.3-1.9-12.54-4.02-18.92-5.59c-3.34-0.82-7.31-1.78-10.31-0.72c-4.66,1.65-9.43,1.69-14.09,2.7c-0.8,0.17-1.57,0.48-2.36,0.71
		c-0.7,0.2-1.41,0.39-2.11,0.58c0.3,0.49,0.6,0.98,0.9,1.47c1.63,0.45,3.25,1.1,4.91,1.3c2.77,0.34,4.93,0.97,4.01,4.09
		c4.86-0.42,9.67-0.83,14.47-1.24c0.03,0.48,0.06,0.96,0.09,1.44c-1.88,0-3.76-0.08-5.64,0.02c-4.65,0.25-9.55,3.52-10.1,7.15
		c-0.38,2.47-1.9,3.56-3.56,5c-2.67,2.32-5,5.05-7.34,7.72c-0.38,0.44-0.24,1.55,0.01,2.21c0.09,0.24,1.26,0.15,1.92,0.05
		c2.13-0.33,4.24-0.99,6.37-1.04c2.9-0.06,5.26-0.94,7.65-2.61c3.65-2.55,7.83-4.07,13.02-4.52c-3.46,1.51-6.39,2.52-9.05,4
		c-4.57,2.54-6.21,6.76-5.18,11.78c0.28,1.34,0.2,2.84-0.06,4.2c-1.01,5.41,0.12,10.24,3.7,14.4c0.56,0.65,1.72,0.78,2.6,1.14
		c0.28-0.81,0.73-1.62,0.8-2.45c0.14-1.74-0.02-3.51,0.15-5.24c0.08-0.84,0.55-2.3,0.98-2.36c5.37-0.64,6.63-5.28,8.43-8.99
		c2.2-4.52,5.25-6.97,10.3-6.64c3.18,0.21,6.33,0.74,9.51,0.87c6.08,0.25,12.23,3.66,18.24-0.34c0.14-0.09,0.42-0.08,0.58-0.01
		c4.64,2.23,6.4-1.42,8.65-4.18c1.75-2.14,3.44-4.41,5.54-6.16c1.06-0.88,3.16-1.38,4.44-0.96c3.47,1.12,5.94,3.44,6.05,7.5
		c0.03,1.19,0.28,2.37,0.54,4.44c1.5-1.43,2.55-2.19,3.29-3.17C421.65,556.44,420.71,550.73,418.03,545.49z M695.09,267.58
		c-10.16,26.59-4.49,50.16,13.61,71.41C688.99,321.19,682.77,294.4,695.09,267.58z M791.79,423.77c-1.56,1.09-3.12,0.57-4.21-1
		c-1.3-1.86-1.98-3.86-1.07-7.28c2.22,1.69,3.9,2.8,5.37,4.13C793.32,420.92,793.45,422.6,791.79,423.77z M791.41,408.2
		c0.96-0.46,2.81-0.33,3.57,0.32c1.35,1.18,0.56,2.81-0.55,3.89c-2.01,1.95-5.13,1.84-7.8,1.39
		C786.88,410.86,789.3,409.21,791.41,408.2z M782.17,402.96c1.13-1.45,2.49-1.14,3.13-0.1c2.35,3.38,1.17,6.05-1.28,9.29
		C781.93,409.05,780.27,406.53,782.17,402.96z M780.93,424.73c-0.47,0.55-2.15,0.78-2.7,0.38c-0.76-0.56-1.52-2-1.32-2.83
		c0.74-3.02,3.3-5.38,6.44-5.82C784.5,419.6,782.62,422.73,780.93,424.73z M772.5,412.06c0.36-1.84,1.86-2.27,3.38-2.09
		c2.61,0.32,4.44,1.93,6.22,4.06c-2.66,1.7-5.06,1.75-7.51,0.95C773.25,414.54,772.18,413.69,772.5,412.06z M771.59,463.08
		c1.8-0.6,3.58-1.36,5.47-1.48c1.89-0.13,3.98,0.54,4.94,2.17c2.97,5.02-4.51,7.83-8.52,8.2c-6.16,0.56-13.84-2.58-18.25-6.82
		C760.45,465.91,766.57,464.76,771.59,463.08z M763.85,484.39c4.29,3.08,12.15,9.38,5.9,15.01c-2.12,1.91-5.38,2.19-8.04,1.15
		c-2.65-1.04-4.73-3.22-6.18-5.68c-2.42-4.12-3.38-8.99-5.18-13.39c-1.55-3.79-2.17-11.16-4.63-14.21
		C750.97,473.76,757.09,479.53,763.85,484.39z M731.84,482.69c3.06-2.34,5.86-5.53,6.53-9.32c0.41,3.9,0.83,7.84,0.37,11.74
		c-0.48,4.13-1.39,7.25-5.35,8.78c-0.04,0.02-0.08,0.03-0.12,0.05c-2.76,1.03-7.34,1.61-9.02-1.55
		C721.9,487.94,729.24,484.68,731.84,482.69z M596.75,427.67c-0.4-0.27-0.8-0.55-1.21-0.82c-2.79-1.84-5.74-3.47-9-4.11
		c-2.63-0.51-6.93-1.51-8.52-3.87c-0.77-1.14-0.48-2.34-0.14-3.67c0.48-1.87,2.27-3.22,4.17-3.58c1.9-0.37,3.87,0.1,5.66,0.86
		c4.25,1.8,7.68,5.19,10.26,9.02c2.58,3.83,4.41,8.11,6.21,12.36C601.65,431.76,599.5,429.56,596.75,427.67z M621.54,409.3
		c-1.36,4.18-2.17,8.51-2.94,12.83c-0.69,3.9-2.26,7.51-2.91,11.39c-5.96-11.14-9.4-22.07-10.53-34.66
		c-0.39-4.4,2.75-8.84,7.02-9.94c4.27-1.1,9.17,1.28,10.95,5.32C625.22,398.98,623.15,404.38,621.54,409.3z M648.07,422.05
		c-2.28,1.08-4.89,1.38-7.27,2.23c-3.81,1.37-8.69,3.06-12.36,5.67c-1.22,0.87-2.31,1.84-3.18,2.93c1.45-5.83,4.3-11.42,7.89-16.22
		c1.8-2.4,3.87-4.67,6.48-6.16c3.62-2.06,9.45-2.24,11.65,2.06C652.94,415.82,651.46,420.46,648.07,422.05z M677.46,484.12
		c-0.74,0.87-3.4,1.24-4.26,0.6c-1.2-0.89-2.4-3.16-2.08-4.46c1.17-4.77,5.21-8.5,10.16-9.19
		C683.11,476.03,680.14,480.96,677.46,484.12z M694.61,482.6c-2.45,1.72-4.92,0.89-6.65-1.58c-2.05-2.94-3.12-6.09-1.69-11.49
		c3.5,2.66,6.15,4.41,8.48,6.52C697.03,478.11,697.23,480.76,694.61,482.6z M694.01,458.02c1.52-0.73,4.44-0.53,5.63,0.51
		c2.14,1.86,0.88,4.44-0.87,6.14c-3.18,3.08-8.1,2.91-12.32,2.19C686.86,462.23,690.68,459.62,694.01,458.02z M679.43,449.76
		c1.78-2.28,3.93-1.81,4.94-0.16c3.72,5.34,1.85,9.54-2.02,14.66C679.05,459.36,676.43,455.39,679.43,449.76z M664.16,464.12
		c0.57-2.91,2.93-3.59,5.33-3.3c4.12,0.5,7,3.04,9.82,6.41c-4.21,2.68-7.99,2.75-11.86,1.5
		C665.34,468.04,663.66,466.7,664.16,464.12z M566.33,390.83c5.88-4.97,12.48-8.76,19.72-11.3c14.17-4.96,28.84-7.36,43.74-5.53
		c10.89,1.34,21.13,5.29,29.94,12.22c0.88,0.7,1.65,1.54,2.45,2.35c0.25,0.25,0.42,0.58,0.92,1.3
		c-15.71-9.53-31.68-15.65-50.03-13.75c-17.69,1.83-34.55,5.59-48.49,17.67c-0.17-0.19-0.34-0.38-0.5-0.57
		C564.83,392.43,565.5,391.54,566.33,390.83z M516.97,490.65c-0.74,0.87-3.4,1.24-4.26,0.6c-1.2-0.89-2.4-3.16-2.08-4.46
		c1.17-4.77,5.21-8.5,10.16-9.19C522.62,482.56,519.65,487.5,516.97,490.65z M534.12,489.13c-2.45,1.72-4.92,0.89-6.65-1.58
		c-2.05-2.94-3.12-6.09-1.69-11.49c3.5,2.66,6.15,4.41,8.48,6.52C536.54,484.64,536.74,487.29,534.12,489.13z M533.52,464.55
		c1.52-0.73,4.44-0.53,5.63,0.51c2.14,1.86,0.88,4.44-0.87,6.14c-3.18,3.08-8.1,2.91-12.32,2.19
		C526.37,468.76,530.19,466.15,533.52,464.55z M518.94,456.29c1.78-2.28,3.93-1.81,4.94-0.16c3.72,5.34,1.85,9.54-2.02,14.66
		C518.56,465.89,515.94,461.92,518.94,456.29z M503.67,470.65c0.57-2.91,2.93-3.59,5.33-3.3c4.12,0.5,7,3.04,9.82,6.41
		c-4.21,2.68-7.99,2.75-11.86,1.5C504.85,474.57,503.17,473.23,503.67,470.65z M536.83,316.33c-1.12,3.47-5.45,5.7-8.97,4.43
		c-2.38-0.85-4.43-2.48-6.72-3.56c-3.66-1.73-8.31-3.98-12.75-4.73c-1.48-0.25-2.93-0.33-4.32-0.17c5.15-3.09,11.11-5.04,17.04-5.89
		c2.97-0.43,6.04-0.57,8.94,0.23C534.06,307.75,538.31,311.74,536.83,316.33z M552.66,323.14c0.4-2.33,0.71-4.68,1.2-7
		c3.22-15.17,1.13-29.49-7.2-42.65c-4.41-6.97-10.45-12.4-17.6-16.55c-1.37-0.79-2.71-1.64-4.68-2.84
		C549.56,260.41,566.31,301.59,552.66,323.14z M513.91,274.03c2.83-3.39,8.2-4.31,11.99-2.06c3.8,2.24,5.58,7.39,3.98,11.5
		c-1.88,4.82-7.16,7.18-11.78,9.52c-3.92,1.99-7.55,4.48-11.15,6.99c-3.25,2.27-6.91,3.71-10.11,5.99
		C500.51,293.89,505.81,283.72,513.91,274.03z M329.63,340.43c2.82,0.16,4.55,1.44,6.18,3.73
		C332.32,345.27,331.17,344.57,329.63,340.43z M371.88,348.89c-0.56,0.7-2.05,0.97-3.09,0.92c-4.27-0.23-8.54-0.65-12.8-1.05
		c-0.75-0.07-1.47-0.39-2.17-0.58c3.29-1.08,6.36-2.1,9.44-3.1c2.14-0.69,4.27-1.65,6.47-1.88c1.22-0.13,3.49,0.8,3.65,1.59
		C373.63,346.04,372.77,347.77,371.88,348.89z M411.31,284.01c-3.02,1.58-3.09,4.41-3.72,7.36c-1.23,5.78-6.53,8.94-12.61,8.48
		c-0.75-0.06-1.61,0.55-2.31,1.02c-0.95,0.64-1.78,1.45-2.67,2.19c2.92-9.66,14.19-19.57,21.16-19.61
		C411.23,283.65,411.35,283.99,411.31,284.01z M488.48,298.08c-0.32-3.27-0.28-6.35-0.89-9.63c-0.09-0.48-0.18-0.96-0.28-1.43
		c-0.67-3.27-1.6-6.51-3.46-9.27c-1.5-2.22-3.84-5.97-3.29-8.77c0.27-1.35,1.31-1.99,2.5-2.69c1.67-0.99,3.88-0.67,5.49,0.42
		c1.6,1.08,2.67,2.81,3.4,4.6c1.73,4.28,1.76,9.1,0.88,13.64C491.95,289.48,490.21,293.8,488.48,298.08z M442.9,499.71
		c-6.24-3.47-5.34-11.81-3.22-17.26c1.32-3.41,3-7.06,4.97-10.15c1.29-2.02,6.69-6.11,7.08-8.02c-1.55,7.48-0.54,15.35,2.75,22.24
		c1.08,2.26,2.43,4.54,2.42,7.05C456.89,500.42,448.02,502.56,442.9,499.71z M456.27,396.19c-0.63,0.74-2.91,1.06-3.64,0.51
		c-1.02-0.76-2.05-2.7-1.78-3.81c1-4.08,4.45-7.26,8.69-7.86C461.1,389.27,458.56,393.49,456.27,396.19z M470.93,394.89
		c-2.1,1.47-4.21,0.76-5.68-1.35c-1.75-2.51-2.67-5.21-1.44-9.82c2.99,2.28,5.26,3.77,7.25,5.58
		C473,391.05,473.18,393.32,470.93,394.89z M470.42,373.87c1.3-0.62,3.8-0.45,4.81,0.44c1.83,1.59,0.76,3.8-0.74,5.25
		c-2.72,2.64-6.92,2.49-10.53,1.87C464.31,377.47,467.57,375.24,470.42,373.87z M457.95,366.81c1.52-1.95,3.36-1.54,4.23-0.14
		c3.18,4.57,1.58,8.16-1.73,12.53C457.63,375.02,455.39,371.63,457.95,366.81z M444.9,379.09c0.49-2.49,2.51-3.07,4.56-2.82
		c3.52,0.43,5.99,2.6,8.4,5.48c-3.6,2.29-6.83,2.35-10.14,1.28C445.91,382.44,444.47,381.29,444.9,379.09z M405.87,443.81
		c3.09-7.28,10.98-2.15,16.13,0.01c5.1,2.14,10.75,1.93,16.25,0.5c-4.57,4.82-11.02,6.66-17.43,8.39c-3.9,1.05-8.14,0.83-11.91-0.62
		C405.06,450.59,404.28,447.57,405.87,443.81z M412.88,469.45c4.82-3.18,10.71-5.31,15.96-7.69c3.78-1.71,14.03-3.97,16.49-7.1
		c-6.6,8.39-12.67,17.17-18.97,25.78c-4.19,5.72-7.46,12.31-15.3,12.48C394.65,493.27,405.34,474.42,412.88,469.45z"/>
</g>
</svg>
