<?xml version="1.0" encoding="utf-8"?>
<!-- Generator: Adobe Illustrator 24.1.0, SVG Export Plug-In . SVG Version: 6.00 Build 0)  -->
<svg version="1.1" id="Rooster" xmlns="http://www.w3.org/2000/svg" xmlns:xlink="http://www.w3.org/1999/xlink" x="0px" y="0px"
	 viewBox="0 0 1190.55 841.89" style="enable-background:new 0 0 1190.55 841.89;" xml:space="preserve">
<style type="text/css">
	.st0{fill:#AF252B;}
</style>
<path class="st0" d="M768.4,760.07c-14.45,0.19-28.32-3.13-42.09-7.03c-4.62-1.31-8.02-4-10.73-8.15c-5.88-9-12.66-17.43-18.3-26.57
	c-8.36-13.55-16.26-27.4-23.86-41.4c-1.68-3.09-2.78-7.93-1.55-10.9c4.58-11.1,10-21.88,15.56-32.54
	c6.97-13.37,13.76-26.69,14.98-42.13c0.19-2.46,2.04-5.15,3.82-7.08c8.33-8.97,16.75-17.87,25.43-26.51
	c13.14-13.08,27.28-25.25,39.63-39.03c24.94-27.81,40.45-61.49,56.05-94.93c5.69-12.21,11.44-24.58,12.44-38.41
	c2.34-32.38,0.88-64.58-5.9-96.33c-3.71-17.38-8.75-34.49-13.63-51.6c-2.67-9.34-3.86-9.34-13.44-8.32
	c-6.97,0.75-14.07,0.68-21.09,0.36c-5.88-0.27-10.92-2.69-13.8-8.71c3.65,1.08,6.95,2.23,10.33,3.03
	c14.63,3.43,30.85-2.84,36.67-14.34c6.14-12.13,4.06-24.07-1.22-35.92c-0.66-1.48-0.3-3.41-0.41-5.13c1.52-0.04,3.09-0.37,4.54-0.08
	c5.45,1.1,10.84,2.51,16.29,3.55c1.28,0.24,3.29-0.06,3.96-0.91c0.55-0.69-0.09-2.73-0.73-3.89c-1.96-3.57-4.17-7.01-6.29-10.49
	c-4.89-8.02-4.89-8.01-13.67-5.99c-0.24,0.06-0.58-0.35-1.89-1.19c1.58-1.33,2.72-2.76,4.21-3.48c8.09-3.92,9.48-7.76,5.83-16.23
	c-0.37-0.86-0.09-2.26,0.35-3.19c4.63-9.74,2.38-20.08,2.72-30.19c0.03-0.91-0.78-1.86-1.47-3.4c-3.62,3.05-6.85,5.76-10.64,8.95
	c-0.47-8.1-0.88-15.23-1.39-24.05c-5.14,4.13-9.18,7.38-14.16,11.38c0-10.42,0-19.79,0-29.17c-0.54-0.34-1.08-0.69-1.62-1.03
	c-5.37,4.97-10.74,9.95-16.75,15.51c-1.81-6.31-3.26-11.82-5.03-17.22c-0.5-1.53-1.95-2.76-2.97-4.12
	c-1.14,1.11-2.75,2.01-3.34,3.36c-1.55,3.56-2.65,7.31-4.15,11.65c-2.07-4.2-3.8-7.7-5.53-11.19c-0.6,0.03-1.21,0.06-1.81,0.1
	c-1.17,5.42-2.34,10.83-3.75,17.36c-3.83-4.89-6.71-8.56-9.59-12.24c-0.61,0.05-1.22,0.1-1.83,0.15
	c-1.54,5.13-3.09,10.26-4.17,13.86c-2.5,1.53-5.11,2.17-5.7,3.64c-4.38,10.75-7.47,21.58,2.25,31.44c0.94,0.95,1.31,2.47,1.85,3.53
	c-4.89,4.4-9.6,8.31-13.93,12.61c-25.41,25.22-44.89,54.73-61.32,86.3c-15.27,29.33-31.82,57.82-52.63,83.62
	c-7.21,8.93-16.44,15.66-27.52,18.85c-31.15,8.97-61.26,5.3-90.37-8.51c-5.49-2.6-10.95-5.68-16.77-7.1
	c-12.29-2.99-24.82-5.01-37.71-7.52c2.62-0.7,5.31-2.02,8.01-2.04c8.66-0.06,17.35,0.07,25.99,0.7c7.5,0.55,9.36-1.24,7.84-8.58
	c-3.25-15.75-9.16-30.43-16.76-44.6c-15.6-29.09-39.6-46.76-71.64-53.61c-7.03-1.5-14.33-1.86-21.53-2.49
	c-24.61-2.14-48.47,0.66-71.29,10.71c-5.56,2.45-9.7,5.89-11.69,11.74c-1.68,4.96,0.11,8.24,5.33,8.43
	c4.42,0.16,8.86-0.67,13.3-0.74c8.85-0.13,17.71-0.04,26.56-0.04c-6.17,1.27-12.43,1.76-18.59,2.79
	c-29.21,4.85-56.27,14.65-78.94,34.55c-5.92,5.19-9.42,11.41-9.82,19.23c-0.55,10.93,6.54,15.73,16.51,11.44
	c8.17-3.51,16.36-7.04,24.69-10.15c5.62-2.1,11.5-3.49,17.27-5.2c-3.21,2.56-6.64,4.41-10.25,5.77c-5.04,1.9-7.28,5.35-7.02,10.65
	c0.09,1.85-0.12,3.71-0.1,5.56c0.07,5.82,1.81,7.46,7.75,7.42c2.84-0.02,5.69,0,9.65,0c-9.61,10.54-13.53,22.4-15.79,34.9
	c-1.39,7.67,0.8,11.19,7.85,14.61c7.17,3.48,14.17,7.3,21.34,10.78c3.7,1.79,5.25,4.19,4.26,8.39c-1.65,7.03-2.54,14.26-4.52,21.19
	c-7.89,27.52-10.1,54.56,3.78,81.16c4.95,9.48,11.88,15.85,21.87,19.23c1.65,0.56,3.17,1.63,4.63,2.65
	c9.99,6.99,19.86,14.15,29.96,20.98c3.74,2.53,8.08,2.69,12.16,0.38c3.08-1.74,4.6-0.36,6.82,1.97c6.9,7.22,14.08,14.21,21.58,20.8
	c5.33,4.69,11.68,6.93,19.12,5.09c1.6-0.4,4.25,0.69,5.47,1.98c12.79,13.53,25.91,26.83,42.27,35.9
	c13.81,7.66,24.48,18.36,34.49,30.12c16.4,19.26,36.22,33.86,59.68,43.52c1.7,0.7,3.55,3.27,3.73,5.13
	c3.1,31.16,5.79,62.37,8.97,93.53c0.66,6.48-1.7,11.12-5.86,15.38c-1.81,1.86-3.97,3.41-5.62,5.39c-2.83,3.41-5.59,6.93-7.93,10.68
	c-0.83,1.33-1.04,4.01-0.23,5.13c0.8,1.1,3.29,1.45,4.97,1.31c1.97-0.16,3.98-0.98,5.76-1.93c5.76-3.06,10.68-3.36,16.04,1.61
	c6.09,5.67,13.6,6.63,21.84,4.19c4.21-1.24,8.99-1.28,13.43-0.88c9.4,0.85,18.71,2.92,28.12,3.42c12.26,0.64,22.4-8.21,23.92-19.71
	c-7.28,0-14.56,0-21.63,0c1.13-2.46,2.09-4.57,3.06-6.68c-2.41-0.45-4.83-1.33-7.24-1.29c-10.75,0.2-21.49,0.93-32.23,0.92
	c-7.68,0-9.43-1.43-9.76-8.94c-1.22-27.42-2.08-54.85-2.86-82.28c-0.05-1.58,1.33-3.97,2.72-4.7c9.81-5.14,19.8-9.95,30.29-15.15
	c-0.36,9.99,2.99,18.61,8.26,26.4c11.96,17.65,24.23,35.09,36.35,52.63c3.73,5.39,3.89,8.45-1.13,12.56
	c-5.54,4.53-12.03,7.87-17.86,12.07c-1.69,1.22-2.54,3.6-3.78,5.44c2.03,1.22,4.09,3.49,6.1,3.44c5.33-0.13,10.77-0.74,15.9-2.13
	c4.7-1.28,6.34,0.21,7.44,4.51c1.73,6.81,3.86,13.53,6.09,20.2c0.46,1.38,2.14,3.38,3.14,3.31c1.5-0.1,3.37-1.47,4.25-2.83
	c1.69-2.62,3.04-5.54,4.09-8.49c1.12-3.15,3.08-4.42,6.29-4.06c5.89,0.65,11.82,1.02,17.66,1.94c13.7,2.17,27.33,4.72,41.04,6.82
	c2.41,0.37,5.24-0.21,7.51-1.2c4.17-1.81,4.18-4.9,0.35-7.34c-1.46-0.93-2.99-1.76-4.49-2.63c4.18-1.41,8.05-1.4,11.84-1.95
	c1.61-0.23,3.56-1.34,4.37-2.65c0.43-0.69-1-2.93-2.04-4.06C779.56,760.96,774.14,760,768.4,760.07z M809.3,307.42
	c1.29,5.51,1.95,11.76-1.25,16.44c-3.02,4.42-9.06,6.21-14.25,4.93c-13.71-3.4-7.11-16.87-6.93-26.67
	c0.31-16.14-2.58-32.34-8.56-47.34C793.83,267.84,804.7,287.68,809.3,307.42z M484.23,445.41c0.5,13.03-7.18,18.11-19.25,22.57
	c-0.29-11.83-0.42-21.37,10.72-27.63C481.19,438.42,484.29,441.54,484.23,445.41z M451.05,322.92c5.7-0.95,11.96-2.52,16.96,0.38
	c4.98,2.89,6.79,9.79,4.67,15.14c-5.82,14.65-20.33,8.83-31.7,5.01c-14.35-4.82-27.11-14.66-34.86-27.73
	C419.63,323.18,435.83,325.45,451.05,322.92z M407.25,240.7c3.77,0.52,4.65,3.27,3.46,5.51c-3.61,7.76-9.62,8.42-18,7.4
	C396.09,246.62,398.87,241.01,407.25,240.7z M407.51,262.73c1.83,1.24,3.54,4.7,3.15,6.74c-0.7,3.66-4.46,3.94-7.56,3.07
	c-5.61-1.57-8.66-7.28-10.63-12.55C397.99,257.39,403.49,260.01,407.51,262.73z M380.83,232.84c3.68-1.28,6.02,0.96,7.27,3.88
	c2.15,5.02,1.18,9.97-0.79,15.4c-5.83-3.01-8.42-7.26-9.54-12.49C377.15,236.78,377.57,233.98,380.83,232.84z M389.32,261.56
	c-0.71,5.74-0.95,9.92-1.81,13.95c-0.84,3.94-3.72,5.93-7.54,4.17c-3.58-1.65-4.27-5-2.6-8.6
	C379.36,266.8,382.24,263.5,389.32,261.56z M367.09,251.44c6.2-1.82,13.1,0.3,17.17,5.47c-4.43,5.34-12.01,5.24-17.37,4.28
	c-1.48-0.26-3.66-3.04-3.5-4.44C363.62,254.8,365.4,251.94,367.09,251.44z M378.99,429.78c-7.83,2.67-13.23,0.49-16.85-4.65
	c-12.38-17.58-3.98-69.8-0.89-81.37c-1.66,20.03,4.43,38.08,17,53.75c4.43,5.52,9.87,11.07,10.27,18.14
	C388.86,421.74,384.76,427.81,378.99,429.78z M411.6,404.77c-7.62-4.32-11.21-10.63-15.23-17.94c-4.3-7.81-9.66-14.95-13.54-23.08
	c-3.95-8.28-7.06-16.96-9.17-25.89c-1.05-4.47-1.86-9-2.4-13.56c-0.33-2.82,0.51-8.95-0.79-11.31c9.8,17.92,24.43,33.09,41.72,43.91
	c13.9,8.7,43.07,11.46,38.13,33.69c-1.73,7.8-8.03,14.25-15.61,16.79S418.55,408.71,411.6,404.77z M456.65,469.73
	c-10-0.02-16.47-3.98-21.64-10.28c-2.83-3.45-4.22-7.54-0.59-11.34c4.1-4.3,8.83-2.89,12.57,0.2
	C453.4,453.6,455.54,461,456.65,469.73z M435.28,496.24c-2.18,0.67-7.07-1.58-7.83-3.58c-1.06-2.8-0.64-7.92,1.31-9.78
	c7.13-6.79,17.97-8.72,27.09-4.54C453.56,488.67,443.21,493.8,435.28,496.24z M465.88,512.19c-6,0.25-9.27-3.8-9.51-9.85
	c-0.28-7.18,1.31-13.66,9.56-21.22c3.04,8.28,5.62,14.1,7.27,20.17C474.81,507.22,472.29,511.92,465.88,512.19z M492.26,486.42
	c-8.69,1.78-16.81-3.84-23.16-9.61c5.68-7.38,14.96-7.66,22.31-6.77c3.35,0.41,8.07,3.91,8.96,6.94
	C501.96,482.44,497.06,485.44,492.26,486.42z M679.52,452.11c-2.25-0.4-5.57-4.64-5.33-6.77c0.34-2.97,3.05-7.34,5.63-8.1
	c9.44-2.78,19.97,0.46,26.17,8.34C699.23,453.73,687.68,453.57,679.52,452.11z M710.94,473.93c-1.28,6.01-5.67,9.04-11.49,6.35
	c-5.45-2.52-6.51-7.62-3.96-13.11c3.03-6.51,7.41-11.55,18.2-14.51C712.61,461.42,712.25,467.78,710.94,473.93z M710.64,438.3
	c-8.88-4.58-12.83-11.07-14.55-19.03c-0.94-4.37-0.31-8.63,4.66-10.36c5.61-1.95,9.18,1.46,11.09,5.92
	C715.12,422.47,713.64,430.03,710.64,438.3z M746.21,464.73c-1.07,5.58-6.8,6.01-11.52,4.69c-8.55-2.39-13.2-11.1-16.2-19.13
	c8.43-3.97,16.81,0.02,22.93,4.17C744.21,456.35,746.81,461.62,746.21,464.73z M746.29,429.28c-5.51,11.82-14.66,12.83-27.44,11.28
	c5.15-10.66,9.39-19.2,22.17-19.68C746.77,421.67,748.11,425.86,746.29,429.28z M781.15,143.79c-4.3,1.57-8.66,4.7-12.41,4.09
	c-3.34-0.54-6.02-5.21-9.38-8.44C768.75,133.88,776.12,135.16,781.15,143.79z M758.35,248.86c-1.54,3.74,0.26,11.99,0.06,16.22
	c-0.25,5.4-0.77,10.79-1.56,16.15c-1.64,11.15-4.42,22.13-8.28,32.72c-5.98,16.36-14.93,40.18-32.58,47.12
	c-7.63,3-17.12,2.11-22.94-3.66c-3.17-3.15-5.02-7.45-5.85-11.85c-3.29-17.37,7.07-26.06,19.78-35.13
	C729.08,294.66,748,273.97,758.35,248.86z M692.4,257.05c12.85-2.87,25.3-7.58,36.81-13.99c0.4,2.97-1.44,6.3-3.53,8.45
	c-7.8,8-16.46,16.62-26.56,22.21c-7.13,3.94-25.84,11.67-29.46,0.13C665.03,259.16,683.63,259.01,692.4,257.05z M594.13,371.43
	c3.04-1.46,8.9-1.06,11.29,1.02c4.28,3.73,1.77,8.9-1.75,12.31c-6.37,6.18-16.23,5.83-24.69,4.38
	C579.79,379.87,587.46,374.63,594.13,371.43z M595.34,420.7c-4.92,3.44-9.86,1.79-13.32-3.17c-4.11-5.89-6.26-12.21-3.38-23.03
	c7.02,5.34,12.33,8.85,16.99,13.08C600.17,411.69,600.59,417.02,595.34,420.7z M564.9,354.88c3.57-4.57,7.87-3.62,9.91-0.33
	c7.45,10.71,3.72,19.13-4.05,29.39C564.14,374.13,558.89,366.16,564.9,354.88z M560.96,423.75c-1.48,1.74-6.81,2.48-8.53,1.2
	c-2.4-1.79-4.8-6.33-4.16-8.94c2.35-9.56,10.44-17.03,20.37-18.42C572.28,407.52,566.33,417.42,560.96,423.75z M534.31,383.66
	c1.14-5.83,5.88-7.2,10.69-6.61c8.26,1.01,14.04,6.09,19.68,12.85c-8.43,5.37-16.02,5.52-23.77,3
	C536.67,391.52,533.3,388.83,534.31,383.66z M567.33,598.05c-5.04-4.49-10.64-8.15-15.85-12.4c-12.97-10.6-41.28-12.42-44.66-31.68
	c-1.3-7.41,0.37-16.23,8.87-18.08c6.35-1.38,12.84,1.49,18.28,5.03c12.09,7.87,21.53,19.32,28.87,31.75
	c7.34,12.42,12.73,25.89,18.09,39.29C578.97,607.04,571.24,601.53,567.33,598.05z M617.49,565.08c-0.74,5.8-11.31,42.03-13.33,52.46
	c-3.99-17.93-8.39-33.69-15.58-50.66c-7.03-16.57-13.55-33.38-18.87-50.59c-3.26-10.52-6.08-21.66-3.86-32.45
	c2.23-10.79,10.99-20.99,22-21.29c8.27-0.22,15.91,5.16,20.45,12.07c4.53,6.92,6.45,15.19,7.83,23.35
	C619.89,520.12,620.32,542.81,617.49,565.08z M643.35,587.28c-3.16,3.14-14.33,13.53-14.08,17.98c-0.92-15.83,2.34-31.82,9.06-46.16
	c4.24-9.06,9.34-20.28,18.2-25.73c11.61-7.14,21.66,4.71,22.37,16.24c0.59,9.54-10.04,16.92-16.86,21.84
	C655.49,576.19,649.07,581.6,643.35,587.28z"/>
</svg>
