<?xml version="1.0" encoding="utf-8"?>
<!-- Generator: Adobe Illustrator 24.1.0, SVG Export Plug-In . SVG Version: 6.00 Build 0)  -->
<svg version="1.1" id="Monkey" xmlns="http://www.w3.org/2000/svg" xmlns:xlink="http://www.w3.org/1999/xlink" x="0px" y="0px"
	 viewBox="0 0 1190.55 841.89" style="enable-background:new 0 0 1190.55 841.89;" xml:space="preserve">
<style type="text/css">
	.st0{fill:#AF252B;}
</style>
<path class="st0" d="M242.52,711.35c-1.91-5.88-4.28-11.63-6.82-17.25c-7.69-16.95-14.11-34.32-17.15-52.91
	c-0.85-5.19,1.24-10.02,5.86-11.78c10.1-3.84,20.24-7.63,30.48-11.04c13.57-4.52,27.45-8.13,40.86-13.11
	c18.94-7.04,35.25-19.22,52.07-30.42c24.45-16.29,45.65-36.67,66.84-57.04c10.06-9.68,15.69-21.89,13.91-36.73
	c-0.51-4.2-2.11-8.34-2.14-12.51c-0.02-3.25-1.16-5.15-3.3-6.87c-10.85-8.73-18.79-19.97-24.69-32.66
	c-5.17-11.12-9.47-22.68-14.15-34.05c0.49-0.25,0.99-0.5,1.49-0.75c1.12,1.71,2.24,3.43,3.37,5.13
	c15.07,22.55,29.02,46.04,49.64,63.9c1.03,0.89,1.95,2.43,2.14,3.79c1.27,9.13,3.71,18.39,3.2,27.44
	c-1.41,24.82-3.71,49.61-6.35,74.33c-3.32,31.11-7.03,62.18-11.16,93.18c-1.94,14.55-4.63,29.06-8.13,43.28
	c-2.42,9.84,0.2,17.18,9.54,20.49c2.61,0.92,5.18,2,7.66,3.24c9.17,4.6,18.24,9.45,27.5,13.86c1.89,0.9,4.51,0.77,6.65,0.34
	c6.99-1.44,13.93-3.17,20.85-4.91c5.23-1.32,10.52-2.5,15.58-4.35c6.6-2.41,8.05-10.81,2.48-15.19c-2.99-2.36-6.95-3.47-10.59-4.8
	c-2.58-0.94-5.39-1.18-8.03-1.99c-0.98-0.3-1.94-1.2-2.56-2.09c-1.23-1.76-2.02-3.88-3.35-5.55c-2.32-2.92-4.97-5.55-7.35-8.42
	c-2.69-3.24-2.81-6.49,0.27-9.66c1.13-1.17,2.25-2.45,3.01-3.89c7.52-14.38,16.24-28.26,22.19-43.32
	c20.39-51.63,34.38-105.51,48.91-159.15c3.47-12.82,5.6-26.55,0.67-39.53c-4.76-12.51-10.94-24.42-16.51-36.6
	c-0.43-0.95-0.93-1.87-1.4-2.8c1.77,0.98,2.94,2.3,4.08,3.65c14.03,16.66,30.05,29.78,51.83,33.62c16.97,3,33.92,2.77,50.92,1.13
	c1.81-0.18,3.75-2.02,5.1-3.58c2.32-2.67,4.22-5.74,6.29-8.64c0.14,2.38-0.37,4.29-1.31,5.92c-5.14,8.98-6.83,18.88-8.55,29.07
	c-5.23,30.96-10.81,61.88-17.14,92.62c-7.46,36.24-15.92,72.25-23.76,108.4c-2.28,10.51-3.81,21.2-5.9,31.76
	c-0.85,4.28-2.45,8.25-0.27,12.76c5.18,10.71,9.79,21.72,15.16,32.31c1.21,2.39,4.56,5.02,6.98,5.07
	c7.38,0.16,15.25,0.58,22.07-1.81c10.27-3.59,20.23-2.97,30.55-2.2c6.62,0.5,13.34,0.37,19.94-0.25c2.11-0.2,4-2.87,5.99-4.4
	c-1.71-1.84-3.12-4.57-5.19-5.35c-5.04-1.9-10.35-3.08-15.62-4.22c-8.69-1.88-17.43-3.49-26.15-5.22
	c-7.18-1.43-10.52-5.7-11.13-13.33c-0.63-7.95,1.02-15.22,3.91-22.58c12.02-30.51,21.26-62.03,31.15-93.34
	c14.03-44.42,29.73-88.27,44.51-132.44c4.16-12.43,7.62-25.12,11.72-38.74c-0.61,8.16-1.31,15.21-1.62,22.27
	c-0.27,6.24,1.13,6.94,6.58,4.37c22.25-10.5,42.32-24.39,59.28-42.75c4.76-5.15,8.2-11.65,12.09-17.64c3.25-5,6.27-10.16,9.39-15.24
	c-1.72,6.66-4.5,12.77-6.78,19.09c-0.84,2.33-1.26,5.38-0.56,7.66c5.81,18.93,12.12,37.69,17.88,56.64
	c4.38,14.43,6.69,29.48,13.19,43.31c4.01,8.53,8.24,16.34,16.41,21.18c9.84,5.82,17.07,14.45,23.52,23.99
	c8.99,13.28,18.65,26.1,27.29,39.61c21.82,34.12,43.24,68.53,64.79,102.84c0.44,0.7,0.52,1.67,0.72,2.52
	c1.7,7.54,3.2,15.13,5.14,22.61c2.49,9.63,9.4,14.49,19.01,13.31c4.08-0.5,7.14,0.81,10.55,2.94c3.89,2.43,8.35,4.11,12.76,5.33
	c5.87,1.62,11.93,2.47,17.91,3.65c2.42,0.48,4.89,1.53,7.26,1.33c17.83-1.47,35.65-3.03,53.43-5.01c2.38-0.27,5.89-2.66,6.43-4.75
	c0.91-3.56-2.25-6.12-5.42-7.19c-7.19-2.42-14.48-4.55-21.76-6.66c-13.7-3.97-27.38-8.06-41.17-11.68
	c-7.18-1.88-8.77-7.06-9.87-13.67c-0.65-3.91-2.92-7.69-5.05-11.12c-2.99-4.82-6.93-9.02-9.78-13.92
	c-6.33-10.92-12.15-22.15-18.33-33.17c-3.9-6.94-8.62-13.43-12-20.62c-10-21.27-19.39-42.85-29.25-64.2
	c-11.69-25.29-25.75-49.43-33.91-76.41c-0.87-2.89-1.09-6.17-0.87-9.22c0.83-11.48,2.46-22.92,2.91-34.42
	c1.39-35.37-8.28-69.43-11.72-104.24c-1.21-0.08-2.41,0.15-3.6,0.41c-3.01,0.66-5.42,1.05-8.44,1.65
	c-13.4,2.67-29.43,3.16-42.06-2.6c-10.68-4.88-20.47-13.62-23.5-25.32c-2.33-9,0.12-16.98,1.87-25.89
	c1.31-6.64,2.86-13.22,4.66-19.75c0.9-3.26,1.85-6.5,2.87-9.73c0.81-2.58,3.09-6.51,3.07-9.16c0.01,0.71-0.02,1.43-0.02,2.15
	c0.15-0.38,0.3-0.76,0.43-1.15c0.85,1.38,0.83,2.42,0.7,3.46c-1.69,13.56-3.81,27.08-4.95,40.69c-0.88,10.51,2.03,20.07,9.65,27.7
	c8.95,8.97,33.08,14.03,44.5,9.02c5.99-2.62,10.02-7.35,13.91-14.47c-4.04-0.3-6.94-0.63-9.85-0.72
	c-10.16-0.33-20.32-0.52-30.48-0.95c-0.97-0.04-1.89-1.39-2.84-2.13c0.89-0.81,1.68-1.88,2.71-2.36c0.85-0.39,2.01-0.03,3.02-0.1
	c10.74-0.74,21.52-1.12,32.2-2.38c8.06-0.95,10.46-4.08,10.31-12.5c-0.12-6.97-1.07-13.92-1.65-20.87
	c-0.56-6.71-1.12-13.42-1.68-20.14c-0.16-0.85-0.3-1.72-0.47-2.56c-0.65-3.22-1.29-6.67-0.04-9.7c2.12,3.98,8.97,15.32,12.19,25.35
	c0.59-0.48,1.14-0.98,1.64-1.54c10.13-11.32,16.32-25.03,21.11-39.51c9.4-28.41,7.6-56.35-4.21-83.45
	c-7.48-17.15-21.49-27.98-36.46-37.55c-28.7-18.35-59.28-21.92-90.4-9.4c-12.3,4.95-22.98,14.65-33.87,22.93
	c-7.12,5.41-13.49,11.77-17.14,20.79c-6.57,16.26-9.76,33.03-9.24,50.63c0.06,1.93-0.27,3.87-0.41,5.8
	c-1.46-0.52-2.1-1.06-2.15-1.66c-0.78-9.06-2.73-18.26-1.88-27.15c0.96-9.99,4.65-19.67,6.74-29.58c0.5-2.37,0.05-5.63-1.25-7.5
	c-0.86-1.24-4.17-1.39-6.13-0.92c-27.76,6.76-55.42,14-83.24,20.5c-16.01,3.74-32.22,6.62-48.41,9.4
	c-6.43,1.1-13.07,0.89-19.61,1.28c-46.94,2.84-93.87,6.15-140.84,8.35c-25.06,1.18-49.8,4.86-74.61,8.03
	c-22.55,2.87-44.06,9.57-63.88,21.77c-27.3,16.8-50.67,37.59-63.61,68.58c-5.32,12.74-9.24,26.2-12.92,39.59
	c-5.03,18.27-9.4,36.75-18.4,53.46c-9.68,17.96-22.61,32.15-42.68,36.94c-6.2,1.48-12.66,2.13-19.03,2.43
	c-20.89,0.99-38.31-6.84-46.76-29.57c-7.27-19.56-6.57-39.24,2.4-57.93c9.64-20.09,28.99-32.3,51.83-25.11
	c8.48,2.67,13.53,10.01,12.49,19.4c-1.64,14.81-18.2,27.47-32.33,24.79c-1.99-0.38-4.05-0.45-6.08-0.43
	c-6.1,0.06-9.34,3.07-10.3,9.42c-1.56,10.4,3.97,19.04,14.02,22.73c10.97,4.03,21.65,2.11,31.32-3.06
	c16.01-8.55,28.16-21.11,33.53-39.97c6.97-24.48-2.62-52.29-22.93-63.67c-16.66-9.34-34.8-12.13-52.98-8.22
	c-26.91,5.79-48.28,21.96-62.69,45.98c-20.32,33.87-17.73,69.41,0.13,103.19c11.96,22.61,30.86,38.19,55.51,44.85
	c5.91,1.6,11.76,3.97,17.77,4.56c12.97,1.27,26.2,3.41,39,1.96c23.87-2.69,44.57-14.42,63.05-30.15c4.63-3.94,8.25-9.17,12.43-13.71
	c9.43-10.25,14.39-23.21,19.26-36.01c12.08-31.71,29.64-59.47,52.93-83.38c2.75-2.82,4.91-6.38,6.87-9.89
	c9.91-17.71,21.14-34.26,36.92-46.92c0.88-0.71,1.82-1.34,2.73-2c-1,2.96-2.38,5.28-4.03,7.38c-17.19,21.85-28.33,46.88-36.3,73.71
	c-8.42,28.35-12.06,57.52-14.86,86.89c-1.6,16.85-2.25,33.62,0.64,50.41c1.23,7.13,2.77,14.47,2.3,21.58
	c-0.75,11.35-3.27,22.7-10.56,31.65c-5.45,6.68-11.66,12.82-18.15,18.43c-22.21,19.21-45.16,37.3-70.41,52.16
	c-21.14,12.43-41.68,25.98-62.47,39.06c-4.28,2.69-7.19,6.74-7.09,11.87c0.14,7.2,0.45,14.6,2.19,21.5
	c1.52,6.02,5.5,11.32,7.72,17.21c6.22,16.58,11.69,33.37,12.47,51.45c0.25,5.75,3.23,10.66,8.19,13.12
	c4.94,2.46,8.03-1.76,11.04-5.1c0.17-0.18,0.5-0.2,1.16-0.45c0.93,3.15,1.93,6.27,2.76,9.43c1.81,6.97,5.64,12.4,11.76,15.68
	c3.76,2.01,4.85,4.97,4.43,8.91c-0.24,2.26-1.27,4.55-1.01,6.71c0.33,2.77,0.88,6.33,2.66,7.84c1.58,1.33,5.42,1.22,7.47,0.12
	c2.96-1.6,5.38-4.48,7.71-7.12C242.52,732.79,246.29,722.97,242.52,711.35z M917.19,156.72c-3.44,9.35-9.02,11.51-17.54,6.99
	c-1.44-0.77-3.26-0.76-5.4-1.22C898.48,156.86,911.04,153.89,917.19,156.72z M888.07,266.05c0.53-1.01,1.89-2.18,2.83-2.14
	c0.85,0.04,1.93,1.49,2.39,2.56c0.64,1.49,0.52,3.33,1.2,4.79c1.43,3.06,0.6,4.85-2.3,6.01c-3.51,1.41-3.85-1.42-4.55-3.67
	c-0.31-0.99-0.32-2.08-0.49-3.26C887.42,268.96,887.41,267.32,888.07,266.05z M874.72,268.9c0.21-0.57,0.32-1.22,0.67-1.67
	c1.35-1.76,2.78-3.45,4.19-5.17c1.16,2.06,2.31,4.11,3.1,5.52c-0.43,2.14-0.29,3.57-0.9,4.12c-1.8,1.67-4.31,4.56-5.78,4.13
	C872.84,274.91,873.72,271.57,874.72,268.9z M843.18,146.9c9.46-2.39,21.62,2.78,26.57,11.33c0.5,0.87,0.41,2.12,0.59,3.19
	c-0.98-0.25-1.95-0.62-2.94-0.72c-2.22-0.23-4.5-0.7-6.68-0.41c-8.56,1.11-11.06-0.21-15.22-7.75c-0.85-1.53-2.92-2.33-5.21-4.06
	C841.38,147.88,842.22,147.14,843.18,146.9z M710.78,375.38c-2.64-0.48-4.86-1.81-4.67-4.97c0.21-3.56,2.92-4.75,5.83-4.79
	c4.99-0.06,8.84,2.5,12.74,6.06C720.1,375.56,715.59,376.26,710.78,375.38z M725.19,392.12c-0.74,1.16-3.85,2.02-4.98,1.4
	c-1.57-0.87-3.37-3.38-3.2-4.98c0.63-5.88,4.84-10.97,10.64-12.6C730.62,381.55,727.87,387.92,725.19,392.12z M727.82,367.65
	c-4.73-5.3-8.49-9.62-5.82-16.81c1.76-3.01,4.39-2.79,5.87-0.99C733.15,355.61,731.61,360.92,727.82,367.65z M745.39,387.53
	c-2.65,2.45-5.72,1.86-8.18-0.82c-2.92-3.17-4.7-6.76-3.87-13.43c4.61,2.61,8.05,4.27,11.16,6.41
	C747.55,381.79,748.22,384.92,745.39,387.53z M747.46,365.49c-3.29,4.19-9.18,4.77-14.33,4.59c-0.26-5.58,3.87-9.32,7.58-11.76
	c1.69-1.11,5.21-1.34,6.8-0.3C750.35,359.9,749.28,363.18,747.46,365.49z M794.44,230.88c10.55,27.24,17.26,73.28-7.93,94.65
	c-20.95,17.77-38.87-12.55-19.09-27.83c7.98-6.17,13.7-15.04,17.6-24.31C790.68,259.97,792.76,245.35,794.44,230.88z M674.11,175.53
	c3.96-1.9,8.81-1.02,12.62,1.18c6.56,3.79,10.23,10.62,15.78,15.55c5.61,4.98,11.96,9.11,18.75,12.29
	c13.57,6.34,29.01,8.86,43.85,6.46c-5.27,0.85-11.23,4.85-16.47,6.5c-5.61,1.77-11.99,4.07-17.9,4.42
	c-12.74,0.74-30.16,0.56-41.73-5.18c-8.32-4.13-15.93-10.71-20.25-19.03C665.21,190.85,666.2,179.33,674.11,175.53z M659.57,282.52
	c5.53-10.91,15.3-14.37,26.5-16c11.46-1.67,22.95-5.7,33.65-10.06c22.27-9.07,42.85-22.35,60.07-39.17
	c-4.2,10.43-6.7,15.97-9.71,21.54c-3.74,6.94-7.99,13.6-12.74,19.89c-9,11.93-20.09,21.74-31.37,31.35
	c-7.23,6.16-14.52,12.36-22.87,16.88c-9.54,5.15-26.56,10.93-36.57,4.51C656.54,305.05,654.36,292.81,659.57,282.52z M582.84,361
	c-1.18,2.22-6.72,4.27-8.87,3.3c-2.99-1.35-6.64-5.66-6.57-8.61c0.27-10.81,7.2-20.73,17.53-24.56
	C591.17,340.92,587.11,352.94,582.84,361z M583.99,315.97c-9.41-8.97-16.92-16.28-13.12-29.8c2.76-5.75,7.59-5.73,10.55-2.69
	C591.93,293.22,589.91,303.13,583.99,315.97z M619.01,349.63c-4.47,4.85-10.16,4.24-15.04-0.27c-5.79-5.36-9.59-11.64-9.05-23.92
	c8.79,4.08,15.32,6.59,21.31,10.03C622.08,338.83,623.78,344.45,619.01,349.63z M618.47,295.5c5.47,3,3.99,9.13,1.02,13.62
	c-5.38,8.13-16.04,10.07-25.46,10.51c-1.31-10.15,5.68-17.57,12.08-22.58C609.04,294.77,615.43,293.83,618.47,295.5z M607.93,213
	c-1.49,3.28-4.55,3.93-7.86,2.42c-3.92-1.8-6.96-4.41-8.77-10.88c5.26,0.62,9.07,0.81,12.77,1.58
	C607.69,206.87,609.53,209.49,607.93,213z M592.29,187.89c1.13-1.68,4.28-3.26,6.15-2.91c3.35,0.62,3.63,4.06,2.85,6.9
	c-1.41,5.14-6.62,7.96-11.43,9.79C587.45,196.63,589.81,191.58,592.29,187.89z M587.08,209.19c4.91,4.03,4.85,10.96,4,15.87
	c-0.23,1.35-2.77,3.36-4.04,3.22c-1.79-0.19-4.41-1.81-4.88-3.35C580.46,219.26,582.37,212.94,587.08,209.19z M577.15,185.05
	c7.11,3.27,7.75,8.76,6.86,16.43c-6.41-3.06-11.56-5.57-11.89-13.24C572.58,184.79,575.1,183.97,577.15,185.05z M568.59,205.78
	c4.58-1.99,9.12-1.13,14.1,0.64c-2.72,5.35-6.6,7.74-11.38,8.8c-2.62,0.58-5.18,0.22-6.23-2.76
	C563.89,209.09,565.93,206.94,568.59,205.78z M554.72,314.64c9.1-0.86,16.5,3.24,24.15,9.16c-7.78,7.75-15.89,9.69-24.8,8.81
	c-4.88-0.49-9.13-2.58-9.26-8.36C544.65,317.72,549.42,315.14,554.72,314.64z M423.33,365.47c-2.62,0.58-5.18,0.22-6.23-2.76
	c-1.19-3.36,0.85-5.51,3.51-6.67c4.58-1.99,9.12-1.13,14.1,0.64C431.99,362.02,428.11,364.41,423.33,365.47z M424.15,338.5
	c0.45-3.45,2.97-4.27,5.02-3.19c7.11,3.27,7.75,8.76,6.86,16.43C429.62,348.68,424.48,346.16,424.15,338.5z M443.1,375.31
	c-0.23,1.35-2.77,3.36-4.04,3.22c-1.79-0.19-4.41-1.81-4.88-3.35c-1.7-5.66,0.21-11.99,4.92-15.73
	C444.01,363.47,443.95,370.4,443.1,375.31z M444.31,338.15c1.13-1.68,4.28-3.26,6.15-2.91c3.35,0.62,3.63,4.06,2.85,6.9
	c-1.41,5.14-6.62,7.96-11.43,9.79C439.47,346.88,441.84,341.84,444.31,338.15z M459.95,363.25c-1.49,3.28-4.55,3.93-7.86,2.42
	c-3.92-1.8-6.96-4.41-8.77-10.88c5.26,0.62,9.08,0.81,12.77,1.58C459.71,357.12,461.55,359.75,459.95,363.25z M477.57,176.61
	c12.84,1.34,26.96,2.81,38.68,8.6c20.14,9.95,4.87,30.74-13.6,25.35c-5.01-1.46-9.54-4.21-14-6.92
	c-10.48-6.37-20.8-9.16-32.65-12.37c-9.82-2.66-31.64-9.38-41.45-5.08C434.24,177.55,456.21,174.38,477.57,176.61z M484.12,235.01
	c12.78,10.4,53.68,44.88,29.75,61.68c-5.61,3.94-13.1,4.55-19.71,2.72c-16.61-4.59-20.46-17.13-26.68-31.41
	c-12.39-28.45-34.41-50.96-60.59-67.63C435.12,204.72,461.98,217.01,484.12,235.01z M394.71,209c0.16,0.09,1.21,1.49,1.34,1.62
	c13.68,13.68,23.48,31.17,28.22,49.92c3.18,12.59,14.4,32.24-3.05,39.85c-7.86,3.42-17.76,0.36-22.97-6.44
	c-9.84-12.85,0.25-26.04,2.39-39.42C403.08,239.21,401.11,223.16,394.71,209z"/>
</svg>
