<?xml version="1.0" encoding="utf-8"?>
<!-- Generator: Adobe Illustrator 24.1.0, SVG Export Plug-In . SVG Version: 6.00 Build 0)  -->
<svg version="1.1" id="Pig" xmlns="http://www.w3.org/2000/svg" xmlns:xlink="http://www.w3.org/1999/xlink" x="0px" y="0px"
	 viewBox="0 0 1190.55 841.89" style="enable-background:new 0 0 1190.55 841.89;" xml:space="preserve">
<style type="text/css">
	.st0{fill:#AF252B;}
</style>
<path class="st0" d="M252.65,690.98c5.56-0.3,7.71-3.32,6-8.58c-1.56-4.83-3.46-9.55-5.06-14.36c-0.52-1.56-0.55-3.27-0.85-4.91
	c-0.79-4.43-1.31-8.94-2.48-13.27c-1.39-5.14-3.77-10.03-4.97-15.2c-1.72-7.46-1.99-15.32-4.24-22.59
	c-5.7-18.4-3.26-36.12,2.48-53.91c3.87-11.99,7.07-24.2,10.75-36.25c6.51-21.32,8.84-43.02,6.55-65.22
	c-0.78-7.5-1.21-15.04-1.64-22.57c-0.09-1.59,0.11-3.51,0.93-4.78c4.02-6.19,8.5-12.09,12.44-18.32c4.12-6.5,9.76-9.95,17.41-10.37
	c0.43-0.02,0.85-0.06,1.28-0.09c4.43-1.8,9.06-3.15,13.59-3.61c8.66-0.88,17.73-0.47,26.38,0.36c6.26,0.6,12.49,1.58,18.63,2.94
	c5.48,1.21,12.15,1.82,16.83,5.1c-14.57-0.64-29.26,0.87-43.39,4.49c6.03,5.51,12.05,11.03,17.96,16.67c4,3.82,5.99,8.34,4.41,14.16
	c-0.71,2.59-0.24,5.51-0.29,8.28c-0.32,19.22,4.56,37.43,10.45,55.5c11.25,34.52,16.91,69.94,16.06,106.29
	c-0.13,5.75,1.48,10.47,4.73,15.02c2.49,3.48,4.98,3.69,8.01,0.98c0.79-0.7,1.53-1.47,2.57-2.48c1.18,2.24,2.28,4.24,3.31,6.28
	c4.49,8.92,8.76,17.97,13.56,26.72c1.62,2.95,4.14,6.4,7.05,7.47c8.45,3.11,17.21,5.5,26.01,7.44c5.54,1.22,11.12-0.58,14.37-5.38
	c2.72-4.03,6.44-5.37,10.54-6.63c1.91-0.59,3.89-0.97,5.75-1.69c4.53-1.77,5.13-3.73,2.2-7.65c-2.3-3.08-4.82-6-7.3-8.94
	c-10.61-12.59-21.3-25.11-31.8-37.79c-1.38-1.67-2.27-4.02-2.68-6.19c-2.85-15.26-5.81-30.51-8.17-45.85
	c-3.33-21.61-3.39-43.21,1.53-64.68c2.16-9.43,4.14-18.9,5.88-28.42c0.81-4.42-0.79-8.04-5-10.48c-3.48-2.02-6.63-4.6-10.26-7.15
	c0.87-0.17,1.19-0.34,1.46-0.27c23.03,6.06,46.06,12.11,69.07,18.28c2.8,0.75,5.41,2.21,8.15,3.19c1.38,0.5,3.36,1.37,4.21,0.79
	c1.03-0.7,1.58-2.73,1.6-4.2c0.05-4.77-0.24-9.55-0.4-14.33c1.38,1.29,2.04,2.64,2.57,4.04c5.93,15.82,12.03,31.58,17.73,47.48
	c12.41,34.58,25.89,68.81,34.93,104.52c1.76,6.94,5.18,13.47,6.83,20.43c2.31,9.75,2.82,19.68,0.57,29.68
	c-1.11,4.92-1.09,10.08-1.79,15.1c-2.89,20.53-5.87,41.06-8.81,61.58c-0.15,1.06-0.36,2.13-0.37,3.2c-0.08,4.87,1.06,5.65,5.78,4.05
	c1.41-0.47,2.83-0.9,5.2-1.66c0.23,6.86,0.07,13.17,0.71,19.4c2.1,20.39-1.54,14.29,14.57,25.88c0.5,0.36,1.04,0.67,1.51,1.07
	c3.47,3.02,7.25,3.03,11.18,1.12c5.25-2.55,10.44-5.24,15.73-7.72c1.29-0.6,2.91-1.03,4.27-0.82c4.24,0.65,8.45,1.55,12.63,2.53
	c5.63,1.31,10.24-0.72,14.61-3.97c2.89-2.15,3.52-4.59,2.23-8.04c-2.58-6.9-4.68-13.99-7.2-20.92c-4.92-13.56-4.58-27.87-6.08-41.91
	c-2.66-24.91-2.64-49.66,2.84-74.37c2.1-9.47,2.89-19.55,2.27-29.22c-0.73-11.29-3.23-22.53-5.72-33.63
	c-3.55-15.84-5.57-31.82-6.2-48.01c-0.1-2.64,0.41-3.96,3.22-5.03c18.95-7.25,37.79-14.8,56.67-22.25
	c5.54-2.18,10.53-5.27,17.12-1.24c4.48,2.74,10.49,2.99,15.93,4.38c-0.13,1.24-0.56,2.49-0.34,3.6c1.57,7.98,2.82,16.06,5.03,23.87
	c5.95,21,12.49,41.84,18.48,62.83c3.74,13.14,5.76,26.88,10.6,39.56c7.06,18.5,6.5,37.31,6.06,56.39
	c-0.23,9.68,0.41,19.4,1.02,29.07c0.33,5.23,4.11,7.14,8.75,4.61c2.51-1.36,4.65-3.4,7.52-5.55c3.15,5.11,6.09,10.15,9.29,15.03
	c3.71,5.65,7.21,11.51,11.58,16.61c5.55,6.47,14,8.01,21.64,10.68c8.99,3.14,16.84,1.75,23-6.39c3.17-4.19,7.11-7.24,13.16-7.3
	c3.03-0.03,6.14-2.44,9-4.14c2.47-1.46,2.52-3.61,0.65-5.84c-1.98-2.36-4.04-4.68-5.73-7.24c-11.75-17.86-23.57-35.68-34.99-53.75
	c-2.21-3.49-3.24-7.93-4.01-12.08c-1.85-10.1-2.31-20.54-5-30.38c-4.33-15.79-8.56-31.5-8.32-47.98
	c0.19-13.67-0.11-27.47,1.69-40.97c1.65-12.42,5.79-24.51,8.86-36.75c1.67-6.64,3.39-13.27,5.34-20.9
	c-2.64,0.89-4.34,1.38-5.98,2.04c-15.84,6.36-31.25,6.53-45.64-3.73c-4.82-3.44-9.95-4.16-15.63-4.23
	c-10.05-0.12-19.86-1.29-28.79-6.81c-17.65-10.91-31.22-25.84-42.93-42.65c-1.13-1.62-1.6-3.7-2.38-5.56
	c1.55-0.07,2.4,0.27,2.85,0.9c10.98,15.6,26.16,26.3,42.14,36.02c2.21,1.34,4.69,2.49,7.19,3.02c2.35,0.5,4.9,0.05,7.36,0.02
	c-1-2.54-1.51-5.44-3.08-7.57c-8-10.9-16.68-21.33-24.28-32.49c-4.01-5.88-6.42-12.88-9.32-19.48c-0.68-1.54-0.41-3.5-0.64-5.92
	c1.31,0.74,1.71,0.83,1.81,1.05c1.36,2.92,2.58,5.9,4.02,8.78c9.95,19.99,24.38,36.44,40.39,51.77
	c9.55,9.15,20.17,15.92,32.93,19.58c11.81,3.39,23.32,3.72,34.73-1.32c4.83-2.13,9.55-2.46,14.76-0.74
	c9.34,3.09,18.76,2.98,27.74-1.62c1.87-0.96,3.46-2.48,5.46-3.95c-8.47-2.53-16.04-4.53-23.41-7.09c-5.64-1.96-6.47-4.54-4.87-9.23
	c3.17,2.03,6.43,4.5,10.03,6.29c2.85,1.42,6.12,2,9.2,2.96c10.83,3.36,20.99,3.54,30.3-4.59c2.98-2.6,7.31-3.32,11.76-2.26
	c5.35,1.26,11.29,3.4,16.23,2.17c6.6-1.65,13.2-5.35,18.39-9.8c2.77-2.38,2.65-8.19,3.67-12.49c0.42-1.78,0.64-3.68,0.56-5.5
	c-0.48-11.36-3.78-21.41-14.79-26.76c-6.17-3-12.82-5-19.25-7.46c-1.14-0.44-2.25-0.94-3.37-1.41c9.53-3.17,17.59,2.05,26.28,3.71
	c-0.5-15.08-0.98-29.84-1.49-44.59c-0.17-5.06,0.49-10.36-0.81-15.13c-3.98-14.66-8.77-29.1-13.12-43.66
	c-0.82-2.74-1.51-5.65-1.52-8.49c-0.02-5.38,0.56-10.75,0.77-16.13c0.22-5.83,1.41-11.9,0.25-17.46
	c-3.53-16.84-7.69-33.57-12.26-50.17c-1.45-5.24-0.18-8.78,3.94-10.84c10.42-5.21,21.07-9.98,31.78-14.57
	c2.18-0.93,5.03-0.29,7.57-0.38c-5.62,4.69-11.33,8.26-16.75,12.23c-7.25,5.3-12.32,11.36-12.85,14.86
	c6.17-1.48,10.62-7.69,17.67-6.41c-4.23,3.16-8.55,6.07-13.12,8.51c-3.85,2.06-5.75,5.4-5.93,9.26c-0.21,4.48,0.27,9.1,1.21,13.5
	c1.13,5.24,3.77,10.21,4.49,15.46c1.11,8.23,5.51,12.48,13.23,14.53c4.97,1.32,9.49,4.72,15.04,3c6.87-2.13,13.7-4.39,20.58-6.47
	c14.1-4.27,19.86-12.41,17.87-26.82c-3.36-24.35-4.05-48.4,4.82-71.92c1.4-3.7-0.25-7.22-3.61-9.14c-2.73-1.56-5.96-3.05-8.99-3.12
	c-8.28-0.17-16.6,0.19-24.87,0.78c-9.85,0.7-19.6,1.65-29.17-2c-17.31-6.6-33.77-3.44-49.81,4.6c-2.64,1.32-5.66,1.87-8.51,2.78
	c-0.23-0.52-0.46-1.04-0.69-1.56c2.23-1.9,4.45-3.8,6.91-5.89c-25.33-14.74-68.79-22.5-82.46-14.8c2.25,2,4.58,3.75,6.5,5.88
	c1.56,1.73,2.63,3.92,3.91,5.9c-2.48-0.41-5.4-0.12-7.37-1.35c-19.96-12.49-41.94-20.6-63.44-29.77
	c-7.23-3.08-13.06-1.67-17.21,4.93c-3.19,5.07-6.27,10.91-7,16.7c-3.05,24.36-13.27,45.62-26.49,65.75c-1.04,1.58-2.8,2.7-4.23,4.03
	c-0.42-0.3-0.85-0.61-1.28-0.91c10.77-23.04,17.98-46.96,19.6-72.57c-4.35-0.31-7.72-0.71-11.1-0.78c-19-0.37-37.74-2.38-56.02-7.93
	c-14.7-4.47-29.34-9.25-44.25-12.9c-27.17-6.65-54.41-13.14-81.83-18.62c-25.02-5-50.4-8.15-75.47-12.93
	c-18.74-3.57-37.52-5.94-56.42-3.51c-16.59,2.13-33.15,5.16-49.43,9.02c-32.44,7.69-63.76,18.62-92.73,35.53
	c-3.4,1.99-6.82,3.95-10.39,6.02c-0.64-3.54-0.8-6.67-1.77-9.52c-5.73-16.78-25.91-22.58-42.22-12.33
	c-7.58,4.76-12.32,11.07-11.74,20.42c0.06,1.06,0.85,2.92,1.34,2.94c1.36,0.04,2.89-0.47,4.07-1.21c1.09-0.68,1.65-2.23,2.75-2.89
	c6.36-3.84,14.99-1.65,20.6,5.08c5.37,6.44,5.62,13.91,0.8,19.77c-13.79,16.75-24.7,35.38-33.3,55.15
	c-8.25,18.96-8.83,39.5-8.83,59.86c0,17.38,0.91,34.75,0.81,52.13c-0.12,21.8,0.28,43.65,7.28,64.4
	c7.07,20.95,16.02,41.27,23.96,61.93c2.8,7.28,5.23,14.71,7.49,22.18c1.1,3.65,0.93,7.71,2.19,11.29
	c3.43,9.75,4.23,19.81,4.58,29.99c0.34,9.7,0.27,19.44,1.26,29.07c0.99,9.59,1.87,19.49,5.03,28.47c2.98,8.48,4.96,16.11,3.35,25.32
	c-3.79,21.63-6.48,43.47-9.3,65.26c-0.54,4.16,0.36,8.51,0.63,13.26c2.03-0.73,2.76-0.95,3.45-1.24c2.66-1.14,5.31-2.31,7.96-3.47
	c0.84,3.05,1.69,6.09,2.53,9.14c0.04,0.15,0.03,0.31,0.04,0.46c0.44,9.98,0.86,19.96,1.32,29.94c0.12,2.57-0.18,5.38,3.22,6.36
	c5.61,1.62,11.14,3.51,16.8,4.92c6.2,1.55,12.49,0.28,16.97-3.79c4.67-4.24,9.5-4.28,14.9-3.82
	C249.27,690.75,250.97,691.07,252.65,690.98z M894.48,420.88c0.44-1.78,2.97-3.04,5.33-5.27c3.82,2.47,7.27,4.07,9.85,6.57
	c1.96,1.9,3.65,5.01,1.15,7.85c-2.44,2.76-5.7,3.55-9.24,2.26C897.57,430.85,893.49,424.88,894.48,420.88z M865.54,419.55
	c2.94-0.68,4.99,1.29,5.95,4.94c-2.01,2.94-3.77,6.09-6.11,8.74c-1.34,1.52-3.58,2.27-5.45,3.29c-2.14,1.16-4.84,3-6.42,0.15
	c-1.16-2.1-1.7-5.56-0.76-7.62C855.14,423.78,859.95,420.85,865.54,419.55z M847.52,207.04c4.81,0.55,6.01,4.02,4.55,6.9
	c-4.37,9.96-11.99,10.98-22.67,9.93C833.49,214.88,836.87,207.68,847.52,207.04z M848.48,235.05c2.36,1.53,4.63,5.87,4.19,8.48
	c-0.79,4.67-5.56,5.14-9.52,4.13c-7.17-1.84-11.22-9.01-13.88-15.65C836.23,228.53,843.3,231.7,848.48,235.05z M823.43,251.86
	c-0.95,5.03-4.56,7.65-9.47,5.52c-4.6-2-5.57-6.24-3.55-10.86c2.4-5.49,5.96-9.78,14.91-12.45
	C824.58,241.39,824.4,246.7,823.43,251.86z M813.71,197.81c4.64-1.73,7.68,1.05,9.36,4.73c2.88,6.32,1.78,12.65-0.56,19.61
	c-7.5-3.66-10.91-8.99-12.49-15.6C809.15,202.92,809.59,199.35,813.71,197.81z M796.77,221.85c7.83-2.5,16.67,0.01,21.98,6.47
	c-5.48,6.92-15.12,7-21.96,5.94c-1.88-0.29-4.73-3.76-4.57-5.54C792.45,226.22,794.63,222.53,796.77,221.85z M775.29,285.5
	c1.26,2.57,3.1,4.85,4.93,7.66c-1.17,0.41-1.82,0.81-1.98,0.67c-4.23-3.76-8.85-2.03-13.71-1.68c-7.47,0.53-13.76-3.73-19.71-7.83
	c-1-0.69-1.27-3-1.11-4.47c0.06-0.52,2.42-1.03,3.76-1.11c5.19-0.3,10.39-0.52,15.59-0.6C768.6,278.06,772.75,280.32,775.29,285.5z
	 M742.67,165.96c-2.12-1.98-3.89-4.38-5.58-6.75c-0.86-1.21-1.18-2.79-1.74-4.21c0.4-0.32,0.81-0.64,1.21-0.95
	c2.41,1.93,4.8,3.88,7.22,5.79c2.37,1.88,4.77,3.72,7.82,6.09c-1.83-14.21-11.01-23.42-18.58-33.5c0.27-0.41,0.54-0.81,0.81-1.22
	c1.59,0.37,3.34,0.43,4.74,1.16c10.7,5.56,18.69,13.89,24.52,24.38c1.77,3.18,2.45,6.49,0.34,9.58
	c-3.33,4.88-6.43,10.14-10.67,14.12c-6.38,5.97-13.65,11-20.58,16.37c-1.14,0.89-2.49,1.51-3.74,2.25c-0.36-0.5-0.72-1-1.08-1.49
	c4.39-3.74,8.45-8,13.25-11.1C748.75,181.24,750.13,172.95,742.67,165.96z M262.22,360.1c-2.55,4.32-6.87,4.77-11.21,2.19
	c-5.15-3.06-8.97-7.11-10.53-16.32c7.18,1.63,12.42,2.46,17.43,4.06C262.78,351.59,264.93,355.49,262.22,360.1z M238.9,341.8
	c-2.59-7.33,1.42-13.96,5.38-18.69c1.8-2.16,6.4-3.88,8.93-3.12c4.54,1.35,4.42,6.15,2.93,9.95
	C253.43,336.83,245.82,339.97,238.9,341.8z M488.84,320.8c-10.53,3.73-18.57-1.69-22.31-12.31c-4.43-12.6-5.15-25.01,5.38-42.97
	c9.93,13.06,17.72,21.99,23.97,31.89C501.99,307.06,500.09,316.81,488.84,320.8z M564.03,447.49c-14.15-0.06-34.31,5.33-47.12-2.07
	c-4.65-2.68-8.21-7.82-7.65-13.16c0.55-5.16,4.82-9.35,9.69-11.16c4.86-1.81,10.22-1.65,15.38-1.1
	c29.14,3.11,58.5,17.35,81.26,35.42C599.1,449.35,581.5,447.57,564.03,447.49z M656.46,224.77c2.21,4.23,4.1,8.67,6.7,12.63
	c5.55,8.45,10.31,10.14,20.39,7.83c3.58-0.82,7.08-2.03,10.67-2.78c1.91-0.4,3.94-0.19,5.91-0.26
	c-6.47,7.45-14.28,12.18-22.68,15.85c-11.94,5.21-12.92,4.76-16.63-7.69c-2.1-7.03-3.56-14.26-5.19-21.42
	C655.33,227.63,655.62,226.19,656.46,224.77z M635.5,306.72c7.47-3.16,16.61-1.98,23.04,2.98c6.43,4.95,9.89,13.49,8.74,21.52
	c-4.35,30.35-25.08,59.73-20.68,90.08c-13.65-24.83-21.61-52.76-23.1-81.05C622.97,330.29,624.51,311.36,635.5,306.72z
	 M603.97,157.43c4.81,0.55,6.01,4.02,4.55,6.9c-4.37,9.96-11.99,10.98-22.67,9.93C589.94,165.27,593.32,158.07,603.97,157.43z
	 M604.93,185.43c2.36,1.53,4.63,5.87,4.19,8.48c-0.79,4.67-5.56,5.14-9.52,4.13c-7.17-1.84-11.22-9.01-13.88-15.65
	C592.68,178.91,599.75,182.08,604.93,185.43z M570.16,148.2c4.64-1.73,7.68,1.05,9.36,4.73c2.88,6.32,1.78,12.65-0.56,19.61
	c-7.5-3.66-10.91-8.99-12.49-15.6C565.6,153.3,566.04,149.73,570.16,148.2z M581.77,184.46c-0.74,7.32-0.92,12.63-1.9,17.79
	c-0.95,5.03-4.56,7.65-9.47,5.52c-4.6-2-5.57-6.24-3.55-10.86C569.26,191.41,572.82,187.13,581.77,184.46z M553.22,172.23
	c7.83-2.5,16.67,0.01,21.98,6.47c-5.48,6.92-15.12,7-21.96,5.94c-1.88-0.29-4.73-3.76-4.57-5.54
	C548.9,176.6,551.08,172.91,553.22,172.23z M564.28,327.75c10.04,6.73,17.26,16.86,23.43,27.25c8.71,14.65,18.09,28.71,24.71,44.33
	c6.88,16.23,14.81,32.02,23.73,47.23c-17.61-13.15-36.28-26.98-55.09-38.36c-22.25-13.46-64.28-36.84-60.73-67.93
	c0.43-3.77,1.55-7.52,3.76-10.6C533.62,316.39,552.46,319.83,564.28,327.75z M530.88,239.32c5.82,8.82-1.25,16.84-9.25,21.21
	c-14.49,7.92-31.99,2.38-46.44-4.41c6.06-16.23,22.41-21.82,35.95-24.24C517.32,230.77,527.63,234.41,530.88,239.32z M466.98,187.68
	c8.68-6.43,15.91-2.58,17.93,4.33c8.03,22.89-2.84,36.14-21.86,50.67C456.05,221.8,450.6,204.91,466.98,187.68z M425.68,309.19
	c-3.52,2.39-13.44,1.06-15.89-2.08c-3.41-4.39-5.47-13.73-3.02-18.1c8.96-15.98,27.18-25.34,45.68-22.9
	C454.04,285.72,438.45,300.52,425.68,309.19z M420.27,217.54c14.3,5.92,22.14,17.9,28.91,32.82c-17.78,5.44-31.46,1.94-44.1-6.44
	c-6.93-4.59-11.63-11.09-7.25-19.85C402.76,214.18,411.94,214.09,420.27,217.54z M321.83,110.59c24.98,1.37,76.55,7.96,83.09,37.12
	c1.46,6.51,2.83,13.75-0.51,19.53c-3.06,5.3-9.41,7.91-15.51,8.45c-8.76,0.78-17.56-1.95-25.17-6.35
	c-9.94-5.74-17.24-14.5-26.32-21.31c-9.35-7.01-19.54-12.93-30.2-17.69c-21.31-9.53-44.76-14.46-68.12-13.72
	C266.53,112.85,294.17,109.07,321.83,110.59z M304.25,169.98c14.04,12.28,26.03,26.89,35.43,43.01
	c12.07,20.7,21.95,59.78-9.63,69.94c-9.84,3.17-21.21,1.04-29.23-5.47c-11.52-9.35-12.35-25.47-14.74-39.05
	c-2.57-14.55-6.79-28.79-12.8-42.3c-6.12-13.77-14.06-26.75-23.74-38.31c-6.44-7.68-21.25-26.62-31.73-28.28
	C249.65,134.56,279.99,148.76,304.25,169.98z M196.43,267.11c-1.95-3.02-1.68-10.9-1.64-14.49c0.18-16.34,10.4-31.62,13.61-47.5
	c3.39-16.76,2.41-34.57-3.98-50.52c1.79,4.46,9.13,9.68,12.2,13.69c3.72,4.85,7.09,9.98,10.08,15.32
	c5.98,10.68,10.46,22.21,13.26,34.12c4.19,17.83,8.95,48.75-13.98,56.81c-7.86,2.76-16.76,1.03-24.09-2.93
	C199.79,270.48,197.73,269.11,196.43,267.11z M230.85,340.68c-8.42-5.16-15.16-9.4-14.49-20.04c1.13-4.71,4.73-5.47,7.41-3.67
	C233.12,322.52,233.2,330.2,230.85,340.68z M211.28,357.8c-3.7,0.42-7.19-0.46-8.21-4.73c-1.15-4.82,1.98-7.5,5.84-8.71
	c6.62-2.09,12.77-0.22,19.39,2.95C223.75,354.3,218.03,357.04,211.28,357.8z M231.1,378.16c-2.44-0.53-5.84-3.14-6.25-5.35
	c-1.52-8.07,2.04-16.54,9.1-21.03c6.2,6.29,5.1,15.86,3.21,22.52C236.64,376.14,232.85,378.54,231.1,378.16z"/>
</svg>
