<?xml version="1.0" encoding="utf-8"?>
<!-- Generator: Adobe Illustrator 24.1.0, SVG Export Plug-In . SVG Version: 6.00 Build 0)  -->
<svg version="1.1" id="Rat_1_" xmlns="http://www.w3.org/2000/svg" xmlns:xlink="http://www.w3.org/1999/xlink" x="0px" y="0px"
	 viewBox="0 0 1190.55 841.89" style="enable-background:new 0 0 1190.55 841.89;" xml:space="preserve">
<style type="text/css">
	.st0{fill:#B0252C;}
</style>
<path class="st0" d="M191.32,278.24c-0.58,4.39,0.07,8.84,1.56,13.19c-20.4,0.46-40.71,5.65-58.74,15.23
	c20.25-6.09,41.64-8.34,62.71-6.68c2.77,4.77,6.24,9.28,9.82,13.26c0.6,0.67,1.22,1.32,1.82,1.98
	c-14.76,4.85-29.53,9.69-44.29,14.54c17.66,1.19,35.51-0.82,52.5-5.79c0.02,0.02,0.04,0.04,0.06,0.06c2.39-1.02,5.39-1.01,8.17-0.47
	c2.53-1.48,2.83-5.41,1.42-8.11c-1.49-2.86-4.18-4.88-6.15-7.44c-1.96-2.56-3.11-6.36-1.14-8.91c1.49-1.94,4.34-2.43,6.67-1.69
	c2.33,0.73,4.22,2.46,5.81,4.31c5.6,6.5,8.44,15.26,7.89,23.81c0.35-0.11,0.71-0.2,1.06-0.36c5.2-2.33,6.71-8.86,7.57-14.49
	c1.56,4.62,3.14,9.43,2.61,14.28c-0.53,4.85-3.81,9.77-8.63,10.54c-4.96,0.79-9.51-2.84-14.47-3.63c-1.07-0.17-2.15-0.15-3.21-0.04
	c9.64,9.76,19.37,19.34,28.57,29.61c6.76,7.55,14.47,14.98,22.86,21.52c6.01,13.95,12.02,27.9,18.04,41.86
	c4.37,0.17,8.07-3.79,8.99-8.06c1.46-6.75-4.09-13.28-4.07-19.48c1.78,0.83,3.58,1.62,5.39,2.34c4.41,5.82,8.49,12,12.75,17.88
	c3.35,0.87,6.7-2.15,7.5-5.52c0.48-2.03,0.3-4.11-0.14-6.16c0.37,0.1,0.74,0.21,1.12,0.3c-2.46-8.36-4.92-16.73-7.38-25.09
	c0.24,0.3,0.49,0.61,0.73,0.91c18.58,1.32,37.17,2.63,55.75,3.95c-12.15,5.1-25.47,7.37-38.62,6.58c-2.62-0.16-5.33-0.42-7.8,0.48
	c-0.12,0.04-0.24,0.11-0.36,0.16c4.53,5.63,9.06,11.27,13.58,16.9c12.33,2.91,24.67,5.81,36.63,9.98c4.27,1.49,6.53,2.23,8.19,3.89
	c14.89,4.01,28.47,13,37.67,25.4c-10.2-4.47-21.08-7.38-32.14-8.68c0.58,11.55-4.09,23.84-11.04,32.64
	c-6.17,7.82-10,5.46-16.83,9.22c-25.18,13.86-53.98,1.06-75.73,18.9c2.11-1.35,5.1-1.14,7,0.5c11.87-1.24,25.33-0.42,37.2-1.66
	c-14.15,0.76-29.61,12.01-31.77,26.38c10.54-2.84,15.65-10.24,24.76-14.42c5.51-2.53,11.38-1.85,16.94-1.21
	c-8.2,8.04-17.24,16.03-24.01,24.99c14.24,0.74,26.94-12.48,41.4-14.37c2.97-0.39,26.55,4.79,24.09,6.21
	c14.59-8.43,14.7-27.02,25.11-38.85c9.56-10.86,30.88-16.98,44.62-16.62c3.76,0.1,22.36,3.11,39.3,4.51
	c7.95,0.41,15.92,0.43,23.87,0.05c3.33-0.6,5.46-1.66,5.72-3.36c-0.16,1.05-0.32,2.07-0.49,3.08c32.43-2.22,64.43-10.87,93.48-25.47
	c-3.72,11.38-15.61,17.73-26.69,22.26c-22.7,9.28-46.54,15.77-70.81,19.34c-2.51,6.06-6.5,11.25-13.77,16.12
	c-10.76,7.21-15.66,14.21-26.41,21.41c-18.08-0.26-35.76,11.34-42.73,28.03c15.97-7.31,36.81-9.94,54.33-8.7
	c-11.39,3.57-21.44,11.24-27.89,21.28c12.46-6.14,27.01-9.18,40.56-6.12c0.09,6.59,0.18,13.18,0.27,19.77
	c10.94-4.27,16.15-16.43,20.62-27.29c12.08-29.36,43.5-37.28,72.82-40.18c24.86-2.46,51.24-2.4,75.33-2.11
	c21.19,0.25,43.37,0.28,62.16-9.51c7.83-4.08,14.76-9.74,22.6-13.8c0.78-0.41,1.52-0.8,2.23-1.18
	c12.81-13.06,20.64-31.13,19.9-49.46c8.61,13.41,9.85,30.81,4.58,45.77c26.33-2.5,52.27-8.97,76.7-19.09
	c-27.32-18.46-48.3-46.29-58.18-77.77c22.15,25.79,46.56,49.62,72.85,71.17c0.45-0.22,0.9-0.43,1.35-0.65
	c2.12,4.31,8.27,4.98,10.39,9.29c-7.01,21.66-21.59,30.08-38.47,42.74c-14.97,11.22-27.13,28.14-35.46,44.82
	c13.07-6.8,27.24-14.67,40.31-21.47c-5.65,9.74-11.31,19.48-16.96,29.22c14.32-7.62,28.64-15.24,42.96-22.86
	c0.74,1.22,2.83,1.65,3.58,2.87c-6.35,8.1-8.03,19.62-4.25,29.19c4.31-10.1,9.04-20.73,18.04-27.02c7.21-5.04,17.15-5.65,24.65-1.01
	c1.09,0.67,14.27,17.26,14.28,16.5c0.01-18.09-5.12-39.99-3-57.44c2.17-17.86,20.99-33.61,31-47.57
	c18.67-26.06,38.65-53.62,35.03-87.48c-1.64-15.28-3.19-28.53-2.76-42.82c-1.21-16.72-2.42-33.44-3.63-50.16
	c12.61,24.9,20.99,51.91,24.82,79.56c9.56,19.3,17.73,40.76,23.89,63.16c3.29,0.39,6.58,0.79,9.88,1.18
	c-1.01,3.89-3.74,7.13-7.19,9.17c5.08,20.81,8.37,42.24,9.39,63.36c3.95,0.12,7.91-0.52,11.57-2.03
	c-2.84,4.75-6.73,8.85-11.26,12.02c0.45,33.34-5.04,65.49-18.47,92.62c2.47,0.84,5.02,1.41,7.62,1.67
	c-3.66,2.89-7.79,5.17-12.17,6.77c-8.47,14.57-19.47,27.45-33.39,37.95c-13.16,9.93-26.5,19.05-40.08,27.46
	c3.23,3.22,7.01,5.87,11.17,7.74c-6.92-0.64-13.85-1.29-20.77-1.93c-46.7,27.45-96.45,46.05-152.22,55.5
	c-26.95,4.57-60.69,11.73-87.72,8.03c-42.09-5.77-82.41-19.93-123.11-31.54c-45.52-12.99-94.65-21.54-139.34,0.01
	c-14.94,7.2-25.86,22.23-26.06,38.82c24.92-21.81,60.46-28.12,93.36-24.31c32.9,3.8,63.99,16.58,94.63,29.14
	c33.89,13.88,71.15,28.93,107.68,32.67c35.38,3.63,74.12-2.17,108.69-9.39c70.47-14.72,137.62-45.97,193.42-91.59
	c20.86-17.05,40.4-36.26,54.2-59.4c17.01-28.52,23.97-68.27,24.78-101.34c0.96-39.3-3.08-79.03-10.58-117.58
	c-14.2-73.04-42.41-143.4-83.1-205.72c-21.03-49.94-69.09-89.41-116.81-110.85c-44.66-20.07-97.89-34.74-146.41-25
	c-51.05,10.24-97.06,36.86-142.62,62.08c-42.58,23.57-123.46,75.98-172.89,47.59c-10.57-6.07-16.96-16.84-30.58-11.53
	c-8.73,3.4-14.82,11.23-20.46,18.71c-3.08,4.09-5.71,7.97-8.43,11.46c9.15-2,17.99-5.45,26-10.31
	c-11.27,12.58-30.6,22.57-48.28,24.91c-11.14,2.69-23.49,3.08-34.61,6.36c-21.26,6.27-40.79,15.81-59.41,27.56
	c-10.86-21.14-24.55-40.83-40.67-58.3c10.53,21.32,19.53,43.39,26.96,65.97c-4.07,1.72-8.44,3.26-12.79,4.88
	c-20.3-18.76-42.93-34.99-67.25-48.12c18.05,16.86,36.1,33.73,54.15,50.59l0.54-0.54c5.72-2.27,12.58-1.4,17.55,2.23
	c4.97,3.63,7.88,9.9,7.45,16.04c-3.12-5.84-8.75-10.29-15.16-11.98c-5.27-1.39-10.99-0.87-15.98,1.31c-2.86,2.3-5.24,5.05-6.95,8.38
	c-29.36-5.52-58.78-4.43-88.2,1.3c-0.14,0.55-0.26,1.11-0.37,1.67C133.94,272.3,162.84,273.86,191.32,278.24z M675.43,328.44
	c-4.49,11.83-12.64,22.25-23.05,29.45c-4.82,3.33-10.69,6.07-16.38,4.69c-7.49-1.82-11.77-10.72-10.16-18.26
	c1.61-7.54,7.81-13.44,14.8-16.69c6.99-3.24,14.78-4.25,22.43-5.22C668.55,321.73,677.39,323.28,675.43,328.44z M758.95,329.98
	c-6.25,4.73-14.93,5.16-22.47,3.01c-7.53-2.15-14.2-6.55-20.72-10.88c-4.68-3.11-10.45-10.17-5.51-12.84
	c11.31-6.12,24.51-8.72,37.3-7.34c5.92,0.64,12.25,2.43,15.71,7.27C767.82,315.56,765.2,325.25,758.95,329.98z M809.81,322.33
	c-2.01-2.26-1.4-6.1,0.8-8.17c2.21-2.08,5.53-2.6,8.51-2.08c2.99,0.52,5.73,1.93,8.41,3.33c1.93,1,4.44,3.48,2.65,4.71
	c-4.1,2.82-9.06,4.36-14.04,4.36C813.85,324.48,811.34,324.05,809.81,322.33z M823.44,294.22c1.25-2.81,5.06-3.86,7.9-2.68
	c2.85,1.17,4.72,4.03,5.49,7.01c0.77,2.98,0.61,6.11,0.44,9.19c-0.12,2.2-1.37,5.57-3.25,4.43c-4.33-2.61-7.84-6.56-9.92-11.17
	C823.15,298.87,822.49,296.36,823.44,294.22z M837.04,341.25c-0.69,2.24-1.85,4.55-3.98,5.52c-2.8,1.28-6.34-0.45-7.7-3.22
	c-1.36-2.76-0.87-6.15,0.52-8.89c1.39-2.75,3.59-4.99,5.75-7.18c1.55-1.57,4.71-3.27,5.37-1.17
	C838.51,331.14,838.52,336.42,837.04,341.25z M842.44,313.48c1.87-4.61,5.16-8.63,9.31-11.37c1.92-1.27,4.25-2.29,6.48-1.7
	c2.93,0.78,4.53,4.31,3.83,7.26c-0.7,2.95-3.18,5.21-5.96,6.43c-2.78,1.21-5.84,1.54-8.86,1.86
	C845.09,316.18,841.63,315.49,842.44,313.48z M856.83,339.31c-3.08,0.13-5.98-1.68-7.93-4.06c-1.95-2.38-3.12-5.29-4.26-8.15
	c-0.82-2.05-1.1-5.62,1.09-5.38c5.03,0.55,9.87,2.67,13.69,5.97c1.77,1.53,3.41,3.53,3.45,5.87
	C862.92,336.64,859.9,339.18,856.83,339.31z M914.79,249.57c-1.45,4.21-2.98,8.56-6,11.84c-5.96,6.49-15.57,6.79-21.74,0.41
	c-1.63-1.68-2.74-3.44-3.45-5.26c-2.59-6.62,0.25-13.94,3.48-20.63c9.52-19.72,27.02-35.71,47.91-42.55
	C928.52,212.15,921.26,230.81,914.79,249.57z M838.73,207.72l6.76-4.57c-5.41,3.05-10.89,6.12-16.88,7.76
	c-5.99,1.64-12.64,1.7-18.17-1.12c-14.16-7.25-9.26-23.79,1.41-31.47c7.35-5.29,16.48-7.42,25.41-8.9
	c33.24-5.5,67.67-3.61,100.11,5.49C903.59,180.25,868.69,191.24,838.73,207.72z M944.8,265.82c0.26-18.69,3.29-37.33,8.96-55.14
	c-3.1,14.52-0.13,31.87,6.05,45.37c1.91,4.18,4.25,8.19,5.59,12.58c1.34,4.39,1.58,9.37-0.62,13.4c-2.2,4.03-10.29,9.05-13.62,5.89
	C945.44,282.48,944.69,273.72,944.8,265.82z M719.11,116.32c6.72-7.16,17.07-10.9,27.25-13.54c69.3-17.99,150.3,6.51,191.89,58.04
	c-5.35-6.63-23.84-13.54-32.11-17.34c-11.51-5.29-23.89-8-36.74-10.02c-16.09-2.53-31.2-3.01-45.96-2.04
	c-22.95,1.51-45.07,6.53-68.76,12.81c-12.49,3.31-28.1,5.95-36.88-2.47C710.65,134.91,712.39,123.49,719.11,116.32z M694.45,259.5
	c2.18-5.43,5.57-10.95,11.08-12.94c7.25-2.61,15.73,2.46,18.54,9.64c2.81,7.18,0.89,15.52-3.15,22.08
	c-4.05,6.56-9.99,11.69-15.84,16.72c-4.19,3.6-12.42,7.18-13.63,1.79C688.67,284.43,689.73,271.24,694.45,259.5z M698.62,331.53
	c10.16,7.89,17.85,18.92,21.74,31.18c1.8,5.67,2.71,12.19-0.33,17.31c-4,6.74-13.92,8.24-20.77,4.43
	c-6.85-3.81-10.73-11.59-11.8-19.35c-1.07-7.76,0.28-15.63,1.62-23.35C690.04,336.21,694.19,328.08,698.62,331.53z M680.01,190.55
	c2.33,0.25,4.82,0.96,6.18,2.86c1.79,2.5,0.76,6.31-1.69,8.17c-2.45,1.86-5.87,2.03-8.83,1.18c-2.96-0.84-5.58-2.57-8.14-4.28
	c-1.84-1.22-4.11-4-2.17-5.05C669.79,191.03,674.98,190.01,680.01,190.55z M659.14,173.88c0.86-2.14,2.19-4.3,4.36-5.09
	c2.85-1.03,6.18,0.97,7.29,3.79c1.11,2.82,0.35,6.1-1.24,8.68c-1.59,2.58-3.93,4.6-6.23,6.57c-1.65,1.41-4.88,2.82-5.36,0.7
	C656.86,183.68,657.28,178.5,659.14,173.88z M657.03,206.21c0.38-2.17,2.01-5.37,3.75-4.01c3.99,3.1,7.01,7.44,8.54,12.25
	c0.71,2.23,1.06,4.79-0.13,6.8c-1.57,2.65-5.47,3.24-8.16,1.74c-2.69-1.5-4.22-4.56-4.64-7.61
	C655.97,212.33,656.5,209.24,657.03,206.21z M636.34,176.82c3.01-0.66,6.18,0.63,8.51,2.64s3.98,4.68,5.59,7.3
	c1.15,1.88,2.05,5.35-0.16,5.49c-5.05,0.32-10.18-0.94-14.51-3.54c-2.01-1.2-3.97-2.89-4.4-5.19
	C630.8,180.5,633.33,177.48,636.34,176.82z M651.66,200.98c-1.76,4.65-4.97,8.74-9.06,11.57c-1.89,1.31-4.2,2.38-6.44,1.84
	c-2.94-0.71-4.63-4.21-3.99-7.18c0.63-2.96,3.07-5.28,5.82-6.56c2.75-1.28,5.81-1.67,8.81-2.05
	C648.96,198.34,652.43,198.95,651.66,200.98z M636.45,266.97c7.66-1.67,15.72,1.59,21.65,6.71c5.94,5.11,10.13,11.9,14.23,18.58
	c2.94,4.78,5.21,13.62-0.4,13.97c-12.84,0.8-25.9-2.38-36.93-9c-5.1-3.06-10.1-7.35-11.21-13.2
	C622.35,276.33,628.8,268.64,636.45,266.97z M445.58,401.54c-3.7,3.61-10.12,3.2-14.21,0.04c-4.09-3.17-6.1-8.4-6.69-13.53
	c-0.58-5.14,0.07-10.32,0.33-15.48c0.22-4.37,2.12-8.25,1.43-12.2c-0.21-0.72-0.45-1.44-0.63-2.17c0.33,0.73,0.51,1.45,0.63,2.17
	c3.42,11.83,10.1,22.7,19.19,31.01C449.45,394.86,449.27,397.93,445.58,401.54z M505.01,368.16c-0.65,3.65-3.44,6.58-6.56,8.59
	c-11.85,7.65-28.3,4.01-39.33-4.78c-11.03-8.79-17.07-23.25-23.62-35.75c19.4,15.52,43.54,25.02,68.31,26.9
	C507.51,363.41,505.66,364.51,505.01,368.16z M595.35,419.67c-3.08,0.13-5.98-1.68-7.93-4.06c-1.95-2.38-3.12-5.29-4.26-8.15
	c-0.82-2.05-1.1-5.62,1.09-5.38c5.03,0.55,9.87,2.67,13.69,5.97c1.77,1.53,3.41,3.53,3.45,5.87
	C601.44,417,598.42,419.54,595.35,419.67z M580.96,393.84c1.87-4.61,5.16-8.63,9.31-11.37c1.92-1.27,4.25-2.29,6.48-1.7
	c2.93,0.78,4.53,4.31,3.83,7.26c-0.7,2.95-3.18,5.21-5.96,6.43c-2.78,1.21-5.84,1.54-8.86,1.86
	C583.61,396.54,580.15,395.85,580.96,393.84z M575.55,421.62c-0.69,2.24-1.85,4.55-3.98,5.52c-2.8,1.28-6.34-0.45-7.7-3.22
	c-1.36-2.76-0.87-6.15,0.52-8.89c1.39-2.75,3.59-4.99,5.75-7.18c1.55-1.57,4.71-3.27,5.37-1.17
	C577.02,411.5,577.04,416.78,575.55,421.62z M561.96,374.59c1.25-2.81,5.06-3.86,7.9-2.68c2.85,1.17,4.72,4.03,5.49,7.01
	c0.77,2.98,0.61,6.11,0.44,9.19c-0.12,2.2-1.36,5.57-3.25,4.43c-4.33-2.61-7.84-6.57-9.92-11.17
	C561.67,379.23,561.01,376.72,561.96,374.59z M557.64,392.45c2.99,0.52,5.73,1.93,8.41,3.33c1.93,1,4.44,3.48,2.65,4.71
	c-4.1,2.82-9.06,4.36-14.04,4.36c-2.3,0-4.81-0.43-6.34-2.15c-2.01-2.26-1.4-6.1,0.8-8.17
	C551.34,392.45,554.66,391.93,557.64,392.45z M508.82,213.9c2.13-3.63,3.84-7.55,6.49-10.82c2.66-3.27,6.58-5.88,10.78-5.63
	c3.7,0.22,7.14,2.84,8.33,6.35c1.2,3.51,4.19,6,1.41,8.44c-15.11,13.28-33.89,22.35-53.69,25.94
	C492.9,234.03,502.98,223.84,508.82,213.9z M536.8,243.6c3.38-3.66,5.57-2.66,9.65,0.19c4.08,2.85,5.74,8.44,4.64,13.29
	s-1.28,6.08-5.37,8.92c-23.46,16.26-53.75,22.35-80.74,13.07C492.05,275.52,518.1,263.85,536.8,243.6z M480.27,315.88
	c13.9-0.62,27.71-3.44,40.69-8.45c6.01-2.32,12.86-5.08,18.6-2.15c5.42,2.77,7.43,10.11,5.3,15.81c-2.13,5.7-7.56,9.69-13.37,11.47
	c-5.82,1.78-12.04,1.65-18.1,1.18c-23.54-1.79-49.61-7.89-69.87-20.41C455.28,312.24,468.06,316.42,480.27,315.88z M411.92,237.66
	c9.61,3.35,17.02,10.84,24.06,18.08c-1.23-1.27-16.21-4.53-18.57-4.29c-6.5,0.66-7.85,6.64-11.8,11.23
	c-6.43,7.49-20.91,5.83-27.71-0.72c-3.5-3.38-4.61-9.64-0.95-12.86c-0.34-4.59-4.85-5.47-9.51-5.9
	C381.75,237.94,397.53,232.64,411.92,237.66z"/>
</svg>
