<?xml version="1.0" encoding="utf-8"?>
<!-- Generator: Adobe Illustrator 25.2.3, SVG Export Plug-In . SVG Version: 6.00 Build 0)  -->
<svg version="1.1" xmlns="http://www.w3.org/2000/svg" xmlns:xlink="http://www.w3.org/1999/xlink" x="0px" y="0px"
	 viewBox="0 0 1190.55 841.89" style="enable-background:new 0 0 1190.55 841.89;" xml:space="preserve">
<style type="text/css">
	.st0{fill:#B0252C;}
</style>
<g id="Circle">
	<path class="st0" d="M778,691.92l22.87,33.66c-14.39,9.56-29.26,18.42-44.8,26c-3.83,1.99-7.84,3.63-11.76,5.45
		c-3.93,1.81-7.87,3.57-11.92,5.09l-12.07,4.73l-12.28,4.16l-12.57-38.71c6.09-2.06,12.22-4.03,18.15-6.52
		c2.98-1.2,6-2.31,8.96-3.58l8.79-3.98l9.92,21.48l-9.33,4.22c-3.13,1.35-6.33,2.53-9.5,3.81l-2.42-6.17
		c4.18-1.67,8.42-3.22,12.49-5.17l-4.18-9.53c-4.01,1.92-8.19,3.44-12.31,5.09l-6.2,2.45c-2.08,0.78-4.2,1.44-6.3,2.17l8.98,25.94
		c27.8-9.45,54.26-22.66,78.86-38.64l-14.99-22.99c-3.76,2.34-7.38,4.89-11.25,7.06l-11.51,6.62l4.97,9.14l11.71-6.74l3.39,5.69
		c-5.94,3.36-11.75,6.95-17.89,9.93l-10.9-21c5.78-2.79,11.24-6.19,16.83-9.34C767.27,698.98,772.61,695.4,778,691.92z
		 M541.9,768.05l10.15,1.29c3.38,0.43,6.76,0.91,10.17,1.1l0.6-6.6c-4.5-0.23-8.95-1.01-13.43-1.52l1.35-10.32
		c8.76,1.31,17.61,1.8,26.44,2.5l-1.39,27.41c-29.29-1.59-58.4-6.67-86.52-15.11l7.97-26.26l12.82,3.64
		c4.31,1.08,8.65,2.02,12.97,3.04l-2.21,10.17l-13.16-3.07l-1.66,6.41c6.64,1.55,13.27,3.2,19.96,4.52l4.59-23.21
		c-6.31-1.25-12.55-2.8-18.81-4.27l-9.28-2.64c-3.1-0.86-6.19-1.73-9.22-2.82l-12.57,38.71c16.46,5.23,33.23,9.66,50.29,12.44
		c8.48,1.71,17.1,2.46,25.66,3.64l12.92,1c2.15,0.15,4.3,0.35,6.46,0.46l6.47,0.17l1.3-40.67c-12.85-0.28-25.63-1.66-38.35-3.38
		L541.9,768.05z M676.1,738.02l-9.38,2.16c-6.22,1.59-12.57,2.54-18.88,3.71l3.83,23.35c6.71-1.23,13.46-2.25,20.08-3.93l-1.46-6.46
		l-6.58,1.52l-6.65,1.19l-1.88-10.24l6.54-1.17l6.47-1.5c4.29-1.07,8.67-1.83,12.9-3.15l7.11,26.51
		c-28.32,7.78-57.65,11.56-86.95,12.21l-0.51-27.44c4.44-0.17,8.9-0.09,13.33-0.46l13.29-1.01l1.02,10.36l-13.48,1.02l0.39,6.61
		l10.2-0.78l5.1-0.41l5.08-0.64l-2.76-23.5l-4.79,0.61l-4.81,0.37l-9.63,0.73c-6.42,0.41-12.87,0.38-19.31,0.62l0,40.7
		c34.5-0.24,69.11-4.76,102.29-14.52l-11.3-39.1L676.1,738.02z M293.64,292.08l3.97-8.77l2-4.38l2.2-4.28l-21.15-10.61l-2.33,4.55
		l-2.13,4.65l-4.22,9.33l6.09,2.62l5.57-12.31l9.39,4.49l-5.47,12.1c-1.8,4.04-3.29,8.22-4.95,12.32l-25.63-9.82
		c10.58-27.36,24.22-53.6,41.18-77.55l22.49,15.72c-2.65,3.57-5.02,7.33-7.41,11.08c-2.41,3.73-4.84,7.45-6.98,11.35l-8.98-5.27
		c2.17-3.95,4.63-7.73,7.07-11.52l-5.58-3.57c-1.81,2.89-3.76,5.7-5.44,8.66l-5.1,8.87l20.64,11.58l4.81-8.37
		c1.59-2.8,3.44-5.44,5.14-8.17c1.77-2.69,3.39-5.47,5.28-8.08l5.6-7.87l-32.9-23.95l-7.5,10.56l-7,10.91
		c-2.4,3.59-4.5,7.37-6.66,11.12c-2.1,3.77-4.42,7.43-6.31,11.32c-8.21,15.22-14.98,31.16-21.03,47.35l38.28,13.82
		C288.82,303.98,291.15,297.99,293.64,292.08z M277.46,502.85l-2.16-9.38c-1.59-6.22-2.54-12.57-3.71-18.88l-23.35,3.83
		c1.23,6.71,2.25,13.46,3.93,20.08l6.46-1.46l-1.52-6.58l-1.19-6.65l10.24-1.88l1.17,6.54l1.5,6.47c1.07,4.29,1.83,8.67,3.15,12.9
		l-26.51,7.11c-7.78-28.32-11.56-57.65-12.21-86.95l27.44-0.51c0.17,4.44,0.09,8.9,0.46,13.33l1.01,13.29l-10.36,1.02l-1.02-13.48
		l-6.61,0.39l0.78,10.2l0.41,5.1l0.64,5.08l23.5-2.76l-0.61-4.79l-0.37-4.81l-0.73-9.63c-0.41-6.42-0.38-12.87-0.62-19.31l-40.7,0
		c0.24,34.5,4.76,69.11,14.52,102.29l39.1-11.3L277.46,502.85z M465.32,721.84l-8.77-3.97l-4.38-2l-4.28-2.2l-10.61,21.15l4.55,2.33
		l4.65,2.13l9.33,4.22l2.62-6.09l-12.31-5.57l4.49-9.39l12.1,5.47c4.04,1.8,8.22,3.29,12.32,4.95l-9.82,25.63
		c-27.36-10.58-53.6-24.22-77.55-41.18l15.72-22.49c3.57,2.65,7.33,5.02,11.08,7.41c3.73,2.41,7.45,4.84,11.35,6.98l-5.27,8.98
		c-3.95-2.17-7.73-4.63-11.52-7.07l-3.57,5.58c2.89,1.81,5.7,3.76,8.66,5.44l8.87,5.1l11.58-20.64l-8.37-4.81
		c-2.8-1.59-5.44-3.44-8.17-5.14c-2.69-1.77-5.47-3.39-8.08-5.28l-7.86-5.6l-23.95,32.9l10.56,7.5l10.91,7
		c3.59,2.4,7.37,4.5,11.12,6.66c3.77,2.1,7.43,4.42,11.32,6.31c15.22,8.21,31.16,14.98,47.35,21.03l13.82-38.28
		C477.22,726.65,471.24,724.33,465.32,721.84z M270.83,372.17l-23.4-3.51l-1.29,10.15c-0.43,3.38-0.91,6.76-1.1,10.17l6.6,0.6
		c0.23-4.5,1.01-8.95,1.52-13.43l10.32,1.35c-1.31,8.76-1.8,17.61-2.5,26.44l-27.41-1.39c1.59-29.29,6.67-58.4,15.11-86.52
		l26.26,7.97l-3.64,12.82c-1.08,4.31-2.02,8.65-3.04,12.97l-10.17-2.21l3.07-13.16l-6.41-1.66c-1.55,6.64-3.2,13.27-4.52,19.96
		l23.21,4.59c1.25-6.31,2.8-12.55,4.27-18.81l2.64-9.28c0.86-3.1,1.73-6.19,2.82-9.22l-38.71-12.57
		c-5.23,16.46-9.66,33.23-12.44,50.29c-1.71,8.48-2.47,17.1-3.64,25.66l-1,12.92c-0.15,2.15-0.35,4.3-0.46,6.46l-0.17,6.47
		l40.67,1.3C267.73,397.67,269.1,384.89,270.83,372.17z M313.23,588.5c-3.15-5.59-6.55-11.05-9.34-16.83l-21,10.9
		c2.98,6.14,6.57,11.96,9.93,17.89l5.69-3.39l-6.74-11.71l9.14-4.97l6.62,11.51c2.17,3.86,4.72,7.49,7.06,11.25l-22.99,14.99
		c-15.98-24.6-29.19-51.05-38.64-78.86l25.94-8.98c0.73,2.1,1.38,4.22,2.17,6.3l2.45,6.2c1.65,4.12,3.16,8.3,5.09,12.31l-9.53,4.18
		c-1.95-4.07-3.49-8.3-5.17-12.49l-6.17,2.42c1.27,3.16,2.45,6.37,3.81,9.5l4.22,9.33l21.48-9.92l-3.98-8.79
		c-1.27-2.95-2.38-5.98-3.58-8.96c-2.49-5.93-4.46-12.06-6.52-18.15l-38.71,12.57l4.16,12.28l4.73,12.07
		c1.52,4.05,3.28,7.99,5.09,11.92c1.83,3.92,3.46,7.92,5.45,11.76c7.58,15.54,16.44,30.41,26,44.8l33.66-22.87
		C320.07,599.36,316.49,594.03,313.23,588.5z M846.7,629.4l-6.31,7.28c-4.09,4.96-8.7,9.44-13.08,14.13l16.84,16.62
		c4.66-4.98,9.55-9.75,13.91-15.01l-4.98-4.37c-1.49,1.69-2.92,3.43-4.45,5.08l-4.66,4.89l-7.55-7.17l4.59-4.81
		c1.5-1.63,2.91-3.34,4.37-5c2.84-3.39,5.92-6.59,8.58-10.14l21.33,17.26c-18.37,22.89-39.79,43.25-63.06,61.09l-16.57-21.88
		l10.48-8.24l10.1-8.7l6.92,7.77l-10.23,8.83l4.21,5.12c5.14-4.48,10.42-8.81,15.39-13.49l-16.07-17.37
		c-2.28,2.28-4.79,4.29-7.21,6.42c-2.44,2.09-4.84,4.24-7.31,6.3l-7.59,5.96c-2.51,2.01-5.05,3.99-7.71,5.8l23.95,32.9
		c13.89-10.24,27.33-21.19,39.62-33.33c12.37-12.04,24.08-24.81,34.57-38.53l-32.12-24.99L846.7,629.4z M386.07,673.45l-7.28-6.31
		c-4.96-4.09-9.44-8.7-14.13-13.08l-16.62,16.84c4.98,4.66,9.75,9.55,15.01,13.91l4.37-4.98c-1.69-1.49-3.43-2.92-5.08-4.45
		l-4.89-4.66l7.17-7.55l4.81,4.59c1.63,1.5,3.34,2.91,5,4.37c3.39,2.84,6.59,5.92,10.14,8.58l-17.26,21.33
		c-22.89-18.37-43.25-39.79-61.09-63.06l21.88-16.57l8.24,10.48l8.7,10.1l-7.77,6.92l-8.83-10.23l-5.12,4.21
		c4.48,5.14,8.81,10.42,13.49,15.39l17.37-16.07c-2.28-2.28-4.29-4.79-6.42-7.21c-2.09-2.44-4.24-4.84-6.3-7.31l-5.96-7.59
		c-2.01-2.51-3.99-5.05-5.8-7.71l-32.9,23.95c10.24,13.89,21.19,27.33,33.33,39.62c12.04,12.37,24.81,24.08,38.53,34.57l24.99-32.12
		L386.07,673.45z M875.49,253.73c3.15,5.59,6.55,11.05,9.34,16.83l21-10.9c-2.98-6.14-6.57-11.96-9.93-17.89l-5.69,3.39l6.74,11.71
		l-9.14,4.97l-6.62-11.51c-2.17-3.86-4.72-7.49-7.06-11.25l22.99-14.99c15.98,24.6,29.19,51.05,38.64,78.86l-25.94,8.98
		c-0.73-2.1-1.38-4.22-2.17-6.3l-2.45-6.2c-1.65-4.12-3.16-8.3-5.09-12.31l9.53-4.18c1.95,4.07,3.49,8.3,5.17,12.49l6.17-2.42
		c-1.27-3.16-2.45-6.37-3.81-9.5l-4.22-9.33l-21.48,9.92l3.98,8.79c1.27,2.95,2.38,5.98,3.58,8.96c2.49,5.93,4.46,12.06,6.52,18.15
		l38.71-12.57l-4.16-12.28l-4.73-12.07c-1.52-4.05-3.28-7.99-5.09-11.92c-1.83-3.92-3.46-7.92-5.45-11.76
		c-7.58-15.54-16.44-30.41-26-44.8l-33.66,22.87C868.65,242.86,872.22,248.2,875.49,253.73z M723.39,120.39l8.77,3.97l4.38,2
		l4.28,2.2l10.61-21.15l-4.55-2.33l-4.65-2.13l-9.33-4.22l-2.62,6.09l12.31,5.57l-4.49,9.39l-12.1-5.47
		c-4.04-1.8-8.22-3.29-12.32-4.95l9.82-25.63c27.36,10.58,53.6,24.22,77.55,41.18l-15.72,22.49c-3.57-2.65-7.33-5.02-11.08-7.41
		c-3.73-2.41-7.45-4.84-11.35-6.98l5.27-8.98c3.95,2.17,7.73,4.63,11.52,7.07l3.57-5.58c-2.89-1.81-5.7-3.76-8.66-5.44l-8.87-5.1
		l-11.58,20.64l8.37,4.81c2.8,1.59,5.44,3.44,8.17,5.14c2.69,1.77,5.47,3.39,8.08,5.28l7.87,5.6l23.95-32.9l-10.56-7.5l-10.91-7
		c-3.59-2.4-7.37-4.5-11.12-6.66c-3.77-2.1-7.43-4.42-11.32-6.31c-15.22-8.21-31.16-14.98-47.35-21.03l-13.82,38.28
		C711.5,115.58,717.48,117.9,723.39,120.39z M802.64,168.78l7.28,6.31c4.96,4.09,9.44,8.7,14.13,13.08l16.62-16.84
		c-4.98-4.66-9.75-9.55-15.01-13.91l-4.37,4.98c1.69,1.49,3.43,2.92,5.08,4.45l4.89,4.66l-7.17,7.55l-4.81-4.59
		c-1.63-1.5-3.34-2.91-5-4.37c-3.39-2.84-6.59-5.92-10.14-8.58l17.26-21.33c22.89,18.37,43.25,39.79,61.09,63.06l-21.88,16.57
		l-8.24-10.48l-8.7-10.1l7.77-6.92l8.83,10.23l5.12-4.21c-4.48-5.14-8.81-10.42-13.49-15.39l-17.37,16.07
		c2.28,2.28,4.29,4.79,6.42,7.21c2.09,2.44,4.24,4.84,6.3,7.31l5.96,7.59c2.01,2.51,3.99,5.05,5.8,7.71l32.9-23.95
		c-10.24-13.89-21.19-27.33-33.33-39.62c-12.04-12.37-24.81-24.08-38.53-34.57l-24.99,32.12L802.64,168.78z M911.26,339.38
		l2.16,9.38c1.59,6.22,2.54,12.57,3.71,18.88l23.35-3.83c-1.23-6.71-2.25-13.46-3.93-20.08l-6.46,1.46l1.52,6.58l1.19,6.65
		l-10.24,1.88l-1.17-6.54l-1.5-6.47c-1.07-4.29-1.83-8.67-3.15-12.9l26.51-7.11c7.78,28.32,11.56,57.65,12.21,86.95l-27.44,0.51
		c-0.17-4.44-0.09-8.9-0.46-13.33l-1.01-13.29l10.36-1.02l1.02,13.48l6.61-0.39l-0.78-10.2l-0.41-5.1l-0.64-5.08l-23.5,2.76
		l0.61,4.79l0.37,4.81l0.73,9.63c0.41,6.42,0.38,12.87,0.62,19.31l40.7,0c-0.24-34.5-4.76-69.11-14.52-102.29l-39.1,11.3
		L911.26,339.38z M646.82,74.18l-10.15-1.29c-3.38-0.43-6.76-0.91-10.17-1.1l-0.6,6.6c4.5,0.23,8.95,1.01,13.43,1.52l-1.35,10.32
		c-8.76-1.31-17.61-1.8-26.44-2.5l1.39-27.41c29.29,1.59,58.4,6.67,86.52,15.11l-7.97,26.26l-12.82-3.64
		c-4.31-1.08-8.65-2.02-12.97-3.04l2.21-10.17l13.16,3.07l1.66-6.41c-6.64-1.55-13.27-3.2-19.96-4.52l-4.59,23.21
		c6.31,1.25,12.55,2.8,18.81,4.27l9.28,2.64c3.1,0.86,6.19,1.73,9.22,2.82l12.57-38.71c-16.46-5.23-33.23-9.66-50.29-12.44
		c-8.48-1.71-17.1-2.46-25.66-3.64l-12.92-1c-2.15-0.15-4.3-0.35-6.46-0.46l-6.47-0.17l-1.3,40.67c12.85,0.28,25.63,1.66,38.35,3.38
		L646.82,74.18z M982.54,420.94c0,213.53-173.72,387.26-387.26,387.26c-213.54,0-387.26-173.72-387.26-387.26
		S381.74,33.69,595.28,33.69C808.81,33.69,982.54,207.41,982.54,420.94z M975.7,420.94c0-209.77-170.66-380.43-380.43-380.43
		c-209.77,0-380.43,170.66-380.43,380.43s170.66,380.43,380.43,380.43C805.04,801.37,975.7,630.71,975.7,420.94z M895.08,550.15
		l-3.97,8.77l-2,4.38l-2.2,4.28l21.15,10.61l2.33-4.55l2.13-4.65l4.22-9.33l-6.09-2.62l-5.57,12.31l-9.39-4.49l5.47-12.1
		c1.8-4.04,3.29-8.22,4.95-12.32l25.63,9.82c-10.58,27.36-24.22,53.6-41.18,77.55l-22.49-15.72c2.65-3.57,5.02-7.33,7.41-11.08
		c2.41-3.73,4.84-7.45,6.98-11.35l8.98,5.27c-2.17,3.95-4.63,7.73-7.07,11.52l5.58,3.57c1.81-2.89,3.76-5.7,5.44-8.66l5.1-8.87
		l-20.64-11.58l-4.81,8.37c-1.59,2.8-3.44,5.44-5.14,8.17c-1.77,2.69-3.39,5.47-5.28,8.08l-5.6,7.87l32.9,23.95l7.5-10.56l7-10.91
		c2.4-3.59,4.5-7.37,6.66-11.12c2.1-3.77,4.42-7.43,6.31-11.32c8.21-15.22,14.98-31.16,21.03-47.35l-38.28-13.82
		C899.9,538.25,897.57,544.24,895.08,550.15z M917.89,470.06l23.4,3.51l1.29-10.15c0.43-3.38,0.91-6.76,1.1-10.17l-6.6-0.6
		c-0.23,4.5-1.01,8.95-1.52,13.43l-10.32-1.35c1.31-8.76,1.8-17.61,2.5-26.44l27.41,1.39c-1.59,29.29-6.67,58.4-15.11,86.52
		l-26.26-7.97l3.64-12.82c1.08-4.31,2.02-8.65,3.04-12.97l10.17,2.21l-3.07,13.16l6.41,1.66c1.55-6.64,3.2-13.27,4.52-19.96
		l-23.21-4.59c-1.25,6.31-2.8,12.55-4.27,18.81l-2.64,9.28c-0.86,3.1-1.73,6.19-2.82,9.22l38.71,12.57
		c5.23-16.46,9.66-33.23,12.44-50.29c1.71-8.48,2.46-17.1,3.64-25.66l1-12.92c0.15-2.15,0.35-4.3,0.46-6.46l0.17-6.47l-40.67-1.3
		C920.99,444.56,919.62,457.34,917.89,470.06z M1005.47,420.94c0,226.18-184.01,410.2-410.2,410.2
		c-226.18,0-410.2-184.01-410.2-410.2c0-226.18,184.01-410.2,410.2-410.2C821.46,10.75,1005.47,194.76,1005.47,420.94z
		 M994.09,420.94c0-219.9-178.91-398.81-398.81-398.81c-219.91,0-398.81,178.91-398.81,398.81c0,219.91,178.91,398.81,398.81,398.81
		C815.18,819.76,994.09,640.85,994.09,420.94z M595.72,548.89c10.66-6.88,17.52-19.29,17.68-31.97
		c-6.86,5.33-12.84,11.36-19.71,16.69c-2.24,1.74-4.53,3.53-6.11,5.89c-1.58,2.36-2.37,5.43-1.35,8.09
		C587.26,550.23,593.34,550.43,595.72,548.89z M595.73,194.78c-0.72,0.64-0.74,1.82-0.27,2.66c0.47,0.84,1.31,1.4,2.17,1.85
		c1.61,0.84,6.35,2.94,7.83,1.09c-0.38-0.38-4.49-2.29-4.42-2.51c0.29-0.92,2.06,0.47,2.99,0.11c1.57-0.62-2-3.76-2.46-4.39
		c1.65,0.13,3.01,1.25,4.5,1.92c1.84-0.28-1.11-3.55-1.32-4.15c1.53,0.94,3.05,1.88,4.58,2.82c0.25-0.31,0.19-0.74,0.01-1.09
		c-1.17-2.25-2.86-4.23-4.89-5.74c-0.56-0.41-1.19-0.81-1.88-0.82c-0.7-0.01-1.35,0.51-1.34,1.21c-0.83-0.83-2.06-1.25-3.23-1.09
		c-1.85,0.26-3.87,2.07-4.09,3.95C593.74,192.1,594.59,193.8,595.73,194.78z M611.55,205.24c-0.11,0.68,0.34,1.41,0.99,1.62
		s1.44-0.11,1.76-0.72c0.32-0.61,0.13-1.44-0.42-1.86c1.02,0.27,2.3-0.94,2.37-1.99c0.07-1.06-0.96-2.04-2.02-1.92
		c0.48-0.69,0.36-1.77-0.14-2.44c-0.5-0.67-1.5-0.93-2.24-0.56c-0.75,0.38-1.12,1.38-0.77,2.13c-0.8-0.62-2.3-0.11-2.81,0.77
		c-0.51,0.88-0.07,2.16,0.86,2.55c-0.79,0.56-0.54,2.05,0.24,2.63S611.25,206.16,611.55,205.24z M558.71,171.33
		c-0.42-0.46-1.03-0.78-1.63-0.58c0.56,2.78,1.12,5.57,1.68,8.35c-0.77-0.65-4.02-6.81-5.44-4.23c0.19,2.58,1.1,5.22,0.39,7.74
		c-0.68-1.03-3.4-8.06-5.18-6.07c-1.06,1.19,0.04,4.58-1.48,4.51c-0.36-0.02-0.95-7.16-1.31-7.94c-3.57,1.19-3.05,9.39-2.68,12.24
		c0.2,1.51,0.57,3.07,1.56,4.23s2.75,1.78,4.1,1.06c0.84,2.24,2.9,4.44,5.23,5c2.9,0.71,6.71-1.31,8.1-3.91
		c0.88-1.64,0.94-3.7,0.16-5.4c1.03,0.39,2.17-0.28,2.53-1.33c0.36-1.04,0.12-2.19-0.19-3.25
		C563.43,177.89,561.41,174.3,558.71,171.33z M610.3,193.11c0.94-1.53,1.88-3.05,2.82-4.58c0.08,0.63-1.08,4.87,0.69,4.3
		c1.03-1.27,1.74-2.88,3.15-3.74c-0.13,0.77-1.9,5.18-0.23,5.03c1-0.09,1.96-2.13,2.63-1.44c0.16,0.16-2.65,3.71-2.82,4.23
		c2.16,0.99,5.45-3.02,6.51-4.49c0.56-0.78,1.06-1.66,1.1-2.62c0.04-0.96-0.5-2.01-1.43-2.25c0.58-1.4,0.57-3.3-0.26-4.56
		c-1.04-1.58-3.66-2.29-5.42-1.69c-1.11,0.38-2.03,1.3-2.4,2.42c-0.31-0.63-1.12-0.8-1.74-0.48c-0.62,0.33-1,0.96-1.31,1.58
		c-1.14,2.26-1.76,4.79-1.79,7.32C609.79,192.53,609.94,192.95,610.3,193.11z M617.8,199.18c0.54,0.08,4.98-0.78,5.05-0.56
		c0.31,0.91-1.94,0.83-2.48,1.67c-0.91,1.42,3.83,1.87,4.57,2.11c-1.41,0.86-3.17,0.75-4.77,1.08c-1.32,1.3,2.98,2.22,3.5,2.58
		c-1.79,0.14-3.58,0.27-5.36,0.41c-0.02,0.39,0.28,0.71,0.63,0.89c2.27,1.14,4.79,1.75,7.33,1.77c0.7,0.01,1.43-0.04,2.01-0.44
		c0.57-0.4,0.79-1.2,0.37-1.76c1.16,0.19,2.4-0.2,3.25-1.02c1.34-1.29,1.92-3.95,0.99-5.59c-0.74-1.32-2.43-2.2-3.93-2.32
		c0.21-0.94-0.47-1.9-1.34-2.31c-0.87-0.4-1.89-0.36-2.84-0.22C622.99,195.73,617.92,196.81,617.8,199.18z M616.79,207.77
		c0.14,0.53,2.69,4.26,2.52,4.41c-0.72,0.64-1.53-1.46-2.52-1.62c-1.66-0.27-0.2,4.26-0.12,5.03c-1.35-0.95-1.95-2.61-2.89-3.95
		c-1.72-0.7-0.86,3.61-0.98,4.24c-0.83-1.59-1.67-3.17-2.5-4.76c-0.37,0.14-0.54,0.54-0.56,0.93c-0.14,2.53,0.3,5.09,1.28,7.43
		c0.27,0.64,0.61,1.3,1.2,1.67c0.59,0.37,1.42,0.25,1.77-0.36c0.29,1.14,1.14,2.13,2.22,2.58c1.72,0.72,4.39,0.19,5.53-1.31
		c0.92-1.2,1.05-3.1,0.57-4.53c0.95-0.18,1.56-1.19,1.59-2.15s-0.42-1.87-0.92-2.69C622.02,211.15,619.01,206.93,616.79,207.77z
		 M731.77,167.11c-0.13-0.33-0.28-0.66-0.48-0.98C731.44,166.46,731.61,166.78,731.77,167.11z M631.44,583.52
		c4.73-1.52,10.48-9.67,9.39-14.51c-4.6-20.54-9.2-41.08-13.8-61.62c1.64,17.45-2.65,34.52-7.76,51.28
		c-2.02,6.63-4.45,14.2-0.81,20.09C621.08,582.97,626.71,585.04,631.44,583.52z M663.8,544.25c3.53-1.43,5.22-5.79,4.49-9.53
		c-0.73-3.74-3.39-6.84-6.41-9.15c-3.02-2.31-6.47-4.01-9.64-6.11c-3.17-2.11-7.47-5.69-8.93-9.2c3.25,9.1,6.51,18.21,9.76,27.31
		C654.35,541.15,660.27,545.68,663.8,544.25z M521.58,149.47c-1.09,0.15-1.77,1.29-1.58,2.37c0.18,1.09,0.94,1.98,1.72,2.76
		c2.84,2.84,6.33,5.03,10.12,6.34c0.59,0.2,1.28,0.19,1.71-0.27c-1.83-2.18-3.65-4.35-5.48-6.53c0.99,0.2,6.79,4.05,6.8,1.11
		c-1.4-2.18-3.46-4.05-4.05-6.6c1.09,0.58,6.84,5.44,7.45,2.85c0.36-1.55-2.23-4-0.86-4.67c0.33-0.16,4.26,5.83,4.95,6.35
		c2.56-2.76-1.82-9.7-3.51-12.03c-0.9-1.23-1.97-2.42-3.4-2.97s-3.27-0.24-4.1,1.03c-1.81-1.57-4.67-2.5-6.99-1.89
		c-2.89,0.77-5.26,4.36-5.24,7.32C519.14,146.52,520.08,148.36,521.58,149.47z M594.36,110.22c171.43,0,310.9,139.47,310.9,310.89
		s-139.47,310.9-310.9,310.9c-51.22,0-99.58-12.46-142.22-34.49c-0.21,0.46-0.41,0.92-0.64,1.37c-2.76-1.58-5.5-3.19-8.23-4.82
		c0.17-0.35,0.31-0.71,0.47-1.06c-2.76-1.53-5.49-3.11-8.2-4.72c-0.12,0.27-0.22,0.54-0.35,0.81c-2.71-1.71-5.39-3.46-8.05-5.25
		c0.08-0.2,0.14-0.4,0.22-0.6c-2.64-1.69-5.26-3.43-7.85-5.19c-0.04,0.14-0.07,0.28-0.11,0.41c-2.84-2.05-5.64-4.15-8.4-6.32
		c0-0.04,0-0.08,0-0.13c-77.27-56.62-127.54-147.99-127.54-250.91C283.46,249.69,422.93,110.22,594.36,110.22z M303.42,502.4
		c4.79-4.83,7.99-10.99,9.19-17.83c1.55-8.86-0.44-17.79-5.61-25.15c-3.54-5.04-8.24-8.77-13.47-11.17
		c0.34,3.77,0.72,7.53,1.2,11.25c1.82,1.43,3.48,3.12,4.87,5.11c3.12,4.44,4.65,9.66,4.46,14.99c-0.04,1.13-0.16,2.27-0.36,3.4
		c-0.53,3.01-1.6,5.84-3.13,8.38C301.45,495.09,302.4,498.76,303.42,502.4z M346.09,569.3c-4.07-5.8-11.49-7.8-17.82-5.34
		c4.72,8.75,9.85,17.25,15.38,25.46C349.41,584.39,350.57,575.7,346.09,569.3z M366.86,583.81c1.55-8.86-0.44-17.79-5.61-25.15
		c-9.41-13.4-26.87-17.81-41.29-11.35c1.27,2.74,2.58,5.46,3.92,8.16c10.5-4.58,23.13-1.35,29.96,8.38
		c3.2,4.56,4.63,9.84,4.44,15.01c-0.25,6.96-3.44,13.73-9.2,18.34c1.76,2.45,3.57,4.87,5.4,7.26
		C361.04,599.34,365.41,592.07,366.86,583.81z M371.98,614.03c16.73-17.77,19.3-45.49,4.74-66.23
		c-8.07-11.49-20.13-19.16-33.96-21.58c-8.81-1.54-17.65-0.79-25.88,2.01c-0.59,0.45-1.18,0.89-1.79,1.32l-0.38-0.54
		c-0.72,0.28-1.44,0.57-2.15,0.89c1.14,2.93,2.3,5.85,3.53,8.74c18.47-8.26,40.85-2.59,52.9,14.58c5.46,7.78,8.15,16.93,7.81,26.27
		c-0.07,1.98-0.28,3.97-0.63,5.96c-1.85,10.58-7.44,19.88-15.82,26.46c1.53,1.88,3.09,3.74,4.67,5.58
		C367.28,616.19,369.59,615.03,371.98,614.03z M374.55,509.48c-0.07,1.98-0.28,3.97-0.63,5.96c-0.75,4.29-2.12,8.37-4.04,12.14
		c2.59,1.86,5.03,3.93,7.31,6.18c9.59-17.09,9.26-38.88-2.73-55.97c-8.07-11.49-20.13-19.16-33.96-21.58
		c-1.14-0.2-2.28-0.34-3.42-0.45c1.31,3.27,2.35,6.64,3.08,10.07c10.39,2.14,20.02,8.04,26.58,17.39
		C372.2,490.99,374.89,500.14,374.55,509.48z M356.02,508.86c-0.13,3.57-1.05,7.08-2.67,10.28c2.89,0.96,5.69,2.12,8.39,3.48
		c1.33-2.76,2.31-5.72,2.85-8.82c1.55-8.86-0.44-17.79-5.61-25.15c-4.44-6.32-10.67-10.62-17.54-12.75
		c0.07,1.66,0.08,3.32,0.02,4.99c-0.05,1.5-0.17,3-0.33,4.5c4.07,1.73,7.72,4.57,10.45,8.45
		C354.78,498.4,356.21,503.68,356.02,508.86z M328.99,516.14c4.88-0.37,9.83-0.17,14.77,0.65c1.3-1.82,2.19-3.92,2.59-6.18
		c0.69-3.98-0.2-8-2.52-11.31c-1.24-1.76-2.79-3.17-4.52-4.22C337.23,502.76,333.72,509.88,328.99,516.14z M417.62,645.5
		c-9.18-7.72-21.31-9.64-31.97-6.22c2.66,2.55,5.39,5.04,8.14,7.49c6.29-0.56,12.79,1.27,18,5.65c4.83,4.06,7.67,9.61,8.48,15.41
		c3.02,2.13,6.08,4.21,9.18,6.23C430.32,663.55,426.28,652.79,417.62,645.5z M448.32,666.74c-1.21-13.99-7.79-26.67-18.54-35.71
		c-10.75-9.04-24.37-13.35-38.36-12.15c-4.91,0.42-9.65,1.54-14.13,3.25c-1.43,1.41-2.93,2.76-4.51,4.04
		c1.82,1.96,3.66,3.9,5.52,5.81c14.63-6.55,32.34-4.72,45.41,6.27c10.56,8.89,15.79,21.8,15.32,34.63c-0.08,2.26-0.35,4.51-0.8,6.74
		c2.81,1.71,5.67,3.35,8.54,4.97C448.3,678.84,448.85,672.83,448.32,666.74z M435.09,608.35c-0.03,0.83-0.08,1.66-0.16,2.49
		c-0.34,3.6-1.12,7.09-2.29,10.41c1.1,0.81,2.19,1.65,3.25,2.53c1.51,1.27,2.94,2.6,4.31,3.99c2.19-5.04,3.61-10.43,4.13-16.06
		c1.3-14-2.92-27.64-11.88-38.44c-10.59-12.76-25.98-19.19-41.4-18.92c1.27,3.09,2.28,6.24,3.03,9.43c0.63,0.03,1.27,0.04,1.91,0.1
		c11.47,1.07,21.84,6.54,29.2,15.41C432,587.52,435.48,597.75,435.09,608.35z M416.57,607.71c-0.06,1.61-0.29,3.21-0.66,4.78
		c2.88,0.98,5.69,2.17,8.41,3.58c2.94-10.32,0.93-21.87-6.43-30.74c-5.65-6.81-13.57-11.04-22.35-11.98
		c0.17,2.28,0.22,4.56,0.13,6.83c-0.03,0.78-0.09,1.57-0.15,2.35c5.82,0.84,11.36,3.7,15.4,8.57
		C414.94,595.95,416.78,601.88,416.57,607.71z M386.91,609.87c1.22-0.18,2.46-0.32,3.7-0.43c5.45-0.47,10.85-0.22,16.1,0.7
		c1.01-4.42,0.04-9.23-3.08-12.98c-2.42-2.92-5.78-4.78-9.52-5.31C392.68,598.16,390.27,604.25,386.91,609.87z M299.61,354.98
		c0.01,0,0.01,0,0.02,0c-0.08,0.31-0.15,0.62-0.21,0.94c0,0-0.01,0-0.01,0c-4.64,21.01-7.11,42.82-7.11,65.2
		c0,6.01,0.2,11.97,0.54,17.9c0.01-0.39,0.02-0.79,0.03-1.18c8.56,2.79,16.33,8.23,21.89,16.14c5.46,7.78,8.15,16.93,7.81,26.27
		c-0.07,1.98-0.28,3.97-0.63,5.96c-1.83,10.45-7.31,19.66-15.52,26.22c0.92,2.88,1.88,5.74,2.88,8.58c0.99-0.43,1.99-0.82,2.99-1.19
		c10.03-8,16.72-19.23,18.95-31.98c2.41-13.83-0.69-27.78-8.75-39.27c-7.36-10.48-17.87-17.44-29.37-20.53
		c0.03-3.26-0.02-6.52-0.23-9.74c14.61,3.24,28.11,11.65,37.36,24.83c0.66,0.94,1.28,1.89,1.88,2.85c3.33,0.03,6.68,0.32,10.03,0.9
		c16.32,2.86,30.56,11.91,40.08,25.47c8.06,11.49,11.68,24.79,11.2,37.84c-0.4,10.97-3.72,21.76-9.7,31.15
		c0.25,0.34,0.51,0.68,0.76,1.03c0.64,0.91,1.24,1.84,1.83,2.77c19.68-1.79,39.89,5.76,53.43,22.09
		c9.81,11.83,14.81,26.56,14.25,41.8c-0.04,1.19-0.12,2.38-0.23,3.57c-0.77,8.24-3.17,16.05-6.93,23.15
		c6.18,8.83,9.98,19.16,10.93,30.19c0.22,2.59,0.29,5.17,0.19,7.73c-0.19,5.32-1.09,10.55-2.62,15.57
		c32.02,16.67,67.37,27.76,104.78,32c-10.95-4.66-18.63-15.27-25.48-25.28c-6.49-9.49-12.97-18.98-19.46-28.47
		c25.19,10.26,47.78,26.81,65.23,47.67c-5.34-21.67-2.18-45.39,8.93-64.77c-0.4,9.46,3.8,18.47,8.38,26.76s9.72,16.53,11.48,25.84
		c0.31,1.66,0.49,3.37,0.52,5.08c0.09-0.1,0.19-0.21,0.28-0.31c4.23-4.5,9.65-7.66,15-10.75c9.65-5.59,19.29-11.17,28.94-16.76
		c-0.06,11.55-4.4,23.02-12,31.71c-3.04,3.48-6.6,6.49-10.5,8.96c149.13-18.34,264.98-145.78,264.98-299.78
		c0-22.28-2.45-44-7.05-64.92c-2.85-0.61-5.57-1.62-7.87-3.38c-5.86-4.52-7.36-12.55-9.03-19.76c-2.55-11.01-6.68-22.02-14.5-30.19
		c-7.81-8.16-19.64-16.61-30.43-13.25c-2.48-6.01-4.97-12.02-7.45-18.04c-1.35-3.27-2.79-6.66-5.45-8.98s-6.42-5.64-9.2-3.46
		c-5.01-4.08-11.67-6.08-18.1-5.43c-2.33-8.08-4.78-16.38-9.98-23c-4.23-5.38-11.37-10.16-18.51-9.62
		c-6.16,0.46-8.77,5.5-14.52,6.71c-4.07,0.86-8.15-1.48-11.17-4.33c-3.02-2.86-5.48-6.35-8.9-8.71c-3.42-2.36-4.25,0.12-7.5,2.71
		c-11.33-6.61-24.88-9.34-37.89-7.61c8.65-4.15,18.37-6.05,27.95-5.47c-5.09-3.3-10.19-6.61-15.28-9.91
		c-4.07-2.64-8.14-5.28-12.2-7.91c-4.78-3.1-9.56-6.2-14.34-9.3c-1.02-0.66-2.1-1.39-2.56-2.52c-0.46-1.13,0.08-2.73,1.29-2.89
		c-8.25-0.07-13.07-2.82-20.7,0.32c-6.48,2.67-14-0.03-19.71-4.09c-6.9-4.9-12.37-11.29-20.04-14.91
		c-8.93-4.21-19.37-6.54-28.74-9.71c5.99-0.6,14.61,0.52,20.6-0.08c10.21,3.87,16.41,7.34,26.04,12.46
		c8.83,4.69,18.14,7.57,27.85,5.81c2.08-0.38,28.93-3.88,28.1-1.53c-1.76,4.94,3.97,12.56,9.04,13.88
		c13.51-0.28,26.88,7.48,33.33,19.35c2.31,4.24,3.78,8.92,6.31,13.04s6.53,7.77,11.35,8.12c4.82,0.35,11.21-6.05,10.29-10.79
		c-2.18-0.3-4.35-0.6-6.53-0.89c1.28-3.76,4.05-8.3,1.66-11.46c-5.53-1.73-12.07-4.62-12.65-10.39c-0.47-4.71,3.42-9.75,1.82-13.89
		c3.69,7.74,9.6,14.2,15.43,20.51c3.82,4.13,7.64,8.25,11.45,12.38c5.5,5.94,13.55,12.48,20.82,16.04c4.67,2.28,9.33,4.56,14,6.84
		c5.45,2.67,10.91,5.33,16.36,8c-3.1,2.96-4.33,7.74-3.03,11.83c1.3,4.09,6.02,8.71,10.31,8.71c6.34,0.01,12.49,4.09,14.96,9.93
		c1.42,3.35,1.8,7.31,4.33,9.93c3.38,3.49,8.93,3.08,13.75,3.71c3.86,0.5,7.49,1.97,10.72,4.08
		c-50.91-95.14-151.27-160.01-266.51-160.01C450.52,119.05,329.85,220.13,299.61,354.98z M420.25,245.5
		c4.36-2.14,8.46-4.87,13.06-6.4c4.6-1.54,10.02-1.7,13.99,1.1c2.76,1.95,4.46,5.06,6.91,7.39c1.65,1.57,4.01,2.72,6.19,2.68
		c-2.53,1.06-4.5,2.19-7.74,1.79c-5.07-0.62-10.37,1.01-14.23,4.36c-2.44,2.12-4.28,4.85-6.59,7.11c-2.31,2.27-5.37,4.13-8.59,3.8
		c5.44,0.8,10.18-0.28,15.02-2.88c5.31-2.84,11.39-5.77,17.11-3.89c2.59,0.85,4.77,2.61,7.19,3.85c2.43,1.24,3.71,1.17,6.07-0.2
		c2.21,1.35,7.35,1.95,9.82,1.19c-1.77-2.28-2.23-5.52-1.17-8.21c1.06-2.69,3.61-4.73,6.47-5.18c0.01,0.92,0.57-0.12,0.58,0.79
		c-2.06,2.98-1.21,7.45,1.56,9.79c2.77,2.34,6.99,2.57,10.22,0.93c3.23-1.64,5.47-4.91,6.32-8.43c1.11-4.64-0.21-9.93-3.82-13.05
		c-2.67-2.31-7.3-3.36-11.02-2.51c3.64-1.53,7.49-2.57,11.42-2.52c5.19,0.07,10.55,2.32,13.35,6.69c2.8,4.37,5.02,12.33,0.88,15.47
		c5.87,1.18,12.14,0.03,17.31-2.95c2.33-1.34,4.18-4.02,6.48-5.15c1.79-0.88,3.86-0.11,5.69-1.28c3.41-2.17,3.04-7.65,0.31-10.63
		c-2.72-2.98-6-4.17-9.91-5.17c3.03-4.62,2.3-11.33-1.64-15.19c-3.95-3.86-11.79-5.59-16.34-2.47c1.26-6.12-2.83-12.85-8.84-14.56
		c-1.91-0.54-4.1-0.58-5.71,0.58c-1.6,1.16-0.93,3.84,0.21,5.46c3.74,5.33,1.32,13.25-3.73,17.37c-5.05,4.13-11.87,5.27-18.38,5.6
		c-9.21,0.47-18.5-3.02-19.77-13.54c-0.91-7.53,6.07-13.48,13.29-13.46c-1.7,0.2-3.32,1.2-4.33,2.62c-1.37,1.94-1.71,4.46-1.37,6.81
		c0.86,6.03,6.28,11.1,12.36,11.55c8.94,0.66,15.86-7.75,15.17-16.39c-0.71-8.79-11.39-16.4-19.76-16.89
		c-14.2-0.85-29.45,12.61-33.18,25.7c-5.27-1.43-9.91,2.34-14.2,5.71c-4.29,3.38-7.67,7.76-11.75,11.39
		c-11.67,10.38-30.32,15.33-44.99,9.96C385.35,252.65,404.66,253.14,420.25,245.5z M426.97,139.99c5.59-3.15,11.05-6.55,16.83-9.34
		l-10.9-21c-6.14,2.98-11.96,6.57-17.89,9.93l3.39,5.69l11.71-6.74l4.97,9.14l-11.51,6.62c-3.86,2.17-7.49,4.72-11.25,7.06
		l-14.99-22.99c24.6-15.98,51.05-29.19,78.86-38.64l8.98,25.94c-2.1,0.73-4.22,1.38-6.3,2.17l-6.2,2.45
		c-4.12,1.65-8.3,3.16-12.31,5.09l-4.18-9.53c4.07-1.95,8.3-3.49,12.49-5.17l-2.42-6.17c-3.16,1.27-6.37,2.45-9.5,3.81l-9.33,4.22
		l9.92,21.48l8.79-3.98c2.95-1.27,5.98-2.38,8.96-3.58c5.93-2.49,12.06-4.46,18.15-6.52l-12.57-38.71l-12.28,4.16l-12.07,4.73
		c-4.05,1.52-7.99,3.28-11.92,5.09c-3.92,1.82-7.92,3.46-11.76,5.45c-15.54,7.58-30.41,16.44-44.8,26l22.87,33.66
		C416.11,146.83,421.45,143.25,426.97,139.99z M512.62,104.21l9.38-2.16c6.22-1.59,12.57-2.54,18.88-3.71L537.05,75
		c-6.71,1.23-13.46,2.25-20.08,3.93l1.46,6.46l6.58-1.52l6.65-1.19l1.88,10.24l-6.54,1.17l-6.47,1.5c-4.29,1.07-8.67,1.83-12.9,3.15
		l-7.11-26.51c28.32-7.78,57.65-11.56,86.95-12.21l0.51,27.44c-4.44,0.17-8.9,0.09-13.33,0.46l-13.29,1.01l-1.02-10.36l13.48-1.02
		l-0.39-6.61l-10.2,0.78l-5.1,0.41l-5.08,0.64l2.76,23.5l4.79-0.61l4.81-0.37l9.63-0.73c6.42-0.41,12.87-0.38,19.31-0.62l0-40.7
		c-34.5,0.24-69.11,4.76-102.29,14.52l11.3,39.1L512.62,104.21z M521.59,184.07c2.17,1.01,5.15,0.58,7.21-0.65
		c0.6,1.4,2.37,2.02,3.86,1.73c1.5-0.29,2.76-1.28,3.86-2.34c2.07-2,7.58-8.08,5.54-11.24c-0.77,0.39-5.68,5.61-5.97,5.4
		c-1.24-0.89,1.74-2.86,1.65-4.45c-0.15-2.66-6.66,1.14-7.83,1.52c1.02-2.41,3.38-3.9,5.13-5.8c0.49-2.9-5.89-0.11-6.89-0.08
		c2.17-1.83,4.35-3.66,6.52-5.48c-0.34-0.52-1.02-0.66-1.64-0.56c-3.97,0.64-7.78,2.19-11.07,4.5c-0.9,0.63-1.81,1.38-2.17,2.42
		s0.1,2.28,1.15,2.61c-1.67,0.84-2.9,2.48-3.24,4.32C517.16,178.87,518.88,182.81,521.59,184.07z M597.37,216.36
		c1.16,0.2,2.41-0.17,3.26-0.98c-0.03,0.7,0.6,1.24,1.3,1.25s1.34-0.36,1.91-0.76c2.09-1.44,3.84-3.36,5.08-5.57
		c0.19-0.34,0.26-0.77,0.03-1.09c-1.56,0.89-3.11,1.78-4.67,2.67c0.23-0.59,3.28-3.76,1.46-4.1c-1.51,0.62-2.91,1.69-4.56,1.77
		c0.48-0.61,4.15-3.64,2.61-4.31c-0.92-0.4-2.74,0.93-2.99,0.01c-0.06-0.22,4.1-1.99,4.5-2.36c-1.42-1.9-6.23,0.04-7.86,0.83
		c-0.87,0.42-1.73,0.95-2.23,1.77c-0.5,0.82-0.52,2,0.18,2.66c-1.18,0.95-2.08,2.62-1.96,4.13
		C593.57,214.16,595.53,216.04,597.37,216.36z M342.02,212.83l6.31-7.28c4.09-4.96,8.7-9.44,13.08-14.13l-16.84-16.62
		c-4.66,4.98-9.55,9.75-13.91,15.01l4.98,4.37c1.49-1.69,2.92-3.43,4.45-5.08l4.66-4.89l7.55,7.17l-4.59,4.81
		c-1.5,1.63-2.91,3.34-4.37,5c-2.84,3.39-5.92,6.59-8.58,10.14l-21.33-17.26c18.37-22.89,39.79-43.25,63.06-61.09l16.57,21.88
		l-10.48,8.24l-10.1,8.7l-6.92-7.77l10.23-8.83l-4.21-5.12c-5.14,4.48-10.42,8.81-15.39,13.49l16.07,17.37
		c2.28-2.28,4.79-4.29,7.21-6.42c2.44-2.09,4.84-4.24,7.31-6.3l7.59-5.96c2.51-2.01,5.05-3.99,7.71-5.8l-23.95-32.9
		c-13.89,10.24-27.33,21.19-39.62,33.33c-12.37,12.04-24.08,24.81-34.57,38.53l32.12,24.99L342.02,212.83z M546.42,152.42
		c0.39-0.76,1.31-7.87,1.67-7.88c1.53-0.01,0.27,3.34,1.28,4.57c1.68,2.07,4.72-4.83,5.45-5.82c0.59,2.55-0.44,5.14-0.75,7.71
		c1.3,2.64,4.83-3.37,5.63-3.98c-0.69,2.76-1.37,5.51-2.06,8.27c0.58,0.22,1.21-0.07,1.65-0.51c2.84-2.84,5.02-6.34,6.32-10.14
		c0.36-1.04,0.65-2.18,0.34-3.24c-0.31-1.06-1.42-1.79-2.46-1.44c0.86-1.66,0.9-3.71,0.09-5.4c-1.27-2.67-4.98-4.85-7.92-4.28
		c-2.35,0.46-4.51,2.55-5.46,4.76c-1.31-0.78-3.1-0.24-4.14,0.87c-1.04,1.11-1.49,2.65-1.75,4.16
		C543.8,142.9,542.91,151.06,546.42,152.42z M558.82,158.23c0.86,0.06,7.75-1.93,7.89-1.59c0.61,1.4-2.95,1.58-3.69,2.98
		c-1.23,2.36,6.3,2.42,7.51,2.69c-2.11,1.55-4.89,1.63-7.37,2.37c-1.9,2.24,5.01,3.09,5.89,3.59c-2.8,0.46-5.61,0.93-8.41,1.39
		c0.03,0.62,0.54,1.08,1.12,1.31c3.74,1.47,7.81,2.09,11.81,1.78c1.1-0.09,2.26-0.27,3.11-0.97c0.85-0.71,1.08-2.01,0.34-2.83
		c1.86,0.13,3.76-0.65,4.99-2.06c1.94-2.23,2.48-6.5,0.79-8.97c-1.36-1.98-4.14-3.13-6.53-3.12c0.2-1.51-1.01-2.94-2.44-3.46
		c-1.44-0.52-3.03-0.31-4.51,0.04C566.52,152.05,558.67,154.47,558.82,158.23z M540.75,160.46c0.19,1.31,1.51,2.38,2.83,2.22
		c-1.34,0.9-1.31,3.41-0.24,4.61c1.07,1.2,3.21,1.19,4.26-0.03c0.45,1.48,2.82,1.83,4.07,0.94c1.26-0.89,1.99-2.45,0.74-3.37
		c0.97,0.5,2.29,0.19,2.94-0.68c0.65-0.88,0.56-2.23-0.2-3.01c-0.76-0.78-2.11-0.91-3-0.29c0.92-1.4-0.26-3.93-1.81-4.57
		c-1.55-0.64-3.56,0.43-3.89,2.07c-0.79-1.06-2.48-1.43-3.73-1.01C541.45,157.78,540.56,159.15,540.75,160.46z"/>
</g>
<g id="Rat_1_">
	<path class="st0" d="M347.74,358.51c-0.32,2.46,0.04,4.96,0.87,7.4c-11.44,0.26-22.83,3.17-32.94,8.54
		c11.36-3.42,23.35-4.68,35.17-3.75c1.55,2.68,3.5,5.2,5.51,7.44c0.34,0.38,0.68,0.74,1.02,1.11c-8.28,2.72-16.56,5.44-24.84,8.15
		c9.9,0.67,19.91-0.46,29.44-3.24c0.01,0.01,0.02,0.02,0.03,0.03c1.34-0.57,3.02-0.57,4.58-0.26c1.42-0.83,1.58-3.04,0.8-4.55
		c-0.83-1.6-2.35-2.74-3.45-4.17c-1.1-1.44-1.74-3.56-0.64-5c0.83-1.09,2.43-1.36,3.74-0.95c1.31,0.41,2.36,1.38,3.26,2.42
		c3.14,3.65,4.73,8.56,4.42,13.36c0.2-0.06,0.4-0.11,0.59-0.2c2.92-1.3,3.76-4.97,4.24-8.13c0.88,2.59,1.76,5.29,1.47,8.01
		c-0.3,2.72-2.14,5.48-4.84,5.91c-2.78,0.44-5.33-1.59-8.12-2.04c-0.6-0.1-1.2-0.09-1.8-0.02c5.4,5.48,10.86,10.85,16.02,16.61
		c3.79,4.23,8.11,8.4,12.82,12.07c3.37,7.82,6.74,15.65,10.11,23.47c2.45,0.1,4.53-2.12,5.04-4.52c0.82-3.78-2.29-7.45-2.28-10.92
		c1,0.47,2.01,0.91,3.02,1.31c2.47,3.26,4.76,6.73,7.15,10.03c1.88,0.49,3.76-1.21,4.21-3.09c0.27-1.14,0.17-2.3-0.08-3.46
		c0.21,0.05,0.42,0.12,0.63,0.17c-1.38-4.69-2.76-9.38-4.14-14.07c0.14,0.17,0.27,0.34,0.41,0.51c10.42,0.74,20.85,1.48,31.27,2.22
		c-6.81,2.86-14.29,4.14-21.66,3.69c-1.47-0.09-2.99-0.24-4.37,0.27c-0.07,0.02-0.13,0.06-0.2,0.09c2.54,3.16,5.08,6.32,7.62,9.48
		c6.92,1.63,13.84,3.26,20.54,5.59c2.39,0.83,3.66,1.25,4.59,2.18c8.35,2.25,15.97,7.29,21.13,14.25
		c-5.72-2.51-11.82-4.14-18.03-4.87c0.32,6.48-2.3,13.37-6.19,18.3c-3.46,4.39-5.61,3.06-9.44,5.17
		c-14.12,7.77-30.27,0.59-42.47,10.6c1.18-0.76,2.86-0.64,3.92,0.28c6.66-0.69,14.21-0.24,20.86-0.93
		c-7.94,0.43-16.6,6.74-17.82,14.8c5.91-1.6,8.78-5.74,13.88-8.08c3.09-1.42,6.38-1.04,9.5-0.68c-4.6,4.51-9.67,8.99-13.47,14.01
		c7.99,0.41,15.11-7,23.22-8.06c1.67-0.22,14.89,2.68,13.51,3.48c8.18-4.73,8.24-15.15,14.08-21.79c5.36-6.09,17.32-9.52,25.03-9.32
		c2.11,0.06,12.54,1.74,22.04,2.53c4.46,0.23,8.93,0.24,13.39,0.03c1.87-0.34,3.06-0.93,3.21-1.88c-0.09,0.59-0.18,1.16-0.27,1.73
		c18.19-1.24,36.14-6.1,52.43-14.28c-2.09,6.38-8.75,9.94-14.97,12.49c-12.73,5.21-26.1,8.84-39.71,10.85
		c-1.41,3.4-3.65,6.31-7.72,9.04c-6.04,4.04-8.78,7.97-14.81,12.01c-10.14-0.14-20.06,6.36-23.96,15.72
		c8.96-4.1,20.64-5.57,30.47-4.88c-6.39,2-12.02,6.3-15.64,11.93c6.99-3.44,15.15-5.15,22.75-3.43c0.05,3.7,0.1,7.39,0.15,11.09
		c6.13-2.39,9.06-9.21,11.56-15.3c6.77-16.46,24.4-20.91,40.84-22.53c13.94-1.38,28.74-1.34,42.25-1.18
		c11.88,0.14,24.32,0.16,34.86-5.34c4.39-2.29,8.28-5.46,12.67-7.74c0.44-0.23,0.85-0.45,1.25-0.66
		c7.18-7.32,11.57-17.46,11.16-27.74c4.83,7.52,5.52,17.28,2.57,25.67c14.77-1.4,29.32-5.03,43.02-10.71
		c-15.32-10.35-27.09-25.96-32.63-43.62c12.42,14.46,26.11,27.83,40.86,39.91c0.25-0.12,0.51-0.24,0.76-0.36
		c1.19,2.42,4.64,2.79,5.83,5.21c-3.93,12.15-12.11,16.87-21.58,23.97c-8.39,6.29-15.21,15.78-19.89,25.14
		c7.33-3.81,15.28-8.23,22.61-12.04c-3.17,5.46-6.34,10.93-9.51,16.39c8.03-4.27,16.06-8.55,24.09-12.82
		c0.42,0.68,1.59,0.93,2.01,1.61c-3.56,4.54-4.5,11-2.38,16.37c2.42-5.66,5.07-11.63,10.12-15.15c4.05-2.83,9.62-3.17,13.83-0.57
		c0.61,0.38,8.01,9.68,8.01,9.26c0-10.15-2.87-22.43-1.68-32.22c1.21-10.01,11.77-18.85,17.39-26.68
		c10.47-14.61,21.68-30.07,19.65-49.06c-0.92-8.57-1.79-16-1.55-24.02c-0.68-9.38-1.36-18.75-2.04-28.13
		c7.07,13.97,11.77,29.11,13.92,44.62c5.36,10.82,9.94,22.86,13.4,35.42c1.85,0.22,3.69,0.44,5.54,0.66c-0.56,2.18-2.1,4-4.03,5.14
		c2.85,11.67,4.69,23.69,5.27,35.53c2.21,0.06,4.44-0.29,6.49-1.14c-1.6,2.66-3.77,4.96-6.32,6.74c0.25,18.7-2.82,36.73-10.36,51.95
		c1.38,0.47,2.82,0.79,4.28,0.93c-2.05,1.62-4.37,2.9-6.83,3.79c-4.75,8.17-10.92,15.39-18.73,21.29
		c-7.38,5.57-14.86,10.69-22.48,15.4c1.81,1.8,3.93,3.29,6.27,4.34c-3.88-0.36-7.77-0.72-11.65-1.08
		c-26.19,15.4-54.09,25.83-85.37,31.13c-15.11,2.56-34.04,6.58-49.2,4.5c-23.61-3.24-46.22-11.18-69.04-17.69
		c-25.53-7.28-53.08-12.08-78.15,0.01c-8.38,4.04-14.5,12.47-14.61,21.77c13.97-12.23,33.91-15.77,52.36-13.64
		c18.45,2.13,35.89,9.3,53.08,16.34c19.01,7.79,39.91,16.22,60.39,18.32c19.84,2.04,41.57-1.22,60.96-5.27
		c39.53-8.25,77.18-25.78,108.48-51.37c11.7-9.56,22.66-20.34,30.4-33.32c9.54-16,13.44-38.29,13.9-56.83
		c0.54-22.04-1.73-44.32-5.93-65.94c-7.96-40.96-23.78-80.42-46.61-115.37c-11.79-28.01-38.75-50.14-65.51-62.17
		c-25.05-11.25-54.9-19.48-82.11-14.02c-28.63,5.74-54.44,20.67-79.99,34.82c-23.88,13.22-69.24,42.61-96.96,26.69
		c-5.93-3.41-9.51-9.45-17.15-6.47c-4.9,1.91-8.31,6.3-11.48,10.49c-1.73,2.29-3.2,4.47-4.73,6.43c5.13-1.12,10.09-3.05,14.58-5.78
		c-6.32,7.06-17.16,12.66-27.08,13.97c-6.25,1.51-13.18,1.72-19.41,3.57c-11.92,3.52-22.88,8.87-33.32,15.45
		c-6.09-11.86-13.77-22.9-22.81-32.7c5.9,11.96,10.95,24.33,15.12,37c-2.28,0.97-4.74,1.83-7.18,2.74
		c-11.38-10.52-24.08-19.63-37.72-26.99c10.12,9.46,20.25,18.91,30.37,28.37l0.3-0.3c3.21-1.27,7.05-0.78,9.84,1.25
		c2.79,2.04,4.42,5.55,4.18,9c-1.75-3.28-4.91-5.77-8.5-6.72c-2.96-0.78-6.17-0.49-8.96,0.74c-1.61,1.29-2.94,2.83-3.9,4.7
		c-16.47-3.09-32.97-2.49-49.47,0.73c-0.08,0.31-0.15,0.62-0.21,0.94C315.56,355.18,331.77,356.06,347.74,358.51z M619.25,386.67
		c-2.52,6.64-7.09,12.48-12.93,16.52c-2.7,1.87-5.99,3.4-9.19,2.63c-4.2-1.02-6.6-6.01-5.7-10.24c0.9-4.23,4.38-7.54,8.3-9.36
		c3.92-1.82,8.29-2.38,12.58-2.93C615.39,382.9,620.35,383.77,619.25,386.67z M666.09,387.53c-3.5,2.65-8.38,2.89-12.6,1.69
		c-4.23-1.21-7.96-3.67-11.62-6.1c-2.62-1.74-5.86-5.71-3.09-7.2c6.35-3.43,13.74-4.89,20.92-4.12c3.32,0.36,6.87,1.36,8.81,4.08
		C671.07,379.44,669.6,384.87,666.09,387.53z M694.62,383.24c-1.13-1.27-0.79-3.42,0.45-4.58c1.24-1.16,3.1-1.46,4.78-1.17
		c1.67,0.29,3.21,1.08,4.72,1.87c1.08,0.56,2.49,1.95,1.48,2.64c-2.3,1.58-5.08,2.45-7.87,2.44
		C696.88,384.45,695.48,384.21,694.62,383.24z M702.26,367.48c0.7-1.58,2.84-2.16,4.43-1.5c1.6,0.66,2.65,2.26,3.08,3.93
		c0.43,1.67,0.34,3.43,0.25,5.15c-0.07,1.24-0.77,3.12-1.82,2.48c-2.43-1.47-4.39-3.68-5.56-6.27
		C702.1,370.08,701.73,368.68,702.26,367.48z M709.89,393.85c-0.39,1.25-1.04,2.55-2.23,3.1c-1.57,0.72-3.56-0.25-4.32-1.8
		c-0.76-1.55-0.49-3.45,0.29-4.99c0.78-1.54,2.01-2.8,3.22-4.03c0.87-0.88,2.64-1.83,3.01-0.65
		C710.71,388.18,710.72,391.14,709.89,393.85z M712.92,378.27c1.05-2.59,2.89-4.84,5.22-6.38c1.08-0.71,2.38-1.29,3.63-0.95
		c1.64,0.44,2.54,2.42,2.15,4.07s-1.79,2.92-3.34,3.61c-1.56,0.68-3.28,0.87-4.97,1.04C714.4,379.79,712.46,379.4,712.92,378.27z
		 M720.99,392.76c-1.73,0.07-3.35-0.94-4.45-2.27c-1.1-1.33-1.75-2.97-2.39-4.57c-0.46-1.15-0.62-3.15,0.61-3.02
		c2.82,0.31,5.53,1.5,7.68,3.35c0.99,0.86,1.92,1.98,1.94,3.29C724.4,391.26,722.71,392.69,720.99,392.76z M753.49,342.43
		c-0.81,2.36-1.67,4.8-3.36,6.64c-3.34,3.64-8.73,3.81-12.19,0.23c-0.91-0.94-1.54-1.93-1.94-2.95c-1.45-3.72,0.14-7.82,1.95-11.57
		c5.34-11.06,15.15-20.03,26.87-23.86C761.2,321.45,757.12,331.91,753.49,342.43z M710.84,318.96l3.79-2.57
		c-3.03,1.71-6.11,3.43-9.47,4.35c-3.36,0.92-7.09,0.96-10.19-0.63c-7.94-4.06-5.2-13.34,0.79-17.65c4.12-2.97,9.24-4.16,14.25-4.99
		c18.64-3.09,37.95-2.03,56.14,3.08C747.21,303.56,727.64,309.72,710.84,318.96z M770.32,351.55c0.15-10.48,1.84-20.94,5.03-30.92
		c-1.74,8.14-0.07,17.87,3.39,25.44c1.07,2.34,2.38,4.59,3.13,7.06c0.75,2.46,0.89,5.26-0.35,7.52c-1.23,2.26-5.77,5.08-7.64,3.3
		C770.68,360.89,770.26,355.98,770.32,351.55z M643.75,267.7c3.77-4.02,9.57-6.11,15.28-7.6c38.86-10.09,84.29,3.65,107.62,32.55
		c-3-3.72-13.37-7.59-18.01-9.73c-6.46-2.97-13.4-4.49-20.61-5.62c-9.03-1.42-17.5-1.69-25.77-1.14
		c-12.87,0.85-25.28,3.66-38.56,7.18c-7,1.86-15.76,3.34-20.68-1.38C639.01,278.13,639.98,271.72,643.75,267.7z M629.92,348
		c1.22-3.05,3.13-6.14,6.22-7.26c4.07-1.47,8.82,1.38,10.4,5.4c1.58,4.03,0.5,8.7-1.77,12.38c-2.27,3.68-5.6,6.56-8.88,9.37
		c-2.35,2.02-6.97,4.02-7.65,1C626.68,361.98,627.27,354.59,629.92,348z M632.26,388.4c5.7,4.43,10.01,10.61,12.19,17.49
		c1.01,3.18,1.52,6.84-0.18,9.71c-2.24,3.78-7.81,4.62-11.65,2.48c-3.84-2.14-6.02-6.5-6.62-10.86s0.16-8.77,0.91-13.1
		C627.45,391.02,629.77,386.47,632.26,388.4z M621.82,309.33c1.3,0.14,2.7,0.54,3.46,1.6c1,1.4,0.43,3.54-0.95,4.58
		c-1.38,1.04-3.29,1.14-4.95,0.66c-1.66-0.47-3.13-1.44-4.57-2.4c-1.03-0.68-2.3-2.24-1.21-2.83
		C616.09,309.6,619,309.03,621.82,309.33z M610.11,299.98c0.48-1.2,1.23-2.41,2.44-2.85c1.6-0.58,3.47,0.54,4.09,2.12
		c0.62,1.58,0.2,3.42-0.69,4.87c-0.89,1.45-2.2,2.58-3.49,3.68c-0.92,0.79-2.74,1.58-3.01,0.39
		C608.84,305.48,609.07,302.57,610.11,299.98z M608.93,318.11c0.21-1.22,1.13-3.01,2.1-2.25c2.24,1.74,3.93,4.17,4.79,6.87
		c0.4,1.25,0.6,2.69-0.07,3.82c-0.88,1.49-3.07,1.82-4.58,0.98c-1.51-0.84-2.37-2.56-2.6-4.27
		C608.34,321.55,608.64,319.81,608.93,318.11z M597.33,301.63c1.69-0.37,3.46,0.35,4.77,1.48s2.23,2.62,3.14,4.1
		c0.65,1.05,1.15,3-0.09,3.08c-2.83,0.18-5.71-0.52-8.14-1.98c-1.12-0.68-2.23-1.62-2.47-2.91
		C594.22,303.69,595.64,302,597.33,301.63z M605.92,315.18c-0.99,2.61-2.79,4.9-5.08,6.49c-1.06,0.73-2.36,1.34-3.61,1.03
		c-1.65-0.4-2.59-2.36-2.24-4.02c0.35-1.66,1.72-2.96,3.26-3.68c1.54-0.72,3.26-0.94,4.94-1.15
		C604.41,313.7,606.35,314.04,605.92,315.18z M597.39,352.19c4.29-0.94,8.82,0.89,12.14,3.76c3.33,2.87,5.68,6.68,7.98,10.42
		c1.65,2.68,2.92,7.64-0.22,7.84c-7.2,0.45-14.53-1.34-20.71-5.05c-2.86-1.72-5.66-4.12-6.29-7.4
		C589.48,357.44,593.1,353.13,597.39,352.19z M490.34,427.66c-2.07,2.03-5.68,1.8-7.97,0.02c-2.29-1.78-3.42-4.71-3.75-7.59
		c-0.33-2.88,0.04-5.79,0.19-8.68c0.12-2.45,1.19-4.63,0.8-6.84c-0.12-0.41-0.25-0.81-0.36-1.22c0.18,0.41,0.29,0.81,0.36,1.22
		c1.92,6.63,5.67,12.73,10.76,17.39C492.51,423.92,492.41,425.64,490.34,427.66z M523.67,408.94c-0.37,2.05-1.93,3.69-3.68,4.82
		c-6.65,4.29-15.87,2.25-22.06-2.68c-6.19-4.93-9.57-13.04-13.25-20.05c10.88,8.7,24.42,14.03,38.31,15.09
		C525.08,406.28,524.04,406.89,523.67,408.94z M574.34,437.83c-1.73,0.07-3.35-0.94-4.45-2.27c-1.1-1.33-1.75-2.97-2.39-4.57
		c-0.46-1.15-0.62-3.15,0.61-3.02c2.82,0.31,5.53,1.5,7.68,3.35c0.99,0.86,1.92,1.98,1.94,3.29
		C577.76,436.33,576.06,437.76,574.34,437.83z M566.27,423.35c1.05-2.59,2.89-4.84,5.22-6.38c1.08-0.71,2.38-1.29,3.63-0.95
		c1.64,0.44,2.54,2.42,2.15,4.07c-0.39,1.65-1.79,2.92-3.34,3.61c-1.56,0.68-3.28,0.87-4.97,1.04
		C567.76,424.86,565.81,424.47,566.27,423.35z M563.24,438.92c-0.39,1.25-1.04,2.55-2.23,3.1c-1.57,0.72-3.56-0.25-4.32-1.8
		c-0.76-1.55-0.49-3.45,0.29-4.99c0.78-1.54,2.01-2.8,3.22-4.03c0.87-0.88,2.64-1.83,3.01-0.65
		C564.06,433.25,564.07,436.21,563.24,438.92z M555.61,412.55c0.7-1.58,2.84-2.16,4.43-1.5c1.6,0.66,2.65,2.26,3.08,3.93
		c0.43,1.67,0.34,3.43,0.25,5.15c-0.07,1.24-0.77,3.12-1.82,2.48c-2.43-1.47-4.39-3.68-5.56-6.27
		C555.45,415.15,555.08,413.75,555.61,412.55z M553.19,422.56c1.67,0.29,3.21,1.08,4.72,1.87c1.08,0.56,2.49,1.95,1.48,2.64
		c-2.3,1.58-5.08,2.45-7.87,2.44c-1.29,0-2.7-0.24-3.56-1.21c-1.13-1.27-0.79-3.42,0.45-4.58
		C549.66,422.57,551.52,422.27,553.19,422.56z M525.81,322.43c1.2-2.04,2.15-4.23,3.64-6.07c1.49-1.83,3.69-3.3,6.05-3.16
		c2.07,0.12,4,1.59,4.67,3.56c0.67,1.97,2.35,3.36,0.79,4.74c-8.48,7.45-19.01,12.54-30.11,14.55
		C516.88,333.72,522.53,328,525.81,322.43z M541.51,339.09c1.9-2.05,3.12-1.49,5.41,0.1c2.29,1.6,3.22,4.73,2.6,7.46
		s-0.72,3.41-3.01,5c-13.15,9.12-30.15,12.53-45.28,7.33C516.41,356.99,531.01,350.44,541.51,339.09z M509.8,379.62
		c7.8-0.35,15.54-1.93,22.82-4.74c3.37-1.3,7.21-2.85,10.43-1.21c3.04,1.55,4.17,5.67,2.97,8.87c-1.2,3.2-4.24,5.43-7.5,6.43
		c-3.26,1-6.75,0.92-10.15,0.66c-13.2-1.01-27.83-4.42-39.19-11.45C495.78,377.58,502.95,379.93,509.8,379.62z M471.47,335.76
		c5.39,1.88,9.54,6.08,13.49,10.14c-0.69-0.71-9.09-2.54-10.41-2.4c-3.64,0.37-4.4,3.72-6.62,6.3c-3.61,4.2-11.73,3.27-15.54-0.4
		c-1.96-1.89-2.58-5.41-0.53-7.21c-0.19-2.57-2.72-3.07-5.33-3.31C454.54,335.91,463.39,332.94,471.47,335.76z"/>
</g>
</svg>
