<?xml version="1.0" encoding="utf-8"?>
<!-- Generator: Adobe Illustrator 25.2.3, SVG Export Plug-In . SVG Version: 6.00 Build 0)  -->
<svg version="1.1" xmlns="http://www.w3.org/2000/svg" xmlns:xlink="http://www.w3.org/1999/xlink" x="0px" y="0px"
	 viewBox="0 0 1190.55 841.89" enable-background="new 0 0 1190.55 841.89" xml:space="preserve">
<g id="Circle">
	<path fill="#B0252C" d="M941.8,432.22l40.28,1.28l-0.17,6.41c-0.11,2.13-0.3,4.26-0.45,6.4l-0.99,12.79
		c-1.16,8.47-1.91,17.01-3.6,25.41c-2.76,16.89-7.14,33.5-12.32,49.8l-38.33-12.45c1.09-3,1.95-6.06,2.8-9.13l2.61-9.19
		c1.46-6.2,2.99-12.38,4.23-18.63l22.98,4.54c-1.31,6.63-2.94,13.19-4.48,19.76l-6.35-1.65l3.04-13.03L941,492.35
		c-1.01,4.28-1.94,8.58-3.01,12.85l-3.61,12.69l26,7.89c8.35-27.84,13.38-56.66,14.96-85.67l-27.14-1.37
		c-0.69,8.74-1.17,17.51-2.47,26.18l10.22,1.33c0.5-4.43,1.28-8.83,1.5-13.29l6.53,0.59c-0.19,3.37-0.67,6.72-1.09,10.07
		l-1.28,10.05l-23.17-3.48C940.16,457.61,941.52,444.95,941.8,432.22z M915.86,549.5l-3.93,8.68l-1.98,4.34l-2.18,4.24l20.94,10.51
		l2.31-4.51l2.11-4.61l4.17-9.23l-6.03-2.59l-5.51,12.19l-9.3-4.44l5.42-11.98c1.78-4.01,3.26-8.14,4.91-12.2l25.38,9.72
		c-10.48,27.09-23.98,53.08-40.78,76.79l-22.27-15.57c2.62-3.54,4.97-7.26,7.33-10.97c2.38-3.7,4.79-7.38,6.91-11.24l8.89,5.21
		c-2.15,3.91-4.58,7.65-7,11.4l5.52,3.54c1.79-2.86,3.72-5.64,5.39-8.58l5.05-8.78l-20.43-11.46l-4.76,8.28
		c-1.58,2.77-3.4,5.38-5.09,8.09c-1.75,2.66-3.36,5.42-5.23,8l-5.54,7.79l32.58,23.71l7.43-10.46l6.93-10.8
		c2.38-3.56,4.45-7.3,6.59-11.01c2.08-3.74,4.38-7.35,6.25-11.21c8.13-15.07,14.83-30.86,20.83-46.88l-37.9-13.69
		C920.63,537.72,918.33,543.65,915.86,549.5z M867.95,627.97l-6.25,7.2c-4.05,4.91-8.62,9.35-12.95,13.99l16.68,16.45
		c4.61-4.93,9.46-9.65,13.77-14.86l-4.93-4.33c-1.47,1.67-2.89,3.4-4.41,5.03l-4.62,4.84l-7.47-7.1l4.54-4.76
		c1.48-1.61,2.88-3.3,4.33-4.95c2.82-3.36,5.87-6.53,8.5-10.04l21.13,17.09c-18.19,22.67-39.4,42.82-62.44,60.49l-16.41-21.66
		l10.38-8.16l10-8.62l6.85,7.7l-10.13,8.75l4.17,5.07c5.09-4.43,10.32-8.73,15.23-13.36l-15.91-17.2c-2.25,2.26-4.75,4.25-7.13,6.36
		c-2.42,2.07-4.79,4.2-7.24,6.24l-7.52,5.9c-2.49,1.99-5,3.95-7.64,5.74l23.71,32.58c13.76-10.14,27.06-20.98,39.23-33
		c12.25-11.92,23.84-24.57,34.24-38.16l-31.8-24.75L867.95,627.97z M783.84,700.1c-5.54,3.12-10.94,6.48-16.67,9.25l10.8,20.79
		c6.08-2.95,11.84-6.5,17.72-9.83l-3.36-5.64l-11.6,6.67l-4.93-9.05l11.4-6.56c3.82-2.15,7.41-4.68,11.14-6.99l14.84,22.76
		c-24.36,15.82-50.55,28.9-78.08,38.26l-8.89-25.68c2.08-0.72,4.18-1.37,6.24-2.15l6.14-2.42c4.08-1.64,8.22-3.13,12.19-5.04
		l4.14,9.44c-4.03,1.93-8.22,3.46-12.36,5.11l2.4,6.11c3.13-1.26,6.31-2.43,9.41-3.77l9.23-4.17l-9.83-21.27l-8.7,3.94
		c-2.93,1.25-5.92,2.35-8.87,3.54c-5.88,2.47-11.94,4.41-17.97,6.46l12.44,38.33l12.16-4.12l11.95-4.68
		c4.01-1.5,7.91-3.25,11.8-5.04c3.88-1.81,7.85-3.43,11.64-5.4c15.39-7.5,30.12-16.28,44.36-25.75l-22.65-33.33
		C794.59,693.33,789.31,696.87,783.84,700.1z M699.03,735.53l-9.29,2.14c-6.16,1.58-12.45,2.52-18.7,3.67l3.8,23.12
		c6.64-1.22,13.33-2.23,19.88-3.9l-1.44-6.4l-6.52,1.5l-6.59,1.18l-1.87-10.14l6.47-1.15l6.4-1.48c4.25-1.06,8.58-1.81,12.77-3.12
		l7.04,26.25c-28.04,7.7-57.09,11.45-86.09,12.09l-0.51-27.17c4.4-0.17,8.81-0.09,13.2-0.46l13.16-1l1.01,10.26l-13.35,1.01
		l0.39,6.55l10.1-0.77l5.05-0.4l5.03-0.64l-2.73-23.27l-4.74,0.61l-4.77,0.37l-9.53,0.73c-6.36,0.41-12.75,0.38-19.12,0.61l0,40.3
		c34.17-0.23,68.43-4.71,101.29-14.38l-11.19-38.71L699.03,735.53z M566.15,765.26l10.05,1.28c3.35,0.42,6.7,0.91,10.07,1.09
		l0.59-6.53c-4.46-0.23-8.86-1-13.29-1.5l1.33-10.22c8.68,1.3,17.44,1.78,26.18,2.47l-1.37,27.14c-29-1.57-57.83-6.6-85.67-14.96
		l7.89-26l12.69,3.61c4.26,1.07,8.57,2,12.85,3.01l-2.19,10.07l-13.03-3.04l-1.65,6.35c6.58,1.54,13.14,3.17,19.76,4.48l4.54-22.98
		c-6.24-1.24-12.43-2.77-18.63-4.23l-9.19-2.61c-3.07-0.85-6.13-1.71-9.13-2.8l-12.45,38.33c16.3,5.18,32.9,9.56,49.8,12.32
		c8.4,1.69,16.93,2.44,25.41,3.6l12.79,0.99c2.13,0.15,4.26,0.35,6.4,0.45l6.41,0.17l1.28-40.28c-12.72-0.28-25.38-1.64-37.98-3.35
		L566.15,765.26z M490.32,719.51l-8.68-3.93l-4.34-1.98l-4.24-2.18l-10.51,20.94l4.51,2.31l4.61,2.11l9.23,4.17l2.59-6.03
		l-12.19-5.51l4.44-9.3l11.98,5.42c4.01,1.78,8.14,3.26,12.2,4.91l-9.72,25.38c-27.09-10.48-53.08-23.98-76.79-40.78l15.57-22.27
		c3.54,2.62,7.26,4.97,10.97,7.33c3.7,2.38,7.38,4.8,11.24,6.91l-5.21,8.89c-3.91-2.15-7.65-4.58-11.4-7l-3.54,5.53
		c2.86,1.79,5.64,3.72,8.58,5.39l8.78,5.05l11.46-20.43l-8.28-4.76c-2.77-1.58-5.38-3.4-8.09-5.09c-2.66-1.75-5.42-3.36-8-5.23
		l-7.79-5.54L404,716.39l10.46,7.43l10.8,6.93c3.56,2.38,7.3,4.45,11.01,6.59c3.74,2.08,7.35,4.38,11.21,6.25
		c15.07,8.13,30.86,14.83,46.88,20.83l13.69-37.9C502.1,724.27,496.18,721.97,490.32,719.51z M411.85,671.59l-7.2-6.25
		c-4.91-4.05-9.35-8.62-13.99-12.96l-16.45,16.68c4.93,4.61,9.65,9.46,14.86,13.77l4.33-4.93c-1.67-1.47-3.4-2.89-5.03-4.41
		l-4.84-4.62l7.1-7.47l4.76,4.54c1.61,1.48,3.3,2.88,4.95,4.33c3.36,2.82,6.53,5.87,10.04,8.5l-17.09,21.13
		c-22.67-18.19-42.82-39.4-60.49-62.44l21.66-16.41l8.16,10.38l8.62,10l-7.7,6.85l-8.75-10.13l-5.07,4.17
		c4.43,5.09,8.73,10.32,13.36,15.23l17.2-15.91c-2.26-2.25-4.25-4.75-6.36-7.13c-2.07-2.42-4.2-4.79-6.24-7.24l-5.9-7.52
		c-1.99-2.49-3.95-5-5.74-7.64l-32.58,23.71c10.14,13.76,20.98,27.06,33,39.23c11.92,12.25,24.57,23.84,38.16,34.24l24.75-31.8
		L411.85,671.59z M339.72,587.48c-3.12-5.54-6.48-10.94-9.25-16.67l-20.79,10.8c2.95,6.08,6.5,11.84,9.83,17.72l5.64-3.36
		l-6.67-11.6l9.05-4.93l6.56,11.4c2.15,3.82,4.68,7.41,6.99,11.14l-22.76,14.84c-15.82-24.36-28.9-50.55-38.26-78.08l25.68-8.89
		c0.72,2.08,1.37,4.18,2.15,6.24l2.42,6.14c1.64,4.08,3.13,8.22,5.04,12.19l-9.44,4.14c-1.93-4.03-3.46-8.22-5.11-12.36l-6.11,2.4
		c1.26,3.13,2.43,6.31,3.77,9.41l4.17,9.23l21.27-9.83l-3.94-8.7c-1.25-2.93-2.35-5.92-3.54-8.87c-2.47-5.88-4.41-11.94-6.46-17.97
		l-38.33,12.44l4.12,12.16l4.68,11.95c1.5,4.01,3.25,7.91,5.04,11.8c1.81,3.88,3.43,7.85,5.4,11.64
		c7.5,15.39,16.28,30.12,25.75,44.36l33.33-22.65C346.49,598.24,342.95,592.95,339.72,587.48z M304.3,502.67l-2.14-9.29
		c-1.58-6.16-2.52-12.45-3.67-18.7l-23.12,3.8c1.22,6.64,2.23,13.33,3.9,19.88l6.4-1.44l-1.5-6.52l-1.18-6.59l10.14-1.87l1.15,6.47
		l1.48,6.4c1.06,4.25,1.81,8.58,3.12,12.77l-26.25,7.04c-7.7-28.04-11.45-57.08-12.09-86.09l27.17-0.51
		c0.17,4.4,0.09,8.81,0.46,13.2l1,13.16l-10.26,1.01l-1.01-13.35l-6.55,0.39l0.77,10.1l0.4,5.05l0.64,5.03l23.27-2.73l-0.61-4.74
		l-0.37-4.77l-0.73-9.53c-0.41-6.36-0.38-12.75-0.61-19.12l-40.3,0c0.23,34.17,4.71,68.43,14.38,101.29l38.71-11.19L304.3,502.67z
		 M297.73,373.27l-23.17-3.48l-1.28,10.05c-0.42,3.35-0.91,6.7-1.09,10.07l6.53,0.59c0.23-4.46,1-8.86,1.5-13.29l10.22,1.33
		c-1.3,8.68-1.78,17.44-2.47,26.18l-27.14-1.37c1.57-29,6.6-57.83,14.96-85.67l26,7.89l-3.61,12.69c-1.07,4.26-2,8.57-3.01,12.85
		l-10.07-2.19l3.04-13.03l-6.35-1.65c-1.54,6.58-3.17,13.14-4.48,19.76l22.98,4.54c1.24-6.24,2.77-12.43,4.23-18.63l2.61-9.19
		c0.85-3.07,1.71-6.13,2.8-9.13l-38.33-12.45c-5.18,16.3-9.56,32.9-12.32,49.8c-1.69,8.4-2.44,16.93-3.6,25.41l-0.99,12.79
		c-0.15,2.13-0.35,4.26-0.45,6.4l-0.17,6.41l40.28,1.28C294.66,398.52,296.03,385.86,297.73,373.27z M320.32,293.96l3.93-8.68
		l1.98-4.34l2.18-4.24l-20.94-10.51l-2.31,4.51l-2.11,4.61l-4.17,9.23l6.03,2.59l5.51-12.19l9.3,4.44l-5.42,11.98
		c-1.78,4.01-3.26,8.14-4.91,12.2l-25.38-9.72c10.48-27.09,23.98-53.08,40.78-76.79l22.27,15.57c-2.62,3.54-4.97,7.26-7.33,10.97
		c-2.38,3.7-4.8,7.38-6.91,11.24l-8.89-5.21c2.15-3.91,4.58-7.65,7-11.4l-5.52-3.54c-1.79,2.87-3.72,5.64-5.39,8.58l-5.05,8.78
		l20.43,11.46l4.76-8.28c1.58-2.77,3.4-5.38,5.09-8.09c1.75-2.66,3.36-5.42,5.23-8l5.54-7.79l-32.58-23.71l-7.43,10.46l-6.93,10.8
		c-2.38,3.56-4.45,7.3-6.59,11.01c-2.08,3.74-4.38,7.35-6.25,11.21c-8.13,15.07-14.83,30.86-20.83,46.88l37.9,13.69
		C315.55,305.74,317.86,299.82,320.32,293.96z M368.23,215.49l6.25-7.2c4.05-4.91,8.62-9.35,12.95-13.99l-16.68-16.45
		c-4.61,4.93-9.46,9.65-13.77,14.86l4.93,4.33c1.47-1.67,2.89-3.4,4.41-5.03l4.62-4.84l7.47,7.1l-4.54,4.76
		c-1.48,1.61-2.88,3.3-4.33,4.95c-2.82,3.36-5.87,6.53-8.5,10.04l-21.13-17.09c18.19-22.67,39.4-42.82,62.44-60.49l16.41,21.66
		l-10.38,8.16l-10,8.62l-6.85-7.7l10.13-8.75l-4.17-5.07c-5.09,4.43-10.32,8.73-15.23,13.36l15.91,17.2
		c2.25-2.26,4.75-4.25,7.13-6.36c2.42-2.07,4.79-4.2,7.24-6.24l7.52-5.9c2.49-1.99,5-3.95,7.64-5.74L404,127.08
		c-13.76,10.14-27.06,20.98-39.23,33c-12.25,11.92-23.84,24.57-34.24,38.16l31.8,24.75L368.23,215.49z M452.35,143.36
		c5.54-3.12,10.94-6.48,16.67-9.25l-10.8-20.79c-6.08,2.95-11.84,6.5-17.72,9.83l3.36,5.64l11.6-6.67l4.93,9.05l-11.4,6.56
		c-3.82,2.15-7.41,4.68-11.14,6.99l-14.84-22.76c24.36-15.82,50.55-28.9,78.08-38.26l8.89,25.68c-2.08,0.72-4.18,1.37-6.24,2.15
		l-6.14,2.42c-4.08,1.64-8.22,3.13-12.19,5.04l-4.14-9.44c4.03-1.93,8.22-3.46,12.36-5.12l-2.4-6.11c-3.13,1.26-6.31,2.43-9.41,3.77
		l-9.23,4.17l9.83,21.27l8.7-3.94c2.93-1.25,5.92-2.35,8.87-3.54c5.88-2.47,11.94-4.41,17.97-6.46l-12.44-38.33l-12.16,4.12
		l-11.95,4.68c-4.01,1.5-7.91,3.25-11.8,5.04c-3.88,1.81-7.85,3.43-11.64,5.4c-15.39,7.5-30.12,16.28-44.36,25.75l22.65,33.33
		C441.59,150.13,446.88,146.59,452.35,143.36z M537.15,107.94l9.29-2.14c6.16-1.58,12.45-2.52,18.7-3.67l-3.8-23.12
		c-6.64,1.22-13.33,2.23-19.88,3.9l1.44,6.4l6.52-1.5l6.59-1.18l1.87,10.14l-6.47,1.16L545,99.4c-4.25,1.06-8.58,1.81-12.77,3.12
		l-7.04-26.25c28.04-7.7,57.08-11.45,86.09-12.09l0.51,27.17c-4.4,0.17-8.81,0.09-13.2,0.46l-13.16,1l-1.01-10.26l13.35-1.01
		l-0.39-6.55l-10.1,0.77l-5.05,0.4l-5.03,0.64l2.73,23.27l4.74-0.61l4.77-0.37l9.53-0.73c6.36-0.41,12.75-0.38,19.12-0.61l0-40.3
		c-34.17,0.23-68.43,4.71-101.29,14.38l11.19,38.71L537.15,107.94z M670.03,78.21l-10.05-1.28c-3.35-0.42-6.7-0.91-10.07-1.09
		l-0.59,6.53c4.46,0.23,8.86,1,13.29,1.5l-1.33,10.22c-8.68-1.3-17.44-1.78-26.18-2.47l1.37-27.14c29,1.57,57.83,6.6,85.67,14.96
		l-7.89,26l-12.69-3.61c-4.26-1.07-8.57-2-12.85-3.01l2.19-10.07l13.03,3.04l1.65-6.35c-6.58-1.54-13.14-3.17-19.76-4.48
		l-4.54,22.98c6.24,1.24,12.43,2.77,18.63,4.23l9.19,2.61c3.07,0.85,6.13,1.71,9.13,2.8l12.45-38.33
		c-16.3-5.18-32.9-9.56-49.8-12.32c-8.4-1.69-16.93-2.44-25.41-3.6l-12.79-0.99c-2.13-0.15-4.26-0.35-6.4-0.45l-6.41-0.17
		l-1.28,40.28c12.72,0.28,25.38,1.64,37.97,3.35L670.03,78.21z M745.86,123.96l8.68,3.93l4.34,1.98l4.24,2.18l10.51-20.94
		l-4.51-2.31l-4.61-2.11l-9.23-4.17l-2.59,6.03l12.19,5.51l-4.44,9.3l-11.98-5.42c-4.01-1.78-8.14-3.26-12.2-4.91l9.72-25.38
		c27.09,10.48,53.08,23.98,76.79,40.78L807.2,150.7c-3.54-2.62-7.26-4.97-10.97-7.33c-3.7-2.38-7.38-4.8-11.24-6.91l5.21-8.89
		c3.91,2.15,7.65,4.58,11.4,7l3.54-5.52c-2.87-1.79-5.64-3.72-8.58-5.39l-8.78-5.05l-11.46,20.43l8.28,4.76
		c2.77,1.58,5.38,3.4,8.09,5.09c2.66,1.75,5.42,3.36,8,5.23l7.79,5.54l23.71-32.58l-10.46-7.43l-10.8-6.93
		c-3.56-2.38-7.3-4.45-11.01-6.59c-3.74-2.08-7.35-4.38-11.21-6.25c-15.07-8.13-30.86-14.83-46.88-20.83l-13.69,37.9
		C734.08,119.19,740.01,121.5,745.86,123.96z M824.33,171.87l7.2,6.25c4.91,4.05,9.35,8.62,13.99,12.96l16.45-16.68
		c-4.93-4.61-9.65-9.46-14.86-13.77l-4.33,4.93c1.67,1.47,3.4,2.89,5.03,4.41l4.84,4.62l-7.1,7.47l-4.76-4.54
		c-1.61-1.48-3.3-2.88-4.95-4.33c-3.36-2.82-6.53-5.87-10.04-8.5l17.09-21.13c22.67,18.19,42.82,39.4,60.49,62.44l-21.66,16.41
		l-8.16-10.38l-8.62-10l7.7-6.85l8.75,10.13l5.07-4.17c-4.43-5.09-8.73-10.32-13.36-15.23l-17.2,15.91
		c2.26,2.25,4.25,4.75,6.36,7.13c2.07,2.42,4.2,4.79,6.24,7.24l5.9,7.52c1.99,2.49,3.95,5,5.74,7.64l32.58-23.71
		c-10.14-13.76-20.98-27.06-33-39.23c-11.92-12.25-24.57-23.84-38.16-34.24l-24.75,31.8L824.33,171.87z M896.46,255.99
		c3.12,5.54,6.48,10.94,9.25,16.67l20.79-10.8c-2.95-6.08-6.5-11.84-9.83-17.72l-5.64,3.36l6.67,11.6l-9.05,4.93l-6.56-11.4
		c-2.15-3.82-4.68-7.41-6.99-11.14l22.76-14.84c15.82,24.36,28.9,50.55,38.26,78.08l-25.68,8.89c-0.72-2.08-1.37-4.18-2.15-6.24
		l-2.42-6.14c-1.64-4.08-3.13-8.22-5.04-12.19l9.44-4.14c1.93,4.03,3.46,8.22,5.12,12.36l6.11-2.4c-1.26-3.13-2.43-6.31-3.77-9.41
		l-4.17-9.23l-21.27,9.83l3.94,8.7c1.25,2.93,2.35,5.92,3.54,8.87c2.47,5.88,4.41,11.94,6.46,17.97l38.33-12.44l-4.12-12.16
		l-4.68-11.95c-1.5-4.01-3.25-7.91-5.04-11.8c-1.81-3.88-3.43-7.85-5.4-11.64c-7.5-15.39-16.28-30.12-25.74-44.36l-33.33,22.65
		C889.69,245.23,893.23,250.52,896.46,255.99z M931.88,340.8l2.14,9.29c1.58,6.16,2.52,12.45,3.67,18.7l23.12-3.8
		c-1.22-6.64-2.23-13.33-3.9-19.88l-6.4,1.44l1.5,6.52l1.18,6.59l-10.14,1.87l-1.15-6.47l-1.48-6.4c-1.06-4.25-1.81-8.58-3.12-12.77
		l26.25-7.04c7.7,28.04,11.45,57.08,12.09,86.09l-27.17,0.51c-0.17-4.4-0.09-8.81-0.46-13.2l-1-13.16l10.26-1.01l1.01,13.35
		l6.55-0.39l-0.77-10.1l-0.4-5.05l-0.64-5.03l-23.27,2.73l0.61,4.74l0.37,4.77l0.73,9.53c0.41,6.36,0.38,12.75,0.61,19.12l40.3,0
		c-0.23-34.17-4.71-68.43-14.38-101.29l-38.71,11.19L931.88,340.8z M618.09,113.89c169.75,0,307.85,138.1,307.85,307.84
		s-138.1,307.85-307.85,307.85s-307.85-138.1-307.85-307.85S448.35,113.89,618.09,113.89z M618.09,122.64
		c-2.76,0-5.51,0.04-8.25,0.12c1.69,6.11,4.48,11.93,8.4,17.16c8.33,11.14,20.49,18.36,34.25,20.35
		c13.76,1.99,27.48-1.51,38.61-9.83c3.91-2.92,7.31-6.34,10.19-10.12c0.44-1.81,0.96-3.62,1.57-5.42c-2.55-0.75-5.11-1.48-7.69-2.17
		c-8.9,13.05-24.68,20.69-41.35,18.29c-13.53-1.95-24.67-10.09-30.99-21.12c-1.31-2.3-2.4-4.72-3.26-7.24
		C619.08,122.65,618.59,122.64,618.09,122.64z M629.81,122.89c4.61,9.8,13.87,17.19,25.36,18.85c11.76,1.7,22.96-3.03,30.14-11.48
		c-3.49-0.81-7.02-1.53-10.56-2.21c-5.03,3.87-11.54,5.8-18.3,4.82c-6.58-0.95-12.16-4.47-15.89-9.39
		C636.99,123.21,633.41,123.03,629.81,122.89z M755.15,168.44c5.81,2.48,12.29,0.95,16.48-3.3c-8.18-4.91-16.61-9.45-25.27-13.57
		C744.91,158.43,748.47,165.59,755.15,168.44z M737.7,147.62c-2.74-1.2-5.5-2.37-8.28-3.49c-2.5,7.49-2.29,15.54,0.69,22.95
		c3.33,8.26,9.67,14.73,17.86,18.22c14.16,6.03,30.2,1.46,39.27-10.12c-2.47-1.7-4.96-3.38-7.49-5c-6.7,8.07-18.14,11.2-28.27,6.88
		c-5.07-2.16-9.04-5.85-11.58-10.3C736.65,161.1,735.71,154.19,737.7,147.62z M720.67,140.76c-2.29-0.84-4.59-1.65-6.9-2.43
		c-1.14,2.08-2.4,4.09-3.78,6.02c-4.78,23.69,7.54,48.35,30.63,58.18c12.79,5.45,26.94,5.59,39.84,0.4
		c8.22-3.31,15.26-8.56,20.72-15.22c0.23-0.6,0.46-1.19,0.71-1.79c-2.31-1.81-4.66-3.57-7.03-5.31
		c-11.58,15.08-32.3,21.11-50.58,13.31c-8.66-3.69-15.71-9.98-20.3-18.01c-0.97-1.7-1.84-3.49-2.58-5.34
		C717.52,160.95,717.31,150.48,720.67,140.76z M785.61,217.94c1.5,3.71,4.35,6.63,8.03,8.2c1.96,0.84,4,1.21,6,1.19
		c-2.27-7.57-3.04-15.4-2.33-23.14c-3.91,2.86-8.17,5.29-12.76,7.19C784.41,213.59,784.75,215.82,785.61,217.94z M766.38,215.87
		c0.32,3.02,1.04,6.02,2.21,8.91c3.32,8.27,9.67,14.73,17.86,18.22c7.03,3,14.53,3.35,21.41,1.56c-0.93-1.36-1.81-2.75-2.63-4.19
		c-0.74-1.29-1.42-2.61-2.07-3.96c-4.33,0.67-8.88,0.19-13.2-1.65c-5.07-2.16-9.04-5.85-11.58-10.3c-1.75-3.07-2.8-6.5-3.11-10.05
		C772.33,215.12,769.36,215.61,766.38,215.87z M696.73,157.94c-4.33,3.23-8.99,5.84-13.86,7.81c1.46,4.24,4.75,7.8,9.33,9.33
		c3.57,1.19,7.36,0.99,10.78-0.51c-2.08-6.06-3.24-12.44-3.35-18.92C698.68,156.44,697.71,157.2,696.73,157.94z M664.91,169.98
		c2.92,10.22,10.65,18.88,21.47,22.49c8.32,2.78,17.2,2.19,25.08-1.63c-1.33-1.83-2.59-3.7-3.71-5.65c-0.39-0.67-0.74-1.37-1.1-2.05
		c-5.33,2.34-11.49,2.82-17.43,0.84c-5.9-1.97-10.55-6-13.42-11.01c-0.79-1.38-1.41-2.86-1.91-4.37
		C670.94,169.27,667.94,169.74,664.91,169.98z M645.45,168.44c0.79,5.38,2.42,10.66,4.92,15.66c6.22,12.45,16.9,21.72,30.08,26.12
		c15.59,5.21,31.91,2.56,44.74-5.74c-2.68-1.93-5.18-4.05-7.48-6.35c-0.56,0.32-1.11,0.64-1.69,0.93
		c-10.21,5.1-21.79,5.91-32.61,2.3c-10.04-3.35-18.31-10.15-23.52-19.26c-0.41-0.71-0.79-1.44-1.16-2.18
		c-1.6-3.2-2.72-6.54-3.47-9.95c-1.37-0.11-2.73-0.24-4.1-0.44C649.23,169.27,647.32,168.9,645.45,168.44z M747.57,214.59
		c0.86,19.39,12.53,37.54,31.55,45.65c12.79,5.45,26.94,5.59,39.84,0.4c1.07-0.43,2.1-0.91,3.12-1.42
		c-2.83-2.07-5.47-4.36-7.89-6.88c-9.85,3.62-21.02,3.73-31.41-0.7c-8.66-3.69-15.71-9.98-20.3-18.01c-0.97-1.7-1.84-3.49-2.58-5.34
		c-1.61-4-2.59-8.15-2.95-12.32C753.8,215.75,750.67,215.29,747.57,214.59z M838.1,257.65c10.43,4.45,21.51,5.18,31.81,2.85
		c-1.84-2.87-3.75-5.69-5.68-8.49c-7.38,1.02-15.11,0.18-22.46-2.95c-8.66-3.69-15.71-9.98-20.3-18.01
		c-0.97-1.7-1.84-3.49-2.58-5.34c-3.49-8.67-3.99-18.03-1.62-26.9c-2.52-2.25-5.07-4.46-7.66-6.63c-0.02,0.02-0.04,0.05-0.06,0.07
		c-4.31,12.01-4.14,25.01,0.67,36.95C815.42,242.09,825.31,252.2,838.1,257.65z M825.37,206.31c-0.56,5.34,0.16,10.77,2.22,15.89
		c3.33,8.26,9.67,14.73,17.86,18.22c4.04,1.72,8.22,2.54,12.36,2.61c-2.71-3.63-5.51-7.18-8.37-10.68
		c-0.16-0.06-0.32-0.11-0.47-0.18c-4.94-2.11-8.96-5.7-11.58-10.28c-0.56-0.97-1.05-1.99-1.47-3.05c-0.39-0.96-0.7-1.93-0.96-2.91
		C831.82,212.66,828.63,209.45,825.37,206.31z M319.07,416.13c3.74-3.22,8.77-4.9,13.69-4.51c1.7,0.14,3.4,0.51,5.11,0.38
		c1.7-0.13,3.49-0.88,4.28-2.4c1.01-1.94,0.07-4.27-0.72-6.31c-0.79-2.04-1.34-4.63,0.18-6.2c2.64-0.73,5.03-1.41,7.3-2.2
		c0.08-1.47-0.06-2.96-0.43-4.38c-0.99-3.78-3.61-7.11-7.05-8.96c-1.96-1.05-4.19-1.67-5.84-3.15c-1.65-1.48-2.38-3.1-0.78-4.64
		c-1.42-0.51-2.06-2.27-1.81-3.75c0.25-1.49,1.17-2.77,2.06-3.98c4.28-5.85,8.56-11.7,12.84-17.55c-1.93,5.67-3.86,11.33-5.79,17
		c-0.45,1.32-0.9,2.66-0.91,4.05c-0.02,3.79,3.23,6.79,6.55,8.63c3.32,1.83,7.08,3.12,9.65,5.92c1.29,1.41,2.08,3.4,2.15,5.3
		c0.08-0.06,0.17-0.11,0.25-0.17c3.55-2.67,7.11-5.34,10.66-8.01c2.66-2,5.63-4.73,5.02-8c-0.76-4.12-6.8-5.98-6.82-10.17
		c-0.02-2.64,2.43-4.54,4.63-5.99c3.75-2.49,7.5-4.98,11.26-7.47c-2.81,2.06-4.3,5.77-3.71,9.2c0.59,3.43,3.25,6.42,6.58,7.42
		c0.29,4.04-0.06,7.35,2.86,10.15c-3.53,1.96-7.06,3.92-10.59,5.88c-1.21,0.67-2.41,1.34-3.62,2.01c-1.47,0.82-3.01,1.69-3.88,3.13
		c-2.13,3.53,0.72,8.58-1.5,12.06c1.17,1.55,0.33,3.68-1.33,4.7c-1.66,1.02-3.75,0.97-5.68,0.68c-1.93-0.29-3.86-0.78-5.79-0.53
		c-3.24,0.41-6.05,3.11-6.6,6.33c-3.06,3.43-4.19,7.4-7.25,10.83c-2.33,2.61-4.82,6.1-3.39,9.29c-4.3,3.69-11.53,3.23-15.32-0.98
		c-2.22,4.2-4.07,8.58-5.59,13.08c9.77,139.73,115.93,253.3,252.26,274.48c-7.97-4.34-14.81-10.95-20.16-18.36
		c-7.86-10.88-12.91-23.49-17.89-35.95c24.92,13.51,46.78,32.61,63.54,55.47c-5.56-25.95,0.21-53.7,15.56-75.61
		c3.05,17.7,6.11,35.41,9.16,53.11c0.93,5.37,1.85,10.81,1.39,16.23c15.66-17.56,34.54-32.62,54.07-41.98
		c-4.38,22.01-18.04,40.79-35.2,49.63c153.56-12.45,274.7-141.39,274.7-298.1c0-55.84-15.4-108.14-42.14-152.92
		c-13,3.67-27.26,3.16-40.62-2.54c-1.04-0.44-2.03-0.95-3.04-1.44c-2.83,1.72-5.8,3.24-8.94,4.5c-15.22,6.13-31.92,5.96-47.02-0.48
		c-12.78-5.45-22.77-14.75-29.19-25.97c-5.4-9.44-8.22-20.24-8.1-31.26c-0.4-0.16-0.8-0.31-1.2-0.48c-1.01-0.43-1.98-0.93-2.95-1.41
		c-15.62,11.81-36.58,16.03-56.51,9.37c-14.44-4.82-26.33-14.59-33.83-27.7c-0.59-1.02-1.14-2.06-1.67-3.13
		c-3.66-7.33-5.72-15.16-6.27-23.09c-9.82-4.19-18.41-10.9-24.97-19.68c-1.54-2.06-2.94-4.2-4.2-6.4
		c-2.88-5.03-4.97-10.39-6.31-15.95C445.43,132.35,321.95,259.76,319.07,416.13z M1002.46,421.56
		c0,211.44-172.02,383.46-383.46,383.46c-211.44,0-383.46-172.02-383.46-383.46S407.56,38.11,619,38.11
		C830.44,38.11,1002.46,210.12,1002.46,421.56z M995.7,421.56c0-207.71-168.99-376.69-376.7-376.69
		c-207.71,0-376.7,168.98-376.7,376.69s168.99,376.7,376.7,376.7C826.71,798.26,995.7,629.27,995.7,421.56z M1025.17,421.56
		c0,223.97-182.21,406.18-406.17,406.18c-223.97,0-406.18-182.21-406.18-406.18C212.83,197.6,395.04,15.39,619,15.39
		C842.96,15.39,1025.17,197.6,1025.17,421.56z M1013.9,421.56c0-217.75-177.15-394.9-394.9-394.9
		c-217.75,0-394.9,177.15-394.9,394.9c0,217.75,177.15,394.9,394.9,394.9C836.75,816.46,1013.9,639.31,1013.9,421.56z
		 M395.84,312.73c0.39-0.76,1.29-7.8,1.65-7.8c1.51-0.01,0.27,3.3,1.26,4.53c1.66,2.05,4.68-4.78,5.39-5.76
		c0.58,2.52-0.44,5.09-0.74,7.63c1.29,2.61,4.78-3.34,5.58-3.94c-0.68,2.73-1.36,5.46-2.04,8.19c0.58,0.22,1.2-0.07,1.64-0.5
		c2.81-2.82,4.97-6.28,6.26-10.04c0.35-1.03,0.65-2.16,0.34-3.21c-0.31-1.05-1.4-1.77-2.44-1.43c0.85-1.64,0.89-3.68,0.09-5.34
		c-1.26-2.64-4.93-4.81-7.84-4.24c-2.33,0.45-4.47,2.53-5.4,4.71c-1.3-0.77-3.07-0.24-4.1,0.86c-1.03,1.1-1.47,2.63-1.74,4.12
		C393.25,303.31,392.37,311.39,395.84,312.73z M422.98,311.67c-1.42-0.51-3-0.31-4.47,0.04c-2.77,0.66-10.54,3.05-10.39,6.77
		c0.85,0.06,7.67-1.91,7.81-1.58c0.61,1.38-2.92,1.56-3.65,2.96c-1.22,2.34,6.24,2.39,7.43,2.66c-2.09,1.54-4.85,1.62-7.3,2.35
		c-1.89,2.22,4.96,3.06,5.83,3.55c-2.77,0.46-5.55,0.92-8.33,1.38c0.03,0.62,0.54,1.07,1.11,1.3c3.7,1.46,7.73,2.07,11.7,1.76
		c1.09-0.08,2.24-0.26,3.08-0.96c0.84-0.7,1.07-1.99,0.34-2.8c1.84,0.13,3.73-0.65,4.94-2.04c1.92-2.21,2.45-6.44,0.78-8.88
		c-1.34-1.96-4.1-3.1-6.47-3.09C425.59,313.59,424.4,312.18,422.98,311.67z M371.24,309.81c-1.08,0.15-1.75,1.27-1.57,2.35
		s0.94,1.96,1.71,2.73c2.81,2.82,6.26,4.98,10.02,6.28c0.58,0.2,1.27,0.19,1.69-0.26c-1.81-2.16-3.61-4.31-5.42-6.47
		c0.98,0.19,6.72,4.01,6.74,1.1c-1.39-2.16-3.43-4.01-4.01-6.54c1.08,0.57,6.78,5.39,7.38,2.82c0.36-1.53-2.21-3.97-0.85-4.62
		c0.32-0.16,4.22,5.78,4.9,6.29c2.54-2.73-1.8-9.61-3.48-11.91c-0.89-1.22-1.95-2.4-3.36-2.94c-1.41-0.54-3.24-0.24-4.06,1.02
		c-1.79-1.55-4.63-2.48-6.92-1.87c-2.86,0.76-5.21,4.32-5.19,7.24C368.83,306.89,369.76,308.71,371.24,309.81z M397.94,336.61
		c-1.05,1.18,0.04,4.54-1.47,4.46c-0.36-0.02-0.94-7.09-1.29-7.87c-3.54,1.18-3.02,9.3-2.65,12.12c0.2,1.5,0.56,3.04,1.54,4.19
		c0.98,1.15,2.73,1.76,4.06,1.05c0.83,2.22,2.87,4.39,5.18,4.95c2.88,0.7,6.64-1.3,8.02-3.88c0.87-1.63,0.93-3.67,0.15-5.34
		c1.02,0.39,2.14-0.28,2.5-1.31c0.36-1.03,0.12-2.17-0.19-3.22c-1.12-3.82-3.11-7.37-5.79-10.31c-0.42-0.46-1.02-0.77-1.61-0.58
		c0.55,2.76,1.11,5.51,1.66,8.27c-0.77-0.64-3.98-6.74-5.39-4.19c0.18,2.56,1.09,5.17,0.39,7.66
		C402.39,341.6,399.7,334.64,397.94,336.61z M371.26,344.07c2.15,1,5.1,0.58,7.14-0.64c0.6,1.39,2.34,2,3.82,1.71
		c1.48-0.29,2.73-1.26,3.82-2.31c2.05-1.98,7.51-8,5.48-11.13c-0.76,0.38-5.62,5.55-5.92,5.34c-1.23-0.88,1.72-2.83,1.63-4.4
		c-0.14-2.64-6.59,1.12-7.75,1.5c1.01-2.39,3.34-3.86,5.08-5.75c0.49-2.87-5.83-0.1-6.83-0.08c2.15-1.81,4.31-3.62,6.46-5.43
		c-0.34-0.52-1.01-0.65-1.62-0.55c-3.93,0.63-7.7,2.17-10.96,4.45c-0.89,0.63-1.79,1.37-2.15,2.4s0.1,2.26,1.14,2.59
		c-1.65,0.83-2.88,2.46-3.21,4.27C366.87,338.92,368.57,342.83,371.26,344.07z M390.23,320.69c0.19,1.3,1.49,2.35,2.8,2.2
		c-1.32,0.89-1.3,3.38-0.24,4.57c1.06,1.19,3.18,1.18,4.22-0.03c0.45,1.46,2.79,1.82,4.03,0.93c1.25-0.88,1.97-2.43,0.74-3.33
		c0.96,0.5,2.26,0.19,2.91-0.68c0.64-0.87,0.55-2.2-0.2-2.98c-0.75-0.78-2.09-0.9-2.97-0.28c0.91-1.39-0.26-3.89-1.8-4.52
		c-1.54-0.63-3.52,0.43-3.85,2.05c-0.79-1.05-2.45-1.41-3.7-1C390.92,318.04,390.04,319.39,390.23,320.69z M474.01,588.85
		c-1.66-1.78-5.11-2.57-7.27-1.4c-1.73,0.94-2.91,3.12-3.1,5.08c-1.22-0.29-2.49,0.58-3.03,1.71c-0.54,1.13-0.51,2.45-0.34,3.69
		c0.31,2.34,1.63,8.96,4.72,9.16c0.12-0.7-0.93-6.5-0.64-6.59c1.19-0.38,1.04,2.55,2.13,3.27c1.83,1.21,2.51-4.95,2.83-5.91
		c1.09,1.85,0.93,4.14,1.32,6.23c1.67,1.75,2.95-3.84,3.43-4.51c0.14,2.33,0.29,4.66,0.43,6.99c0.51,0.03,0.93-0.35,1.17-0.81
		c1.52-2.93,2.36-6.21,2.44-9.51c0.02-0.91-0.03-1.87-0.54-2.62c-0.51-0.75-1.55-1.05-2.29-0.52
		C475.54,591.59,475.06,589.97,474.01,588.85z M494.87,602.39c-1.55-1.21-4.02-1.43-5.89-0.83c-0.22-1.23-1.52-2.06-2.77-2.1
		c-1.25-0.05-2.45,0.51-3.53,1.15c-2.03,1.21-7.58,5.05-6.53,7.96c0.69-0.17,5.59-3.43,5.79-3.2c0.83,0.94-1.92,1.97-2.15,3.25
		c-0.38,2.16,5.54,0.33,6.55,0.25c-1.27,1.74-3.43,2.49-5.19,3.69c-0.94,2.23,4.69,1.18,5.5,1.35c-2.08,1.06-4.16,2.12-6.25,3.17
		c0.17,0.48,0.69,0.72,1.21,0.75c3.29,0.23,6.64-0.3,9.7-1.53c0.84-0.34,1.7-0.77,2.19-1.53c0.49-0.76,0.35-1.84-0.43-2.31
		c1.49-0.36,2.79-1.44,3.4-2.85C497.45,607.39,496.81,603.9,494.87,602.39z M456.94,616.76c-1.97-1.25-3.94-2.51-5.91-3.76
		c0.82-0.09,6.33,1.49,5.61-0.82c-1.64-1.36-3.72-2.32-4.81-4.17c1,0.18,6.71,2.57,6.54,0.39c-0.1-1.3-2.74-2.59-1.83-3.45
		c0.22-0.2,4.79,3.52,5.45,3.75c1.33-2.8-3.83-7.16-5.73-8.56c-1.01-0.74-2.15-1.41-3.4-1.49c-1.25-0.07-2.62,0.62-2.96,1.83
		c-1.81-0.78-4.28-0.81-5.95,0.25c-2.07,1.32-3.05,4.72-2.29,7.03c0.47,1.46,1.66,2.67,3.11,3.17c-0.82,0.39-1.07,1.45-0.65,2.25
		c0.41,0.81,1.23,1.32,2.04,1.74c2.93,1.53,6.21,2.38,9.51,2.47C456.18,617.4,456.72,617.22,456.94,616.76z M487.43,628.09
		c0.02-0.91-0.45-1.75-0.95-2.5c-1.84-2.74-4.31-5.06-7.16-6.72c-0.44-0.26-1-0.36-1.42-0.06c1.13,2.04,2.26,4.09,3.39,6.13
		c-0.77-0.31-4.84-4.34-5.31-1.97c0.79,1.98,2.15,3.82,2.23,5.97c-0.79-0.64-4.66-5.47-5.56-3.47c-0.53,1.19,1.17,3.58-0.05,3.9
		c-0.29,0.08-2.52-5.38-2.99-5.9c-2.5,1.82-0.07,8.11,0.93,10.26c0.53,1.14,1.21,2.27,2.27,2.93c1.06,0.66,2.6,0.71,3.47-0.19
		c1.21,1.55,3.38,2.76,5.34,2.63c2.45-0.17,4.94-2.69,5.38-5.08c0.28-1.51-0.18-3.14-1.21-4.27
		C486.68,629.8,487.4,628.99,487.43,628.09z M462.97,628.9c-1.19-0.39,0.65-2.67,0.19-3.9c-0.77-2.05-4.94,2.54-5.76,3.13
		c0.2-2.14,1.68-3.89,2.58-5.82c-0.33-2.4-4.64,1.38-5.42,1.64c1.25-1.97,2.5-3.94,3.75-5.92c-0.4-0.33-0.96-0.26-1.42-0.03
		c-2.95,1.48-5.56,3.64-7.56,6.27c-0.55,0.72-1.07,1.53-1.1,2.44c-0.03,0.91,0.64,1.76,1.55,1.76c-1.1,1.07-1.66,2.67-1.47,4.19
		c0.3,2.41,2.63,5.08,5.06,5.39c1.95,0.25,4.18-0.82,5.49-2.3c0.82,0.95,2.35,0.99,3.46,0.4c1.1-0.6,1.85-1.69,2.45-2.79
		c1.13-2.08,3.94-8.21,1.56-10.18C465.81,623.68,463.25,628.99,462.97,628.9z M474.9,614.08c0.29-0.85-0.11-1.88-0.9-2.31
		c-0.79-0.43-1.88-0.19-2.42,0.52c0.37-1.33-1.18-3.01-2.55-3.13c-1.37-0.12-2.68,1.22-2.54,2.59c-0.88-0.64-2.29-0.5-3.18,0.14
		c-0.88,0.64-1.24,1.93-0.77,2.91c0.48,0.98,1.77,1.49,2.77,1.04c-0.82,1.03-0.18,3,0.95,3.68c1.13,0.68,2.81,0.14,3.33-1.08
		c0.72,1.05,2.66,0.74,3.43-0.27c0.77-1.01,0.95-2.41-0.25-2.82C473.65,615.49,474.6,614.93,474.9,614.08z M769.53,603.78
		c-0.44-2.59-3.08-5.38-5.73-5.6c-2.13-0.18-4.49,1.08-5.84,2.74c-0.93-0.99-2.59-0.97-3.76-0.27c-1.17,0.7-1.92,1.91-2.52,3.13
		c-1.12,2.3-3.89,9.07-1.21,11.09c0.52-0.56,3.05-6.42,3.36-6.33c1.31,0.37-0.58,2.92-0.03,4.23c0.93,2.18,5.22-2.98,6.09-3.65
		c-0.12,2.33-1.64,4.29-2.53,6.42c0.47,2.58,4.96-1.7,5.79-2.03c-1.26,2.19-2.53,4.38-3.79,6.58c0.44,0.33,1.05,0.24,1.54-0.03
		c3.12-1.74,5.85-4.2,7.89-7.13c0.56-0.81,1.09-1.71,1.08-2.69c-0.01-0.98-0.77-1.88-1.76-1.84
		C769.27,607.17,769.81,605.42,769.53,603.78z M775.45,624.21c0.54-1.25-0.14-2.76-1.24-3.56c-1.1-0.79-2.52-1.01-3.87-1.07
		c-2.56-0.12-9.87,0.03-10.66,3.29c0.72,0.26,7.1,0.25,7.15,0.57c0.18,1.35-2.91,0.63-3.89,1.65c-1.63,1.72,4.81,3.61,5.77,4.14
		c-2.18,0.81-4.59,0.2-6.89,0.23c-2.18,1.45,3.53,3.87,4.16,4.51c-2.51-0.29-5.03-0.58-7.54-0.87c-0.13,0.54,0.2,1.06,0.64,1.4
		c2.84,2.18,6.18,3.7,9.68,4.41c0.96,0.2,2,0.32,2.9-0.07c0.9-0.4,1.42-1.46,0.99-2.34c1.56,0.57,3.38,0.36,4.78-0.54
		c2.21-1.43,3.71-4.96,2.87-7.48C779.6,626.45,777.5,624.79,775.45,624.21z M727.99,607.9c-0.11,0.98,0.32,1.93,0.8,2.79
		c1.73,3.13,4.19,5.86,7.11,7.91c0.46,0.32,1.05,0.48,1.53,0.19c-1.03-2.31-2.06-4.62-3.09-6.93c0.8,0.41,4.82,5.13,5.55,2.62
		c-0.67-2.21-1.97-4.32-1.85-6.65c0.79,0.76,4.53,6.34,5.68,4.26c0.69-1.24-0.93-3.97,0.41-4.21c0.32-0.05,2.22,6.04,2.69,6.65
		c2.87-1.73,0.82-8.75-0.06-11.16c-0.47-1.28-1.09-2.56-2.18-3.37c-1.09-0.81-2.74-1.01-3.77-0.12c-1.17-1.79-3.39-3.29-5.52-3.33
		c-2.66-0.05-5.58,2.45-6.28,4.98c-0.44,1.6-0.09,3.4,0.92,4.72C728.95,606.11,728.1,606.92,727.99,607.9z M755.12,633.16
		c-0.2,2.52-0.4,5.04-0.61,7.56c-0.5-0.74-1.78-6.81-3.62-4.96c-0.47,2.26-0.34,4.74-1.56,6.72c-0.33-1.05-0.94-7.73-2.95-6.46
		c-1.2,0.76-1.09,3.93-2.37,3.5c-0.31-0.1,0.94-6.37,0.83-7.12c-3.35,0.15-4.91,7.29-5.29,9.82c-0.2,1.34-0.26,2.77,0.3,4.01
		c0.56,1.24,1.92,2.2,3.25,1.91c0.17,2.13,1.4,4.51,3.26,5.56c2.31,1.32,6.07,0.52,7.9-1.37c1.16-1.19,1.71-2.94,1.45-4.58
		c0.79,0.59,1.92,0.29,2.49-0.52c0.56-0.8,0.64-1.85,0.63-2.83c-0.02-3.58-0.87-7.15-2.46-10.35
		C756.12,633.56,755.67,633.14,755.12,633.16z M742.05,630.2c-0.75,0.14-6.24,3.41-6.44,3.16c-0.84-1.07,2.19-2.02,2.5-3.41
		c0.53-2.32-5.98-0.66-7.07-0.62c1.46-1.81,3.85-2.51,5.81-3.71c1.13-2.36-5.01-1.53-5.88-1.76c2.31-1.03,4.62-2.07,6.93-3.1
		c-0.16-0.53-0.71-0.81-1.26-0.88c-3.55-0.43-7.2-0.03-10.58,1.14c-0.93,0.32-1.89,0.74-2.45,1.54c-0.57,0.8-0.47,1.97,0.34,2.52
		c-1.63,0.31-3.09,1.41-3.83,2.9c-1.17,2.36-0.66,6.16,1.35,7.9c1.61,1.4,4.27,1.76,6.33,1.21c0.17,1.35,1.53,2.31,2.88,2.42
		c1.35,0.12,2.68-0.42,3.88-1.06C736.82,637.26,743.03,633.4,742.05,630.2z M746.08,618.19c-1.18,0.05-2.28,1-2.43,2.17
		c-0.15,1.17,0.71,2.4,1.88,2.59c-1.36,0.44-1.96,2.6-1.34,3.89c0.62,1.29,2.46,1.8,3.66,1.02c0.02,1.37,1.96,2.26,3.26,1.8
		c1.3-0.45,2.3-1.61,1.46-2.7c0.71,0.67,1.91,0.73,2.68,0.13c0.77-0.59,1.02-1.77,0.56-2.63c-0.46-0.86-1.58-1.3-2.5-0.98
		c1.13-0.98,0.74-3.43-0.44-4.35c-1.17-0.93-3.15-0.5-3.84,0.82C748.62,618.86,747.26,618.13,746.08,618.19z M593.73,578.55
		c-0.69-0.37-1.46-0.7-2.24-0.6c-0.78,0.1-1.42,0.8-1.29,1.57c-1.07-0.79-2.52-1.04-3.79-0.67c-2.02,0.6-3.97,2.97-3.9,5.1
		c0.06,1.71,1.29,3.46,2.74,4.37c-0.7,0.83-0.52,2.15,0.15,3.01c0.67,0.86,1.7,1.34,2.73,1.7c1.94,0.67,7.58,2.21,8.93-0.11
		c-0.49-0.36-5.4-1.8-5.36-2.05c0.17-1.07,2.38,0.18,3.36-0.39c1.65-0.95-2.87-3.86-3.49-4.48c1.86-0.13,3.57,0.89,5.34,1.39
		c2-0.62-1.83-3.77-2.17-4.41c1.86,0.79,3.73,1.58,5.59,2.37c0.22-0.39,0.09-0.86-0.17-1.22
		C598.48,581.82,596.26,579.89,593.73,578.55z M611.22,569.48c-1.35-1.62-4.3-2.47-6.22-1.55c-1.54,0.73-2.66,2.56-2.92,4.25
		c-1.04-0.31-2.18,0.38-2.71,1.33c-0.52,0.95-0.56,2.1-0.47,3.18c0.15,2.04,0.98,7.84,3.65,8.15c0.14-0.6-0.49-5.67-0.24-5.73
		c1.05-0.28,0.78,2.25,1.69,2.93c1.53,1.13,2.41-4.17,2.73-4.98c0.86,1.66,0.6,3.63,0.85,5.46c1.37,1.59,2.74-3.18,3.18-3.74
		c0.01,2.02,0.03,4.05,0.04,6.07c0.44,0.05,0.82-0.26,1.05-0.64c1.45-2.47,2.34-5.26,2.57-8.12c0.06-0.78,0.06-1.62-0.34-2.29
		c-0.4-0.68-1.29-0.98-1.96-0.56C612.41,571.93,612.07,570.5,611.22,569.48z M596.24,606.04c0.25-0.67,3.61-4.33,1.54-4.67
		c-1.69,0.74-3.24,1.99-5.1,2.12c0.53-0.7,4.6-4.21,2.83-4.93c-1.05-0.43-3.07,1.12-3.38,0.08c-0.07-0.25,4.58-2.35,5.02-2.78
		c-1.66-2.11-7.03,0.2-8.86,1.13c-0.97,0.49-1.93,1.12-2.47,2.06c-0.54,0.94-0.54,2.27,0.27,3c-1.31,1.1-2.28,3.01-2.11,4.71
		c0.22,2.12,2.48,4.19,4.57,4.5c1.31,0.2,2.71-0.26,3.66-1.19c-0.02,0.79,0.71,1.39,1.5,1.38c0.79-0.01,1.5-0.44,2.14-0.91
		c2.32-1.68,4.25-3.89,5.59-6.42c0.21-0.39,0.28-0.88,0-1.23C599.71,603.95,597.98,605,596.24,606.04z M626.48,586.29
		c-1.06-0.8-2.5-1.07-3.78-0.71c0.39-0.68,0.04-1.56-0.65-1.93c-0.69-0.37-1.53-0.33-2.31-0.23c-2.84,0.36-5.59,1.38-7.99,2.96
		c-0.37,0.24-0.67,0.64-0.59,1.08c2.02-0.08,4.05-0.17,6.07-0.25c-0.54,0.47-5.24,2.07-3.59,3.36c1.84,0.16,3.8-0.19,5.49,0.59
		c-0.8,0.36-6.05,1.5-4.85,2.97c0.72,0.88,3.23,0.48,3.01,1.55c-0.05,0.25-5.15-0.13-5.74,0.03c0.44,2.65,6.27,3.19,8.32,3.25
		c1.09,0.03,2.23-0.06,3.15-0.63c0.93-0.57,1.56-1.74,1.2-2.77c1.67-0.34,3.45-1.55,4.11-3.13
		C629.15,590.47,628.16,587.56,626.48,586.29z M610.07,598.13c0.19,0.58,3.32,4.62,3.13,4.81c-0.76,0.77-1.82-1.54-2.95-1.66
		c-1.89-0.19,0.06,4.81,0.19,5.68c-1.58-0.99-2.37-2.81-3.51-4.26c-1.99-0.67-0.73,4.13-0.83,4.84c-1.04-1.73-2.09-3.47-3.13-5.2
		c-0.41,0.18-0.58,0.64-0.57,1.09c0.01,2.86,0.67,5.72,1.93,8.29c0.35,0.71,0.77,1.43,1.46,1.8c0.69,0.38,1.61,0.19,1.97-0.52
		c0.4,1.27,1.42,2.32,2.68,2.76c1.99,0.7,4.96-0.07,6.15-1.84c0.95-1.42,0.98-3.56,0.35-5.15c1.05-0.27,1.68-1.44,1.65-2.53
		c-0.04-1.09-0.59-2.09-1.21-2.98C616.19,601.6,612.52,597.04,610.07,598.13z M603.97,596.07c0.48,1.04,2.25,1.3,3.22,0.69
		c0.97-0.62,1.19-2.13,0.45-3c1.09-0.15,1.6-1.78,1.12-2.76c-0.49-0.99-1.5-1.67-2.29-0.9c0.46-0.63,0.39-1.59-0.15-2.14
		c-0.55-0.56-1.5-0.64-2.14-0.19c-0.64,0.45-0.88,1.38-0.54,2.08c-0.89-0.8-2.79-0.25-3.42,0.77c-0.62,1.02-0.09,2.55,1.03,2.97
		c-0.84,0.44-1.28,1.58-1.12,2.52c0.15,0.93,1.02,1.71,1.96,1.72C603.04,597.82,603.93,597.01,603.97,596.07z M487.05,172.3
		c9.13,4.91,21.85,3.42,30.5-2.3c3.02-2,5.66-4.56,8.79-6.37c3.14-1.81,6.54-3.85,9.87-2.41c3.69-8.25,14.97-15.65,24.22-13.75
		c5.45,1.12,11.75,7.12,11.39,12.97c-0.36,5.74-5.7,10.62-11.51,9.33c-3.95-0.87-7.03-4.71-7.03-8.75c0-1.58,0.46-3.2,1.55-4.35
		c0.8-0.84,1.98-1.35,3.12-1.31c-4.75-0.71-9.92,2.54-10.03,7.58c-0.16,7.03,5.61,10.2,11.71,10.76c4.31,0.4,8.9,0.29,12.61-1.94
		c3.7-2.23,6.05-7.2,4.09-11.06c-0.59-1.17-0.79-3,0.38-3.61c1.16-0.61,2.61-0.38,3.81,0.16c3.78,1.69,5.83,6.5,4.43,10.4
		c3.28-1.63,8.27,0.26,10.5,3.16c2.23,2.91,2.07,7.39-0.36,10.14c2.48,1.03,4.51,2.12,6.02,4.33c1.51,2.22,1.23,5.85-1.21,6.95
		c-1.31,0.59-2.6-0.11-3.86,0.3c-1.62,0.53-3.08,2.11-4.74,2.77c-3.68,1.47-7.91,1.63-11.65,0.3c3.01-1.67,2.31-7.11,0.88-10.24
		c-1.43-3.13-4.74-5.12-8.14-5.65c-2.58-0.41-5.2-0.08-7.74,0.58c2.52-0.21,5.47,0.91,7.01,2.69c2.07,2.39,2.44,6,1.27,8.94
		c-0.89,2.24-2.67,4.17-4.95,4.94s-5.03,0.22-6.63-1.58c-1.6-1.8-1.74-4.82-0.1-6.58c0.08-0.6-0.39,0.03-0.3-0.58
		c-1.92,0.03-3.79,1.13-4.74,2.79c-0.95,1.66-0.96,3.83-0.01,5.5c-1.7,0.26-5.02-0.62-6.34-1.71c-1.68,0.68-2.53,0.6-4-0.44
		c-1.48-1.04-2.74-2.41-4.36-3.21c-3.58-1.78-7.85-0.43-11.61,0.94c-3.43,1.25-6.64,1.51-10.14,0.47c2.08,0.52,4.27-0.41,6-1.68
		c1.73-1.27,3.2-2.89,5-4.05c2.85-1.84,6.49-2.4,9.76-1.52c2.11,0.57,3.51,0,5.3-0.46c-1.45-0.16-2.91-1.14-3.86-2.33
		c-1.39-1.76-2.21-3.96-3.84-5.51c-2.34-2.21-5.92-2.62-9.09-2.04c-3.17,0.58-6.12,1.98-9.19,2.97
		C508.87,181.41,496.23,179.26,487.05,172.3z M559.15,155.62c-0.33-0.1-0.67-0.18-1.01-0.23
		C558.48,155.42,558.82,155.48,559.15,155.62z M426.11,287.42c1.71-2.6,4.57-5.12,5.46-8.17c0.94-3.22-0.37-5.72,0.38-8.89
		c1.55-6.5,8.49-10.46,9.74-17.25c0.43-2.33,0.14-4.72,0.24-7.09c0.01-0.12,0.03-0.25,0.04-0.37c-3.16,6.3-7.88,11.92-12.58,17.19
		c-2.83,3.17-5.86,5.47-6.84,9.61c-0.44,1.86-0.59,3.89-1.75,5.42c-1.33,1.74-3.64,2.38-5.37,3.72c-0.63,0.49-1.15,1.2-1.46,1.97
		c2.45,3.57,5.15,6.97,7.88,10.33C423.27,291.74,424.68,289.58,426.11,287.42z"/>
</g>
<g id="Snake">
	<path fill="#B0252C" d="M857.94,355.32c-26.48-31.82-62.93-48.69-104.1-49.58c-37.25-0.8-68.27,15.69-93.33,41.98
		c-15.72,16.5-28.25,36.43-38.26,56.81c-1.33,2.7-2.21,5.62-3.52,8.34c-2.68,5.53-5.5,10.99-8.28,16.47
		c-4.59,9.05-8.87,18.28-15.04,26.43c-0.58,0.76-1.29,1.41-1.95,2.12c-0.19-0.15-0.38-0.3-0.57-0.45c0.56-1.27,1.01-2.6,1.69-3.81
		c7.05-12.66,11.66-26.16,14-40.44c0.6-3.67,1.86-7.6,1.13-11.06c-2-9.48-1.38-18.84,0.04-28.17c3.25-21.23,18.72-37.31,29.08-55.44
		c10.18-17.81,17.6-37.7,14.38-58.5c-2.45-15.83-13.38-27.93-27.52-34.72c-16.94-8.13-34.28-6.72-52.2-5.45
		c-2.75,0.19-5.56,0.33-8.28-0.02c-4.37-0.57-8.68-1.55-13.02-2.37c-3.2-0.61-6.4-1.73-9.61-1.75c-6.24-0.05-12.05,1.97-17.65,4.7
		c-4.38,2.13-8.81,4.22-13.36,5.92c-6.06,2.27-12.23,4.29-18.43,6.14c-3.22,0.96-6.68,1.12-9.94,1.99
		c-1.33,0.35-2.93,1.37-3.51,2.53c-1.89,3.8-3.84,7.6-3.81,12.11c0.01,2.01,0.42,3.31,2.34,3.88c1.76,0.52,2.25,1.6,2.21,3.38
		c-0.2,8.8,1.54,17.2,5.74,24.99c0.75,1.38,1.86,2.57,2.8,3.84c-0.3-4.62-1.08-8.85-1.45-13.11c-0.39-4.41,0-8.81,1.39-13.03
		c2.5,0.23,3.27,1.33,3.25,3.69c-0.06,6.92,0.88,13.71,4.22,19.93c0.44,0.82,1.11,1.52,1.68,2.28c0.52-1.09,0.59-1.89,0.42-2.64
		c-1.46-6.51,0.21-12.53,2.74-18.45c0.64-1.49,1.51-2.07,3.17-2.25c12.1-1.26,24.19-1.24,36.29-0.11c0.72,0.07,1.43,0.18,1.84,0.24
		c-0.89,1.31-2.4,2.5-2.36,3.64c0.22,6.94-1.64,13.39-3.98,19.76c-0.25,0.69-0.86,1.25-1.3,1.87c-0.5-0.79-0.54-1.3-0.5-1.81
		c0.43-5.84,0.1-11.57-2.2-17.07c-1.88-4.48-4.31-5.86-9.02-4.91c-3.07,0.62-5.04,3.05-4.11,5.29c4,9.66,5.16,19.78,5.02,30.12
		c-0.01,0.93,0,1.86,0,2.89c1.3-0.31,2.17-0.52,3.04-0.73c0.22,0.25,0.43,0.5,0.65,0.76c-4.78,5.05-6.04,12.4-11.56,17.17
		c-4.03-4.2-7.41-8.32-7.84-14.2c-0.52,0.71-0.73,1.33-0.85,1.97c-0.97,5.24,1.39,9.75,3.09,14.43c0.3,0.81-0.02,1.85-0.06,2.79
		c-0.79-0.38-1.83-0.56-2.33-1.18c-4.02-5.02-7.07-10.49-7.38-17.13c-0.03-0.58-0.27-1.16-0.41-1.74c-0.26,0.05-0.52,0.1-0.79,0.15
		c-2.09,8.38-0.99,16.37,3.45,23.87c-3.41,2.95-3.4,2.94-0.55,6.58c0.44,0.56,0.8,1.18,1.21,1.76c2.54,3.6,9.54,6.22,13.54,4.54
		c4.31-1.81,8.32-4.34,12.57-6.34c4.27-2,7.52-4.99,9.97-8.98c1.91-3.11,3.84-6.22,5.92-9.23c7.47-10.83,15.43-21.15,26.62-28.6
		c3.29-2.19,5.87-5.43,8.86-8.1c2.92-2.61,5.95-5.09,8.91-7.66c2.43-2.11,4.99-1.82,7.34-0.13c2.3,1.65,4.53,3.48,6.46,5.55
		c3.23,3.47,4.46,7.7,2.26,12.08c-2.18,4.35-4.66,8.63-7.55,12.54c-6.26,8.45-12.81,16.69-19.37,24.91
		c-3.4,4.26-4.54,8.77-2.61,13.96c0.1,0.27-0.07,0.65-0.15,1.23c-2.76-0.25-2.74-3.1-4.64-4.58c-2.23,3.69-5.21,7.02-6.28,10.87
		c-1.07,3.87-0.24,8.27-0.24,12.89c-1.33-1.48-2.66-2.96-4.49-5c-2.07,4.69-5.1,8.88-4.88,13.78c0.22,4.81,1.86,9.56,2.92,14.49
		c-2.68-0.25-3.58-3.42-6.08-4.94c-0.48,3.54-0.73,6.82-1.39,10.02c-0.72,3.47,0.07,6.67,1.74,9.51c1.6,2.71,3.87,5.02,5.84,7.5
		c-0.13,0.26-0.25,0.51-0.38,0.77c-2.63-1.17-5.27-2.34-7.72-3.42c-1.07,9.57,2.42,17.18,11.49,22.1c-0.25,0.33-0.51,0.67-0.76,1
		c-2.42-0.36-4.84-0.71-7.95-1.17c1.83,4.69,2.73,9.64,5.43,13.2c2.68,3.53,7.18,5.66,10.89,8.41c-0.07,0.26-0.14,0.53-0.21,0.79
		c-2.76-0.45-5.53-0.9-8.6-1.4c1.77,4,3.61,7.67,5.04,11.49c1.66,4.42,6.44,4.53,10.2,7.58c-2.37,0.71-4.03,1.21-6.06,1.83
		c1.91,3.19,3.51,6.63,5.85,9.47c1.45,1.75,1.21,2.35-0.3,3.46c-7.91,5.79-15.82,11.59-23.68,17.45c-1.1,0.82-2.19,1.87-2.83,3.06
		c-7.5,13.98-17.99,25.17-31.23,33.83c-1.43,0.94-3.01,1.64-4.67,2.54c-0.03-0.6-0.12-0.83-0.04-0.92c0.45-0.54,0.91-1.09,1.43-1.57
		c7.57-7.08,14.66-14.56,20.36-23.31c2.13-3.27,2.79-6.69,2.51-10.41c-0.09-1.23-0.59-2.42-0.77-3.65c-0.07-0.52,0.22-1.1,0.35-1.65
		c0.54,0.16,1.19,0.17,1.61,0.49c0.94,0.71,1.76,1.58,2.71,2.46c4.42-9.95,3.85-12.76-1.47-20.1c-0.31-0.43-0.77-0.8-0.96-1.28
		c-0.38-0.91-0.62-1.88-0.92-2.83c1.07,0.12,2.23,0.01,3.18,0.41c1.32,0.55,2.48,1.48,4.33,2.64c0-3.71-0.16-6.73,0.03-9.72
		c0.45-7.15-2.57-12.94-6.75-18.36c-0.43-0.56-0.55-1.37-0.82-2.07c0.78-0.26,1.54-0.65,2.34-0.75c0.53-0.07,1.12,0.25,2.35,0.57
		c-2.3-5.1-2.55-10.55-7.47-13.65c-0.61-0.39-0.84-1.53-1.04-2.37c-0.24-0.98,0.03-2.19-0.44-3.01
		c-8.44-14.73-21.5-26.89-36.72-34.37c-21.96-10.79-47.28-10.33-67.47,4.1c-44.93,32.1-28.25,95.38,3.18,130.61
		c1,1.12,2.75,2.01,4.25,2.18c3.87,0.46,7.79,0.53,11.69,0.6c2.16,0.04,4.32-0.23,6.49-0.36c0.1,0.25,0.2,0.5,0.31,0.76
		c-0.86,0.57-1.65,1.32-2.59,1.7c-5.66,2.25-11.47,3.77-17.66,3.55c-9.08-0.33-18.01-1.44-25.94-6.28
		c-14.17-8.65-25.48-20-32.31-35.36c-3.04-6.84-5.84-13.78-8.8-20.66c-0.46-1.07-1.17-2.03-1.77-3.05
		c-0.33,0.08-0.66,0.16-0.99,0.24c-0.08,0.83-0.17,1.66-0.23,2.49c-0.93,13.29,2.65,25.76,6.82,38.14
		c4.11,12.2,10.82,22.81,19.39,32.29c7.99,8.85,18.26,13.83,29.7,16.43c17.78,4.04,35.53,3.82,53.15-1.14
		c1.14-0.32,2.52-0.5,3.6-0.15c21.05,6.83,42.53,7.64,64.22,4.42c11.87-1.76,23.8-3.84,33.91-10.98
		c9.81-6.93,19.49-14.07,29.01-21.38c3.64-2.8,6.7-6.35,10.24-9.76c3.65,4.19,8.36,6.14,13.59,6.86c3.44,0.47,6.92,0.6,10.37,0.98
		c1.2,0.13,2.36,0.56,3.54,0.86c-0.01,0.37-0.02,0.74-0.03,1.11c-3.95,0.69-7.9,1.38-12.49,2.19c2.71,1.71,5.07,3.07,7.29,4.62
		c7.19,5.01,14.96,7.7,23.86,6.5c1.29-0.17,2.67,0.27,4,0.43c0.02,0.21,0.04,0.41,0.06,0.62c-2.3,0.96-4.61,1.91-7.2,2.99
		c7.32,3.79,14.62,6.17,22.74,5.14c2.03-0.26,4.09-0.26,6.14-0.3c0.9-0.02,1.8,0.15,2.7,0.24c0.06,0.24,0.12,0.49,0.17,0.73
		c-1.56,1.06-3.12,2.11-5.2,3.52c5.72,1.4,10.99,2.57,16.18,4c5.52,1.52,10.65-1.35,16.15-0.97c-0.84,0.55-1.67,1.09-3.05,2
		c1.12,0.69,1.87,1.49,2.74,1.64c14.89,2.67,29.87,2.62,44.64-0.31c43.2-8.56,83.33-35.38,106.93-72.55
		C894.56,451.84,888.42,391.94,857.94,355.32z M637.44,283.8c-0.42,0.87-1.62,1.17-2.5,0.77c-0.88-0.39-1.45-1.31-1.67-2.25
		c-0.22-0.94-0.14-1.92-0.06-2.89c0.06-0.69,0.48-1.74,1.06-1.36c1.34,0.86,2.4,2.13,3.02,3.59
		C637.57,282.35,637.76,283.14,637.44,283.8z M641.43,273.25c0.81,0.56,0.91,1.81,0.38,2.64c-0.54,0.82-1.54,1.24-2.52,1.31
		c-0.98,0.07-1.95-0.17-2.91-0.4c-0.68-0.17-1.67-0.76-1.2-1.28c1.08-1.2,2.52-2.07,4.09-2.45
		C639.99,272.89,640.82,272.83,641.43,273.25z M632.37,269.18c0.14-0.72,0.42-1.48,1.05-1.86c0.83-0.5,2-0.08,2.52,0.73
		c0.52,0.81,0.49,1.89,0.15,2.79c-0.34,0.91-0.94,1.68-1.54,2.44c-0.43,0.55-1.35,1.19-1.63,0.55
		C632.26,272.39,632.07,270.74,632.37,269.18z M631.49,278.62c-0.47,1.54-1.42,2.94-2.68,3.94c-0.58,0.47-1.31,0.86-2.04,0.74
		c-0.97-0.17-1.59-1.26-1.45-2.24c0.14-0.97,0.88-1.78,1.74-2.25c0.86-0.47,1.84-0.67,2.81-0.86
		C630.56,277.83,631.7,277.95,631.49,278.62z M625.84,270.94c0.95-0.26,1.98,0.09,2.76,0.69c0.78,0.6,1.35,1.42,1.91,2.23
		c0.4,0.58,0.75,1.67,0.05,1.75c-1.6,0.19-3.26-0.12-4.69-0.87c-0.66-0.35-1.32-0.85-1.5-1.57
		C624.14,272.22,624.89,271.21,625.84,270.94z M621.21,246.64c0.38,1.73,0.41,3.59-0.21,5.16s-1.99,2.77-3.52,2.72
		c-1.53-0.05-3.51-1.08-3.52-2.84c1.92-1.42,3.11-4.02,3.09-6.71c-0.03-2.69-1.28-5.4-3.23-7
		C617.17,239.42,620.34,242.66,621.21,246.64z M547.99,239.51c-0.29-0.48-0.47-0.63-0.46-0.76c0.14-1.29,2.08-2.74-0.17-3.83
		c-2.66-1.28-6.38-0.18-7.23,2.13c-0.42,1.14-0.67,2.42-0.63,3.63c0.07,2.27-0.99,2.19-2.46,1.38c-0.69-0.38-1.46-0.86-1.84-1.5
		c-1.52-2.61-3.28-2.1-5.22-0.61c-0.56,0.43-1.13,0.83-1.9,1.39c0.44,0.79,0.77,1.38,1.03,1.86c-3.67,0.46-7.25,0.91-10.67,1.34
		c3.69-2.86,7.24-5.72,10.9-8.41c4.52-3.32,9.84-4.42,15.28-4.99c4.11-0.43,7.21,1.8,9.92,3.78
		C552.32,236.47,550.17,237.99,547.99,239.51z M586.91,256.99c-1.86,3.87-6.69,9.26-10.99,9.24c-4.88-0.02-0.07-9.66,0.65-13.32
		c0.85-4.29,1.37-8.78,0.48-13.05c-0.89-4.28-3.44-8.33-7.15-9.75c6-1.06,12.43,1.97,15.95,7.53
		C589.35,243.19,589.78,250.99,586.91,256.99z M605.78,250.63c-1.2,3.72-5.17,6.59-9,5.82c0.11-1.2,0.68-2.2,1.25-3.26
		c1.82-3.37,2.36-7.42,1.47-11.15c-0.88-3.73-3.17-7.11-6.31-9.31c3.53,1.68,7.83,3.77,10.21,6.88
		C605.78,242.71,606.98,246.91,605.78,250.63z M508.06,427.35c0.34,0.94-0.32,2.04-1.25,2.4c-0.93,0.36-2.01,0.12-2.86-0.41
		c-0.85-0.52-1.52-1.3-2.17-2.05c-0.47-0.54-0.93-1.61-0.23-1.77c1.6-0.36,3.31-0.22,4.83,0.39
		C507.08,426.19,507.8,426.63,508.06,427.35z M501.49,418.21c0.4-0.66,0.95-1.31,1.71-1.45c1-0.19,2,0.65,2.21,1.64
		c0.22,0.99-0.21,2.04-0.87,2.81c-0.66,0.77-1.54,1.31-2.41,1.85c-0.62,0.38-1.77,0.68-1.81-0.05
		C500.22,421.33,500.63,419.64,501.49,418.21z M499.93,427.96c0.79,1.47,1.13,3.18,0.95,4.84c-0.08,0.77-0.32,1.59-0.94,2.04
		c-0.83,0.59-2.08,0.25-2.7-0.56c-0.61-0.81-0.67-1.94-0.39-2.91c0.28-0.98,0.85-1.84,1.41-2.69
		C498.67,428.07,499.58,427.32,499.93,427.96z M493.02,418.33c0.24-0.97,1.39-1.53,2.37-1.32c0.98,0.21,1.74,1.01,2.16,1.92
		c0.42,0.91,0.55,1.92,0.68,2.91c0.09,0.71-0.11,1.86-0.78,1.6c-1.53-0.58-2.88-1.64-3.82-2.99
		C493.19,419.83,492.84,419.07,493.02,418.33z M490.18,426.54c0.49-0.89,1.5-1.39,2.51-1.53c1.01-0.14,2.03,0.04,3.03,0.21
		c0.72,0.12,1.77,0.66,1.32,1.24c-1.02,1.32-2.45,2.31-4.04,2.82c-0.74,0.23-1.58,0.35-2.24-0.04
		C489.88,428.71,489.69,427.42,490.18,426.54z M466.56,419.83c0.5-1.12,1.56-2.07,2.78-2.07c1.35-0.01,2.5,1.14,2.88,2.43
		c0.38,1.29,0.16,2.68-0.19,3.99c-0.79,3-2.25,6.65-4.67,8.61c-1.4-2.57-1.29-6.4-1.32-9.36
		C466.03,422.2,466.07,420.94,466.56,419.83z M438.34,412.6c1.55-1.45,4.32-1.38,6.16-0.31c9.86,5.74,16.07,17.22,15.48,28.61
		c-4-6.98-11.67-13.45-18.49-17.73c-1.8-1.13-3.44-2.66-4.21-4.65C436.51,416.54,436.78,414.06,438.34,412.6z M458.67,503.71
		c-1.53-0.58-2.88-1.64-3.82-2.99c-0.43-0.62-0.79-1.39-0.61-2.12c0.24-0.97,1.39-1.53,2.37-1.32c0.98,0.21,1.74,1.01,2.16,1.92
		c0.42,0.91,0.55,1.92,0.68,2.91C459.54,502.82,459.34,503.96,458.67,503.71z M419.11,439.23c0.67-2.12,2.34-3.82,4.27-4.91
		c11.57-6.52,24.11,8.96,31.14,15.61l-0.03,0.59c-6.86-3.11-14.42-4.67-21.94-4.59C427.73,445.98,416.25,448.29,419.11,439.23z
		 M433.34,473.28c-1.48,1.53-3.31,2.82-5.41,3.17c-2.1,0.35-4.47-0.43-5.57-2.25c-1.1-1.82-0.47-4.51,0.96-6.09
		c7.64-8.47,20.15-12.19,31.18-9.27C446.84,461.31,438.93,467.49,433.34,473.28z M448.84,478.38c-0.58,1.07-1.23,2.16-2.2,2.89
		c-0.98,0.73-2.36,1.05-3.44,0.46c-1.18-0.65-1.63-2.21-1.33-3.52c0.29-1.32,1.17-2.42,2.1-3.39c2.15-2.24,5.21-4.71,8.27-5.25
		C452.22,472.48,450.26,475.78,448.84,478.38z M454.22,509.54c-0.74,0.23-1.58,0.35-2.24-0.04c-0.87-0.52-1.07-1.81-0.57-2.69
		c0.49-0.89,1.5-1.39,2.51-1.53c1.01-0.14,2.03,0.04,3.03,0.21c0.72,0.12,1.77,0.66,1.32,1.24
		C457.24,508.03,455.81,509.03,454.22,509.54z M462.11,513.06c-0.08,0.77-0.32,1.59-0.94,2.04c-0.83,0.59-2.08,0.25-2.7-0.56
		s-0.67-1.94-0.39-2.91c0.28-0.98,0.85-1.84,1.41-2.69c0.4-0.61,1.32-1.35,1.67-0.71C461.95,509.69,462.28,511.4,462.11,513.06z
		 M461.55,503.26c-0.1-1.66,0.31-3.36,1.17-4.79c0.4-0.66,0.95-1.31,1.71-1.45c1-0.19,1.99,0.65,2.21,1.64
		c0.22,0.99-0.21,2.04-0.87,2.81c-0.66,0.77-1.54,1.31-2.41,1.85C462.74,503.69,461.59,503.98,461.55,503.26z M468.03,510.02
		c-0.93,0.36-2.01,0.12-2.86-0.41c-0.85-0.52-1.52-1.3-2.17-2.05c-0.47-0.54-0.93-1.61-0.23-1.77c1.6-0.36,3.31-0.22,4.83,0.39
		c0.7,0.28,1.42,0.72,1.68,1.44C469.62,508.55,468.96,509.65,468.03,510.02z M464.96,474.56c-2.08-10.72,0.96-20.31,8.88-28.09
		c3.37-3.31,11.59-4.41,15.78-2.22c6.52,3.42,10.88,8.79,13.85,15.42c2.54,5.68,4.1,11.58,4.24,20.05
		c0.18,7.03-4.29,14.56-8.98,21.98c-0.33,0.53-1.34,1.02-1.94,0.93C482.59,500.52,468.07,490.58,464.96,474.56z M483.14,548.76
		c-1.08,0.43-2.24,0.65-3.36,0.96c-0.1-0.2-0.2-0.39-0.3-0.59c19.19-12.55,31.47-30.51,40.86-50.95
		c9.63-20.97,10.13-42.62,5.58-64.84c0.43-0.08,0.86-0.17,1.29-0.25c1.19,2.95,2.76,5.81,3.51,8.87c3.47,14.1,4.48,28.42,1.37,42.66
		c-1.25,5.74-3.68,11.4-6.51,16.58c-4.69,8.57-9.26,17.47-15.49,24.87C502.53,535.05,494.59,544.17,483.14,548.76z M583.36,442.88
		c1.63,3.37-0.35,6.47-1.77,9.66c-9.07-15.55-15.35-31.83-15.24-50.2c0.17-29.25,10.99-53.96,30.65-75.03
		c0.3,0.15,0.6,0.31,0.9,0.46c-2.64,4.42-5.28,8.84-7.92,13.26c-6.64,11.14-12.61,22.57-15.05,35.48
		C570.58,399.53,573.11,421.68,583.36,442.88z M799.56,346.11c-0.06-3.31,0.54-6.75,2.47-9.44c1.93-2.69,5.4-4.44,8.61-3.65
		c3.22,0.79,5.48,4.45,5.65,7.76c0.91,17.73-8.77,35.6-24.12,44.52C797.88,374.14,799.78,358.64,799.56,346.11z M776.13,351.95
		c0.27-1.88,1.45-3.75,3.27-4.29c2.01-0.59,4.22,0.64,5.35,2.41c1.12,1.77,1.38,3.95,1.42,6.05c0.09,4.83-0.54,10.92-3.32,14.89
		c-3.19-3.25-4.66-9.04-5.96-13.45C776.35,355.74,775.87,353.84,776.13,351.95z M771.71,385.17c15.06,6.1,21.84,18.47,23.38,34.24
		c0.59,6.02-0.89,11.47-3.18,16.83c-1.68,3.93-3.48,7.8-5.43,11.6c-0.69,1.35-1.98,2.38-3,3.56c-0.24-0.13-0.48-0.26-0.73-0.39
		c0.34-0.87,0.58-1.8,1.02-2.62c5.97-11.02,7.71-22.73,4.99-34.9c-2.89-12.91-14.81-24.81-29.2-27.2
		c-10.6-1.76-20.94-0.81-31.18,2.02c-2.14,0.59-4.19,1.53-6.27,2.31c-0.14-0.24-0.28-0.48-0.43-0.72c0.64-0.61,1.18-1.42,1.94-1.79
		C739.24,380.63,755.43,378.57,771.71,385.17z M784.45,488.17c-2.28-0.87-4.29-2.44-5.68-4.44c-0.64-0.93-1.17-2.06-0.9-3.16
		c0.35-1.44,2.07-2.27,3.52-1.96c1.45,0.31,2.59,1.5,3.22,2.85c0.63,1.35,0.82,2.85,1.01,4.32
		C785.74,486.84,785.44,488.54,784.45,488.17z M738.77,356.52c0.5,1.4-0.47,3.03-1.86,3.57c-1.38,0.54-2.99,0.17-4.26-0.61
		c-1.26-0.78-2.25-1.93-3.22-3.05c-0.69-0.81-1.38-2.39-0.34-2.63c2.38-0.53,4.92-0.33,7.18,0.58
		C737.33,354.81,738.39,355.46,738.77,356.52z M729.01,342.93c0.59-0.98,1.42-1.95,2.54-2.16c1.48-0.28,2.97,0.96,3.29,2.44
		c0.32,1.48-0.31,3.03-1.29,4.17c-0.99,1.14-2.29,1.95-3.58,2.74c-0.92,0.57-2.63,1-2.69-0.08
		C727.12,347.57,727.73,345.06,729.01,342.93z M726.69,357.43c1.18,2.18,1.68,4.72,1.42,7.19c-0.12,1.14-0.47,2.36-1.4,3.03
		c-1.23,0.88-3.1,0.37-4.01-0.83c-0.91-1.2-0.99-2.88-0.58-4.33s1.26-2.74,2.1-3.99C724.81,357.59,726.17,356.48,726.69,357.43z
		 M716.41,343.12c0.35-1.44,2.07-2.27,3.52-1.96c1.45,0.31,2.59,1.5,3.22,2.85c0.63,1.35,0.82,2.85,1.01,4.32
		c0.13,1.06-0.17,2.76-1.16,2.38c-2.28-0.87-4.29-2.44-5.68-4.44C716.67,345.35,716.14,344.22,716.41,343.12z M712.2,355.32
		c0.73-1.32,2.23-2.07,3.73-2.27c1.5-0.21,3.01,0.05,4.5,0.31c1.07,0.19,2.63,0.98,1.97,1.84c-1.52,1.96-3.65,3.44-6.01,4.19
		c-1.09,0.35-2.35,0.52-3.34-0.06C711.75,358.55,711.46,356.64,712.2,355.32z M684.22,390.43c0.5,1.4-0.47,3.03-1.86,3.57
		c-1.38,0.54-2.99,0.17-4.26-0.61c-1.26-0.78-2.25-1.93-3.22-3.05c-0.69-0.81-1.38-2.39-0.34-2.63c2.38-0.53,4.92-0.33,7.18,0.58
		C682.78,388.71,683.84,389.37,684.22,390.43z M674.46,376.84c0.59-0.98,1.42-1.95,2.54-2.16c1.48-0.28,2.97,0.96,3.29,2.44
		c0.32,1.48-0.31,3.03-1.29,4.17c-0.99,1.14-2.29,1.95-3.58,2.74c-0.92,0.57-2.63,1-2.69-0.08
		C672.57,381.48,673.18,378.96,674.46,376.84z M672.14,391.34c1.18,2.18,1.68,4.72,1.42,7.19c-0.12,1.14-0.47,2.36-1.4,3.03
		c-1.23,0.88-3.1,0.37-4.01-0.83c-0.91-1.2-0.99-2.88-0.58-4.33c0.41-1.45,1.26-2.74,2.1-3.99
		C670.26,391.5,671.62,390.39,672.14,391.34z M661.86,377.03c0.35-1.44,2.07-2.27,3.52-1.96c1.45,0.31,2.59,1.5,3.22,2.85
		c0.63,1.35,0.82,2.85,1.01,4.32c0.13,1.06-0.17,2.76-1.16,2.38c-2.28-0.87-4.29-2.44-5.68-4.44
		C662.12,379.26,661.59,378.12,661.86,377.03z M657.64,389.22c0.73-1.32,2.23-2.07,3.73-2.27s3.01,0.05,4.5,0.31
		c1.07,0.19,2.63,0.98,1.97,1.84c-1.52,1.96-3.65,3.44-6.01,4.19c-1.09,0.35-2.35,0.52-3.34-0.06
		C657.2,392.45,656.91,390.54,657.64,389.22z M761.85,553.18c-5.3,0-10.64,0.4-15.9-0.07c-34.9-3.11-67.8-12.67-97.93-30.95
		c-1.14-0.69-2.25-1.44-3.35-2.2c-1.83-1.27-1.99-3.14-0.78-4.65c1.12-1.39,2.5-3.06,4.92-1.57c17.57,10.8,35.92,19.93,55.44,26.79
		c15.68,5.52,31.79,8.39,48.22,10.02c3.17,0.31,6.29,1.03,9.44,1.57C761.89,552.47,761.87,552.82,761.85,553.18z M721.56,497.38
		c-0.99,1.14-2.29,1.95-3.58,2.74c-0.92,0.57-2.63,1-2.69-0.08c-0.15-2.47,0.46-4.99,1.74-7.12c0.59-0.98,1.42-1.95,2.54-2.16
		c1.48-0.28,2.97,0.96,3.29,2.44C723.18,494.68,722.55,496.24,721.56,497.38z M724.29,504.39c1.05,0.42,2.11,1.07,2.49,2.14
		c0.5,1.4-0.47,3.03-1.86,3.57c-1.38,0.54-2.99,0.17-4.26-0.61c-1.26-0.78-2.25-1.93-3.22-3.05c-0.69-0.81-1.38-2.39-0.34-2.63
		C719.49,503.27,722.03,503.48,724.29,504.39z M716.12,514.62c-0.12,1.14-0.47,2.36-1.4,3.03c-1.23,0.88-3.1,0.37-4.01-0.83
		c-0.91-1.2-0.99-2.88-0.58-4.33c0.41-1.45,1.26-2.74,2.1-3.99c0.6-0.9,1.96-2.01,2.48-1.06
		C715.88,509.61,716.38,512.16,716.12,514.62z M711,500.72c-2.28-0.87-4.29-2.44-5.68-4.44c-0.64-0.93-1.17-2.06-0.9-3.16
		c0.35-1.44,2.07-2.27,3.52-1.96c1.45,0.31,2.59,1.5,3.22,2.85c0.63,1.35,0.82,2.85,1.01,4.32C712.3,499.39,712,501.1,711,500.72z
		 M708.44,503.35c1.07,0.19,2.63,0.98,1.97,1.84c-1.52,1.96-3.65,3.44-6.01,4.19c-1.09,0.35-2.35,0.52-3.34-0.06
		c-1.3-0.77-1.59-2.68-0.85-4c0.73-1.32,2.23-2.07,3.73-2.27C705.44,502.84,706.95,503.09,708.44,503.35z M755.12,465.62
		c-12.15,5.5-24.66,5.64-37.45,3.89c-12.56-1.72-24.91-4.37-36.94-8.45c-4.06-1.38-8.96,0.49-12.02,4.32
		c-8.66,10.87-17.31,21.75-26.16,32.46c-3.38,4.08-7.29,7.72-10.96,11.57c-0.26-0.23-0.53-0.46-0.79-0.69
		c0.49-0.8,0.9-1.66,1.47-2.39c14.02-17.86,23.33-38.49,34.32-58.14c7.56-13.53,17.43-25.38,29.59-35.15
		c6.26-5.03,13.27-8.66,21.13-10.46c2.32-0.53,4.7-0.8,7.05-1.18c0.52-2.52,0.07-5.41,3.46-6.62c0.2,0.79,0.37,1.43,0.53,2.08
		c0.72,2.93,2.66,4.61,5.67,5.07c2.28,0.35,4.57,0.75,6.81,1.31c2.14,0.54,4.22,1.32,6.43,2.02c1.83-4.15,3.33-8.52,7.99-11.42
		c-1.02,3.34-2.08,5.94-2.58,8.64c-0.64,3.41,0.35,6.34,3.09,8.83c2.67,2.42,4.93,5.31,7.36,7.98c3.08-3.43,5.59-7.83,11.45-7.8
		c-7.58,7.46-7.96,16.19-5.05,25.72c3.56-2.22,6.37-5.89,11.75-6.12c-0.91,1.17-1.36,1.89-1.94,2.47
		c-5.68,5.7-10.12,12.21-12.48,19.94C764.97,459.62,760.86,463.03,755.12,465.62z M777.84,496.83c-1.09,0.35-2.35,0.52-3.34-0.06
		c-1.3-0.77-1.59-2.68-0.85-4c0.73-1.32,2.23-2.07,3.73-2.27c1.5-0.21,3.01,0.05,4.5,0.31c1.07,0.19,2.63,0.98,1.97,1.84
		C782.33,494.6,780.21,496.08,777.84,496.83z M789.56,502.07c-0.12,1.14-0.47,2.36-1.4,3.03c-1.23,0.88-3.1,0.37-4.01-0.83
		c-0.91-1.2-0.99-2.88-0.58-4.33c0.41-1.45,1.26-2.74,2.1-3.99c0.6-0.9,1.96-2.01,2.48-1.06
		C789.33,497.06,789.83,499.6,789.56,502.07z M788.73,487.49c-0.15-2.47,0.46-4.99,1.74-7.12c0.59-0.98,1.42-1.95,2.54-2.16
		c1.48-0.28,2.97,0.96,3.29,2.44c0.32,1.48-0.31,3.03-1.29,4.17c-0.99,1.14-2.29,1.95-3.58,2.74
		C790.5,488.14,788.8,488.57,788.73,487.49z M798.37,497.54c-1.38,0.54-2.99,0.17-4.26-0.61c-1.26-0.78-2.25-1.93-3.22-3.05
		c-0.69-0.81-1.38-2.39-0.34-2.63c2.38-0.53,4.92-0.33,7.18,0.58c1.05,0.42,2.11,1.07,2.49,2.14
		C800.73,495.37,799.76,497,798.37,497.54z M801.32,394.45c10.98-4.12,21.01-10.73,29.21-19.1c5.26-5.37,15.36-20.55,22.18-7.42
		c1.59,3.07,1.63,6.77,0.7,10.1c-5.56,19.91-36.4,16.67-51.46,17.09L801.32,394.45z M821.05,446.85c-1.47,1.49-4,1.49-5.84,0.49
		c-1.84-1-3.13-2.78-4.18-4.6c-2.43-4.18-4.84-9.8-4.34-14.62c4.37,1.29,8.47,5.63,11.76,8.85c1.36,1.33,2.7,2.76,3.39,4.53
		C822.51,443.28,822.39,445.5,821.05,446.85z M854.42,425.51c-17.16,4.53-36.64-1.27-48.53-14.45c12.09,3.28,27.65,1.96,39.87-0.83
		c3.23-0.74,6.72-0.85,9.75,0.48s5.45,4.37,5.34,7.68C860.74,421.7,857.62,424.67,854.42,425.51z"/>
</g>
</svg>
