<?xml version="1.0" encoding="utf-8"?>
<!-- Generator: Adobe Illustrator 24.1.0, SVG Export Plug-In . SVG Version: 6.00 Build 0)  -->
<svg version="1.1" id="Snake" xmlns="http://www.w3.org/2000/svg" xmlns:xlink="http://www.w3.org/1999/xlink" x="0px" y="0px"
	 viewBox="0 0 1190.55 841.89" style="enable-background:new 0 0 1190.55 841.89;" xml:space="preserve">
<style type="text/css">
	.st0{fill:#B0252C;}
</style>
<path class="st0" d="M1077.61,339.84c-53.53-64.32-127.21-98.43-210.43-100.21c-75.29-1.62-138,31.71-188.66,84.86
	c-31.79,33.35-57.11,73.64-77.35,114.84c-2.68,5.46-4.46,11.37-7.11,16.85c-5.41,11.18-11.12,22.21-16.74,33.29
	c-9.29,18.29-17.93,36.95-30.4,53.42c-1.16,1.54-2.62,2.86-3.94,4.28c-0.38-0.3-0.77-0.61-1.15-0.91c1.13-2.57,2.05-5.26,3.41-7.7
	c14.26-25.58,23.56-52.89,28.31-81.74c1.22-7.42,3.76-15.37,2.28-22.35c-4.05-19.16-2.79-38.09,0.09-56.95
	c6.56-42.92,37.85-75.43,58.79-112.06c20.58-35.99,35.58-76.21,29.07-118.26c-4.95-32-27.04-56.46-55.63-70.18
	C573.92,60.59,538.86,63.44,502.63,66c-5.56,0.39-11.24,0.67-16.74-0.04c-8.83-1.14-17.55-3.13-26.32-4.79
	c-6.48-1.23-12.94-3.49-19.42-3.55c-12.6-0.11-24.36,3.98-35.68,9.5c-8.85,4.31-17.8,8.52-27.01,11.97
	c-12.25,4.59-24.72,8.68-37.26,12.4c-6.52,1.93-13.5,2.27-20.08,4.03c-2.68,0.72-5.92,2.76-7.09,5.11
	c-3.83,7.68-7.77,15.37-7.7,24.48c0.03,4.07,0.85,6.7,4.73,7.84c3.56,1.04,4.54,3.23,4.46,6.83c-0.39,17.79,3.11,34.77,11.61,50.52
	c1.51,2.8,3.75,5.19,5.66,7.77c-0.6-9.33-2.18-17.88-2.94-26.5c-0.79-8.92,0.01-17.8,2.8-26.33c5.06,0.47,6.6,2.69,6.56,7.47
	c-0.11,13.99,1.78,27.71,8.53,40.29c0.89,1.66,2.25,3.08,3.4,4.61c1.05-2.2,1.19-3.82,0.85-5.33c-2.95-13.16,0.43-25.33,5.55-37.3
	c1.29-3.01,3.05-4.19,6.41-4.54c24.46-2.54,48.9-2.5,73.36-0.22c1.45,0.14,2.9,0.37,3.72,0.48c-1.79,2.64-4.84,5.05-4.77,7.36
	c0.45,14.02-3.31,27.06-8.05,39.95c-0.51,1.4-1.74,2.53-2.64,3.79c-1.02-1.6-1.08-2.64-1.01-3.66c0.87-11.8,0.21-23.38-4.45-34.5
	c-3.79-9.06-8.71-11.84-18.23-9.92c-6.21,1.25-10.18,6.17-8.31,10.69c8.08,19.52,10.44,39.98,10.15,60.88c-0.03,1.88,0,3.77,0,5.85
	c2.63-0.63,4.39-1.05,6.15-1.47c0.44,0.51,0.87,1.02,1.31,1.53c-9.67,10.21-12.21,25.07-23.37,34.71
	c-8.14-8.5-14.97-16.81-15.85-28.7c-1.05,1.43-1.47,2.69-1.71,3.98c-1.96,10.59,2.8,19.72,6.26,29.17c0.6,1.64-0.04,3.74-0.11,5.63
	c-1.6-0.77-3.7-1.14-4.7-2.39c-8.13-10.15-14.3-21.2-14.92-34.62c-0.05-1.18-0.54-2.34-0.83-3.51c-0.53,0.1-1.06,0.21-1.59,0.31
	c-4.22,16.94-2,33.09,6.98,48.25c-6.89,5.96-6.88,5.95-1.12,13.3c0.88,1.13,1.61,2.38,2.44,3.55c5.13,7.28,19.29,12.57,27.36,9.18
	c8.72-3.67,16.82-8.78,25.4-12.81c8.63-4.05,15.21-10.09,20.15-18.15c3.86-6.29,7.77-12.58,11.96-18.65
	c15.1-21.88,31.2-42.76,53.81-57.81c6.65-4.43,11.87-10.98,17.9-16.38c5.9-5.28,12.03-10.3,18.01-15.49
	c4.9-4.26,10.08-3.68,14.84-0.26c4.65,3.34,9.16,7.04,13.05,11.21c6.52,7.01,9.01,15.56,4.58,24.41
	c-4.41,8.8-9.41,17.45-15.27,25.34c-12.66,17.08-25.9,33.73-39.16,50.36c-6.87,8.61-9.18,17.73-5.27,28.21
	c0.21,0.55-0.14,1.31-0.3,2.49c-5.57-0.5-5.55-6.26-9.37-9.26c-4.5,7.47-10.53,14.18-12.69,21.97c-2.17,7.83-0.48,16.72-0.48,26.05
	c-2.68-2.99-5.38-5.99-9.07-10.11c-4.19,9.48-10.32,17.95-9.87,27.86c0.44,9.73,3.77,19.32,5.89,29.3
	c-5.43-0.5-7.24-6.91-12.29-9.98c-0.96,7.16-1.48,13.79-2.82,20.25c-1.45,7.02,0.14,13.48,3.52,19.21
	c3.23,5.47,7.82,10.15,11.81,15.17c-0.26,0.52-0.51,1.04-0.77,1.55c-5.32-2.36-10.64-4.72-15.6-6.92
	c-2.16,19.34,4.89,34.74,23.24,44.68c-0.51,0.67-1.02,1.34-1.53,2.02c-4.89-0.72-9.78-1.44-16.07-2.37
	c3.7,9.49,5.51,19.48,10.98,26.69c5.41,7.13,14.52,11.45,22.01,17c-0.14,0.53-0.28,1.06-0.42,1.59c-5.59-0.91-11.18-1.81-17.39-2.82
	c3.59,8.09,7.29,15.51,10.19,23.23c3.36,8.94,13.03,9.16,20.61,15.32c-4.79,1.44-8.15,2.46-12.24,3.69
	c3.87,6.45,7.09,13.41,11.82,19.14c2.92,3.54,2.46,4.76-0.6,6.99c-16,11.7-31.98,23.43-47.86,35.28c-2.22,1.66-4.43,3.78-5.72,6.18
	c-15.15,28.26-36.37,50.88-63.12,68.39c-2.89,1.89-6.08,3.32-9.45,5.14c-0.07-1.22-0.24-1.67-0.08-1.86c0.92-1.1,1.85-2.2,2.89-3.18
	c15.31-14.31,29.64-29.44,41.15-47.11c4.3-6.6,5.64-13.53,5.08-21.05c-0.19-2.48-1.2-4.89-1.55-7.37c-0.15-1.06,0.45-2.22,0.7-3.33
	c1.1,0.31,2.41,0.35,3.25,1c1.89,1.44,3.56,3.19,5.48,4.97c8.93-20.12,7.77-25.8-2.98-40.63c-0.63-0.88-1.55-1.62-1.95-2.58
	c-0.76-1.85-1.25-3.81-1.85-5.72c2.16,0.24,4.51,0.02,6.43,0.82c2.67,1.12,5.02,3,8.74,5.33c0-7.51-0.32-13.6,0.06-19.65
	c0.9-14.45-5.21-26.16-13.65-37.12c-0.88-1.14-1.11-2.78-1.65-4.18c1.57-0.53,3.11-1.3,4.73-1.52c1.08-0.14,2.26,0.51,4.75,1.16
	c-4.65-10.32-5.16-21.32-15.09-27.6c-1.23-0.78-1.69-3.09-2.11-4.79c-0.49-1.99,0.06-4.43-0.89-6.08
	c-17.05-29.77-43.46-54.35-74.24-69.48c-44.39-21.82-95.58-20.88-136.38,8.28c-90.82,64.9-57.1,192.82,6.43,264.03
	c2.03,2.27,5.57,4.06,8.6,4.41c7.82,0.92,15.75,1.07,23.64,1.22c4.36,0.08,8.74-0.46,13.11-0.73c0.21,0.51,0.41,1.02,0.62,1.53
	c-1.74,1.16-3.33,2.67-5.23,3.43c-11.45,4.55-23.2,7.62-35.69,7.17c-18.36-0.67-36.4-2.9-52.44-12.69
	c-28.64-17.48-51.5-40.43-65.3-71.48c-6.15-13.82-11.81-27.86-17.79-41.75c-0.93-2.16-2.37-4.11-3.57-6.16
	c-0.67,0.16-1.34,0.32-2,0.48c-0.15,1.68-0.34,3.35-0.46,5.03c-1.87,26.86,5.36,52.07,13.79,77.1c8.3,24.65,21.88,46.12,39.19,65.28
	c16.15,17.89,36.92,27.95,60.04,33.21c35.95,8.17,71.81,7.73,107.44-2.3c2.3-0.65,5.1-1.01,7.28-0.31
	c42.54,13.81,85.97,15.44,129.82,8.93c24-3.56,48.11-7.76,68.56-22.2c19.83-14.01,39.39-28.43,58.65-43.22
	c7.36-5.65,13.55-12.83,20.7-19.72c7.37,8.47,16.89,12.41,27.46,13.87c6.95,0.96,13.98,1.22,20.96,1.99
	c2.42,0.27,4.78,1.14,7.16,1.73c-0.02,0.75-0.04,1.5-0.06,2.25c-7.98,1.4-15.96,2.79-25.24,4.42c5.49,3.46,10.24,6.21,14.73,9.34
	c14.53,10.13,30.25,15.56,48.22,13.14c2.61-0.35,5.39,0.55,8.09,0.87c0.04,0.42,0.08,0.83,0.12,1.25
	c-4.66,1.93-9.31,3.87-14.55,6.04c14.81,7.67,29.56,12.47,45.96,10.38c4.1-0.52,8.27-0.52,12.41-0.6c1.82-0.04,3.64,0.31,5.46,0.49
	c0.12,0.49,0.23,0.98,0.35,1.47c-3.15,2.13-6.3,4.27-10.51,7.12c11.57,2.84,22.21,5.2,32.71,8.09c11.16,3.08,21.53-2.73,32.65-1.96
	c-1.69,1.11-3.38,2.21-6.16,4.04c2.26,1.4,3.78,3.01,5.53,3.32c30.1,5.39,60.37,5.3,90.23-0.62
	c87.33-17.31,168.44-71.52,216.16-146.65C1151.63,534.96,1139.22,413.87,1077.61,339.84z M631.88,195.28
	c-0.84,1.76-3.28,2.36-5.06,1.57c-1.79-0.79-2.93-2.64-3.37-4.55c-0.44-1.91-0.28-3.89-0.12-5.84c0.11-1.4,0.96-3.51,2.14-2.75
	c2.7,1.73,4.86,4.3,6.1,7.26C632.15,192.34,632.52,193.94,631.88,195.28z M639.95,173.96c1.64,1.13,1.84,3.67,0.76,5.33
	c-1.08,1.67-3.12,2.51-5.1,2.65c-1.98,0.13-3.95-0.34-5.88-0.82c-1.38-0.34-3.37-1.53-2.42-2.59c2.17-2.43,5.1-4.19,8.27-4.96
	C637.04,173.22,638.7,173.1,639.95,173.96z M621.62,165.72c0.28-1.46,0.85-3,2.12-3.77c1.68-1.01,4.03-0.16,5.09,1.48
	c1.05,1.65,0.99,3.82,0.3,5.65c-0.68,1.83-1.91,3.4-3.12,4.94c-0.87,1.1-2.74,2.4-3.3,1.12
	C621.42,172.21,621.03,168.88,621.62,165.72z M619.85,184.81c-0.95,3.12-2.87,5.94-5.42,7.97c-1.18,0.94-2.64,1.75-4.13,1.49
	c-1.96-0.34-3.21-2.55-2.93-4.52c0.28-1.97,1.78-3.59,3.52-4.55c1.74-0.96,3.73-1.35,5.68-1.73
	C617.97,183.21,620.27,183.45,619.85,184.81z M608.43,169.29c1.91-0.53,4,0.18,5.58,1.39c1.58,1.21,2.74,2.87,3.87,4.5
	c0.81,1.17,1.51,3.37,0.1,3.54c-3.24,0.39-6.59-0.23-9.48-1.75c-1.34-0.7-2.66-1.72-3.03-3.18
	C604.99,171.86,606.52,169.82,608.43,169.29z M599.06,120.15c0.76,3.49,0.83,7.26-0.42,10.43c-1.26,3.17-4.02,5.6-7.11,5.5
	c-3.08-0.1-7.1-2.18-7.11-5.73c3.88-2.87,6.29-8.12,6.24-13.56c-0.06-5.44-2.58-10.92-6.52-14.15
	C590.9,105.56,597.31,112.11,599.06,120.15z M451.06,105.75c-0.59-0.96-0.95-1.27-0.92-1.54c0.28-2.62,4.21-5.55-0.34-7.74
	c-5.37-2.59-12.89-0.36-14.62,4.3c-0.85,2.3-1.35,4.9-1.27,7.34c0.15,4.59-2,4.43-4.97,2.8c-1.39-0.77-2.96-1.74-3.72-3.04
	c-3.07-5.28-6.64-4.25-10.56-1.23c-1.13,0.87-2.29,1.69-3.83,2.81c0.89,1.6,1.55,2.79,2.08,3.75c-7.43,0.93-14.65,1.84-21.57,2.71
	c7.47-5.78,14.63-11.56,22.03-17c9.14-6.72,19.9-8.93,30.88-10.08c8.3-0.87,14.56,3.64,20.06,7.63
	C459.82,99.61,455.46,102.67,451.06,105.75z M529.73,141.08c-3.76,7.83-13.52,18.71-22.22,18.68c-9.86-0.04-0.15-19.52,1.31-26.92
	c1.71-8.67,2.77-17.74,0.96-26.38c-1.81-8.64-6.96-16.83-14.46-19.7c12.13-2.14,25.13,3.99,32.24,15.21
	C534.67,113.19,535.54,128.96,529.73,141.08z M567.88,128.23c-2.42,7.53-10.44,13.31-18.2,11.77c0.21-2.42,1.36-4.46,2.52-6.6
	c3.68-6.82,4.76-15,2.98-22.54c-1.78-7.54-6.41-14.37-12.76-18.82c7.14,3.39,15.83,7.62,20.64,13.9
	C567.88,112.22,570.3,120.7,567.88,128.23z M370.34,485.45c0.69,1.9-0.64,4.12-2.52,4.86c-1.88,0.74-4.07,0.23-5.79-0.83
	c-1.72-1.06-3.06-2.62-4.38-4.15c-0.94-1.1-1.88-3.26-0.47-3.57c3.24-0.73,6.69-0.45,9.77,0.79
	C368.37,483.12,369.82,484.01,370.34,485.45z M357.06,466.97c0.8-1.34,1.93-2.65,3.46-2.94c2.02-0.38,4.03,1.31,4.47,3.31
	c0.44,2.01-0.42,4.12-1.76,5.67c-1.34,1.56-3.12,2.66-4.87,3.73c-1.25,0.77-3.57,1.36-3.66-0.1
	C354.49,473.29,355.32,469.86,357.06,466.97z M353.91,486.69c1.6,2.97,2.28,6.42,1.92,9.77c-0.17,1.55-0.64,3.21-1.91,4.12
	c-1.67,1.19-4.21,0.51-5.45-1.13c-1.24-1.64-1.35-3.91-0.79-5.89c0.56-1.97,1.72-3.72,2.85-5.43
	C351.35,486.91,353.21,485.4,353.91,486.69z M339.93,467.23c0.48-1.96,2.81-3.08,4.78-2.66c1.98,0.42,3.52,2.05,4.37,3.88
	c0.85,1.83,1.11,3.87,1.37,5.88c0.18,1.44-0.22,3.75-1.58,3.24c-3.1-1.18-5.83-3.31-7.72-6.04
	C340.29,470.26,339.57,468.73,339.93,467.23z M334.2,483.81c1-1.79,3.04-2.81,5.07-3.09c2.03-0.28,4.1,0.07,6.12,0.42
	c1.45,0.25,3.58,1.34,2.68,2.5c-2.07,2.66-4.96,4.68-8.17,5.7c-1.49,0.47-3.2,0.71-4.54-0.09
	C333.59,488.21,333.2,485.61,334.2,483.81z M286.46,470.25c1-2.26,3.14-4.17,5.61-4.19c2.72-0.02,5.04,2.3,5.82,4.91
	c0.77,2.61,0.31,5.43-0.38,8.06c-1.6,6.07-4.56,13.44-9.43,17.41c-2.83-5.2-2.61-12.94-2.67-18.92
	C285.38,475.05,285.46,472.51,286.46,470.25z M229.4,455.65c3.14-2.94,8.73-2.8,12.45-0.64c19.92,11.6,32.48,34.81,31.29,57.83
	c-8.09-14.12-23.59-27.19-37.37-35.85c-3.64-2.29-6.95-5.39-8.51-9.39C225.7,463.6,226.26,458.58,229.4,455.65z M270.5,639.82
	c-3.1-1.18-5.83-3.31-7.72-6.04c-0.87-1.26-1.59-2.8-1.23-4.29c0.48-1.96,2.81-3.08,4.78-2.66c1.98,0.42,3.52,2.05,4.37,3.88
	c0.85,1.83,1.11,3.87,1.37,5.88C272.26,638.01,271.85,640.33,270.5,639.82z M190.54,509.47c1.35-4.28,4.73-7.71,8.64-9.92
	c23.39-13.18,48.73,18.12,62.95,31.56l-0.06,1.19c-13.86-6.29-29.14-9.44-44.36-9.28C207.96,523.12,184.75,527.78,190.54,509.47z
	 M219.3,578.3c-2.99,3.09-6.7,5.7-10.94,6.4c-4.24,0.7-9.03-0.88-11.26-4.55c-2.23-3.68-0.94-9.12,1.94-12.31
	c15.45-17.12,40.74-24.64,63.03-18.74C246.59,554.1,230.6,566.59,219.3,578.3z M250.64,588.6c-1.18,2.17-2.48,4.36-4.46,5.84
	c-1.97,1.48-4.78,2.12-6.94,0.93c-2.39-1.31-3.29-4.47-2.69-7.12c0.59-2.66,2.36-4.89,4.26-6.86c4.35-4.52,10.52-9.53,16.72-10.62
	C257.46,576.69,253.5,583.35,250.64,588.6z M261.52,651.59c-1.49,0.47-3.2,0.71-4.54-0.09c-1.77-1.05-2.16-3.65-1.16-5.44
	c1-1.79,3.04-2.81,5.07-3.09c2.03-0.28,4.1,0.07,6.12,0.42c1.45,0.25,3.58,1.34,2.68,2.5C267.62,648.56,264.73,650.57,261.52,651.59
	z M277.45,658.72c-0.17,1.55-0.64,3.21-1.91,4.12c-1.67,1.19-4.21,0.51-5.45-1.13c-1.24-1.64-1.35-3.91-0.79-5.89
	c0.56-1.97,1.72-3.72,2.85-5.43c0.81-1.23,2.67-2.74,3.37-1.44C277.13,651.91,277.81,655.36,277.45,658.72z M276.32,638.9
	c-0.21-3.37,0.62-6.79,2.36-9.68c0.8-1.34,1.93-2.65,3.46-2.94c2.02-0.38,4.03,1.31,4.47,3.31c0.44,2.01-0.42,4.12-1.76,5.67
	c-1.34,1.56-3.12,2.66-4.87,3.73C278.72,639.78,276.41,640.37,276.32,638.9z M289.43,652.56c-1.88,0.74-4.07,0.23-5.79-0.83
	c-1.72-1.06-3.06-2.62-4.38-4.15c-0.94-1.1-1.88-3.26-0.47-3.57c3.24-0.73,6.69-0.45,9.77,0.79c1.42,0.57,2.87,1.46,3.39,2.9
	C292.64,649.6,291.31,651.82,289.43,652.56z M283.21,580.89c-4.21-21.68,1.95-41.06,17.96-56.79c6.8-6.68,23.44-8.92,31.9-4.49
	c13.19,6.91,21.99,17.78,27.99,31.16c5.14,11.48,8.3,23.41,8.57,40.52c0.36,14.22-8.68,29.43-18.16,44.43
	c-0.67,1.07-2.71,2.07-3.93,1.89C318.85,633.36,289.5,613.28,283.21,580.89z M319.97,730.88c-2.18,0.87-4.52,1.31-6.79,1.95
	c-0.2-0.4-0.41-0.79-0.61-1.19c38.79-25.38,63.62-61.67,82.59-102.99c19.47-42.4,20.47-86.15,11.27-131.06
	c0.87-0.17,1.73-0.34,2.6-0.5c2.41,5.97,5.58,11.75,7.1,17.94c7.02,28.51,9.06,57.44,2.78,86.23c-2.53,11.6-7.44,23.04-13.16,33.52
	c-9.48,17.33-18.72,35.31-31.32,50.28C359.16,703.17,343.12,721.6,319.97,730.88z M522.56,516.84c3.29,6.81-0.71,13.07-3.57,19.53
	c-18.33-31.43-31.02-64.35-30.8-101.49c0.35-59.12,22.21-109.08,61.95-151.68c0.61,0.31,1.22,0.62,1.83,0.93
	c-5.34,8.94-10.68,17.87-16.01,26.81c-13.43,22.51-25.49,45.62-30.43,71.72C496.72,429.21,501.83,473.99,522.56,516.84z
	 M959.6,321.23c-0.12-6.69,1.1-13.65,5-19.09c3.9-5.44,10.91-8.97,17.41-7.38c6.5,1.59,11.08,9,11.42,15.68
	c1.84,35.84-17.73,71.96-48.75,90C956.2,377.89,960.05,346.56,959.6,321.23z M912.24,333.05c0.54-3.81,2.93-7.59,6.62-8.67
	c4.07-1.19,8.53,1.3,10.8,4.88c2.27,3.58,2.78,7.99,2.86,12.23c0.18,9.77-1.09,22.07-6.71,30.09c-6.45-6.58-9.41-18.27-12.05-27.2
	C912.67,340.7,911.7,336.85,912.24,333.05z M903.3,400.18c30.44,12.33,44.14,37.34,47.26,69.22c1.19,12.17-1.81,23.19-6.43,34.02
	c-3.39,7.94-7.04,15.78-10.98,23.45c-1.4,2.72-4.01,4.82-6.07,7.2c-0.49-0.27-0.98-0.53-1.47-0.8c0.68-1.77,1.17-3.64,2.06-5.29
	c12.08-22.28,15.59-45.94,10.09-70.55c-5.84-26.09-29.94-50.16-59.02-54.98c-21.42-3.55-42.32-1.63-63.03,4.09
	c-4.33,1.2-8.46,3.1-12.68,4.68c-0.29-0.49-0.58-0.97-0.86-1.46c1.3-1.22,2.39-2.87,3.92-3.61
	C837.67,391.01,870.39,386.85,903.3,400.18z M929.05,608.4c-4.61-1.75-8.67-4.93-11.47-8.98c-1.3-1.88-2.36-4.16-1.83-6.38
	c0.71-2.92,4.18-4.59,7.11-3.96c2.94,0.63,5.24,3.04,6.5,5.77c1.26,2.72,1.66,5.76,2.03,8.74
	C931.66,605.72,931.06,609.16,929.05,608.4z M836.72,342.28c1.02,2.83-0.96,6.13-3.75,7.22c-2.8,1.1-6.05,0.35-8.6-1.23
	c-2.56-1.58-4.56-3.89-6.51-6.17c-1.4-1.63-2.8-4.84-0.7-5.31c4.81-1.08,9.95-0.67,14.52,1.17
	C833.79,338.82,835.94,340.14,836.72,342.28z M816.98,314.81c1.19-1.99,2.86-3.93,5.14-4.37c3-0.57,6,1.95,6.65,4.93
	c0.65,2.98-0.62,6.12-2.61,8.44c-1.99,2.31-4.64,3.95-7.24,5.55c-1.86,1.15-5.31,2.03-5.44-0.15
	C813.16,324.2,814.4,319.11,816.98,314.81z M812.29,344.12c2.39,4.41,3.4,9.55,2.86,14.53c-0.25,2.31-0.95,4.77-2.83,6.12
	c-2.48,1.78-6.26,0.75-8.1-1.68c-1.84-2.43-2.01-5.82-1.17-8.75c0.84-2.94,2.55-5.53,4.24-8.07
	C808.5,344.45,811.25,342.2,812.29,344.12z M791.51,315.2c0.71-2.92,4.18-4.59,7.11-3.96c2.94,0.63,5.24,3.04,6.5,5.77
	c1.26,2.72,1.66,5.76,2.03,8.74c0.27,2.14-0.33,5.58-2.35,4.82c-4.61-1.75-8.67-4.93-11.47-8.98
	C792.04,319.7,790.98,317.41,791.51,315.2z M782.99,339.84c1.49-2.67,4.52-4.18,7.54-4.6c3.02-0.42,6.09,0.11,9.1,0.63
	c2.16,0.37,5.32,1.99,3.98,3.72c-3.07,3.96-7.37,6.95-12.15,8.47c-2.21,0.7-4.75,1.06-6.75-0.13
	C782.09,346.38,781.51,342.51,782.99,339.84z M726.45,410.82c1.02,2.83-0.96,6.13-3.75,7.22c-2.8,1.1-6.05,0.35-8.6-1.23
	c-2.56-1.58-4.56-3.89-6.51-6.17c-1.4-1.63-2.8-4.84-0.7-5.31c4.81-1.08,9.95-0.67,14.52,1.17
	C723.52,407.35,725.67,408.67,726.45,410.82z M706.7,383.35c1.19-1.99,2.86-3.93,5.14-4.37c3-0.57,6,1.94,6.65,4.93
	c0.65,2.98-0.62,6.12-2.61,8.44c-1.99,2.31-4.64,3.95-7.24,5.55c-1.86,1.14-5.31,2.03-5.44-0.15
	C702.88,392.73,704.12,387.64,706.7,383.35z M702.02,412.66c2.39,4.41,3.4,9.55,2.86,14.53c-0.25,2.31-0.95,4.77-2.83,6.12
	c-2.48,1.78-6.26,0.75-8.1-1.68c-1.84-2.43-2.01-5.82-1.17-8.75c0.84-2.94,2.55-5.53,4.24-8.07
	C698.22,412.99,700.98,410.74,702.02,412.66z M681.24,383.73c0.71-2.92,4.18-4.59,7.11-3.96c2.94,0.63,5.24,3.04,6.5,5.77
	c1.26,2.72,1.66,5.76,2.03,8.74c0.27,2.13-0.33,5.58-2.35,4.82c-4.61-1.75-8.67-4.93-11.47-8.98
	C681.77,388.24,680.7,385.95,681.24,383.73z M672.72,408.38c1.49-2.67,4.52-4.18,7.54-4.6s6.09,0.11,9.1,0.63
	c2.16,0.37,5.32,1.99,3.98,3.72c-3.07,3.96-7.37,6.95-12.15,8.47c-2.21,0.7-4.75,1.06-6.75-0.13
	C671.82,414.92,671.24,411.05,672.72,408.38z M883.36,739.81c-10.72,0-21.51,0.82-32.14-0.13c-70.55-6.29-137.06-25.62-197.95-62.57
	c-2.31-1.4-4.56-2.9-6.77-4.45c-3.69-2.58-4.02-6.35-1.57-9.39c2.26-2.8,5.04-6.19,9.94-3.18c35.52,21.84,72.61,40.28,112.08,54.16
	c31.7,11.15,64.26,16.96,97.48,20.25c6.4,0.63,12.72,2.09,19.08,3.17C883.45,738.39,883.41,739.1,883.36,739.81z M801.92,627.02
	c-1.99,2.31-4.64,3.95-7.24,5.55c-1.86,1.15-5.31,2.03-5.44-0.15c-0.31-5,0.93-10.09,3.51-14.39c1.19-1.99,2.86-3.93,5.14-4.37
	c3-0.57,6,1.95,6.65,4.93C805.19,621.57,803.92,624.71,801.92,627.02z M807.45,641.18c2.12,0.85,4.27,2.17,5.04,4.32
	c1.02,2.83-0.96,6.13-3.75,7.22c-2.8,1.1-6.05,0.35-8.6-1.23c-2.56-1.58-4.56-3.89-6.51-6.17c-1.4-1.63-2.8-4.84-0.7-5.31
	C797.74,638.93,802.87,639.34,807.45,641.18z M790.92,661.87c-0.25,2.31-0.95,4.77-2.83,6.12c-2.48,1.78-6.26,0.75-8.1-1.68
	c-1.84-2.43-2.01-5.82-1.17-8.75c0.84-2.94,2.55-5.53,4.24-8.07c1.21-1.82,3.96-4.07,5-2.15
	C790.45,651.75,791.46,656.89,790.92,661.87z M780.59,633.77c-4.61-1.75-8.67-4.93-11.47-8.98c-1.3-1.88-2.36-4.16-1.83-6.38
	c0.71-2.92,4.18-4.59,7.11-3.96c2.94,0.63,5.24,3.04,6.5,5.77c1.26,2.72,1.66,5.76,2.03,8.74
	C783.2,631.09,782.6,634.54,780.59,633.77z M775.4,639.09c2.16,0.37,5.32,1.99,3.98,3.72c-3.07,3.96-7.37,6.95-12.15,8.47
	c-2.21,0.7-4.75,1.06-6.75-0.13c-2.63-1.56-3.21-5.43-1.72-8.09c1.49-2.67,4.52-4.18,7.54-4.6
	C769.33,638.05,772.4,638.57,775.4,639.09z M869.76,562.82c-24.56,11.12-49.85,11.4-75.71,7.86c-25.39-3.48-50.36-8.82-74.67-17.08
	c-8.22-2.79-18.12,0.98-24.3,8.73c-17.51,21.97-34.99,43.96-52.88,65.61c-6.82,8.26-14.73,15.61-22.15,23.38
	c-0.54-0.47-1.07-0.93-1.61-1.4c0.98-1.61,1.81-3.35,2.97-4.83c28.34-36.11,47.16-77.8,69.37-117.54
	c15.28-27.35,35.24-51.3,59.81-71.06c12.65-10.17,26.81-17.5,42.71-21.15c4.68-1.08,9.49-1.61,14.25-2.39
	c1.05-5.09,0.13-10.94,7-13.38c0.41,1.6,0.75,2.89,1.07,4.2c1.46,5.93,5.38,9.31,11.46,10.26c4.62,0.71,9.24,1.51,13.77,2.65
	c4.32,1.09,8.52,2.66,13,4.09c3.69-8.39,6.73-17.23,16.15-23.09c-2.07,6.76-4.2,12.01-5.22,17.47c-1.29,6.89,0.7,12.82,6.24,17.85
	c5.4,4.9,9.96,10.73,14.87,16.12c6.24-6.94,11.3-15.82,23.14-15.76c-15.32,15.09-16.1,32.72-10.2,52
	c7.19-4.49,12.87-11.91,23.76-12.38c-1.84,2.36-2.75,3.82-3.93,5c-11.49,11.52-20.47,24.67-25.23,40.31
	C889.68,550.7,881.36,557.57,869.76,562.82z M915.7,625.9c-2.21,0.7-4.75,1.06-6.75-0.13c-2.63-1.56-3.21-5.43-1.72-8.09
	c1.49-2.67,4.52-4.18,7.54-4.6c3.02-0.42,6.09,0.11,9.1,0.63c2.16,0.37,5.32,1.99,3.98,3.72
	C924.77,621.39,920.47,624.39,915.7,625.9z M939.38,636.49c-0.25,2.31-0.95,4.77-2.83,6.12c-2.48,1.78-6.26,0.75-8.1-1.68
	c-1.84-2.43-2.01-5.82-1.17-8.75c0.84-2.94,2.55-5.53,4.24-8.07c1.21-1.82,3.96-4.07,5-2.15
	C938.91,626.37,939.92,631.51,939.38,636.49z M937.7,607.04c-0.31-5,0.93-10.09,3.51-14.39c1.19-1.99,2.86-3.93,5.14-4.37
	c3-0.57,6,1.95,6.65,4.93c0.65,2.98-0.62,6.12-2.61,8.44c-1.99,2.31-4.64,3.95-7.24,5.55C941.28,608.34,937.84,609.22,937.7,607.04z
	 M957.2,627.34c-2.8,1.1-6.05,0.35-8.6-1.23c-2.56-1.58-4.56-3.89-6.51-6.17c-1.4-1.63-2.8-4.84-0.7-5.31
	c4.81-1.08,9.95-0.67,14.52,1.17c2.12,0.85,4.27,2.17,5.04,4.32C961.97,622.95,959.99,626.25,957.2,627.34z M963.15,418.94
	c22.19-8.33,42.47-21.68,59.04-38.61c10.63-10.85,31.05-41.53,44.83-14.99c3.22,6.2,3.29,13.69,1.4,20.43
	c-11.25,40.25-73.59,33.69-104.03,34.55L963.15,418.94z M1003.05,524.87c-2.98,3.02-8.09,3.02-11.81,1
	c-3.73-2.02-6.32-5.63-8.45-9.29c-4.91-8.45-9.78-19.81-8.78-29.55c8.84,2.6,17.11,11.38,23.76,17.89c2.75,2.69,5.47,5.58,6.85,9.16
	C1005.99,517.67,1005.74,522.14,1003.05,524.87z M1070.49,481.75c-34.7,9.16-74.07-2.56-98.1-29.21c24.44,6.64,55.9,3.97,80.59-1.68
	c6.52-1.49,13.58-1.73,19.71,0.97c6.12,2.7,11.02,8.83,10.8,15.52C1083.27,474.04,1076.96,480.04,1070.49,481.75z"/>
</svg>
