<?xml version="1.0" encoding="utf-8"?>
<!-- Generator: Adobe Illustrator 24.1.0, SVG Export Plug-In . SVG Version: 6.00 Build 0)  -->
<svg version="1.1" id="Tiger" xmlns="http://www.w3.org/2000/svg" xmlns:xlink="http://www.w3.org/1999/xlink" x="0px" y="0px"
	 viewBox="0 0 1190.55 841.89" style="enable-background:new 0 0 1190.55 841.89;" xml:space="preserve">
<style type="text/css">
	.st0{fill:#B0252C;}
</style>
<path class="st0" d="M582.93,726.28c-0.76-1.91-4.02-3.6-6.35-3.96c-9.22-1.43-18.54-2.2-27.8-3.39c-5.3-0.68-6.68-2.24-6.04-7.52
	c1.59-13.04,3.42-26.06,5.28-39.07c0.2-1.4,1.03-2.8,1.85-4c7.3-10.61,14.55-21.25,22.08-31.7c1.58-2.2,4.01-4.02,6.42-5.33
	c5.71-3.1,11.65-5.77,17.48-8.65c5.85-2.89,9.48-7.56,12.29-13.48c4.4-9.28,8.31-19.3,14.83-26.95
	c12.67-14.87,25.79-29.63,43.5-39.19c5.32-2.87,9.78-7.28,14.84-10.68c1.78-1.19,4.26-2.25,6.27-2.03
	c7.93,0.9,15.79,2.35,23.69,3.56c5.38,0.82,10.77,1.58,16.95,2.48c-3.22-9.85-6.22-18.82-9.06-27.84c-0.83-2.65-2.28-5.44,0.34-9.18
	c3.36,5.45,6.6,10.23,9.35,15.27c4.61,8.44,8.85,17.08,13.36,25.57c5.13,9.68,11.06,19,15.42,29.01c5,11.5,8.75,23.56,12.79,35.46
	c0.51,1.5-0.46,3.55-0.92,5.3c-0.85,3.22-2.39,6.37-2.62,9.62c-0.41,5.8-0.25,11.67,0.02,17.49c0.23,5.07,2.32,9.35,6.33,12.7
	c0.95,0.79,1.58,2.36,1.71,3.64c0.46,4.57,0.48,9.19,0.98,13.76c0.29,2.63,1.9,4.11,4.76,4.76c1.78,0.41,3.76,1.97,4.72,3.57
	c3.75,6.25,8.77,11.05,15.24,14.2c1.28,0.63,3.52,0.34,4.77-0.43c0.65-0.4,0.39-2.82,0.04-4.2c-0.42-1.66-1.38-3.18-2.56-5.74
	c7.16,0,13.73,0,20.52,0c3.36,3.66,7.27,7.9,11.17,12.16c3.06,3.35,6.26,2.77,8-1.57c1.67-4.15,3.16-8.36,4.8-12.52
	c0.43-1.09,0.91-2.35,1.77-3.05c3.65-2.98,7.45-5.77,11.78-9.08c0.96,4.29,1.9,8.53,2.86,12.82c4.52-0.42,4.91-4.2,6.23-6.93
	c1.98-4.11,2.66-9.28,5.59-12.39c3.19-3.39,3.63-6.53,3.27-10.49c-0.26-2.84-0.32-5.69-0.62-8.52c-0.79-7.31-3.02-13.48-10.61-16.83
	c-9.02-3.98-17.64-8.86-26.57-13.07c-6.06-2.86-9.7-7.08-10.07-13.97c-0.52-9.74-1.49-19.47-1.79-29.22
	c-0.67-21.54-0.94-43.1-1.6-64.64c-0.16-5.41,2.21-9.24,5.77-12.81c4.97-5,10.02-9.94,14.66-15.23c8.84-10.1,17.4-20.45,26.14-30.63
	c1.06-1.24,2.6-2.07,4.53-3.57c0,1.69,0.15,2.17-0.02,2.44c-1.12,1.69-2.28,3.36-3.49,4.98c-12.47,16.75-25.19,33.33-30.65,54.07
	c-2.75,10.46-7.36,20.75-8.14,31.33c-1.35,18.34-0.33,36.85-0.4,55.28c-0.03,8.24,3.52,13.92,11.33,16.8
	c0.38,0.14,0.75,0.32,1.12,0.5c12,5.6,24.1,11.02,35.97,16.9c5.32,2.64,9.92,2.26,14.33-1.34c2.69-2.19,5.13-4.71,8.64-7.98
	c0.62,5.82,1.15,10.77,1.75,16.47c1.69-1.11,3.29-1.62,3.94-2.69c2.58-4.27,4.92-8.7,7.25-13.12c1.73-3.28,3.31-6.65,5.29-10.63
	c2.74,4.42,4.83,7.81,7.46,12.05c1.95-4.21,3.78-7.38,4.91-10.79c2.46-7.38,7.01-14.17,6.37-22.46c-0.29-3.73-1.47-6.84-4.71-8.97
	c-4.99-3.28-9.95-6.59-14.92-9.88c-3.75-2.48-7.66-2.81-12.02-1.52c-7.11,2.1-14.34,3.79-21.53,5.62
	c-7.91,2.01-12.72-1.65-11.05-10.89c1.59-8.79,3.31-17.55,4.74-26.36c3.24-19.8,8.54-38.79,19.25-56.11
	c3.71-5.99,6.67-12.81,8.28-19.66c4.21-17.92,7.29-36.09,11.16-54.09c6.62-30.84,13.67-61.59,20.22-92.44
	c4.93-23.17,5.01-46.59,1.91-70c-2.35-17.74-9.24-33.82-18.28-49.16c-19.66-33.37-47.17-57.7-82.81-72.86
	c-22.38-9.52-45.62-15.26-69.94-17.01c-4.68-0.34-7.37,0.44-10.11,4.13c-2.46,3.3-5.92,5.86-8.93,8.75
	c-0.94-1.47-1.16-2.22-0.91-2.75c5.28-11.44,3.14-22.47-1.86-33.3c-1.44-3.12-3.19-6.1-4.8-9.14c-1.36,0-2.71,0-4.07,0
	c-3.21,1.66-6.42,3.35-9.65,4.98c-9.03,4.56-17.98,9.54-23.49,18.24c-3.32,5.25-7.3,5.88-12.56,5.4
	c-9.41-0.84-18.85-1.45-28.28-2.11c-1.92-0.13-3.86-0.02-5.79-0.02c-0.06-0.45-0.13-0.9-0.19-1.34c5.31-1.49,10.62-2.98,17.05-4.78
	c-2.86-2.41-4.92-4.8-7.51-6.17c-4.17-2.21-8.66-3.83-13.07-5.56c-8.03-3.16-10.84-1.38-11.55,7.28c-0.11,1.33,0.04,2.71,0.24,4.04
	c0.56,3.86,1.2,7.7,1.85,11.78c-12.59,5.11-18.73,15.56-23.02,27.53c-1.01,2.8-1.83,5.68-3,8.41c-2.43,5.67-5.84,9.86-12.57,11.37
	c-9.66,2.17-19.96,3.78-25.36,14.1c-9.89-8.41-16.47-18.42-21.77-29.57c-0.37,2.03-0.33,3.87,0.2,5.55
	c3.19,10.22,9.18,18.69,16.91,25.93c1.92,1.8,3.22,3.65,1.69,5.82c-0.67,0.94-3.03,1.12-4.54,0.96c-10.39-1.12-19.93-4.86-29.05-9.8
	c-1.04-0.57-2.15-1.02-3.23-1.52c-0.29,0.47-0.59,0.94-0.88,1.41c2.16,1.62,4.16,3.53,6.5,4.82c8.89,4.87,18.48,7.64,28.49,9.1
	c1.2,0.17,2.24,1.39,3.36,2.13c-0.2,0.37-0.39,0.74-0.59,1.11c-11.28,1.8-22.56,3.58-32.89,8.84c1.84,0.28,3.56,0.03,5.28-0.23
	c9.23-1.43,18.44-2.92,27.69-4.21c1.18-0.16,2.5,0.76,4.55,1.44c-6.87,3.76-12.65,6.68-18.18,10.01
	c-5.51,3.32-10.46,7.31-12.45,13.97c8.15-8.03,17.77-13.5,28.39-17.74c0.99,5.02,0.96,9-3.92,11.83c-2.37,1.38-3.96,4.1-5.91,6.21
	c0.34,0.43,0.69,0.86,1.03,1.29c3.28-2.05,6.56-4.1,9.19-5.74c3.22,4.04,5.48,9.55,9.33,11.1c5.79,2.32,8.42,6.7,11.77,10.93
	c1.01,1.27,2.12,2.49,3.37,3.52c0.7,0.58,1.76,0.72,2.88,1.15c-0.49-4.44-1.11-8.3-1.3-12.18c-0.3-6.11,0.56-6.49,6.01-3.9
	c9.84,4.68,19.63,6.2,29.26,4.77c0.39,0.89,0.81,1.77,1.21,2.65c1.88,4.06,3.94,8.03,6.25,11.87c1.2-4.62,1.83-9.39,1.96-14.16
	c0.02-0.9,0.03-1.8,0.01-2.7c3.19-1.12,6.37-2.55,9.52-4.32c8.09-4.54,13.17-19,17.5-20.23c1.6-0.45,2.24,15.7-21.56,26.66
	l-2.12,13.48c-0.82,5.2-7.73,6.48-10.36,1.92l-4.83-8.38c-2.67,1.91-4.72,4.53-6.13,7.92c-2.03,4.87-5.25,8.79-10.23,11.06
	c-3.24,1.48-5.17,0.69-5.75-2.89c-0.59-3.63-1.11-7.26-1.84-12.08c-1.2,1.91-2.1,2.87-2.48,4.01c-1.22,3.72-2.27,7.49-3.33,11.25
	c-0.51,1.8-0.67,3.73-1.36,5.45c-1.47,3.67-3.83,7.1-4.69,10.88c-2.72,11.97,0.89,22.45,8.75,31.6c1.87,2.17,4.17,3.65,7.38,2.95
	c-1.24-3.38-2.39-6.52-3.54-9.66c5.31,5.36,9.99,10.98,18.18,13.47c-0.91-4.29-1.59-7.55-2.25-10.65c1.82,1.49,3.34,3.08,5.18,4.12
	c1.03,0.58,2.71,0.64,3.81,0.21c0.58-0.23,0.7-2,0.77-3.1c0.12-1.85,0.03-3.7,0.03-5.77c2.49,1.7,4.32,2.95,6.15,4.2
	c1.13-1.78,2.27-3.56,3.41-5.34c0.15-0.23,0.32-0.44,0.45-0.68c3.66-6.68,9.37-11.38,15.91-14.72c8.9-4.55,18.18-8.36,27.34-12.38
	c10.29-4.51,21.11-8.19,27.28-18.74c0.38-0.65,1.81-0.7,2.75-1.03c0.3,0.97,1.01,2.02,0.82,2.88c-0.59,2.72-1.51,5.37-2.62,9.14
	c7.67-7.31,12.29-15.09,14.01-24.61c0.46,0.03,0.91,0.06,1.37,0.09c0.84,2.82,1.69,5.63,2.64,8.83c7-6.39,7.7-15.56,11.63-23.25
	c0.59,2.33,0.82,4.55,0.55,6.71c-1.21,9.81-4.67,18.9-9.33,27.55c-0.79,1.46-2.09,2.64-3.16,3.95c-1.01-1.03-2.02-2.05-3.08-3.13
	c-0.31,0.45-0.67,0.86-0.92,1.33c-5.63,10.73-14.74,17.49-25.56,22.25c-0.96,0.42-2.22,0.17-3.34,0.23
	c0.09-1.12,0.05-2.28,0.32-3.36c0.26-1.06,0.84-2.05,1.58-3.76c-5.65,3.04-10.48,5.74-15.4,8.26c-3.01,1.54-4.47,3.4-4.45,7.18
	c0.07,16.45-5.8,31.09-16.89,42.86c-12.26,13.01-25.66,24.96-38.84,37.08c-5.66,5.2-11.73,9.96-19.48,12.14
	c-5.46,1.53-10.76,3.68-16.01,5.85c-26.24,10.87-46.29,28.3-57.79,54.76c-0.57,1.32-1.52,2.6-2.59,3.57
	c-13.47,12.19-26.73,24.63-40.57,36.39c-10.43,8.86-21.88,18.68-34.95,23.38c-8.11,2.91-16.27,2.58-23.87-1.44
	c-13.94-7.38-23.07-20.17-23.61-36.18c-0.36-10.59,2.47-21.01,5.63-31.12c6.68-21.34,15.13-42.41,28.3-60.47
	c6.49-8.9,16.12-17.76,26.97-15.89c3.8,0.65,7.36,2.62,11.21,2.7c3.85,0.08,8.26-3.03,7.35-6.78c4.2,0.57,10.34-0.61,9.8-4.82
	c-0.17-1.34-1.09-2.44-1.97-3.46c-4.61-5.36-9.46-10.89-15.96-13.67c-7.06-3.01-15.17-2.34-22.63-0.51
	c-41.65,10.24-60.77,51.72-73.76,88.67c-11.01,31.33-14.83,75.51,11.17,101.11c15.04,14.82,35.89,25.18,57.45,22.23
	c22.4-3.06,40.88-19.13,62.25-25.64c1.2-0.37,2.7-1.54,3.04-2.65c2.51-8.28,4.92-16.59,7.04-24.97c1.37-5.42,2.26-10.94,6.27-16.57
	c0.12,1.79,0.23,2.4,0.19,3.01c-0.55,9.32-1.6,18.64-1.54,27.95c0.06,9.67-2.24,18.45-6.86,26.81c-4.52,8.19-9.24,16.32-10.12,25.93
	c-0.87,9.44-1.97,18.87-2.52,28.34c-0.65,11.24-3.75,21.25-12.06,29.3c-8.36,8.12-16.52,16.45-24.84,24.62
	c-6.42,6.3-11.18,12.66-8.33,22.85c2.03,7.26,1.67,15.03-4.57,21.22c-2.88,2.85-3.16,6.9-1.92,10.71c1.16,3.59,2.49,7.18,4.23,10.51
	c1.85,3.53,1.89,6.78,0.65,10.51c-1.91,5.77-3.82,11.61-4.89,17.56c-1.77,9.86-1.86,19.69,6.58,27.08
	c3.66,3.21,3.88,7.07,3.68,11.37c-0.28,6.09,1.56,11.08,7.23,14.38c5.26,3.06,10.13,6.8,15.38,9.89c4.21,2.48,5.88,5.68,4.76,10.47
	c-0.27,1.14,0.16,2.45,0.34,4.48c6.69-3.08,12.84-5.54,18.63-8.67c6.62-3.58,12.15-1.01,12.98,6.55c0.27,2.5,0.48,5.02,0.72,7.52
	c0.44,0.2,0.89,0.41,1.33,0.61c5.01-7.14,10.94-13.84,14.69-21.59c2.26-4.66,5.81-6.19,9.47-9.29c1.6,2.67,2.91,4.99,4.37,7.22
	c0.59,0.9,1.59,2.28,2.28,2.21c0.98-0.1,2.13-1.16,2.7-2.12c0.67-1.12,1.08-2.55,1.1-3.86c0.15-8.23,3.7-15.02,8.33-21.56
	c1.55-2.19,3.02-5.48,2.55-7.87C587.47,739.3,585.47,732.64,582.93,726.28z M869.15,346.28c-2.96-0.96-5.31-2.84-4.6-6.44
	c0.79-4.06,4.1-5.01,7.45-4.6c5.75,0.7,9.78,4.25,13.71,8.95C879.83,347.93,874.55,348.04,869.15,346.28z M883.11,367.77
	c-1.03,1.21-4.75,1.73-5.94,0.84c-1.67-1.24-3.35-4.41-2.9-6.23c1.64-6.66,7.27-11.86,14.19-12.83
	C891,356.47,886.86,363.37,883.11,367.77z M907.07,365.65c-3.43,2.4-6.87,1.25-9.28-2.21c-2.86-4.11-4.36-8.51-2.36-16.05
	c4.89,3.72,8.59,6.16,11.84,9.11C910.44,359.37,910.73,363.08,907.07,365.65z M906.23,331.32c2.12-1.02,6.2-0.74,7.86,0.71
	c2.98,2.6,1.23,6.2-1.22,8.58c-4.44,4.31-11.31,4.06-17.2,3.05C896.24,337.2,901.58,333.55,906.23,331.32z M889.94,340.04
	c-4.61-6.84-8.27-12.39-4.08-20.24c2.49-3.19,5.48-2.52,6.9-0.23C897.96,327.02,895.36,332.89,889.94,340.04z M868.85,165.57
	c15.38,13.11,26.4,32.53,25.47,52.72l-0.31-5.63c0.29,6.2,0.51,12.74-2.4,18.22c-2.91,5.48-10.12,9.19-15.51,6.11
	c-4.91-2.81-5.88-9.32-6.62-14.93c-2.25-17.13-7.35-34.07-16.51-48.72c-9.16-14.65-22.14-27.77-38.25-34.02
	C834.15,144.86,853.47,152.46,868.85,165.57z M849.49,250.32c2.16,14.16,1.44,27.76,0,41.91c-0.6,5.92,0.36,10.44-5.52,13.7
	c-5.43,3.01-13.19,2-18-1.71c-7.43-5.73-10.08-15.76-10.65-25.13c-1-16.65,3.08-33.11,5.35-49.63c2.27-16.52,2.53-34.21-5.4-48.88
	l-1.95-4.86C832.79,196.01,845.26,222.59,849.49,250.32z M819.09,441.32c2.73-4.12,7-8.48,11.8-7.31c2.71,0.66,4.77,3.1,5.48,5.81
	c0.71,2.7,0.24,5.61-0.78,8.21c-2.51,6.39-7.99,11.03-12.67,16.05c-9.05,9.7-15.25,21.44-18.93,34.13
	C804.54,477.64,807.45,458.88,819.09,441.32z M695.85,131.59c-7.62,2.55-13.61,6.67-18.36,13.54c-4.09,5.91-10.55,8.23-18.01,5
	c-3.05-1.32-6.17-1.21-9.7-0.78c-3.79,0.46-7.95-2.16-11.94-3.43c0.09-0.62,0.18-1.24,0.27-1.86c1.79-0.28,3.57-0.75,5.36-0.81
	c4.64-0.18,8.8-1.45,12.11-4.85c6.29-6.45,13.8-8.53,22.65-6.92c5.64,1.03,10.99-0.56,16.07-3.18c1.53-0.79,3.33-1.04,5-1.54
	c0.3,0.53,0.59,1.05,0.89,1.58C698.75,129.44,697.48,131.04,695.85,131.59z M710.96,376.21c-1.03,1.21-4.75,1.73-5.94,0.84
	c-1.67-1.24-3.35-4.41-2.9-6.23c1.64-6.66,7.27-11.86,14.19-12.83C718.84,364.91,714.7,371.8,710.96,376.21z M788.81,475.08
	c-1.1,13.51-2.69,29.55-0.46,42.87c-10.5-27.92-18.86-54.09-26.4-82.95c-2.92-11.16,2.88-45.59,20.81-30.62
	c3.36,2.8,5.45,6.84,6.95,10.94C797.2,435.73,790.47,454.57,788.81,475.08z M775.36,145.33c2.21-1.06,6.49-0.77,8.22,0.75
	c3.12,2.72,1.29,6.48-1.27,8.97c-4.64,4.5-11.82,4.25-17.98,3.19C764.92,151.48,770.5,147.67,775.36,145.33z M776.24,181.22
	c-3.58,2.51-7.18,1.31-9.7-2.31c-2.99-4.29-4.56-8.9-2.46-16.78c5.11,3.89,8.99,6.45,12.38,9.53
	C779.77,174.67,780.07,178.54,776.24,181.22z M731.78,154.24c0.83-4.25,4.28-5.24,7.79-4.81c6.02,0.74,10.23,4.44,14.34,9.36
	c-6.14,3.91-11.67,4.02-17.31,2.18C733.5,159.97,731.04,158.01,731.78,154.24z M751.19,183.45c-1.08,1.27-4.96,1.81-6.21,0.88
	c-1.75-1.3-3.5-4.61-3.03-6.51c1.71-6.97,7.61-12.41,14.84-13.42C759.44,171.63,755.11,178.84,751.19,183.45z M758.34,154.45
	c-4.82-7.15-8.65-12.95-4.27-21.17c2.6-3.33,5.73-2.64,7.22-0.24C766.71,140.84,764,146.97,758.34,154.45z M760.46,273.82
	c1.44-3,3.75-5.47,5.93-7.99c12.66-14.63,22.11-33.06,26.47-51.91c3.45,16.21,2.4,33.31-2.75,49.05
	c-2.74,8.36-4.43,16.39-9.91,20.99c-2.43,2.04-5.61,3.41-9.95,3.83c-3.83,0.37-8.09-1.04-10-4.38
	C758.59,280.53,759.02,276.82,760.46,273.82z M768.94,499.72c-7.96-10.55-17.93-19.31-29.85-25.14c-6.16-3.02-12.94-5.4-17.56-10.48
	c-1.88-2.07-3.36-4.61-3.66-7.39c-0.3-2.78,0.75-5.79,3.05-7.38c4.07-2.81,9.61-0.26,13.63,2.62
	C751.7,464.21,761.1,480.7,768.94,499.72z M723.27,355.82c4.89,3.72,8.59,6.16,11.84,9.11c3.17,2.88,3.46,6.58-0.2,9.15
	c-3.43,2.4-6.87,1.25-9.28-2.21C722.77,367.77,721.27,363.36,723.27,355.82z M734.07,339.76c2.12-1.02,6.2-0.74,7.86,0.71
	c2.98,2.6,1.23,6.2-1.22,8.58c-4.44,4.31-11.31,4.06-17.2,3.05C724.08,345.64,729.42,341.99,734.07,339.76z M713.71,328.23
	c2.49-3.19,5.48-2.52,6.9-0.23c5.19,7.46,2.59,13.33-2.82,20.47C713.17,341.64,709.52,336.09,713.71,328.23z M692.39,348.28
	c0.79-4.06,4.1-5.01,7.45-4.6c5.75,0.7,9.78,4.25,13.71,8.95c-5.87,3.74-11.16,3.85-16.56,2.09
	C694.03,353.75,691.68,351.88,692.39,348.28z M571.67,571.55c-0.81,0.95-3.71,1.35-4.65,0.66c-1.31-0.97-2.62-3.45-2.27-4.87
	c1.28-5.21,5.69-9.28,11.1-10.04C577.84,562.71,574.6,568.11,571.67,571.55z M577.01,549.85c-3.61-5.35-6.47-9.69-3.19-15.84
	c1.95-2.49,4.29-1.97,5.4-0.18C583.28,539.67,581.25,544.26,577.01,549.85z M590.41,569.89c-2.68,1.88-5.38,0.98-7.26-1.73
	c-2.24-3.21-3.41-6.66-1.84-12.55c3.83,2.91,6.72,4.82,9.26,7.13C593.05,564.98,593.27,567.89,590.41,569.89z M594.95,550.31
	c-3.47,3.37-8.85,3.18-13.46,2.39c0.44-5.06,4.62-7.91,8.26-9.66c1.66-0.8,4.85-0.58,6.15,0.56
	C598.24,545.63,596.87,548.45,594.95,550.31z M611.21,393.97c8.3-2.39,41.8-7.19,41.9,6.96c0.03,4.3-3.01,8.19-6.82,10.19
	c-10.35,5.46-24.63,0.35-35.4-1.22c-9.29-1.36-27.6-2.47-35.63,3.67C586.18,405.24,598.02,397.77,611.21,393.97z M632.26,434.18
	c9.73,3.98,40.36,14.86,34.92,28.99c-2.18,5.65-8.53,9.02-14.58,8.73c-15.27-0.74-23.73-20.14-34.6-28.67
	c-12.42-9.75-27.63-16.25-43.4-17.73C594.15,423.63,614.1,426.75,632.26,434.18z M601.28,478.68c0.14,3.76-0.91,7.73-3.62,10.34
	c-2.71,2.61-7.29,3.42-10.32,1.19c-5.84-4.29-2.29-19.39-3.77-26.22c-1.36-6.29-7.23-21.55-15.12-22.6
	C588.02,443.98,600.59,459.71,601.28,478.68z M557.14,549.7c0.62-3.18,3.21-3.92,5.83-3.6c4.5,0.55,7.65,3.32,10.73,7
	c-4.6,2.93-8.73,3.01-12.96,1.63C558.43,553.98,556.59,552.52,557.14,549.7z"/>
</svg>
